<?xml version="1.0" encoding="UTF-8"?>
<svg id="Layer_2" xmlns="http://www.w3.org/2000/svg" viewBox="0 0 2028.04 2635.69">
  <defs>
    <style>
      .cls-1 {
        fill: #b55c36;
        fill-rule: evenodd;
      }
    </style>
  </defs>
  <g id="Layer_1-2" data-name="Layer_1">
    <path class="cls-1" d="M1130.78,1273.34c47.22-5.78,90.16,27.8,95.94,75.01,5.78,47.22-27.81,90.17-75.01,95.95-47.22,5.78-90.16-27.81-95.95-75.02-5.79-47.21,27.8-90.16,75.02-95.94ZM1397.6,0c-195.44,814.12,547.41,1072.78,622.66,1701.64,51.95,434.18-162.15,758.02-467.31,934.05,61.3-216.34-1.15-615.69-193.75-804.18,159.09-135.96,267.77-219.7,310.76-319.16,45.69-105.67,15.63-128.9-57.07-198.95-192.25-185.22-388.3-250.3-588.16-195.26-56.84-138.23-152.75-223.38-287.76-255.48-71.44,112.85-81.32,210.81,27.36,399.01-259.66,116.65-572.4,649.98-446.55,1250.39C-402.2,1703.32,162.16,274.26,1397.6,0Z"/>
  </g>
</svg>