<?xml version="1.0" encoding="UTF-8"?>
<svg id="Layer_2" xmlns="http://www.w3.org/2000/svg" xmlns:xlink="http://www.w3.org/1999/xlink" viewBox="0 0 1934.61 1899.85">
  <defs>
    <style>
      .cls-1 {
        fill: #231f20;
      }

      .cls-2 {
        fill: none;
      }

      .cls-3 {
        clip-path: url(#clippath);
      }

      .cls-4 {
        fill: #0c0c0c;
      }
    </style>
    <clipPath id="clippath">
      <path class="cls-2" d="M1233.35,1453.26c26.84,134.13,34.72,150.93-102.07,150.93s-127.34,17.39-127.34-119.4c0-79.21,4.26-108.1,32.09-123.59,20.23-11.26,51.77-20.44,108.78-12.35,46.7,6.63,55.49,9.32,62.94,18.72s13.56,25.53,25.6,85.68Z"/>
    </clipPath>
  </defs>
  <g id="Layer_2-2" data-name="Layer_2">
    <g>
      <path class="cls-4" d="M474.11,1899c-19.82-3.65-37.9-12.73-50.78-25.5-9.88-9.79-11.92-14.98-9.21-23.21,1.42-4.36,1.07-5.55-5.78-19.17-12.26-24.47-38.36-88.23-38.36-93.85,0-1.74-1.77-1.9-12.36-1.16-75.09,5.17-144.82,4.22-196.44-2.62l-6.23-.8-5.07,25.24c-7.94,39.35-13.53,60.34-18.79,70.48-2.61,5-4.74,10.07-4.74,11.26s-1.49,4.68-3.29,7.78c-8.59,14.66-40.55,24.35-68.64,20.83-18.34-2.3-27.12-9.01-27.12-20.76,0-6.69,4.32-15.75,9.68-20.24,13.05-10.98,40.1-19.02,58.59-17.37,12.5,1.1,22.28,3.1,27.21,5.65,2.1,1.07,4.07,1.68,4.36,1.39.68-.68,18.11-85.64,17.62-85.94-.19-.12-7.91-1.83-17.14-3.83-9.23-1.98-26.66-6.65-38.74-10.4-16.76-5.17-23.54-6.69-28.54-6.36l-6.59.45.71-6.01c.41-3.32,4.03-16.56,8.1-29.47,18.69-59.5,43.74-145.56,50.43-173.33,2.13-8.84,5.93-23.66,8.49-32.93,8.36-30.57,48.49-208.35,47.3-209.55-.26-.26-2.52,2.3-5.04,5.65-4.64,6.17-12.81,13.53-18.24,16.4-1.61.84-5.36,1.55-8.33,1.55-6.97,0-8.78-3.07-7.71-13.21,1.49-14.53,17.4-39.55,32.8-51.59l6.64-5.23-18.82-23.56c-26.02-32.51-32.12-39.35-65.92-73.77-16.26-16.56-33.41-34.64-38.12-40.16-12.5-14.66-22.85-25.21-27.79-28.28q-7.36-4.59,14.62-19.83c95.82-66.24,152.02-109.25,187.69-143.63l17.27-16.62-.71-34.03c-.39-18.72-1.36-35.64-2.13-37.57-1.39-3.52-1.45-3.52-16.17-3.62-32.96-.17-57.82-6.45-88.29-22.34-17.12-8.91-35.93-22.15-48.01-33.67-4.84-4.65-8.91-8.46-9.01-8.46-.09,0-.19,11.92-.22,26.44-.07,29.67-1.9,44.75-9.07,74.64-7.91,32.77-7.84,28.34-.29,37.16,6.07,7.07,10.33,9.4,12.07,6.55,1.39-2.26,11.21-8.33,15.37-9.53,4.03-1.16,4.74-.8,10.91,5.36,3.64,3.61,8.13,6.94,9.97,7.42,1.9.45,7.26-.39,12.59-2,13.88-4.2,15.95-3.88,23.47,3.78,3.59,3.62,7.62,6.88,9.01,7.23,1.58.42,4.78-1.22,8.81-4.59,7.88-6.49,11.04-6.58,15.66-.55,4.39,5.74,8.13,6.78,16.72,4.71,7.26-1.71,12.17-.9,12.17,2.07,0,3.23-5.68,5.79-14.95,6.72-11.2,1.16-14.46.36-19.59-4.91l-4.07-4.16-5.13,4.03c-9.07,7.21-15.07,6.4-24.02-3.19l-6.94-7.46-9.33,2.78c-15.88,4.75-20.85,3.84-30.54-5.45l-5.45-5.26-6.59,4.75c-13.36,9.62-15.5,9.45-24.47-1.88l-5.33-6.71-3.36,5.71c-4.88,8.3-14.33,16.53-21.15,18.37-7.39,2-28.79,3.13-29.76,1.58-.39-.64,2.26-9.94,5.91-20.66,8.45-24.95,9.94-32.18,13.26-65.5,1.49-15.11,4.2-34.67,6.04-43.42,7.84-38.06,9.33-57.4,9.49-125.71.17-65.37.71-73.4,7.45-107.76,2.49-12.65,14.76-36.02,25.79-49.2,12.95-15.43,28.35-29.96,39.42-37.12,4.91-3.2,10.69-7.65,12.82-9.91,2.17-2.26,8.45-6.01,14.07-8.36,9.98-4.17,33.09-10.55,38.16-10.55,2.32,0,2.2-.42-1.1-3.88-2.07-2.13-6.39-4.88-9.65-6.13-6.49-2.49-7.26-4.39-3.19-8.07,2.58-2.36,3.1-2.29,16.4,2.01,7.52,2.41,15.75,5.55,18.24,6.93,2.49,1.42,4.65,2.39,4.84,2.17.16-.19,1.29-2.26,2.45-4.55,3.36-6.59,8.91-12.55,11.72-12.55,2.32,0,2.55,1.07,2.55,11.23v11.21l21.76.64c43.55,1.26,69.12,10.62,101.56,37.12,11.11,9.07,32.51,35.38,37,45.52,14.4,32.25,19.56,52.1,24.44,93.74,1.42,12.14,3.55,30.51,4.78,40.81,2.55,21.66,2.03,60.73-1.39,105.76-1.1,14.72-2.71,41.83-3.55,60.24-1.51,33.02-1.48,33.57,1.39,41.12,1.78,4.62,5.3,10.11,8.88,13.78,3.26,3.36,5.93,7.01,5.93,8.14,0,3.07-6.17,8.59-9.65,8.59-1.68,0-6.29,1.51-10.23,3.36-11.5,5.36-22.24,4.26-30.15-3.13-3.1-2.87-4.01-3.19-4.55-1.58-.39,1.1-2.68,3.97-5.07,6.36-3.81,3.84-5.17,4.36-11.56,4.36-7.69,0-18.69-4.42-23.08-9.3-2.22-2.45-2.55-2.39-12.33,2.87-7.3,3.97-10.43,5.04-11.5,3.94-2.26-2.26,1.45-5.55,13.63-12.04,11.23-5.98,13.2-6.07,17.59-.74,2.87,3.45,11.98,7.17,17.65,7.2,4.3,0,5.26-.51,6.46-3.64,1.8-4.78,7.81-11.04,10.59-11.04,1.19,0,3.93,1.87,6.1,4.2,7.79,8.23,16.07,9.71,26.4,4.74,6.14-3,6.3-3.2,3.88-5.4-4.13-3.71-9.23-14.4-11.01-22.95-1.74-8.55-1.07-38.06,1.39-59.59,5.72-50.3,7.88-113.15,4.78-139.21-1.16-9.94-3.03-26.5-4.17-36.8-1.12-10.33-3.16-25.08-4.58-32.79-1.39-7.75-2.94-16.47-3.42-19.44-.98-6.03-12.79-38.35-17.4-47.52-3.91-7.74-19.82-28.28-28.31-36.55-7.59-7.33-25.92-21.27-31.89-24.24-25.57-12.66-47.2-17.95-77.64-18.95l-20.07-.65-.45-7-.45-6.98-2.9,5.91c-4.26,8.72-6.4,9.52-11.56,4.36-4.78-4.78-8.07-5.49-8.07-1.74,0,3.01-2.13,4.91-6.69,5.91-1.83.42-8.74,1.97-15.4,3.42-19.63,4.36-24.76,6.79-44.84,21.15-27.57,19.73-46.61,40.29-57.59,62.11-7.03,14.02-8.71,20.28-13.49,49.78-2.62,16.07-2.91,23.47-3.1,77.35-.26,63.02-.88,72.09-8.11,119.12-4.1,26.77-8.1,57.69-7.78,60.24,1.03,7.78-7.4,44.49-14.31,62.4l-3.87,10.04,3.36,1.26c2.1.81,4.2.81,5.74,0,1.32-.71,5.36-1.93,8.91-2.74,16.95-3.78,23.02-16.56,31.9-66.88,3-16.92,5-33.39,4.26-34.61-.39-.58-.93-21.83-1.22-47.16-.42-35.7-1.07-49.07-2.88-59.31-3.2-18.4-2.52-38.22,1.49-42.55,2.74-2.98,2.9-4.72,3.55-35.93.88-40.83,3.13-51.78,16.02-77.54,5.68-11.3,17.07-25.54,20.44-25.54,1,0,4.1,3.33,6.91,7.36,2.8,4.03,5.71,7.13,6.42,6.91.74-.22,1.64-4.29,2.03-9.01.74-9.59,1.64-11.65,5.74-13.17,5.98-2.19,37.81,6.01,72.77,18.76,11.91,4.36,22.08,7.91,22.66,7.91,2.07,0-5.78-7.17-17.17-15.66-6.45-4.78-11.72-9.23-11.72-9.88s1.49-2.17,3.3-3.32c2.58-1.71,5.17-1.97,12.36-1.29,23.08,2.26,43.64,7.32,55.11,13.55,4.68,2.59,8.71,4.45,8.98,4.23.22-.22-.78-3.1-2.23-6.36-3.03-6.71-2.91-10.49.36-12.52,1.74-1.1,4.91-.17,14.07,4.1,6.49,3.07,15.72,7.17,20.5,9.1,17.75,7.3,27.31,14.63,34.77,26.7,2.8,4.52,3.32,4.84,4.19,2.58.55-1.39.68-4.51.3-6.91-.78-4.61,1.22-8.36,4.45-8.36,1.03,0,2.19.77,2.55,1.74.36.97,4.17,5.39,8.43,9.88,15.24,16.01,22.08,35.45,22.21,63.02.07,15.66.32,17.73,2.33,17.73,2.64.02,6.81,10.23,9,22.07,2.1,11.4,1.81,37.07-.64,51.65-1.12,6.94-5.26,22.12-9.13,33.68-3.84,11.59-6.52,21.21-5.91,21.43.58.2.19,4.59-.93,9.72-1.1,5.17-2.65,19.31-3.45,31.48-1.17,17.4-1.94,22.44-3.62,23.76-1.49,1.16-2.55,1.26-3.55.26-2.55-2.55-1.09-49.72,1.94-63.47.64-2.93,1.03-5.49.83-5.68-.22-.2-4.81,4.84-10.23,11.2-22.15,25.99-61.46,47.1-99.04,53.17l-10.04,1.64.13,6.62c.06,3.64.58,17.46,1.19,30.74,1.03,22.76,1.26,24.31,4.36,28.02,2.59,3.1,9.78,6.49,33.61,15.82,16.69,6.52,36.96,13.88,45.07,16.34,42.39,12.85,108.02,23.73,154.57,25.63l18.11.74,10.82-13.17c5.94-7.23,13.53-17.08,16.88-21.86,7.45-10.69,54.3-91.84,66.79-115.77,9.11-17.43,24.96-54.97,27.99-66.27.9-3.33,2.13-7.23,2.74-8.72.61-1.49,1.83-6.3,2.71-10.72,2.39-12.33,8.88-31.12,13.59-39.39,4.88-8.52,14.02-18.82,21.67-24.4,6.26-4.58,13.36-5.13,15.46-1.22,4.93,9.26-3.81,40.03-22.73,79.77-5.13,10.82-9.36,20.21-9.36,20.89s.9,1.19,1.97,1.19c4.52,0,17.5,6.01,22.27,10.33,9.82,8.84,9.53,20.02-.74,29.38-8.11,7.39-17.24,10.45-30.87,10.4-11.84-.07-19.27-2.01-25.59-6.72l-4.2-3.13-12.04,21.69c-15.21,27.41-50.91,89.55-55.98,97.4-5.88,9.11-18.31,25.38-25.56,33.48-3.59,4.01-8.26,9.65-10.4,12.53l-3.88,5.2-22.86-.84c-43.83-1.64-95.43-9.4-139.33-20.85-17.31-4.52-51.07-16.56-68.6-24.47-6.81-3.07-12.72-5.23-13.11-4.81-.42.41.45,5.49,1.91,11.26,3.58,14.14,20.66,102.34,25.63,132.26,2.17,13.17,6.4,41.48,9.33,62.92,10.72,77.38,14.17,97.21,36.29,208.25,24.34,122.25,58.14,283.15,72.99,347.37,4.78,20.63,10.45,46.84,12.65,58.24,2.2,11.42,4.81,23.76,5.81,27.44,1,3.68,1.39,7.17.88,7.71-.49.55-4.94,1.23-9.85,1.55-22.53,1.45-33.09,2.55-33.09,3.42,0,.55.84,2.71,1.88,4.84,1.03,2.16,6.39,15.33,11.94,29.35,14.4,36.41,29.89,69.76,31.99,68.92.94-.36,11.33-.62,23.12-.55,19.18.1,22.69.49,33.48,3.71,13.75,4.13,33.45,13.27,41.87,19.47,16.95,12.5,14.11,28.69-6.07,34.93-10.01,3.1-35.83,4.62-46.16,2.74v-.02ZM522.95,1884.28c2.74-.83,5.01-2.29,5.01-3.19,0-2.52-9.14-10.82-16.76-15.27-18.79-10.94-43.93-17.73-65.73-17.73-15.01,0-15.23.07-15.23,3.07,0,6.23,6.55,16.63,13.13,20.83,9.01,5.74,20.6,10.55,30.87,12.88,10.2,2.29,40.41,1.93,48.71-.59h0ZM91.24,1853.45c20.08-4.81,28.44-11.07,28.44-21.27,0-3.49-.74-4.26-6.36-6.43-5.13-1.97-10.17-2.45-26.44-2.45-19.15,0-20.54.2-29.45,3.91-17.92,7.45-23.02,12.56-18.85,18.92,6.2,9.46,29.96,12.75,52.65,7.33h0ZM126.36,1831.27c0-1.16-.61-1.71-1.36-1.26-.74.48-1,1.42-.58,2.1,1.12,1.83,1.93,1.51,1.93-.84h0ZM373.97,1725.03c23.15-1.59,42.36-3.13,42.68-3.45.29-.29-2.2-9.46-5.59-20.37-12.26-39.64-22.66-84.88-53.62-232.63-43.1-205.77-56.95-279.3-68.44-363.43-9.07-66.6-13.27-93.11-23.5-148.57-9.3-50.49-16.79-84.39-18.59-84.39-.55,0-1.36,5.62-1.81,12.46-1.13,17.12-6.13,49.3-14.88,95.3-4.03,21.37-11.62,63.54-16.85,93.72-15.72,90.94-33.83,184.15-49.03,252.35-11.17,50.17-24.21,106.11-28.54,122.49-2.17,8.1-8.5,32.47-14.08,54.2-15.82,61.54-48.93,173.04-56.33,189.76-1.81,4.04-3.26,7.85-3.26,8.43s3.16,1.03,7.03,1.03c4.26,0,13.36,1.84,23.08,4.74,23.96,7.13,49.2,12.92,56.56,12.92,3.55,0,7.07.55,7.74,1.22,1.55,1.49,29.96,5.17,52.17,6.74,28.4,2.04,118.92.65,165.25-2.51h0ZM148.38,1269.85c10.98-8.72,18.05-22.05,21.54-40.59.55-2.93,1.71-5,2.8-5,1,0,1.84-.9,1.84-2,0-4.3-4.84-1.62-13.98,7.84-12.92,13.26-23.96,34.77-21.37,41.55,1.19,3.1,3.55,2.65,9.17-1.8h0ZM181.14,1198.85c3.55-16.6,14.11-73.28,22.21-119.16,4.88-27.64,12.43-68.89,16.76-91.72,11.01-58.04,19.53-110.05,18.24-111.35-.29-.29-5.91,5.16-12.5,12.14-13.07,13.79-24.21,23.73-49.94,44.45-39.41,31.74-128.03,95.65-141.95,102.4l-7.64,3.71,15.46,15.82c8.49,8.72,31.21,31.8,50.45,51.3,19.27,19.5,38.97,40,43.74,45.52,8.52,9.78,37.45,46.42,40.42,51.16,2.32,3.69,3.19,2.91,4.74-4.29h0ZM259.37,779.76c34.6-7.04,63.11-21.59,83.97-42.81,11.11-11.3,25.21-29.35,29.47-37.7,5.33-10.43,8.4-28.28,8.5-49.26.09-18.12-2.07-35.26-4.62-36.83-.51-.32-2.03.61-3.36,2.07-1.32,1.45-2.81,2.64-3.3,2.64s-.64-9.78-.32-21.76c.42-16.43.03-24.21-1.55-31.79-2.36-11.24-10.53-28.8-17.02-36.58l-4.26-5.13-2.84,7.13c-2.55,6.39-3.26,7.13-6.81,7.13-3.07,0-4.62-1.03-6.69-4.42-5.84-9.59-11.14-15.85-17.43-20.59-6.52-4.91-35-18.08-36.29-16.78-.39.38.19,4.13,1.29,8.32,2.42,9.17,7.82,14.69,15.66,15.92,3.39.55,7.23,2.59,10.59,5.65,5.78,5.2,7.36,8.49,6.1,12.52-1.09,3.4-3.81,2.36-10.84-4-6.84-6.2-13.72-8.55-22.12-7.55-7.3.87-9.33-.64-5.94-4.39,2.13-2.36,1.78-2.84-7-9.94-11.21-9.04-20.08-13.27-35.12-16.69-22.37-5.13-21.64-5.59-9.78,6.2,10.07,10.01,17.56,21.56,15.82,24.37-1.84,2.98-10.01.81-42.45-11.2-35.31-13.11-55.94-20.05-64.11-21.57l-4.81-.9-.88,6.33c-.49,3.45-.87,8.88-.87,12.01,0,3.52-.94,6.84-2.45,8.72-3.78,4.68-8.53,2.64-15.85-6.79-4.78-6.13-6.62-7.65-7.94-6.55-3.71,3.07-15.43,29.28-18.79,42.07-3.32,12.53-3.61,15.92-4.42,53.53-.48,22.11-1.39,41.22-1.97,42.51s-2.2,2.36-3.62,2.36c-3.32,0-3.29,4.04.17,24.76,1.45,8.82,2.68,19.27,2.68,23.21,0,8.84,2.13,13.46,11.33,24.63,23.25,28.19,72.28,54.82,113.83,61.86,17.27,2.9,47.94,2.58,64.05-.68h0ZM189.95,729.46c-1.48-.36-7.45-1.88-13.26-3.32-22.54-5.69-42.64-18.24-51.78-32.32-6.17-9.55-7.65-15.2-4.81-18.07,3.07-3.07,5.4-1.42,11.75,8.23,18.17,27.67,67.18,42.87,106.3,32.99,20.66-5.23,55.07-19.92,69.21-29.6,8.53-5.81,11.56-5.68,9.24.36-2.81,7.43-21.05,18.05-52.07,30.41-23.89,9.52-30.9,11.07-52.5,11.55-10.65.26-20.6.17-22.08-.22h0ZM261.94,591.49c-1.64-.32-4.26-2.2-5.81-4.17-2.42-3.07-2.78-5.01-2.36-13.11.39-7.91,1.1-10.3,4.2-14.4,2.07-2.69,5.49-5.79,7.62-6.88,4.68-2.42,21.11-2.72,26.05-.49,3,1.39,4.81.87,15.11-4.26,6.45-3.19,12.17-6.45,12.69-7.26.64-.87,1-.9,1-.06.03,2.03-10.62,12.62-14.94,14.84-3.88,2.01-4.74,3.81-2.49,5.2,1.58.98,25.34-8.2,28.5-11.01,1.29-1.16,2.81-1.68,3.33-1.12,1.55,1.55-9.01,9.98-18.02,14.36-4.59,2.22-10.91,4.26-14.04,4.55-3.17.26-6.04.55-6.4.61-.39.07,1.42,1.03,4.01,2.2,4.55,2,17.75,1.97,24.76-.13,1.48-.42-.32.71-4.01,2.55-8.26,4.13-17.33,5.62-22.44,3.69-3.55-1.32-4.19-1.03-8.78,4.07-6.98,7.74-19.24,12.46-27.99,10.79v.03ZM140.43,583.83c-2.17-2.17-3.52-5.45-4.13-10.04-.81-6.13-1.22-6.81-4.26-6.81-1.83,0-5.51-1.36-8.2-3.01l-4.84-3,10.33-1.36c12.31-1.58,15.37-3.64,8.91-5.91-5.93-2.07-11.88-7.94-11.88-11.75,0-1.71.26-3.1.58-3.1.29,0,4.88,2.07,10.14,4.62,8.74,4.17,10.4,4.52,18.53,3.91,14.53-1.1,20.31,4.17,20.31,18.5,0,6.03-.55,7.3-5.07,11.82-3.33,3.32-7.55,5.81-12.3,7.2-10.04,3-14.31,2.74-18.12-1.07h0ZM118.94,542.22c4.07-9.85,16.04-19.31,24.5-19.37,5.01-.1,3.4,2.61-3.36,5.59-3.49,1.55-10.17,6.49-14.85,10.98l-8.52,8.17,2.23-5.36ZM663.29,751.58c4.88-2.69,5.97-4.01,6.32-7.65.36-3.62-.48-5.3-4.68-9.46-5.42-5.42-17.78-10.84-24.6-10.84-4.29,0-6.49-2.94-4.26-5.72,3.07-3.8,24.47-50.81,28.37-62.27,4.91-14.36,8.65-32.41,7.04-34.02-1.45-1.45-8.62,3.98-13.78,10.43-8.52,10.69-13.5,23.83-19.98,52.75-2.23,9.94-5.52,21.07-7.3,24.76-1.78,3.68-5,11.52-7.17,17.4-2.17,5.91-4.36,11.72-4.88,12.92-1.42,3.49,6.55,11.52,13.82,13.84,9.17,2.94,23.66,1.98,31.09-2.12h0ZM168.68,845.74c.61-1.29,1.23-10.36,1.32-20.17.17-11.72.78-18.37,1.81-19.4,2.52-2.49,5.42,2.64,5.42,9.52,0,5.3-.9,9.85-5.49,27.38-.71,2.78-1.93,5.03-2.74,5.03-.87,0-1-.87-.32-2.36h0ZM126.9,830.44c.49-2.71,1.17-14.43,1.49-26.09.52-17.04,1-21.27,2.55-21.6,5.84-1.26,5.97,17.05.26,38.9-3.13,12.01-5.91,17.66-4.3,8.78h0ZM97.6,794.22c0-23.89.41-33.74,1.51-34.09,4.91-1.64,6.04,28.5,1.91,52.26-1.39,7.98-2.72,14.69-2.98,14.95-.26.22-.45-14.66-.45-33.12h0ZM323.22,814.33c-2.58-12.26-3.26-21.11-1.61-21.11.78,0,1.81.68,2.32,1.51,1.32,2.13,3.01,25.7,1.94,26.96-.49.55-1.69-2.74-2.65-7.36h0ZM420.91,638.26c.03-1.88,1.97-3.74,5.58-5.33,6.07-2.64,28.67-19.95,39.36-30.12,5.55-5.26,13.56-14.14,17.76-19.73,19.78-26.28,34.38-67.64,33.38-94.59l-.39-10.46-28.12-5.55c-88.58-17.5-148.24-40.32-193.56-74.06-65.67-48.88-88.78-104.85-70.02-169.78,20.53-71.21,92.91-142.72,183.27-181.11,42.45-18.04,97.59-31.6,146.73-36.09,9.1-.84,23.92-2.39,32.93-3.45,8.98-1.1,27.35-2.55,40.8-3.29,13.5-.71,30.55-2.04,37.9-2.94,21.86-2.71,132.01-2.2,161.32.74,84.71,8.49,159.22,24.4,212.16,45.32,53.33,21.05,101.07,55.34,129.22,92.78,8.21,10.88,20.76,34.7,24.77,46.84,8.74,26.6,7.88,66.37-2.1,96.14-18.5,55.2-66.35,101.65-142.5,138.3-62.82,30.21-146.75,51.97-239.47,62.08-43.32,4.71-57.02,5.52-103.17,6.17-25.02.36-45.49.78-45.52.9-.03.17-2.62,5.42-5.75,11.69-13.88,27.89-41.48,55.63-76.57,77-16.73,10.2-54.95,29.86-73.02,37.55-20.15,8.62-47.78,17.53-61.73,19.98-12.43,2.16-23.27,2.64-23.24,1h0ZM466.4,622.6c38.28-10.98,104.14-43.64,133.84-66.37,18.02-13.78,40.9-39.32,48.59-54.17,1.51-2.93,4-8.98,5.55-13.4l2.78-8.03,52.88-.84c50.97-.81,61.59-1.42,102.4-5.88,180.72-19.79,313.66-81,359.15-165.29,6.84-12.72,12.94-30.09,15.82-45.16,3.29-17.21,3.03-43.39-.55-58.07-17.24-70.73-92.78-132.68-198.18-162.48-65.31-18.47-131.16-28.8-209.03-32.87-49.52-2.55-160.44.13-191.99,4.65-8.03,1.16-19.21,2.1-24.83,2.1-25.69,0-95.94,15.33-131.87,28.83-20.17,7.52-50.91,22.05-66.76,31.47-30.96,18.4-66.15,48.23-88.52,75-33.41,39.97-49.45,81.93-47.1,123.06,1.03,17.76,3.39,26.7,11.56,43.62,25.05,51.74,85.12,95.59,167.35,122.16,23.14,7.45,56.01,15.59,87.45,21.63,14.59,2.81,26.79,5.39,27.15,5.71,1.19,1.23,3.2,16.53,3.2,24.64.02,24.34-12.82,61.46-30.26,87.61-6.45,9.63-27.54,32.12-39.35,41.97-3.3,2.74-5.11,4.74-4.01,4.39,1.1-.32,7.72-2.26,14.73-4.26h0Z"/>
      <g>
        <path class="cls-1" d="M469.02,163.56c-.9,0-1.69-.25-2.37-.76-.78-.59-1.17-1.31-1.17-2.17-.9-2.36-1.46-4.29-1.7-5.77-.23-1.48-1.01-5.69-2.31-12.63-1-5.25-1.66-9.47-1.99-12.66-1.74,6.45-3.6,11.91-5.6,16.38-2.3,5.18-3.8,9.23-4.48,12.16.23.45.35.89.35,1.32,0,.88-.39,1.6-1.17,2.17-.7.53-1.5.79-2.4.79-2.64,0-3.96-1.18-3.96-3.54l-.91-3.72-3.19-14.36c-1.27-4.84-3.44-11.79-6.5-20.83-.14-.43-.21-.82-.21-1.17,0-1.82,1.03-2.72,3.08-2.72,1.27,0,2.25.69,2.93,2.08.35.7,1.06,2.72,2.14,6.06,1.15,3.54,2.3,7.79,3.46,12.77l2.84,12.95c2.09-4.84,4.17-10.74,6.24-17.7,1.27-4.24,2.24-7.18,2.9-8.82,1.76-4.32,3.47-6.47,5.13-6.47,1.37,0,2.33.69,2.9,2.08.7,1.68,1.42,5.68,2.14,12.01.39,3.2,1.05,7.05,1.99,11.54l2.52,11.51c2.62-6.29,5.89-14.79,9.81-25.52.21-.59.7-2.43,1.46-5.54.57-2.29,1.26-4.06,2.08-5.33.7-1.07,1.62-1.61,2.75-1.61,1.97,0,2.96.98,2.96,2.93,0,.33-.31,1.31-.94,2.93l-1.17,3.16-1.61,5.21-8.7,21.15c-.8,2.33-2.18,5.7-4.13,10.14-.7,1.31-1.76,1.96-3.16,1.96Z"/>
        <path class="cls-1" d="M507.46,162.1c-4.41,0-7.99-1.1-10.72-3.31-2.99-2.44-4.48-5.86-4.48-10.25,0-5.08,1.23-9.33,3.69-12.77,2.68-3.75,6.25-5.62,10.72-5.62,3.24,0,5.89.55,7.94,1.64,2.52,1.35,3.78,3.42,3.78,6.21,0,1.95-1.1,3.73-3.31,5.33-.98.7-3.05,1.8-6.21,3.28l-11.19,5.3c1.09,1.62,2.46,2.84,4.09,3.66s3.53,1.23,5.7,1.23c1.35,0,2.93-.25,4.75-.76,2.3-.64,3.79-1.49,4.45-2.53.66-1.04,1.38-1.57,2.14-1.57.68,0,1.29.26,1.83.78.54.52.81,1.12.81,1.8,0,2.17-1.75,4.03-5.24,5.6-2.99,1.33-5.9,1.99-8.73,1.99ZM506.67,135.41c-2.38,0-4.37.92-5.95,2.77s-2.76,4.62-3.54,8.33l8.99-4.28c3.54-1.72,6.05-3.21,7.56-4.48-1.68-1.56-4.03-2.34-7.06-2.34Z"/>
        <path class="cls-1" d="M567.05,162.83c-1.68,0-2.63-.92-2.84-2.75l-.82-6.42c-.27-2.29-.41-4.42-.41-6.42,0-.55.03-1.47.1-2.78.07-1.31.1-2.24.1-2.78,0-4.22-.78-6.33-2.34-6.33-2.19,0-4.28,1.3-6.27,3.9-1.8,2.36-3.2,5.35-4.22,8.96-.04.76-.13,1.72-.26,2.87-.12.98-.18,1.92-.18,2.84,0,.59.06,1.46.18,2.64s.18,2.05.18,2.64c0,.88-.27,1.59-.81,2.14s-1.23.82-2.07.82-1.55-.27-2.08-.82-.79-1.26-.79-2.14c0-.59-.06-1.46-.19-2.64s-.19-2.05-.19-2.64c0-2.01.14-4.8.42-8.36.28-3.56.42-6.35.42-8.36,0-.62-.03-1.55-.1-2.78s-.1-2.16-.1-2.78c0-.84.28-1.53.83-2.07.56-.54,1.25-.81,2.07-.81,1.8,0,2.78,1.27,2.96,3.81l.09,3.43c3.28-4.38,6.65-6.56,10.11-6.56,3.12,0,5.3,1.38,6.53,4.13.84,1.84,1.3,4.55,1.38,8.14v2.96l-.03,2.72c0,1.62.21,3.72.63,6.28.42,2.57.63,4.65.63,6.25,0,.86-.28,1.56-.83,2.09s-1.25.81-2.09.81Z"/>
        <path class="cls-1" d="M589.67,162.1c-4.41,0-7.99-1.1-10.72-3.31-2.99-2.44-4.48-5.86-4.48-10.25,0-5.08,1.23-9.33,3.69-12.77,2.68-3.75,6.25-5.62,10.72-5.62,3.24,0,5.89.55,7.94,1.64,2.52,1.35,3.78,3.42,3.78,6.21,0,1.95-1.1,3.73-3.31,5.33-.98.7-3.05,1.8-6.21,3.28l-11.19,5.3c1.09,1.62,2.46,2.84,4.09,3.66s3.53,1.23,5.7,1.23c1.35,0,2.93-.25,4.75-.76,2.3-.64,3.79-1.49,4.45-2.53.66-1.04,1.38-1.57,2.14-1.57.68,0,1.29.26,1.83.78.54.52.81,1.12.81,1.8,0,2.17-1.75,4.03-5.24,5.6-2.99,1.33-5.9,1.99-8.73,1.99ZM588.88,135.41c-2.38,0-4.37.92-5.95,2.77s-2.76,4.62-3.54,8.33l8.99-4.28c3.54-1.72,6.05-3.21,7.56-4.48-1.68-1.56-4.03-2.34-7.06-2.34Z"/>
        <path class="cls-1" d="M622.54,162.1c-4.41,0-7.99-1.1-10.72-3.31-2.99-2.44-4.48-5.86-4.48-10.25,0-5.08,1.23-9.33,3.69-12.77,2.68-3.75,6.25-5.62,10.72-5.62,3.24,0,5.89.55,7.94,1.64,2.52,1.35,3.78,3.42,3.78,6.21,0,1.95-1.1,3.73-3.31,5.33-.98.7-3.05,1.8-6.21,3.28l-11.19,5.3c1.09,1.62,2.46,2.84,4.09,3.66s3.53,1.23,5.7,1.23c1.35,0,2.93-.25,4.75-.76,2.3-.64,3.79-1.49,4.45-2.53.66-1.04,1.38-1.57,2.14-1.57.68,0,1.29.26,1.83.78.54.52.81,1.12.81,1.8,0,2.17-1.75,4.03-5.24,5.6-2.99,1.33-5.9,1.99-8.73,1.99ZM621.75,135.41c-2.38,0-4.37.92-5.95,2.77s-2.76,4.62-3.54,8.33l8.99-4.28c3.54-1.72,6.05-3.21,7.56-4.48-1.68-1.56-4.03-2.34-7.06-2.34Z"/>
        <path class="cls-1" d="M668.71,134.88c-.23,2.87-.35,5.74-.35,8.61,0,6.5.3,11.42.91,14.74.04.27.06.5.06.67,0,.78-.27,1.43-.82,1.93s-1.18.76-1.9.76c-1.21,0-2.1-.88-2.67-2.64-1.41,1.04-2.87,1.82-4.38,2.34s-3.09.79-4.73.79c-4.04,0-7.39-1.35-10.05-4.04-2.73-2.75-4.1-6.29-4.1-10.61,0-5.21,1.38-9.39,4.15-12.54,2.76-3.14,6.35-4.72,10.77-4.72,2.27,0,4.01.35,5.24,1.05l2.75,2.02c.27-8.22.6-13.76.97-16.61.25-1.74,1.14-2.61,2.67-2.61,1.78,0,2.67.95,2.67,2.84,0,2.71-.39,8.71-1.17,17.99ZM655.7,135.64c-3.28,0-5.74.97-7.38,2.92-1.64,1.94-2.46,4.87-2.46,8.77,0,2.52.89,4.69,2.68,6.5s3.88,2.72,6.28,2.72c1.64,0,3.03-.3,4.16-.91.66-.35,1.75-1.16,3.25-2.43.29-.25.58-.56.85-.91l-.09-5.07.03-3.4.06-3.46c-.74-1.58-1.73-2.77-2.96-3.56s-2.71-1.19-4.42-1.19Z"/>
        <path class="cls-1" d="M717.78,162.69c-.37,0-1.04-.43-2.02-1.29-.88-.8-1.53-1.51-1.96-2.14-1.88,1.02-3.53,1.78-4.95,2.3s-2.62.78-3.57.78c-4.57,0-7.9-1.29-9.99-3.87-1.97-2.42-2.96-6.13-2.96-11.13,0-4.73,1.63-8.77,4.88-12.13,3.25-3.36,7.13-5.04,11.65-5.04,1.7,0,3.6.44,5.71,1.32,2.66,1.09,3.98,2.41,3.98,3.96,0,.53-.2,1-.59,1.41-.2.74-.35,1.96-.45,3.66s-.17,3.88-.19,6.53c-.02,2.42.15,4.34.5,5.74.2.86.81,2.58,1.85,5.16.14.35.36.87.67,1.55l.18.5c0,.78-.27,1.43-.82,1.93s-1.18.76-1.9.76ZM711.69,142.32c0-.84.05-1.75.16-2.74.11-.99.27-2.04.48-3.15-.72-.37-1.34-.64-1.86-.82s-.93-.26-1.25-.26c-3.03,0-5.64,1.24-7.84,3.71-2.2,2.47-3.3,5.32-3.3,8.54s.57,5.61,1.7,7.21c1.13,1.6,2.83,2.4,5.1,2.4,1.88,0,3.47-.34,4.78-1.03.7-.37,1.69-1.11,2.96-2.23-.62-5.17-.94-9.05-.94-11.63Z"/>
        <path class="cls-1" d="M766.33,139.1c-.14,2.44-1.11,3.66-2.93,3.66-1.68,0-2.52-.97-2.52-2.9,0-.37-.03-1.05-.09-2.05l-.09-2.46c-3.09.37-5.56,1.24-7.41,2.61-1.74,1.27-3.18,3.18-4.34,5.74l.06,16.05c0,1.97-.97,2.96-2.9,2.96-1.72,0-2.58-.99-2.58-2.96v-20.57c0-.64.02-1.61.07-2.9s.07-2.26.07-2.9c0-1.97.86-2.96,2.58-2.96,1.91,0,2.88,1.62,2.9,4.86,3.75-3.61,7.91-5.42,12.48-5.42,1.58,0,2.76.6,3.54,1.79.78,1.19,1.17,2.99,1.17,5.39,0,1.02,0,1.7-.03,2.05Z"/>
        <path class="cls-1" d="M786.04,162.1c-4.41,0-7.99-1.1-10.72-3.31-2.99-2.44-4.48-5.86-4.48-10.25,0-5.08,1.23-9.33,3.69-12.77,2.68-3.75,6.25-5.62,10.72-5.62,3.24,0,5.89.55,7.94,1.64,2.52,1.35,3.78,3.42,3.78,6.21,0,1.95-1.1,3.73-3.31,5.33-.98.7-3.05,1.8-6.21,3.28l-11.19,5.3c1.09,1.62,2.46,2.84,4.09,3.66s3.53,1.23,5.7,1.23c1.35,0,2.93-.25,4.75-.76,2.3-.64,3.79-1.49,4.45-2.53.66-1.04,1.38-1.57,2.14-1.57.68,0,1.29.26,1.83.78.54.52.81,1.12.81,1.8,0,2.17-1.75,4.03-5.24,5.6-2.99,1.33-5.9,1.99-8.73,1.99ZM785.25,135.41c-2.38,0-4.37.92-5.95,2.77s-2.76,4.62-3.54,8.33l8.99-4.28c3.54-1.72,6.05-3.21,7.56-4.48-1.68-1.56-4.03-2.34-7.06-2.34Z"/>
        <path class="cls-1" d="M817.68,161.78c-1.95,0-4.1-.31-6.45-.94l-.06,14c0,.86-.27,1.56-.81,2.11s-1.23.82-2.07.82-1.53-.27-2.07-.82-.81-1.25-.81-2.11l.09-11.72v-11.69c-.06-4.28-.21-8.17-.44-11.69l-.44-5.95c0-1.39.25-2.56.76-3.52.59-1.15,1.44-1.73,2.55-1.73.76,0,1.4.27,1.92.81.52.54.78,1.2.78,1.98,0,.18-.03.5-.09.97-.1.61-.17,1.16-.21,1.67,1.68-1.15,3.3-2.02,4.86-2.59,1.56-.58,3.06-.86,4.48-.86,4,0,6.93,1.78,8.79,5.33,1.46,2.81,2.2,6.53,2.2,11.16,0,4.22-1.13,7.7-3.4,10.43-2.4,2.89-5.61,4.34-9.61,4.34ZM819.71,136.38c-1.8,0-3.42.4-4.86,1.2-1.04.57-2.34,1.6-3.93,3.11.25,4.43.38,9.09.38,13.97,2.13.82,4.26,1.23,6.39,1.23,2.44,0,4.31-.91,5.6-2.72,1.11-1.58,1.67-3.63,1.67-6.15,0-3.55-.43-6.21-1.3-7.98-.87-1.77-2.18-2.65-3.94-2.65Z"/>
        <path class="cls-1" d="M848.3,162.48c-3.28,0-6.1-1.21-8.47-3.63-2.64-2.7-4.02-6.32-4.16-10.87-.12-4.41,1-8.3,3.34-11.66,2.73-3.96,6.54-5.95,11.43-5.95,3.91,0,6.87,1.79,8.88,5.36,1.6,2.89,2.37,6.37,2.31,10.43-.06,4.34-1.19,8.04-3.4,11.1-2.5,3.48-5.81,5.21-9.93,5.21ZM850.06,136.32c-2.87-.02-5.11,1.35-6.71,4.1-1.27,2.21-1.9,4.73-1.9,7.56s.77,5.04,2.31,6.62c1.29,1.31,2.8,1.96,4.54,1.96,2.03,0,3.78-.74,5.24-2.23,1.66-1.64,2.54-3.86,2.64-6.65.27-7.56-1.77-11.35-6.12-11.37Z"/>
        <path class="cls-1" d="M891.66,139.1c-.14,2.44-1.11,3.66-2.93,3.66-1.68,0-2.52-.97-2.52-2.9,0-.37-.03-1.05-.09-2.05l-.09-2.46c-3.09.37-5.56,1.24-7.41,2.61-1.74,1.27-3.18,3.18-4.34,5.74l.06,16.05c0,1.97-.97,2.96-2.9,2.96-1.72,0-2.58-.99-2.58-2.96v-20.57c0-.64.02-1.61.07-2.9s.07-2.26.07-2.9c0-1.97.86-2.96,2.58-2.96,1.91,0,2.88,1.62,2.9,4.86,3.75-3.61,7.91-5.42,12.48-5.42,1.58,0,2.76.6,3.54,1.79.78,1.19,1.17,2.99,1.17,5.39,0,1.02,0,1.7-.03,2.05Z"/>
        <path class="cls-1" d="M917.29,135.79c-.41,0-.89-.02-1.45-.06-.56-.04-1.04-.06-1.45-.06-.45,0-1.78.15-3.98.44l.56,17.31.03,1.29.03,1.49c.08,4.28-.95,6.42-3.08,6.42-.78,0-1.46-.25-2.04-.76s-.86-1.14-.86-1.9.03-1.86.09-3.34c.06-1.48.09-2.6.09-3.34l-.59-17.11c-1.43-.06-3.59-.22-6.5-.5-1.74-.23-2.61-1.2-2.61-2.9,0-.86.26-1.57.79-2.14.53-.57,1.2-.85,2.02-.85l6.15.5c0-1-.04-2.33-.13-4s-.13-2.88-.13-3.62c0-.82.28-1.5.85-2.04.57-.54,1.26-.81,2.08-.81,1.76,0,2.78,1.44,3.08,4.31.06.72.09,1.59.09,2.61l-.06,1.7-.03,1.82c2.42-.31,3.81-.47,4.16-.47,2.03,0,3.36.1,3.98.29,1.19.39,1.79,1.31,1.79,2.75,0,.86-.27,1.57-.81,2.12s-1.23.83-2.07.83Z"/>
        <path class="cls-1" d="M954.88,162.48c-3.28,0-6.1-1.21-8.47-3.63-2.64-2.7-4.02-6.32-4.16-10.87-.12-4.41,1-8.3,3.34-11.66,2.73-3.96,6.54-5.95,11.43-5.95,3.91,0,6.87,1.79,8.88,5.36,1.6,2.89,2.37,6.37,2.31,10.43-.06,4.34-1.19,8.04-3.4,11.1-2.5,3.48-5.81,5.21-9.93,5.21ZM956.64,136.32c-2.87-.02-5.11,1.35-6.71,4.1-1.27,2.21-1.9,4.73-1.9,7.56s.77,5.04,2.31,6.62c1.29,1.31,2.8,1.96,4.54,1.96,2.03,0,3.78-.74,5.24-2.23,1.66-1.64,2.54-3.86,2.64-6.65.27-7.56-1.77-11.35-6.12-11.37Z"/>
        <path class="cls-1" d="M995.14,119.56c-4.73,0-7.37,3.28-7.94,9.84l-.09,1.82c3.32-.23,5.47-.35,6.45-.35,3.11,0,4.66.98,4.66,2.93,0,1.43-.76,2.28-2.29,2.55-.66.12-1.44.16-2.33.13s-3.14.1-6.75.4l-.23,6.68c0,1.21.04,3.03.12,5.45.08,2.42.12,4.23.12,5.42,0,3.71-.21,6.6-.64,8.67-.33,1.56-1.24,2.34-2.72,2.34-.8,0-1.48-.26-2.05-.78s-.85-1.17-.85-1.95c0-.16.02-.35.06-.59.41-2.54.62-5.3.62-8.29l-.09-8v-8.5c-2.44.2-3.98.29-4.63.29-1.97,0-2.96-.95-2.96-2.84s1.71-2.95,5.13-3.05l2.81-.09c.06-1.09.21-2.58.44-4.45.51-4.34,1.6-7.53,3.28-9.58,2.03-2.48,5.21-3.72,9.52-3.72,2.79,0,4.19.95,4.19,2.84s-1.27,2.81-3.81,2.81Z"/>
        <path class="cls-1" d="M373.37,233.78c-1.95,0-4.1-.31-6.45-.94l-.06,14c0,.86-.27,1.56-.81,2.11s-1.23.82-2.07.82-1.53-.27-2.07-.82-.81-1.25-.81-2.11l.09-11.72v-11.69c-.06-4.28-.21-8.17-.44-11.69l-.44-5.95c0-1.39.25-2.56.76-3.52.59-1.15,1.44-1.73,2.55-1.73.76,0,1.4.27,1.92.81.52.54.78,1.2.78,1.98,0,.18-.03.5-.09.97-.1.61-.17,1.16-.21,1.67,1.68-1.15,3.3-2.02,4.86-2.59,1.56-.58,3.06-.86,4.48-.86,4,0,6.93,1.78,8.79,5.33,1.46,2.81,2.2,6.53,2.2,11.16,0,4.22-1.13,7.7-3.4,10.43-2.4,2.89-5.61,4.34-9.61,4.34ZM375.39,208.38c-1.8,0-3.42.4-4.86,1.2-1.04.57-2.34,1.6-3.93,3.11.25,4.43.38,9.09.38,13.97,2.13.82,4.26,1.23,6.39,1.23,2.44,0,4.31-.91,5.6-2.72,1.11-1.58,1.67-3.63,1.67-6.15,0-3.55-.43-6.21-1.3-7.98-.87-1.77-2.18-2.65-3.94-2.65Z"/>
        <path class="cls-1" d="M406.68,234.1c-4.41,0-7.99-1.1-10.72-3.31-2.99-2.44-4.48-5.86-4.48-10.25,0-5.08,1.23-9.33,3.69-12.77,2.68-3.75,6.25-5.62,10.72-5.62,3.24,0,5.89.55,7.94,1.64,2.52,1.35,3.78,3.42,3.78,6.21,0,1.95-1.1,3.73-3.31,5.33-.98.7-3.05,1.8-6.21,3.28l-11.19,5.3c1.09,1.62,2.46,2.84,4.09,3.66s3.53,1.23,5.7,1.23c1.35,0,2.93-.25,4.75-.76,2.3-.64,3.79-1.49,4.45-2.53.66-1.04,1.38-1.57,2.14-1.57.68,0,1.29.26,1.83.78.54.52.81,1.12.81,1.8,0,2.17-1.75,4.03-5.24,5.6-2.99,1.33-5.9,1.99-8.73,1.99ZM405.89,207.41c-2.38,0-4.37.92-5.95,2.77s-2.76,4.62-3.54,8.33l8.99-4.28c3.54-1.72,6.05-3.21,7.56-4.48-1.68-1.56-4.03-2.34-7.06-2.34Z"/>
        <path class="cls-1" d="M448.66,211.1c-.14,2.44-1.11,3.66-2.93,3.66-1.68,0-2.52-.97-2.52-2.9,0-.37-.03-1.05-.09-2.05l-.09-2.46c-3.09.37-5.56,1.24-7.41,2.61-1.74,1.27-3.18,3.18-4.34,5.74l.06,16.05c0,1.97-.97,2.96-2.9,2.96-1.72,0-2.58-.99-2.58-2.96v-20.57c0-.64.02-1.61.07-2.9s.07-2.26.07-2.9c0-1.97.86-2.96,2.58-2.96,1.91,0,2.88,1.62,2.9,4.86,3.75-3.61,7.91-5.42,12.48-5.42,1.58,0,2.76.6,3.54,1.79.78,1.19,1.17,2.99,1.17,5.39,0,1.02,0,1.7-.03,2.05Z"/>
        <path class="cls-1" d="M474.47,210.19c-1.07,0-1.83-.36-2.26-1.08-.29-.51-.55-1.56-.76-3.16-1.46.37-3.72,1.05-6.77,2.05-3.14,1.25-4.73,2.79-4.75,4.63.59.22,1.16.37,1.73.47,4.49.8,7.83,1.9,10.02,3.31,3.18,2.05,4.78,5.02,4.78,8.91,0,3.18-1.38,5.59-4.13,7.21-2.29,1.33-5.18,1.99-8.67,1.99-2.56,0-5-.43-7.32-1.29-3.01-1.09-4.51-2.62-4.51-4.57,0-.78.31-1.46.92-2.05s1.31-.88,2.09-.88c.61,0,1.39.47,2.34,1.41.47.45,1.52.82,3.16,1.11,1.31.23,2.41.35,3.31.35,1.64,0,3.09-.19,4.34-.59,1.82-.57,2.72-1.46,2.72-2.7,0-2.66-1.86-4.45-5.57-5.39l-3.05-.67c-2.6-.57-4.44-1.23-5.54-1.99-1.58-1.09-2.37-2.74-2.37-4.95,0-4.08,1.92-6.99,5.77-8.73,1.17-.53,3.05-1.16,5.62-1.89s4.42-1.35,5.54-1.86c.8-.35,1.67-.53,2.61-.53.84,0,1.53.27,2.07.82.54.55.81,1.26.81,2.14,0,.57.12,1.4.37,2.49.24,1.09.37,1.92.37,2.49,0,.88-.27,1.59-.81,2.14-.54.55-1.23.82-2.07.82Z"/>
        <path class="cls-1" d="M494.89,234.48c-3.28,0-6.1-1.21-8.47-3.63-2.64-2.7-4.02-6.32-4.16-10.87-.12-4.41,1-8.3,3.34-11.66,2.73-3.96,6.54-5.95,11.43-5.95,3.91,0,6.87,1.79,8.88,5.36,1.6,2.89,2.37,6.37,2.31,10.43-.06,4.34-1.19,8.04-3.4,11.1-2.5,3.48-5.81,5.21-9.93,5.21ZM496.65,208.32c-2.87-.02-5.11,1.35-6.71,4.1-1.27,2.21-1.9,4.73-1.9,7.56s.77,5.04,2.31,6.62c1.29,1.31,2.8,1.96,4.54,1.96,2.03,0,3.78-.74,5.24-2.23,1.66-1.64,2.54-3.86,2.64-6.65.27-7.56-1.77-11.35-6.12-11.37Z"/>
        <path class="cls-1" d="M537.93,234.83c-1.68,0-2.63-.92-2.84-2.75l-.82-6.42c-.27-2.29-.41-4.42-.41-6.42,0-.55.03-1.47.1-2.78.07-1.31.1-2.24.1-2.78,0-4.22-.78-6.33-2.34-6.33-2.19,0-4.28,1.3-6.27,3.9-1.8,2.36-3.2,5.35-4.22,8.96-.04.76-.13,1.72-.26,2.87-.12.98-.18,1.92-.18,2.84,0,.59.06,1.46.18,2.64s.18,2.05.18,2.64c0,.88-.27,1.59-.81,2.14s-1.23.82-2.07.82-1.55-.27-2.08-.82-.79-1.26-.79-2.14c0-.59-.06-1.46-.19-2.64s-.19-2.05-.19-2.64c0-2.01.14-4.8.42-8.36.28-3.56.42-6.35.42-8.36,0-.62-.03-1.55-.1-2.78s-.1-2.16-.1-2.78c0-.84.28-1.53.83-2.07.56-.54,1.25-.81,2.07-.81,1.8,0,2.78,1.27,2.96,3.81l.09,3.43c3.28-4.38,6.65-6.56,10.11-6.56,3.12,0,5.3,1.38,6.53,4.13.84,1.84,1.3,4.55,1.38,8.14v2.96l-.03,2.72c0,1.62.21,3.72.63,6.28.42,2.57.63,4.65.63,6.25,0,.86-.28,1.56-.83,2.09s-1.25.81-2.09.81Z"/>
        <path class="cls-1" d="M569.75,234.69c-.37,0-1.04-.43-2.02-1.29-.88-.8-1.53-1.51-1.96-2.14-1.88,1.02-3.53,1.78-4.95,2.3s-2.62.78-3.57.78c-4.57,0-7.9-1.29-9.99-3.87-1.97-2.42-2.96-6.13-2.96-11.13,0-4.73,1.63-8.77,4.88-12.13,3.25-3.36,7.13-5.04,11.65-5.04,1.7,0,3.6.44,5.71,1.32,2.66,1.09,3.98,2.41,3.98,3.96,0,.53-.2,1-.59,1.41-.2.74-.35,1.96-.45,3.66s-.17,3.88-.19,6.53c-.02,2.42.15,4.34.5,5.74.2.86.81,2.58,1.85,5.16.14.35.36.87.67,1.55l.18.5c0,.78-.27,1.43-.82,1.93s-1.18.76-1.9.76ZM563.65,214.32c0-.84.05-1.75.16-2.74.11-.99.27-2.04.48-3.15-.72-.37-1.34-.64-1.86-.82s-.93-.26-1.25-.26c-3.03,0-5.64,1.24-7.84,3.71-2.2,2.47-3.3,5.32-3.3,8.54s.57,5.61,1.7,7.21c1.13,1.6,2.83,2.4,5.1,2.4,1.88,0,3.47-.34,4.78-1.03.7-.37,1.69-1.11,2.96-2.23-.62-5.17-.94-9.05-.94-11.63Z"/>
        <path class="cls-1" d="M585.01,209.72l-.44,14.56c0,1.54-.08,3.81-.23,6.8-.2,1.95-1.15,2.93-2.87,2.93-1.91,0-2.87-1-2.87-2.99,0-2.36.11-5.91.32-10.65.21-4.74.32-8.29.32-10.65,0-3.09.05-6.62.15-10.59.1-3.97.15-7.5.15-10.59,0-1.95.96-2.93,2.87-2.93s2.9.98,2.9,2.93c0,3.09-.05,6.62-.15,10.59-.1,3.97-.15,7.5-.15,10.59Z"/>
        <path class="cls-1" d="M635.84,215.64c0,1.41,0,3.52.03,6.33s.03,4.92.03,6.33c0,.43.03,1.08.1,1.96s.1,1.53.1,1.96c0,.84-.28,1.53-.85,2.07s-1.26.81-2.08.81c-1.5,0-2.46-.93-2.87-2.78-2.44,1.27-5.25,1.9-8.44,1.9-2.56,0-4.68-.57-6.36-1.7-1.86-1.25-2.96-3.08-3.31-5.48-.76-5.17-1.14-9.79-1.14-13.83,0-2.68.29-5.72.88-9.14.27-1.7,1.2-2.55,2.78-2.55.84,0,1.54.27,2.11.81.57.54.85,1.23.85,2.07,0,.9-.14,2.33-.42,4.31-.28,1.97-.42,3.48-.42,4.51,0,3.26.11,6.05.32,8.38.21,2.33.54,4.19.97,5.6.64.35,1.28.62,1.9.81.62.19,1.24.28,1.85.28,2.62,0,5.38-.42,8.29-1.26l-.03-5.95-.06-5.68c0-4.22.19-7.88.56-10.99.21-1.8,1.16-2.7,2.84-2.7.84,0,1.54.27,2.11.82.57.55.83,1.23.79,2.05l-.53,11.07Z"/>
        <path class="cls-1" d="M662.91,210.19c-1.07,0-1.83-.36-2.26-1.08-.29-.51-.55-1.56-.76-3.16-1.46.37-3.72,1.05-6.77,2.05-3.14,1.25-4.73,2.79-4.75,4.63.59.22,1.16.37,1.73.47,4.49.8,7.83,1.9,10.02,3.31,3.18,2.05,4.78,5.02,4.78,8.91,0,3.18-1.38,5.59-4.13,7.21-2.29,1.33-5.18,1.99-8.67,1.99-2.56,0-5-.43-7.32-1.29-3.01-1.09-4.51-2.62-4.51-4.57,0-.78.31-1.46.92-2.05s1.31-.88,2.09-.88c.61,0,1.39.47,2.34,1.41.47.45,1.52.82,3.16,1.11,1.31.23,2.41.35,3.31.35,1.64,0,3.09-.19,4.34-.59,1.82-.57,2.72-1.46,2.72-2.7,0-2.66-1.86-4.45-5.57-5.39l-3.05-.67c-2.6-.57-4.44-1.23-5.54-1.99-1.58-1.09-2.37-2.74-2.37-4.95,0-4.08,1.92-6.99,5.77-8.73,1.17-.53,3.05-1.16,5.62-1.89s4.42-1.35,5.54-1.86c.8-.35,1.67-.53,2.61-.53.84,0,1.53.27,2.07.82.54.55.81,1.26.81,2.14,0,.57.12,1.4.37,2.49.24,1.09.37,1.92.37,2.49,0,.88-.27,1.59-.81,2.14-.54.55-1.23.82-2.07.82Z"/>
        <path class="cls-1" d="M686.02,234.1c-4.41,0-7.99-1.1-10.72-3.31-2.99-2.44-4.48-5.86-4.48-10.25,0-5.08,1.23-9.33,3.69-12.77,2.68-3.75,6.25-5.62,10.72-5.62,3.24,0,5.89.55,7.94,1.64,2.52,1.35,3.78,3.42,3.78,6.21,0,1.95-1.1,3.73-3.31,5.33-.98.7-3.05,1.8-6.21,3.28l-11.19,5.3c1.09,1.62,2.46,2.84,4.09,3.66s3.53,1.23,5.7,1.23c1.35,0,2.93-.25,4.75-.76,2.3-.64,3.79-1.49,4.45-2.53.66-1.04,1.38-1.57,2.14-1.57.68,0,1.29.26,1.83.78.54.52.81,1.12.81,1.8,0,2.17-1.75,4.03-5.24,5.6-2.99,1.33-5.9,1.99-8.73,1.99ZM685.23,207.41c-2.38,0-4.37.92-5.95,2.77s-2.76,4.62-3.54,8.33l8.99-4.28c3.54-1.72,6.05-3.21,7.56-4.48-1.68-1.56-4.03-2.34-7.06-2.34Z"/>
        <path class="cls-1" d="M728.01,211.1c-.14,2.44-1.11,3.66-2.93,3.66-1.68,0-2.52-.97-2.52-2.9,0-.37-.03-1.05-.09-2.05l-.09-2.46c-3.09.37-5.56,1.24-7.41,2.61-1.74,1.27-3.18,3.18-4.34,5.74l.06,16.05c0,1.97-.97,2.96-2.9,2.96-1.72,0-2.58-.99-2.58-2.96v-20.57c0-.64.02-1.61.07-2.9s.07-2.26.07-2.9c0-1.97.86-2.96,2.58-2.96,1.91,0,2.88,1.62,2.9,4.86,3.75-3.61,7.91-5.42,12.48-5.42,1.58,0,2.76.6,3.54,1.79.78,1.19,1.17,2.99,1.17,5.39,0,1.02,0,1.7-.03,2.05Z"/>
        <path class="cls-1" d="M758.89,219.45c0,1.17.03,2.93.1,5.26.07,2.33.1,4.09.1,5.26,0,.86-.26,1.56-.79,2.11-.53.55-1.22.82-2.08.82s-1.53-.27-2.07-.82c-.54-.55-.81-1.25-.81-2.11,0-1.17-.03-2.92-.1-5.26-.07-2.33-.1-4.09-.1-5.26,0-1.83.1-4.13.29-6.87.2-2.74.29-5.03.29-6.87,0-.88.27-1.59.81-2.14.54-.55,1.23-.82,2.07-.82s1.53.27,2.07.82c.54.55.81,1.26.81,2.14,0,1.84-.1,4.13-.29,6.87-.2,2.74-.29,5.04-.29,6.87ZM757.57,195.66c-.94,0-1.75-.33-2.43-1-.68-.66-1.03-1.46-1.03-2.4s.34-1.74,1.03-2.4c.68-.66,1.49-1,2.43-1s1.74.33,2.42,1c.67.66,1.01,1.46,1.01,2.4s-.34,1.74-1.01,2.4c-.67.66-1.48,1-2.42,1Z"/>
        <path class="cls-1" d="M791.26,234.83c-1.68,0-2.63-.92-2.84-2.75l-.82-6.42c-.27-2.29-.41-4.42-.41-6.42,0-.55.03-1.47.1-2.78.07-1.31.1-2.24.1-2.78,0-4.22-.78-6.33-2.34-6.33-2.19,0-4.28,1.3-6.27,3.9-1.8,2.36-3.2,5.35-4.22,8.96-.04.76-.13,1.72-.26,2.87-.12.98-.18,1.92-.18,2.84,0,.59.06,1.46.18,2.64s.18,2.05.18,2.64c0,.88-.27,1.59-.81,2.14s-1.23.82-2.07.82-1.55-.27-2.08-.82-.79-1.26-.79-2.14c0-.59-.06-1.46-.19-2.64s-.19-2.05-.19-2.64c0-2.01.14-4.8.42-8.36.28-3.56.42-6.35.42-8.36,0-.62-.03-1.55-.1-2.78s-.1-2.16-.1-2.78c0-.84.28-1.53.83-2.07.56-.54,1.25-.81,2.07-.81,1.8,0,2.78,1.27,2.96,3.81l.09,3.43c3.28-4.38,6.65-6.56,10.11-6.56,3.12,0,5.3,1.38,6.53,4.13.84,1.84,1.3,4.55,1.38,8.14v2.96l-.03,2.72c0,1.62.21,3.72.63,6.28.42,2.57.63,4.65.63,6.25,0,.86-.28,1.56-.83,2.09s-1.25.81-2.09.81Z"/>
        <path class="cls-1" d="M819.88,191.56c-4.73,0-7.37,3.28-7.94,9.84l-.09,1.82c3.32-.23,5.47-.35,6.45-.35,3.11,0,4.66.98,4.66,2.93,0,1.43-.76,2.28-2.29,2.55-.66.12-1.44.16-2.33.13s-3.14.1-6.75.4l-.23,6.68c0,1.21.04,3.03.12,5.45.08,2.42.12,4.23.12,5.42,0,3.71-.21,6.6-.64,8.67-.33,1.56-1.24,2.34-2.72,2.34-.8,0-1.48-.26-2.05-.78s-.85-1.17-.85-1.95c0-.16.02-.35.06-.59.41-2.54.62-5.3.62-8.29l-.09-8v-8.5c-2.44.2-3.98.29-4.63.29-1.97,0-2.96-.95-2.96-2.84s1.71-2.95,5.13-3.05l2.81-.09c.06-1.09.21-2.58.44-4.45.51-4.34,1.6-7.53,3.28-9.58,2.03-2.48,5.21-3.72,9.52-3.72,2.79,0,4.19.95,4.19,2.84s-1.27,2.81-3.81,2.81Z"/>
        <path class="cls-1" d="M841.68,234.48c-3.28,0-6.1-1.21-8.47-3.63-2.64-2.7-4.02-6.32-4.16-10.87-.12-4.41,1-8.3,3.34-11.66,2.73-3.96,6.54-5.95,11.43-5.95,3.91,0,6.87,1.79,8.88,5.36,1.6,2.89,2.37,6.37,2.31,10.43-.06,4.34-1.19,8.04-3.4,11.1-2.5,3.48-5.81,5.21-9.93,5.21ZM843.44,208.32c-2.87-.02-5.11,1.35-6.71,4.1-1.27,2.21-1.9,4.73-1.9,7.56s.77,5.04,2.31,6.62c1.29,1.31,2.8,1.96,4.54,1.96,2.03,0,3.78-.74,5.24-2.23,1.66-1.64,2.54-3.86,2.64-6.65.27-7.56-1.77-11.35-6.12-11.37Z"/>
        <path class="cls-1" d="M885.04,211.1c-.14,2.44-1.11,3.66-2.93,3.66-1.68,0-2.52-.97-2.52-2.9,0-.37-.03-1.05-.09-2.05l-.09-2.46c-3.09.37-5.56,1.24-7.41,2.61-1.74,1.27-3.18,3.18-4.34,5.74l.06,16.05c0,1.97-.97,2.96-2.9,2.96-1.72,0-2.58-.99-2.58-2.96v-20.57c0-.64.02-1.61.07-2.9s.07-2.26.07-2.9c0-1.97.86-2.96,2.58-2.96,1.91,0,2.88,1.62,2.9,4.86,3.75-3.61,7.91-5.42,12.48-5.42,1.58,0,2.76.6,3.54,1.79.78,1.19,1.17,2.99,1.17,5.39,0,1.02,0,1.7-.03,2.05Z"/>
        <path class="cls-1" d="M928.28,235.18c-1.6,0-2.54-.85-2.81-2.55-.35-2.15-.7-5.17-1.05-9.08l-1-9.08c-.2-1.35-.53-2.67-1-3.96-.66-1.76-1.39-2.64-2.17-2.64-.72,0-2.07.62-4.04,1.85-1.88,1.13-3.11,2.04-3.69,2.72-.02,1.84.03,3.67.15,5.51l.88,7.82c.37,3.09.56,5.64.56,7.65,0,.86-.27,1.57-.81,2.12s-1.23.83-2.07.83-1.53-.28-2.07-.83-.81-1.26-.81-2.12c0-2.36-.24-5.85-.72-10.47-.48-4.62-.72-8.11-.72-10.47,0-2.07-.29-3.68-.88-4.83-1.37.63-2.75,1.64-4.16,3.05l-3.46,3.87c-.31.47-.81,1.08-1.49,1.85,0,1.17-.11,2.9-.32,5.19s-.32,3.97-.32,5.07c0,.59.09,1.41.28,2.46s.28,1.82.28,2.29c0,.8-.3,1.47-.89,2.02s-1.29.82-2.09.82c-2.21,0-3.31-2.51-3.31-7.53,0-1.17.11-2.92.32-5.24.21-2.32.32-4.07.32-5.24,0-1.04-.09-2.59-.28-4.66-.19-2.07-.28-3.63-.28-4.69,0-4.43,1-6.65,2.99-6.65.76,0,1.46.33,2.09,1,.63.66.95,1.39.95,2.17,0,.37-.05.95-.15,1.73-.1.78-.15,1.38-.15,1.79l.06,3.08c1.02-2.09,2.51-3.98,4.48-5.67,1.97-1.69,3.65-2.53,5.04-2.53,3.07,0,5.18,1.52,6.33,4.57,1.07-1.42,2.35-2.49,3.84-3.21,1.48-.71,3.18-1.07,5.1-1.07,3.26,0,5.49,1.76,6.68,5.27.23.7.63,3.45,1.2,8.23.55,3.36,1.25,8.96,2.11,16.79.06.78-.21,1.45-.79,1.99s-1.3.82-2.14.82Z"/>
        <path class="cls-1" d="M960.57,234.69c-.37,0-1.04-.43-2.02-1.29-.88-.8-1.53-1.51-1.96-2.14-1.88,1.02-3.53,1.78-4.95,2.3s-2.62.78-3.57.78c-4.57,0-7.9-1.29-9.99-3.87-1.97-2.42-2.96-6.13-2.96-11.13,0-4.73,1.63-8.77,4.88-12.13,3.25-3.36,7.13-5.04,11.65-5.04,1.7,0,3.6.44,5.71,1.32,2.66,1.09,3.98,2.41,3.98,3.96,0,.53-.2,1-.59,1.41-.2.74-.35,1.96-.45,3.66s-.17,3.88-.19,6.53c-.02,2.42.15,4.34.5,5.74.2.86.81,2.58,1.85,5.16.14.35.36.87.67,1.55l.18.5c0,.78-.27,1.43-.82,1.93s-1.18.76-1.9.76ZM954.47,214.32c0-.84.05-1.75.16-2.74.11-.99.27-2.04.48-3.15-.72-.37-1.34-.64-1.86-.82s-.93-.26-1.25-.26c-3.03,0-5.64,1.24-7.84,3.71-2.2,2.47-3.3,5.32-3.3,8.54s.57,5.61,1.7,7.21c1.13,1.6,2.83,2.4,5.1,2.4,1.88,0,3.47-.34,4.78-1.03.7-.37,1.69-1.11,2.96-2.23-.62-5.17-.94-9.05-.94-11.63Z"/>
        <path class="cls-1" d="M987.99,207.79c-.41,0-.89-.02-1.45-.06-.56-.04-1.04-.06-1.45-.06-.45,0-1.78.15-3.98.44l.56,17.31.03,1.29.03,1.49c.08,4.28-.95,6.42-3.08,6.42-.78,0-1.46-.25-2.04-.76s-.86-1.14-.86-1.9.03-1.86.09-3.34c.06-1.48.09-2.6.09-3.34l-.59-17.11c-1.43-.06-3.59-.22-6.5-.5-1.74-.23-2.61-1.2-2.61-2.9,0-.86.26-1.57.79-2.14.53-.57,1.2-.85,2.02-.85l6.15.5c0-1-.04-2.33-.13-4s-.13-2.88-.13-3.62c0-.82.28-1.5.85-2.04.57-.54,1.26-.81,2.08-.81,1.76,0,2.78,1.44,3.08,4.31.06.72.09,1.59.09,2.61l-.06,1.7-.03,1.82c2.42-.31,3.81-.47,4.16-.47,2.03,0,3.36.1,3.98.29,1.19.39,1.79,1.31,1.79,2.75,0,.86-.27,1.57-.81,2.12s-1.23.83-2.07.83Z"/>
        <path class="cls-1" d="M1003.57,219.45c0,1.17.03,2.93.1,5.26.07,2.33.1,4.09.1,5.26,0,.86-.26,1.56-.79,2.11-.53.55-1.22.82-2.08.82s-1.53-.27-2.07-.82c-.54-.55-.81-1.25-.81-2.11,0-1.17-.03-2.92-.1-5.26-.07-2.33-.1-4.09-.1-5.26,0-1.83.1-4.13.29-6.87.2-2.74.29-5.03.29-6.87,0-.88.27-1.59.81-2.14.54-.55,1.23-.82,2.07-.82s1.53.27,2.07.82c.54.55.81,1.26.81,2.14,0,1.84-.1,4.13-.29,6.87-.2,2.74-.29,5.04-.29,6.87ZM1002.26,195.66c-.94,0-1.75-.33-2.43-1-.68-.66-1.03-1.46-1.03-2.4s.34-1.74,1.03-2.4c.68-.66,1.49-1,2.43-1s1.74.33,2.42,1c.67.66,1.01,1.46,1.01,2.4s-.34,1.74-1.01,2.4c-.67.66-1.48,1-2.42,1Z"/>
        <path class="cls-1" d="M1024.46,234.48c-3.28,0-6.1-1.21-8.47-3.63-2.64-2.7-4.02-6.32-4.16-10.87-.12-4.41,1-8.3,3.34-11.66,2.73-3.96,6.54-5.95,11.43-5.95,3.91,0,6.87,1.79,8.88,5.36,1.6,2.89,2.37,6.37,2.31,10.43-.06,4.34-1.19,8.04-3.4,11.1-2.5,3.48-5.81,5.21-9.93,5.21ZM1026.22,208.32c-2.87-.02-5.11,1.35-6.71,4.1-1.27,2.21-1.9,4.73-1.9,7.56s.77,5.04,2.31,6.62c1.29,1.31,2.8,1.96,4.54,1.96,2.03,0,3.78-.74,5.24-2.23,1.66-1.64,2.54-3.86,2.64-6.65.27-7.56-1.77-11.35-6.12-11.37Z"/>
        <path class="cls-1" d="M1067.5,234.83c-1.68,0-2.63-.92-2.84-2.75l-.82-6.42c-.27-2.29-.41-4.42-.41-6.42,0-.55.03-1.47.1-2.78.07-1.31.1-2.24.1-2.78,0-4.22-.78-6.33-2.34-6.33-2.19,0-4.28,1.3-6.27,3.9-1.8,2.36-3.2,5.35-4.22,8.96-.04.76-.13,1.72-.26,2.87-.12.98-.18,1.92-.18,2.84,0,.59.06,1.46.18,2.64s.18,2.05.18,2.64c0,.88-.27,1.59-.81,2.14s-1.23.82-2.07.82-1.55-.27-2.08-.82-.79-1.26-.79-2.14c0-.59-.06-1.46-.19-2.64s-.19-2.05-.19-2.64c0-2.01.14-4.8.42-8.36.28-3.56.42-6.35.42-8.36,0-.62-.03-1.55-.1-2.78s-.1-2.16-.1-2.78c0-.84.28-1.53.83-2.07.56-.54,1.25-.81,2.07-.81,1.8,0,2.78,1.27,2.96,3.81l.09,3.43c3.28-4.38,6.65-6.56,10.11-6.56,3.12,0,5.3,1.38,6.53,4.13.84,1.84,1.3,4.55,1.38,8.14v2.96l-.03,2.72c0,1.62.21,3.72.63,6.28.42,2.57.63,4.65.63,6.25,0,.86-.28,1.56-.83,2.09s-1.25.81-2.09.81Z"/>
        <path class="cls-1" d="M370.12,282.19c-1.07,0-1.83-.36-2.26-1.08-.29-.51-.55-1.56-.76-3.16-1.46.37-3.72,1.05-6.77,2.05-3.14,1.25-4.73,2.79-4.75,4.63.59.22,1.16.37,1.73.47,4.49.8,7.83,1.9,10.02,3.31,3.18,2.05,4.78,5.02,4.78,8.91,0,3.18-1.38,5.59-4.13,7.21-2.29,1.33-5.18,1.99-8.67,1.99-2.56,0-5-.43-7.32-1.29-3.01-1.09-4.51-2.62-4.51-4.57,0-.78.31-1.46.92-2.05s1.31-.88,2.09-.88c.61,0,1.39.47,2.34,1.41.47.45,1.52.82,3.16,1.11,1.31.23,2.41.35,3.31.35,1.64,0,3.09-.19,4.34-.59,1.82-.57,2.72-1.46,2.72-2.7,0-2.66-1.86-4.45-5.57-5.39l-3.05-.67c-2.6-.57-4.44-1.23-5.54-1.99-1.58-1.09-2.37-2.74-2.37-4.95,0-4.08,1.92-6.99,5.77-8.73,1.17-.53,3.05-1.16,5.62-1.89s4.42-1.35,5.54-1.86c.8-.35,1.67-.53,2.61-.53.84,0,1.53.27,2.07.82.54.55.81,1.26.81,2.14,0,.57.12,1.4.37,2.49.24,1.09.37,1.92.37,2.49,0,.88-.27,1.59-.81,2.14-.54.55-1.23.82-2.07.82Z"/>
        <path class="cls-1" d="M390.54,306.48c-3.28,0-6.1-1.21-8.47-3.63-2.64-2.7-4.02-6.32-4.16-10.87-.12-4.41,1-8.3,3.34-11.66,2.73-3.96,6.54-5.95,11.43-5.95,3.91,0,6.87,1.79,8.88,5.36,1.6,2.89,2.37,6.37,2.31,10.43-.06,4.34-1.19,8.04-3.4,11.1-2.5,3.48-5.81,5.21-9.93,5.21ZM392.29,280.32c-2.87-.02-5.11,1.35-6.71,4.1-1.27,2.21-1.9,4.73-1.9,7.56s.77,5.04,2.31,6.62c1.29,1.31,2.8,1.96,4.54,1.96,2.03,0,3.78-.74,5.24-2.23,1.66-1.64,2.54-3.86,2.64-6.65.27-7.56-1.77-11.35-6.12-11.37Z"/>
        <path class="cls-1" d="M464.1,278.53c-1.52,6.37-3.52,13.56-5.98,21.59-.55,1.78-1.46,3.6-2.72,5.48-.68,1.04-1.61,1.54-2.78,1.52-2.13-.04-3.79-2.68-4.98-7.94-.39-1.68-.79-3.96-1.2-6.86l-.97-6.53-2.4,5.6-4.45,12.1c-.25.74-.62,1.31-1.11,1.7-.59,1.13-1.52,1.72-2.81,1.76-1.48.06-2.92-2.85-4.31-8.73-.7-3.03-1.41-7.13-2.11-12.3l-.7-4.39c-.25-1.76-.38-3.23-.38-4.42,0-.82.29-1.5.86-2.04.58-.54,1.27-.81,2.09-.81,1.48,0,2.4.81,2.75,2.43.25,1.15.46,2.58.62,4.28l.44,4.31,1.73,13.15c2.17-6.02,4.41-12.95,6.74-20.8.64-2.17,1.77-3.25,3.37-3.25s2.59,1.21,3.13,3.63c.51,2.29,1.14,5.8,1.9,10.55.78,4.92,1.47,8.76,2.08,11.51l2.14-7.97,3.78-15.97c.29-1.19,1.13-1.79,2.52-1.79.82,0,1.53.28,2.14.83s.91,1.23.91,2.01c0,.1-.1.55-.29,1.35Z"/>
        <path class="cls-1" d="M483.76,306.1c-4.41,0-7.99-1.1-10.72-3.31-2.99-2.44-4.48-5.86-4.48-10.25,0-5.08,1.23-9.33,3.69-12.77,2.68-3.75,6.25-5.62,10.72-5.62,3.24,0,5.89.55,7.94,1.64,2.52,1.35,3.78,3.42,3.78,6.21,0,1.95-1.1,3.73-3.31,5.33-.98.7-3.05,1.8-6.21,3.28l-11.19,5.3c1.09,1.62,2.46,2.84,4.09,3.66s3.53,1.23,5.7,1.23c1.35,0,2.93-.25,4.75-.76,2.3-.64,3.79-1.49,4.45-2.53.66-1.04,1.38-1.57,2.14-1.57.68,0,1.29.26,1.83.78.54.52.81,1.12.81,1.8,0,2.17-1.75,4.03-5.24,5.6-2.99,1.33-5.9,1.99-8.73,1.99ZM482.97,279.41c-2.38,0-4.37.92-5.95,2.77s-2.76,4.62-3.54,8.33l8.99-4.28c3.54-1.72,6.05-3.21,7.56-4.48-1.68-1.56-4.03-2.34-7.06-2.34Z"/>
        <path class="cls-1" d="M534.12,306.6c-4,0-7.34-1.21-10.02-3.63-2.81-2.54-4.22-5.89-4.22-10.05s1.32-8.06,3.96-12.28c2.93-4.69,6.23-7.03,9.9-7.03,1.91,0,4.05.45,6.42,1.35,2.99,1.15,4.48,2.56,4.48,4.22,0,.74-.24,1.4-.73,1.98-.49.58-1.09.86-1.82.86-.57,0-1.06-.17-1.48-.51-.42-.34-.83-.68-1.22-1.01-1.15-.92-3.04-1.38-5.65-1.38-1.99,0-3.96,1.78-5.92,5.33-1.78,3.26-2.67,6.08-2.67,8.47,0,2.58.88,4.61,2.64,6.09,1.64,1.39,3.75,2.08,6.33,2.08,1.17,0,2.42-.31,3.75-.94l3.4-1.82c.59-.31,1.01-.47,1.26-.47.72,0,1.35.29,1.88.86.53.58.79,1.24.79,1.98,0,1.43-1.5,2.8-4.51,4.13-2.64,1.17-4.82,1.76-6.56,1.76Z"/>
        <path class="cls-1" d="M574.58,306.69c-.37,0-1.04-.43-2.02-1.29-.88-.8-1.53-1.51-1.96-2.14-1.88,1.02-3.53,1.78-4.95,2.3s-2.62.78-3.57.78c-4.57,0-7.9-1.29-9.99-3.87-1.97-2.42-2.96-6.13-2.96-11.13,0-4.73,1.63-8.77,4.88-12.13,3.25-3.36,7.13-5.04,11.65-5.04,1.7,0,3.6.44,5.71,1.32,2.66,1.09,3.98,2.41,3.98,3.96,0,.53-.2,1-.59,1.41-.2.74-.35,1.96-.45,3.66s-.17,3.88-.19,6.53c-.02,2.42.15,4.34.5,5.74.2.86.81,2.58,1.85,5.16.14.35.36.87.67,1.55l.18.5c0,.78-.27,1.43-.82,1.93s-1.18.76-1.9.76ZM568.49,286.32c0-.84.05-1.75.16-2.74.11-.99.27-2.04.48-3.15-.72-.37-1.34-.64-1.86-.82s-.93-.26-1.25-.26c-3.03,0-5.64,1.24-7.84,3.71-2.2,2.47-3.3,5.32-3.3,8.54s.57,5.61,1.7,7.21c1.13,1.6,2.83,2.4,5.1,2.4,1.88,0,3.47-.34,4.78-1.03.7-.37,1.69-1.11,2.96-2.23-.62-5.17-.94-9.05-.94-11.63Z"/>
        <path class="cls-1" d="M604.87,306.83c-1.68,0-2.63-.92-2.84-2.75l-.82-6.42c-.27-2.29-.41-4.42-.41-6.42,0-.55.03-1.47.1-2.78.07-1.31.1-2.24.1-2.78,0-4.22-.78-6.33-2.34-6.33-2.19,0-4.28,1.3-6.27,3.9-1.8,2.36-3.2,5.35-4.22,8.96-.04.76-.13,1.72-.26,2.87-.12.98-.18,1.92-.18,2.84,0,.59.06,1.46.18,2.64s.18,2.05.18,2.64c0,.88-.27,1.59-.81,2.14s-1.23.82-2.07.82-1.55-.27-2.08-.82-.79-1.26-.79-2.14c0-.59-.06-1.46-.19-2.64s-.19-2.05-.19-2.64c0-2.01.14-4.8.42-8.36.28-3.56.42-6.35.42-8.36,0-.62-.03-1.55-.1-2.78s-.1-2.16-.1-2.78c0-.84.28-1.53.83-2.07.56-.54,1.25-.81,2.07-.81,1.8,0,2.78,1.27,2.96,3.81l.09,3.43c3.28-4.38,6.65-6.56,10.11-6.56,3.12,0,5.3,1.38,6.53,4.13.84,1.84,1.3,4.55,1.38,8.14v2.96l-.03,2.72c0,1.62.21,3.72.63,6.28.42,2.57.63,4.65.63,6.25,0,.86-.28,1.56-.83,2.09s-1.25.81-2.09.81Z"/>
        <path class="cls-1" d="M655.85,292.12l-.67,9.84c-.12,3.91-.52,7.1-1.2,9.58-.88,3.16-2.29,5.5-4.22,7-2.34,1.82-5.73,2.72-10.17,2.72-2.6,0-4.78-.18-6.53-.53-2.46-.49-3.69-1.5-3.69-3.05,0-1.74.85-2.61,2.55-2.61.7,0,1.88.17,3.52.51s3.46.49,5.45.45c3.75-.06,6.34-1.88,7.76-5.45.94-2.38,1.44-6.04,1.49-10.99-1.05,1.95-2.31,3.42-3.76,4.39s-3.12,1.46-5,1.46c-3.54,0-6.41-1.21-8.63-3.62-2.22-2.41-3.33-5.54-3.33-9.39,0-5.27,1.51-9.52,4.54-12.74,3.12-3.32,7.38-4.98,12.77-4.98,1.82,0,3.34.23,4.57.7s2.17,1.17,2.81,2.11c2.09.06,3.13,1.22,3.13,3.49,0,1.39-.21,3.24-.62,5.57-.45,2.7-.71,4.53-.79,5.51ZM646.44,279.44c-3.71,0-6.58,1.28-8.61,3.84-1.82,2.3-2.72,5.23-2.72,8.79,0,2.83.54,4.96,1.61,6.39,1.07,1.43,2.69,2.14,4.83,2.14,1.97,0,3.89-1.11,5.74-3.34,1.68-2.05,2.64-4.08,2.87-6.09.41-2.11.85-5.42,1.32-9.93-.78-.6-1.59-1.05-2.43-1.35s-1.71-.44-2.61-.44Z"/>
        <path class="cls-1" d="M670.5,291.45c0,1.17.03,2.93.1,5.26.07,2.33.1,4.09.1,5.26,0,.86-.26,1.56-.79,2.11-.53.55-1.22.82-2.08.82s-1.53-.27-2.07-.82c-.54-.55-.81-1.25-.81-2.11,0-1.17-.03-2.92-.1-5.26-.07-2.33-.1-4.09-.1-5.26,0-1.83.1-4.13.29-6.87.2-2.74.29-5.03.29-6.87,0-.88.27-1.59.81-2.14.54-.55,1.23-.82,2.07-.82s1.53.27,2.07.82c.54.55.81,1.26.81,2.14,0,1.84-.1,4.13-.29,6.87-.2,2.74-.29,5.04-.29,6.87ZM669.18,267.66c-.94,0-1.75-.33-2.43-1-.68-.66-1.03-1.46-1.03-2.4s.34-1.74,1.03-2.4c.68-.66,1.49-1,2.43-1s1.74.33,2.42,1c.67.66,1.01,1.46,1.01,2.4s-.34,1.74-1.01,2.4c-.67.66-1.48,1-2.42,1Z"/>
        <path class="cls-1" d="M693.91,303.23c-.06,1.8-.95,2.7-2.67,2.7-1.43,0-2.46-.84-3.11-2.52l-4.48-11.89-5.21-13.45c-.2-.51-.29-.96-.29-1.35,0-.8.3-1.48.91-2.05.61-.57,1.31-.85,2.11-.85,1.17,0,2.01.6,2.52,1.79l7.44,20.48c1.46-3.12,3.31-7.66,5.54-13.59.53-1.56,1.36-3.77,2.49-6.62.61-1.25,1.46-1.88,2.58-1.88.8,0,1.5.28,2.11.85.61.57.91,1.24.91,2.02s-1.61,4.92-4.83,12.54l-6.01,13.83Z"/>
        <path class="cls-1" d="M723.26,306.1c-4.41,0-7.99-1.1-10.72-3.31-2.99-2.44-4.48-5.86-4.48-10.25,0-5.08,1.23-9.33,3.69-12.77,2.68-3.75,6.25-5.62,10.72-5.62,3.24,0,5.89.55,7.94,1.64,2.52,1.35,3.78,3.42,3.78,6.21,0,1.95-1.1,3.73-3.31,5.33-.98.7-3.05,1.8-6.21,3.28l-11.19,5.3c1.09,1.62,2.46,2.84,4.09,3.66s3.53,1.23,5.7,1.23c1.35,0,2.93-.25,4.75-.76,2.3-.64,3.79-1.49,4.45-2.53.66-1.04,1.38-1.57,2.14-1.57.68,0,1.29.26,1.83.78.54.52.81,1.12.81,1.8,0,2.17-1.75,4.03-5.24,5.6-2.99,1.33-5.9,1.99-8.73,1.99ZM722.47,279.41c-2.38,0-4.37.92-5.95,2.77s-2.76,4.62-3.54,8.33l8.99-4.28c3.54-1.72,6.05-3.21,7.56-4.48-1.68-1.56-4.03-2.34-7.06-2.34Z"/>
        <path class="cls-1" d="M783.26,306.69c-.37,0-1.04-.43-2.02-1.29-.88-.8-1.53-1.51-1.96-2.14-1.88,1.02-3.53,1.78-4.95,2.3s-2.62.78-3.57.78c-4.57,0-7.9-1.29-9.99-3.87-1.97-2.42-2.96-6.13-2.96-11.13,0-4.73,1.63-8.77,4.88-12.13,3.25-3.36,7.13-5.04,11.65-5.04,1.7,0,3.6.44,5.71,1.32,2.66,1.09,3.98,2.41,3.98,3.96,0,.53-.2,1-.59,1.41-.2.74-.35,1.96-.45,3.66s-.17,3.88-.19,6.53c-.02,2.42.15,4.34.5,5.74.2.86.81,2.58,1.85,5.16.14.35.36.87.67,1.55l.18.5c0,.78-.27,1.43-.82,1.93s-1.18.76-1.9.76ZM777.17,286.32c0-.84.05-1.75.16-2.74.11-.99.27-2.04.48-3.15-.72-.37-1.34-.64-1.86-.82s-.93-.26-1.25-.26c-3.03,0-5.64,1.24-7.84,3.71-2.2,2.47-3.3,5.32-3.3,8.54s.57,5.61,1.7,7.21c1.13,1.6,2.83,2.4,5.1,2.4,1.88,0,3.47-.34,4.78-1.03.7-.37,1.69-1.11,2.96-2.23-.62-5.17-.94-9.05-.94-11.63Z"/>
        <path class="cls-1" d="M816.45,281.72l-.44,14.56c0,1.54-.08,3.81-.23,6.8-.2,1.95-1.15,2.93-2.87,2.93-1.91,0-2.87-1-2.87-2.99,0-2.36.11-5.91.32-10.65.21-4.74.32-8.29.32-10.65,0-3.09.05-6.62.15-10.59.1-3.97.15-7.5.15-10.59,0-1.95.96-2.93,2.87-2.93s2.9.98,2.9,2.93c0,3.09-.05,6.62-.15,10.59-.1,3.97-.15,7.5-.15,10.59Z"/>
        <path class="cls-1" d="M832.36,291.45c0,1.17.03,2.93.1,5.26.07,2.33.1,4.09.1,5.26,0,.86-.26,1.56-.79,2.11-.53.55-1.22.82-2.08.82s-1.53-.27-2.07-.82c-.54-.55-.81-1.25-.81-2.11,0-1.17-.03-2.92-.1-5.26-.07-2.33-.1-4.09-.1-5.26,0-1.83.1-4.13.29-6.87.2-2.74.29-5.03.29-6.87,0-.88.27-1.59.81-2.14.54-.55,1.23-.82,2.07-.82s1.53.27,2.07.82c.54.55.81,1.26.81,2.14,0,1.84-.1,4.13-.29,6.87-.2,2.74-.29,5.04-.29,6.87ZM831.04,267.66c-.94,0-1.75-.33-2.43-1-.68-.66-1.03-1.46-1.03-2.4s.34-1.74,1.03-2.4c.68-.66,1.49-1,2.43-1s1.74.33,2.42,1c.67.66,1.01,1.46,1.01,2.4s-.34,1.74-1.01,2.4c-.67.66-1.48,1-2.42,1Z"/>
        <path class="cls-1" d="M862.04,282.19c-1.07,0-1.83-.36-2.26-1.08-.29-.51-.55-1.56-.76-3.16-1.46.37-3.72,1.05-6.77,2.05-3.14,1.25-4.73,2.79-4.75,4.63.59.22,1.16.37,1.73.47,4.49.8,7.83,1.9,10.02,3.31,3.18,2.05,4.78,5.02,4.78,8.91,0,3.18-1.38,5.59-4.13,7.21-2.29,1.33-5.18,1.99-8.67,1.99-2.56,0-5-.43-7.32-1.29-3.01-1.09-4.51-2.62-4.51-4.57,0-.78.31-1.46.92-2.05s1.31-.88,2.09-.88c.61,0,1.39.47,2.34,1.41.47.45,1.52.82,3.16,1.11,1.31.23,2.41.35,3.31.35,1.64,0,3.09-.19,4.34-.59,1.82-.57,2.72-1.46,2.72-2.7,0-2.66-1.86-4.45-5.57-5.39l-3.05-.67c-2.6-.57-4.44-1.23-5.54-1.99-1.58-1.09-2.37-2.74-2.37-4.95,0-4.08,1.92-6.99,5.77-8.73,1.17-.53,3.05-1.16,5.62-1.89s4.42-1.35,5.54-1.86c.8-.35,1.67-.53,2.61-.53.84,0,1.53.27,2.07.82.54.55.81,1.26.81,2.14,0,.57.12,1.4.37,2.49.24,1.09.37,1.92.37,2.49,0,.88-.27,1.59-.81,2.14-.54.55-1.23.82-2.07.82Z"/>
        <path class="cls-1" d="M891.07,279.79c-.41,0-.89-.02-1.45-.06-.56-.04-1.04-.06-1.45-.06-.45,0-1.78.15-3.98.44l.56,17.31.03,1.29.03,1.49c.08,4.28-.95,6.42-3.08,6.42-.78,0-1.46-.25-2.04-.76s-.86-1.14-.86-1.9.03-1.86.09-3.34c.06-1.48.09-2.6.09-3.34l-.59-17.11c-1.43-.06-3.59-.22-6.5-.5-1.74-.23-2.61-1.2-2.61-2.9,0-.86.26-1.57.79-2.14.53-.57,1.2-.85,2.02-.85l6.15.5c0-1-.04-2.33-.13-4s-.13-2.88-.13-3.62c0-.82.28-1.5.85-2.04.57-.54,1.26-.81,2.08-.81,1.76,0,2.78,1.44,3.08,4.31.06.72.09,1.59.09,2.61l-.06,1.7-.03,1.82c2.42-.31,3.81-.47,4.16-.47,2.03,0,3.36.1,3.98.29,1.19.39,1.79,1.31,1.79,2.75,0,.86-.27,1.57-.81,2.12s-1.23.83-2.07.83Z"/>
        <path class="cls-1" d="M937.27,279.79c-.41,0-.89-.02-1.45-.06-.56-.04-1.04-.06-1.45-.06-.45,0-1.78.15-3.98.44l.56,17.31.03,1.29.03,1.49c.08,4.28-.95,6.42-3.08,6.42-.78,0-1.46-.25-2.04-.76s-.86-1.14-.86-1.9.03-1.86.09-3.34c.06-1.48.09-2.6.09-3.34l-.59-17.11c-1.43-.06-3.59-.22-6.5-.5-1.74-.23-2.61-1.2-2.61-2.9,0-.86.26-1.57.79-2.14.53-.57,1.2-.85,2.02-.85l6.15.5c0-1-.04-2.33-.13-4s-.13-2.88-.13-3.62c0-.82.28-1.5.85-2.04.57-.54,1.26-.81,2.08-.81,1.76,0,2.78,1.44,3.08,4.31.06.72.09,1.59.09,2.61l-.06,1.7-.03,1.82c2.42-.31,3.81-.47,4.16-.47,2.03,0,3.36.1,3.98.29,1.19.39,1.79,1.31,1.79,2.75,0,.86-.27,1.57-.81,2.12s-1.23.83-2.07.83Z"/>
        <path class="cls-1" d="M956.93,306.48c-3.28,0-6.1-1.21-8.47-3.63-2.64-2.7-4.02-6.32-4.16-10.87-.12-4.41,1-8.3,3.34-11.66,2.73-3.96,6.54-5.95,11.43-5.95,3.91,0,6.87,1.79,8.88,5.36,1.6,2.89,2.37,6.37,2.31,10.43-.06,4.34-1.19,8.04-3.4,11.1-2.5,3.48-5.81,5.21-9.93,5.21ZM958.69,280.32c-2.87-.02-5.11,1.35-6.71,4.1-1.27,2.21-1.9,4.73-1.9,7.56s.77,5.04,2.31,6.62c1.29,1.31,2.8,1.96,4.54,1.96,2.03,0,3.78-.74,5.24-2.23,1.66-1.64,2.54-3.86,2.64-6.65.27-7.56-1.77-11.35-6.12-11.37Z"/>
        <path class="cls-1" d="M1006.42,306.48c-3.28,0-6.1-1.21-8.47-3.63-2.64-2.7-4.02-6.32-4.16-10.87-.12-4.41,1-8.3,3.34-11.66,2.73-3.96,6.54-5.95,11.43-5.95,3.91,0,6.87,1.79,8.88,5.36,1.6,2.89,2.37,6.37,2.31,10.43-.06,4.34-1.19,8.04-3.4,11.1-2.5,3.48-5.81,5.21-9.93,5.21ZM1008.17,280.32c-2.87-.02-5.11,1.35-6.71,4.1-1.27,2.21-1.9,4.73-1.9,7.56s.77,5.04,2.31,6.62c1.29,1.31,2.8,1.96,4.54,1.96,2.03,0,3.78-.74,5.24-2.23,1.66-1.64,2.54-3.86,2.64-6.65.27-7.56-1.77-11.35-6.12-11.37Z"/>
        <path class="cls-1" d="M1050.89,287.64c0,1.41,0,3.52.03,6.33s.03,4.92.03,6.33c0,.43.03,1.08.1,1.96s.1,1.53.1,1.96c0,.84-.28,1.53-.85,2.07s-1.26.81-2.08.81c-1.5,0-2.46-.93-2.87-2.78-2.44,1.27-5.25,1.9-8.44,1.9-2.56,0-4.68-.57-6.36-1.7-1.86-1.25-2.96-3.08-3.31-5.48-.76-5.17-1.14-9.79-1.14-13.83,0-2.68.29-5.72.88-9.14.27-1.7,1.2-2.55,2.78-2.55.84,0,1.54.27,2.11.81.57.54.85,1.23.85,2.07,0,.9-.14,2.33-.42,4.31-.28,1.97-.42,3.48-.42,4.51,0,3.26.11,6.05.32,8.38.21,2.33.54,4.19.97,5.6.64.35,1.28.62,1.9.81.62.19,1.24.28,1.85.28,2.62,0,5.38-.42,8.29-1.26l-.03-5.95-.06-5.68c0-4.22.19-7.88.56-10.99.21-1.8,1.16-2.7,2.84-2.7.84,0,1.54.27,2.11.82.57.55.83,1.23.79,2.05l-.53,11.07Z"/>
        <path class="cls-1" d="M1080.98,283.1c-.14,2.44-1.11,3.66-2.93,3.66-1.68,0-2.52-.97-2.52-2.9,0-.37-.03-1.05-.09-2.05l-.09-2.46c-3.09.37-5.56,1.24-7.41,2.61-1.74,1.27-3.18,3.18-4.34,5.74l.06,16.05c0,1.97-.97,2.96-2.9,2.96-1.72,0-2.58-.99-2.58-2.96v-20.57c0-.64.02-1.61.07-2.9s.07-2.26.07-2.9c0-1.97.86-2.96,2.58-2.96,1.91,0,2.88,1.62,2.9,4.86,3.75-3.61,7.91-5.42,12.48-5.42,1.58,0,2.76.6,3.54,1.79.78,1.19,1.17,2.99,1.17,5.39,0,1.02,0,1.7-.03,2.05Z"/>
        <path class="cls-1" d="M602.56,377.78c-1.95,0-4.1-.31-6.45-.94l-.06,14c0,.86-.27,1.56-.81,2.11s-1.23.82-2.07.82-1.53-.27-2.07-.82-.81-1.25-.81-2.11l.09-11.72v-11.69c-.06-4.28-.21-8.17-.44-11.69l-.44-5.95c0-1.39.25-2.56.76-3.52.59-1.15,1.44-1.73,2.55-1.73.76,0,1.4.27,1.92.81.52.54.78,1.2.78,1.98,0,.18-.03.5-.09.97-.1.61-.17,1.16-.21,1.67,1.68-1.15,3.3-2.02,4.86-2.59,1.56-.58,3.06-.86,4.48-.86,4,0,6.93,1.78,8.79,5.33,1.46,2.81,2.2,6.53,2.2,11.16,0,4.22-1.13,7.7-3.4,10.43-2.4,2.89-5.61,4.34-9.61,4.34ZM604.58,352.38c-1.8,0-3.42.4-4.86,1.2-1.04.57-2.34,1.6-3.93,3.11.25,4.43.38,9.09.38,13.97,2.13.82,4.26,1.23,6.39,1.23,2.44,0,4.31-.91,5.6-2.72,1.11-1.58,1.67-3.63,1.67-6.15,0-3.55-.43-6.21-1.3-7.98-.87-1.77-2.18-2.65-3.94-2.65Z"/>
        <path class="cls-1" d="M645.07,378.69c-.37,0-1.04-.43-2.02-1.29-.88-.8-1.53-1.51-1.96-2.14-1.88,1.02-3.53,1.78-4.95,2.3s-2.62.78-3.57.78c-4.57,0-7.9-1.29-9.99-3.87-1.97-2.42-2.96-6.13-2.96-11.13,0-4.73,1.63-8.77,4.88-12.13,3.25-3.36,7.13-5.04,11.65-5.04,1.7,0,3.6.44,5.71,1.32,2.66,1.09,3.98,2.41,3.98,3.96,0,.53-.2,1-.59,1.41-.2.74-.35,1.96-.45,3.66s-.17,3.88-.19,6.53c-.02,2.42.15,4.34.5,5.74.2.86.81,2.58,1.85,5.16.14.35.36.87.67,1.55l.18.5c0,.78-.27,1.43-.82,1.93s-1.18.76-1.9.76ZM638.97,358.32c0-.84.05-1.75.16-2.74.11-.99.27-2.04.48-3.15-.72-.37-1.34-.64-1.86-.82s-.93-.26-1.25-.26c-3.03,0-5.64,1.24-7.84,3.71-2.2,2.47-3.3,5.32-3.3,8.54s.57,5.61,1.7,7.21c1.13,1.6,2.83,2.4,5.1,2.4,1.88,0,3.47-.34,4.78-1.03.7-.37,1.69-1.11,2.96-2.23-.62-5.17-.94-9.05-.94-11.63Z"/>
        <path class="cls-1" d="M675.68,355.1c-.14,2.44-1.11,3.66-2.93,3.66-1.68,0-2.52-.97-2.52-2.9,0-.37-.03-1.05-.09-2.05l-.09-2.46c-3.09.37-5.56,1.24-7.41,2.61-1.74,1.27-3.18,3.18-4.34,5.74l.06,16.05c0,1.97-.97,2.96-2.9,2.96-1.72,0-2.58-.99-2.58-2.96v-20.57c0-.64.02-1.61.07-2.9s.07-2.26.07-2.9c0-1.97.86-2.96,2.58-2.96,1.91,0,2.88,1.62,2.9,4.86,3.75-3.61,7.91-5.42,12.48-5.42,1.58,0,2.76.6,3.54,1.79.78,1.19,1.17,2.99,1.17,5.39,0,1.02,0,1.7-.03,2.05Z"/>
        <path class="cls-1" d="M701.32,351.79c-.41,0-.89-.02-1.45-.06-.56-.04-1.04-.06-1.45-.06-.45,0-1.78.15-3.98.44l.56,17.31.03,1.29.03,1.49c.08,4.28-.95,6.42-3.08,6.42-.78,0-1.46-.25-2.04-.76s-.86-1.14-.86-1.9.03-1.86.09-3.34c.06-1.48.09-2.6.09-3.34l-.59-17.11c-1.43-.06-3.59-.22-6.5-.5-1.74-.23-2.61-1.2-2.61-2.9,0-.86.26-1.57.79-2.14.53-.57,1.2-.85,2.02-.85l6.15.5c0-1-.04-2.33-.13-4s-.13-2.88-.13-3.62c0-.82.28-1.5.85-2.04.57-.54,1.26-.81,2.08-.81,1.76,0,2.78,1.44,3.08,4.31.06.72.09,1.59.09,2.61l-.06,1.7-.03,1.82c2.42-.31,3.81-.47,4.16-.47,2.03,0,3.36.1,3.98.29,1.19.39,1.79,1.31,1.79,2.75,0,.86-.27,1.57-.81,2.12s-1.23.83-2.07.83Z"/>
        <path class="cls-1" d="M732.46,378.83c-1.68,0-2.63-.92-2.84-2.75l-.82-6.42c-.27-2.29-.41-4.42-.41-6.42,0-.55.03-1.47.1-2.78.07-1.31.1-2.24.1-2.78,0-4.22-.78-6.33-2.34-6.33-2.19,0-4.28,1.3-6.27,3.9-1.8,2.36-3.2,5.35-4.22,8.96-.04.76-.13,1.72-.26,2.87-.12.98-.18,1.92-.18,2.84,0,.59.06,1.46.18,2.64s.18,2.05.18,2.64c0,.88-.27,1.59-.81,2.14s-1.23.82-2.07.82-1.55-.27-2.08-.82-.79-1.26-.79-2.14c0-.59-.06-1.46-.19-2.64s-.19-2.05-.19-2.64c0-2.01.14-4.8.42-8.36.28-3.56.42-6.35.42-8.36,0-.62-.03-1.55-.1-2.78s-.1-2.16-.1-2.78c0-.84.28-1.53.83-2.07.56-.54,1.25-.81,2.07-.81,1.8,0,2.78,1.27,2.96,3.81l.09,3.43c3.28-4.38,6.65-6.56,10.11-6.56,3.12,0,5.3,1.38,6.53,4.13.84,1.84,1.3,4.55,1.38,8.14v2.96l-.03,2.72c0,1.62.21,3.72.63,6.28.42,2.57.63,4.65.63,6.25,0,.86-.28,1.56-.83,2.09s-1.25.81-2.09.81Z"/>
        <path class="cls-1" d="M755.08,378.1c-4.41,0-7.99-1.1-10.72-3.31-2.99-2.44-4.48-5.86-4.48-10.25,0-5.08,1.23-9.33,3.69-12.77,2.68-3.75,6.25-5.62,10.72-5.62,3.24,0,5.89.55,7.94,1.64,2.52,1.35,3.78,3.42,3.78,6.21,0,1.95-1.1,3.73-3.31,5.33-.98.7-3.05,1.8-6.21,3.28l-11.19,5.3c1.09,1.62,2.46,2.84,4.09,3.66s3.53,1.23,5.7,1.23c1.35,0,2.93-.25,4.75-.76,2.3-.64,3.79-1.49,4.45-2.53.66-1.04,1.38-1.57,2.14-1.57.68,0,1.29.26,1.83.78.54.52.81,1.12.81,1.8,0,2.17-1.75,4.03-5.24,5.6-2.99,1.33-5.9,1.99-8.73,1.99ZM754.29,351.41c-2.38,0-4.37.92-5.95,2.77s-2.76,4.62-3.54,8.33l8.99-4.28c3.54-1.72,6.05-3.21,7.56-4.48-1.68-1.56-4.03-2.34-7.06-2.34Z"/>
        <path class="cls-1" d="M797.06,355.1c-.14,2.44-1.11,3.66-2.93,3.66-1.68,0-2.52-.97-2.52-2.9,0-.37-.03-1.05-.09-2.05l-.09-2.46c-3.09.37-5.56,1.24-7.41,2.61-1.74,1.27-3.18,3.18-4.34,5.74l.06,16.05c0,1.97-.97,2.96-2.9,2.96-1.72,0-2.58-.99-2.58-2.96v-20.57c0-.64.02-1.61.07-2.9s.07-2.26.07-2.9c0-1.97.86-2.96,2.58-2.96,1.91,0,2.88,1.62,2.9,4.86,3.75-3.61,7.91-5.42,12.48-5.42,1.58,0,2.76.6,3.54,1.79.78,1.19,1.17,2.99,1.17,5.39,0,1.02,0,1.7-.03,2.05Z"/>
        <path class="cls-1" d="M822.87,354.19c-1.07,0-1.83-.36-2.26-1.08-.29-.51-.55-1.56-.76-3.16-1.46.37-3.72,1.05-6.77,2.05-3.14,1.25-4.73,2.79-4.75,4.63.59.22,1.16.37,1.73.47,4.49.8,7.83,1.9,10.02,3.31,3.18,2.05,4.78,5.02,4.78,8.91,0,3.18-1.38,5.59-4.13,7.21-2.29,1.33-5.18,1.99-8.67,1.99-2.56,0-5-.43-7.32-1.29-3.01-1.09-4.51-2.62-4.51-4.57,0-.78.31-1.46.92-2.05s1.31-.88,2.09-.88c.61,0,1.39.47,2.34,1.41.47.45,1.52.82,3.16,1.11,1.31.23,2.41.35,3.31.35,1.64,0,3.09-.19,4.34-.59,1.82-.57,2.72-1.46,2.72-2.7,0-2.66-1.86-4.45-5.57-5.39l-3.05-.67c-2.6-.57-4.44-1.23-5.54-1.99-1.58-1.09-2.37-2.74-2.37-4.95,0-4.08,1.92-6.99,5.77-8.73,1.17-.53,3.05-1.16,5.62-1.89s4.42-1.35,5.54-1.86c.8-.35,1.67-.53,2.61-.53.84,0,1.53.27,2.07.82.54.55.81,1.26.81,2.14,0,.57.12,1.4.37,2.49.24,1.09.37,1.92.37,2.49,0,.88-.27,1.59-.81,2.14-.54.55-1.23.82-2.07.82Z"/>
        <path class="cls-1" d="M836.05,379.48c-1.02,0-1.88-.35-2.58-1.05s-1.05-1.56-1.05-2.58.35-1.85,1.05-2.56c.7-.71,1.56-1.07,2.58-1.07s1.85.36,2.56,1.07c.71.71,1.07,1.57,1.07,2.56s-.36,1.88-1.07,2.58-1.57,1.05-2.56,1.05Z"/>
      </g>
    </g>
    <g>
      <g class="cls-3">
        <path d="M704.81,2078.49c0-5.27-10.17-5.09,292.73-5.44,158.04-.17,288.03-.55,288.84-.85,1.15-.41,1.5-9.32,1.5-39.17v-38.62l-10.53.68c-15.56,1-20.72-.11-26.54-5.62l-4.85-4.62.46-8.17c.66-11.91,5.99-22.14,17.55-33.69,5.07-5.07,12.28-10.82,16.45-13.09l7.41-4.05.31-95.01c.18-52.26.02-95.5-.33-96.09-.41-.65-64.08-.96-156.48-.77l-155.8.29.2,4.17c1.4,30.86,1.68,78.97.59,100.55-.72,14.4-1.68,39.62-2.12,56.02l-.79,29.86,11.78.75c11.47.74,12.18.96,28.15,8.75,8.99,4.39,17.4,9.09,18.65,10.43,1.26,1.34,4.31,6.73,6.8,11.96,5.66,11.91,6.74,22.68,2.89,28.81-3.98,6.34-10.16,8.66-23.02,8.66s-21.16-1.9-34.34-7.6l-9.07-3.91-.54,41.51c-.53,40.61-.6,41.55-3.11,44.08-5.09,5.09-5.36,2.87-5.47-45.5l-.11-45.29-6.08-5.63c-8.31-7.69-11.59-14.39-10.86-22.19.31-3.34.92-6.88,1.36-7.91.61-1.45-2.97-3.67-16.81-10.32-9.67-4.64-25.51-11.72-35.22-15.72-9.7-3.98-23.61-10.25-30.93-13.9-16.09-8.04-42.47-25.31-42.43-27.8.09-4.98,28.96-28.04,89.22-71.21,18.65-13.36,36.53-26.38,39.73-28.9,5.7-4.52,10.25-5.96,10.25-3.22,0,2.52-11.02,11.56-35.67,29.18-31.52,22.54-73.22,53.64-80.65,60.15-3.2,2.78-7.87,6.69-10.36,8.68l-4.54,3.6,15.43,9.14c17.7,10.51,27.21,15.04,60.81,29,25.79,10.69,35.04,15.08,42.2,19.98l4.5,3.06,4.55-4.45,4.57-4.44.85-33.92c.46-18.64,1.33-41.93,1.92-51.74,1.22-20.13,1.29-63.45.13-87.21-.77-16.22-.24-21.33,2.45-23.04.85-.53,74.14-.98,162.88-1h161.35l.77,20.54c.42,11.28.77,55.72.77,98.75l.02,78.23h4.46c6.91,0,12.83,2.1,16.99,5.99l3.82,3.58,19.78-12.31c10.9-6.77,27.13-16.76,36.1-22.19,18.05-10.95,17.97-10.84,10.06-17.51-16.4-13.81-43.11-38.36-55.63-51.14-13.77-14.05-29.64-32.67-29.64-34.77,0-1.53,2.8-3.72,4.78-3.72,1.03,0,6.16,4.89,11.35,10.84,11.59,13.33,34.49,35.56,51.49,50.01,6.99,5.96,17.4,15.37,23.12,20.92,10.91,10.6,12.53,14.04,8.33,17.56-1.14.94-18.67,12.08-38.97,24.7l-36.89,22.97-.77,8.65c-.51,5.71-1.86,10.86-3.98,15.19-3.59,7.33-14.1,19.31-20.31,23.17l-4.08,2.51v83.1h303.88c271.03,0,303.97.2,304.58,1.81.39,1.01-.39,2.91-1.77,4.29l-2.49,2.49-597.79-.42c-565.07-.39-597.81-.52-597.81-2.45v-.02ZM1292.17,1983.13c12.15-5.56,22.43-18.17,23.93-29.36.52-3.78.18-5.16-1.49-6.4-1.26-.9-1.85-2.34-1.42-3.44,1.93-5.04-10.19-12.74-20.09-12.74-5.12,0-6.91.72-13.02,5.16-15.08,10.97-25.66,26.14-25.82,37.02-.09,6.03,1.73,8.79,7.83,11.89,6.06,3.1,20.96,2.04,30.08-2.12h0ZM1033.77,1984.33c5.79-4.24-3.93-30.15-14.03-37.4-18.05-12.98-48.87-20.11-56.41-13.07-1.47,1.38-2.67,3.39-2.67,4.5s-1.12,3.01-2.51,4.24c-3.3,2.99-2.49,9.64,1.95,16.04,5.54,8,25.14,19.37,42.19,24.48,10.51,3.15,27.91,3.84,31.47,1.22h0ZM1352.16,2049.39c.2-7.39-1.31-74.56-1.9-84.32-.68-11.15-.51-13.36,1.09-14.67,2.73-2.27,4.35-.65,4.37,4.37,0,2.41.79,10.8,1.77,18.62,2.28,18.32,2.45,68.85.24,73.22-1.4,2.8-5.63,4.9-5.57,2.78h0ZM897.63,2043.12c-1.71-3.2-1.55-22.76.46-51.39.92-13.33,2.07-31.6,2.51-40.61.44-8.99,1.26-16.35,1.83-16.35,4.05,0,5.51,19.03,3.56,46.4-.77,10.8-1.86,29.13-2.44,40.72-.55,11.59-1.34,21.62-1.77,22.31-1.18,1.9-2.78,1.47-4.15-1.07h0ZM1346.89,1905.31c-.39-3.1-.83-13.57-1-23.25-.26-14.54,0-17.77,1.47-18.69,1.05-.64,2.19-.66,2.84,0,1.29,1.31,2.58,40.11,1.47,44.52-1.31,5.18-4,3.74-4.79-2.54v-.04ZM901.58,1864.95c.72-22.23,2.8-39.32,4.72-38.86.48.11,1.44.41,2.14.63.89.29.87,6.56-.07,21.22-.74,11.43-1.46,25.07-1.59,30.31-.26,9.05-.41,9.53-3.11,9.91l-2.86.41.77-23.61ZM1347.5,1797.64c-.56-1.48-1.31-19.65-1.66-40.39l-.65-37.71-3.87-5.71c-7.38-10.9-18.97-23.74-23.87-26.51-6.03-3.39-20.13-4.83-23.1-2.36-2.21,1.83-21.94,3.19-21.94,1.49,0-3.2,3.39-4.99,10.69-5.64,26.79-2.4,30.67-2.28,37.51,1.07,8.76,4.28,26.07,23.77,29.55,33.24.46,1.24,1.09,15.69,1.4,32.13.31,16.43.86,32.93,1.22,36.68.64,6.8-1.26,16.39-3.27,16.39-.55,0-1.47-1.22-2.02-2.67h0ZM904.8,1794.5c-.92-1.74-1.24-16.02-1.03-47.32l.3-44.83,3.15-4.28c7.48-10.16,13.97-13.68,27.74-15.1,6.82-.7,7.54-.55,8.11,1.6.56,2.16-.15,2.41-8.13,3.02-10.53.79-18.65,4.78-23.12,11.32l-2.99,4.4.61,24.39c.83,32.21-.15,66.1-1.93,67.89-1.05,1.05-1.69.77-2.71-1.1h0ZM1040.76,1722.26c-.94-2.45,2.06-5.14,15.69-14.12,14.95-9.84,30.93-17.66,34.1-16.64l2.66.83-2.91,2.38c-1.6,1.29-7.58,4.68-13.26,7.56-5.7,2.86-12.11,6.71-14.28,8.57-3.1,2.66-13.97,9.62-20.3,13-.5.26-1.26-.44-1.69-1.59v.02ZM969.78,1715.53c-18.15-19.35-35.65-55.02-49.49-100.98-7.26-24.1-9.71-36.67-10.84-55.8-.55-9.49-2.6-29.57-4.55-44.61-1.95-15.06-3.83-32.91-4.18-39.65-.77-14.6.92-40.85,3.56-54.95,4.5-24.15,16.3-52.02,32.24-76.15,10.62-16.07,17.53-23.52,37.07-40.04,15.82-13.36,23.49-18.27,28.54-18.27,1.44,0,8.65-2.93,15.98-6.52,23.34-11.39,54.23-19.73,79.39-21.41,24.33-1.64,52.24,4.55,65.26,14.47,3.95,3.02,4.61,3.11,18.51,2.89,16.87-.27,23.94,1.22,38.71,8.26,35.98,17.14,66.99,60.15,80.15,111.18,11.14,43.19,15.89,87.25,14.77,136.83-1.31,57.73-6.25,80.63-25.94,120.19-10.54,21.16-24.19,41.57-39.43,58.91-9.44,10.73-10.19,11.3-15.19,11.67l-5.23.37,9.48-9.9c30.27-31.56,55.82-78.12,61.84-112.69,10.62-60.83,7.52-139.49-7.85-200.24-11.84-46.78-39.6-89.07-70.14-106.84-14.36-8.37-23.67-11.04-40.74-11.67-10.62-.39-15.17-.17-15.17.75,0,.74-2.82-.29-6.25-2.25-20.52-11.72-32.65-14.77-58.6-14.75-15.28,0-21.5.55-31.49,2.71-18.93,4.09-37.05,10.31-54.66,18.73-8.76,4.19-17.07,7.61-18.47,7.61-3.28,0-6.01,1.9-19.74,13.75-23.61,20.35-35.04,34.51-47.62,58.99-12.62,24.59-19.09,47.56-21.44,76.01-1.53,18.76-.79,34.1,3.04,63.65,12.02,92.41,11.43,88.79,17.81,108.28,15.84,48.32,31.36,77.48,53.37,100.26l8.33,8.63h-14.03l-6.99-7.45v.02ZM998.41,1712.54c-8.02-13.33-13.26-25.51-21.13-49.07-7.92-23.8-8.13-25.2-12.18-81.51-3.52-48.91-3.78-114.14-.55-131.49,8.66-46.27,29.59-76.09,67.96-96.91,21.83-11.84,70.66-30.27,91.4-34.49,16.44-3.36,24.29-2.66,40.09,3.57,23.93,9.42,37.94,18.27,53.01,33.44,22.53,22.68,35.56,52.37,40.5,92.32,2.01,16.24,3.7,62.08,4.83,130.59l.74,45.81-7.19,24.41c-8.02,27.26-12.68,39.54-22.45,59.17-6.38,12.85-6.8,13.38-10.41,13.38h-3.78l6.84-13.38c9.62-18.84,15.71-34.49,21.14-54.43,5.07-18.55,6.14-27.91,6.14-53.68v-24.87l-12.41,12.85c-14.28,14.78-26.41,23.93-43.82,33.01-21.33,11.13-51.59,19.59-70.12,19.59-3.82,0-6.95.41-6.97.9-.02.48-.2,7.05-.42,14.56l-.39,13.7,7.01,11.48c3.85,6.32,8.39,14.88,10.07,19.01,1.68,4.15,4.62,10.66,6.56,14.47l3.5,6.93-5.6-.37-5.59-.37-4.87-11.32c-7.1-16.52-12.17-24.96-14.95-24.96s-3.78,1.62-11.32,20.81c-5.66,14.4-6.32,15.5-9.46,15.88-2.88.33-3.27.09-2.52-1.79.46-1.2,2.89-7.54,5.4-14.09,2.49-6.54,6.77-16.66,9.49-22.51,4.76-10.18,4.99-11.21,5.66-25.4.81-17.13.94-16.88-9.64-16.92-36.96-.09-85.24-20.24-119.25-49.75l-9.63-8.37.41,5.54c2.09,27.52,4.45,47.98,6.46,55.75,6.34,24.46,17.03,50.38,27.52,66.64,2.87,4.46,5.64,8.79,6.13,9.6.67,1.1-.57,1.5-4.88,1.5h-5.79l-5.55-9.24ZM1152.3,1628.45c39.69-8.26,72.94-28.61,94.44-57.81l5.44-7.39-.02-21c-.03-27.13-1.95-73.77-3.63-88.21-4.9-42.16-17.18-69.96-41.64-94.18-12.98-12.86-29.4-23.01-51.08-31.54-13.1-5.16-21.07-5.28-39.5-.52-25.75,6.65-69.18,24.15-87.56,35.27-34.09,20.65-50.86,48.15-56.79,93.11-2.77,20.87-1.94,92.47,1.21,106.92.83,3.74,17.42,20.22,29,28.79,28.68,21.25,56.55,33,91.76,38.64,1.64.25,12.33.55,23.8.62,17.79.13,22.82-.25,34.58-2.71h0ZM1159.87,1575.45c-5.47-2.21-27.23-4.74-46.33-5.38-22.65-.77-45.4-2.65-51.89-4.28-6.21-1.59-10.47-5.4-13.69-12.3-3.23-6.95-3.6-14.03-1.07-20.09,3.49-8.32,6.53-6.71,6.55,3.44.02,6.97,3.74,15.06,8.54,18.65,3.93,2.91,23.02,5.12,53.36,6.18,21.74.74,40.19,2.84,51.76,5.88,7.34,1.93,11.25.77,14.18-4.2l2.16-3.65-4.96-10.03c-6.86-13.81-10.73-16.37-25.57-16.88-7.69-.28-15.87.5-28.42,2.67-18.9,3.28-39.38,4.04-50.77,1.88-3.43-.66-9.4-2.6-13.26-4.33-5.58-2.51-7-3.69-7-5.88,0-4.11,3.7-4.57,9.95-1.25,2.99,1.59,9.35,3.56,14.12,4.37,11.02,1.86,34.4.79,49.7-2.29,25.25-5.09,36.28-4.74,46.53,1.4,5.4,3.25,7.08,5.2,11.41,13.33,6.34,11.84,6.71,17.11,1.69,24.02-5.88,8.13-8.99,9.9-17.25,9.81-4,0-8.39-.51-9.73-1.07h0ZM1060.66,1448.15c-3.3-3.3-5.2-11.45-4.28-18.38.98-7.39,2.97-12.15,7.12-17.07,2.91-3.44,3.93-3.87,9.44-3.87,6.95,0,10.56,1.95,13.25,7.15,6.51,12.59-5.91,34.49-19.57,34.49-2.01,0-4.66-1.03-5.96-2.32h0ZM1148.7,1446.52c-2.4-.81-5.33-3.15-6.97-5.56-2.43-3.58-2.75-5.2-2.28-11.36.7-9.03,3.19-13.9,9.42-18.41,6.17-4.48,11.39-4.64,16.28-.53,9.7,8.16,7.5,25.33-4.29,33.64-4.72,3.32-7.48,3.83-12.15,2.23h0ZM1178.25,1388.72c-10.19-6.65-19.82-10.49-29.03-11.58-6.91-.81-8.04-2.27-4.33-5.6,2.54-2.31,9.83-2.58,17.49-.65,4.98,1.26,5.6,1.1,11.08-2.4,3.17-2.04,6.74-4.77,7.92-6.08,2.62-2.89,4.15-3.02,4.15-.37,0,1.1-2.6,4.54-5.8,7.61l-5.81,5.61,2.9,1.31c4.4,2.01,5.31,1.73,13.23-4.03,4.04-2.93,7.97-5.35,8.7-5.35,2.1,0-2.1,5.99-7.67,10.93-4.66,4.15-4.83,4.52-2.91,6.45,1.9,1.94,2.34,1.94,7.04.09,2.77-1.09,5.29-1.69,5.62-1.38,1,1.01-4.97,6.65-9.47,8.98l-4.31,2.19-8.8-5.71v-.02ZM1036.81,1388.07c0-.92-.96-1.99-2.12-2.38-4.52-1.42-7.67-10.99-5.49-16.63,1.16-3,3.93-2.19,4.67,1.38.92,4.41,4.26,11,5.56,11,.59,0,2.69-.83,4.67-1.86,2.73-1.42,3.39-2.36,2.67-3.87-1.36-2.91-1.24-14.45.15-14.6.67-.09,2.19,3,3.43,6.84,1.24,3.82,2.36,7.1,2.52,7.28.15.18,2.43,0,5.05-.42,4.74-.76,4.78-.79,3.15-3.91-2.06-3.95-2.12-7.83-.13-9.48,2.67-2.23,4.78.44,4.9,6.22l.11,5.47h5.37c4.9,0,12.28,3.58,10.69,5.14-.65.62-9.99,2.34-23.76,4.33-5.33.77-10.88,2.45-13.88,4.22-5.73,3.36-7.56,3.65-7.56,1.24v.02ZM1184.33,1715.42c-4.24-2.86-12.03-7.65-17.31-10.69-12.44-7.15-19.04-12.83-18.03-15.46,1.22-3.15,3.8-2.43,14.89,4.09,5.68,3.36,14.56,8.57,19.73,11.61,15.63,9.16,20.72,15.62,12.33,15.62-2.6,0-6.43-1.72-11.61-5.16h0ZM1002.34,1687.35c-.68-1.27-1.24-2.75-1.24-3.28,0-1.01,33.11-.77,37.81.26,2.28.51,2.51.98,1.46,2.97-1.18,2.18-2.56,2.34-19.03,2.34s-17.86-.18-19-2.3v.02ZM1188.52,1684.69c-25.27-1.14-27.97-1.51-27.97-3.91s1.9-2.54,20.08-1.68c8.92.42,24.17.81,33.9.88,15.59.11,17.58.35,16.94,2.01-.39,1.03-.72,2.38-.72,2.99,0,1.23-9.81,1.16-42.23-.3h0Z"/>
      </g>
      <path d="M1198.61,1874.9c-357.75-.49-475.88-.98-476.96-2.12-1.08-.98-.87-1.6.87-2.58,1.82-.89,103.1-2.73,156.16-2.73h8.87l3.19-5.46c4.57-7.82,14.36-16.13,25.8-21.83,5.48-2.7,10.72-4.94,11.67-4.94,2.05,0,2.12-.61.42-3.47-.71-1.13-2.26-6.84-3.46-12.54l-2.18-10.27-3.42,4.45c-5.2,6.84-7.1,5.95-12.85-5.67-2.76-5.7-5.42-11.53-5.89-13.15-.82-2.73-1.65-2.12-12.41,8.31-11.49,11.04-19.71,16.22-22.13,13.89-.8-.89.74-5.83,4.45-14.63,10.62-25.05,15.79-46.24,21.26-87.14,5.92-44.25,7.29-67.52,6.53-111.52-.38-22.2-1.25-50.56-1.93-63.23-6.87-127.28-5.79-161.35,6.18-195.41,13.05-37.07,43.05-78.46,70.5-97.05,9.9-6.68,28.27-15.48,37.76-17.97,8.25-2.12,26.07-2.48,30.93-.61,1.76.61,3.19,1.96,3.19,2.98,0,1.35-3.26,1.84-16.42,2.21-14.94.49-17.32.89-26.43,4.48-23.42,9.29-43.81,25.14-59.82,46.45-21.21,28.27-33.93,55.78-39.48,85.15-1.88,10.06-2.21,18.46-2.14,55.77,0,24.16,1.03,62.7,2.19,85.52,4.4,86.5,4.87,104.59,3.42,131.24-3.76,69.14-12.54,121.58-25.95,154.79-1.45,3.46-2.16,6.44-1.58,6.44s6.4-5.58,12.92-12.39c6.53-6.81,12.52-12.39,13.32-12.39.93,0,1.23,1.23.8,3.47-.46,2.36.85,6.56,4.38,14.26,2.76,5.95,5.25,10.79,5.52,10.79s1.83-.89,3.48-1.99c2.28-1.5,2.86-2.73,2.43-5.21-1.16-6.56-10.47-68.53-10.47-69.76,0-.64,1.19-2.36,2.65-3.74,2.45-2.45,2.54-3.22,1.24-8.8-1.69-7.3-1.79-13.37-.28-15.73,1.21-1.84,12.58-4.08,14.05-2.73.51.49,1.07,6.32,1.24,13.03.3,11.77.37,12.02,3.1,11.53,1.99-.4,2.79.12,2.79,1.6,0,1.75,1.01,1.99,6.79,1.5,6.52-.52,6.84-.4,8.12,2.98,2.11,5.55,6.16,30.97,6.16,38.79,0,3.96-.73,8.03-1.66,9.29-1.53,2.09-1.81,1.96-3.61-2.61-1.07-2.61-2.87-10.92-4-18.33-3.35-22.2-3.67-23.55-5.63-23.79-5.11-1.01-5.27.86-1.96,23.3,7.35,49.79,8.37,62.83,5.11,65.56-2.71,2.21-4.04-2.24-6.95-23.43-1.38-9.93-3.85-27.9-5.53-39.8-1.67-11.9-3.03-23.79-3.03-26.4,0-5.06-.51-5.31-7.68-3.1-4.08,1.26-4.76,1.87-4.16,3.99,1.85,6.56,15.6,91.07,15.58,95.79,0,1.5-.43,2.85-.94,3.22-.51.25-.12.25.93-.12,1.01-.24,7.5-.73,14.39-1.1,9.88-.64,13.98-.24,19.39,1.47,15.95,4.97,23.83,18.33,17.75,30.11l-2.03,3.99,56.12-.24c52.89-.4,56.09-.52,55.74-2.61-.2-1.14,2.16-12.66,5.24-25.42,6.27-25.91,8.87-41.03,10.11-58.75q.84-12.02-2.27-13.49c-3.1-1.38-8.38-9.17-8.38-12.39,0-1.01,3.41-8.68,7.57-17.23,13.49-27.63,18.03-38.79,22.93-56.39.38-1.38-2.62,3.34-6.65,10.52-10.56,18.73-18.12,30.88-43.28,70.03-21.66,33.7-53.04,85.03-58.5,95.67-1.78,3.59-3.5,5.34-5.13,5.34-3.01,0-3.02.37.19-8.19,4.8-12.88,23.52-44.37,61-102.72,12.26-19.1,29-45.87,37.23-59.49l14.94-24.8.45-14.14c.25-7.67.12-15.85-.3-18.09l-.77-4.08-14.72-.12c-21.53-.12-53.15-5.46-58.96-10.03-.68-.52-3.2-1.38-5.58-1.87-6.22-1.23-32.26-14.5-44.61-22.81-5.8-3.83-10.85-7.05-11.23-7.3-.38-.12.31,4.57,1.55,10.52,3.81,18.61,5.42,50.56,3.71,73.74-1.69,22.93-5.26,47.83-8.98,62.34-3.21,12.63-9.08,25.42-11.64,25.42-1.05,0-1.92-.25-1.92-.49s1.97-7.7,4.36-16.5c2.41-8.68,5.86-25.66,7.7-37.56,2.91-19.07,3.33-25.51,3.37-52.65,0-32.96-1.19-46.36-6.16-65.43-1.55-5.95-2.57-11.9-2.23-13.15.63-2.36-5.11-43.36-10.14-72.36-6.26-36.06-6.92-42.77-6.87-70.52,0-29.25.88-37.56,6.37-62.83,4.78-21.95,9.47-36.95,11.84-37.81,2.5-.98,4.15.12,4.15,2.85,0,4.72,13.89,13.52,24.34,15.36,3.84.73,3.91.61,4.73-5.09,1.48-10.27,3.57-15.48,8.25-20.3,4.25-4.6,4.95-4.85,10.03-4.23,3.1.37,8.56,2.48,12.62,4.97,7.31,4.32,26.41,11.9,30.3,11.9,1.36,0,3.9-3.1,6.9-8.43,6.74-11.77,10.41-16.34,13.19-16.34,1.33,0,2.42.61,2.42,1.35,0,.61-3.35,7.05-7.44,14.14-4.09,7.05-7.44,13.74-7.44,14.75,0,1.1-1.43,2.85-3.16,3.96-2.52,1.75-3.71,1.87-5.89.74-1.5-.86-6.63-2.61-11.4-4.08-8.6-2.61-23.9-9.78-30.92-14.63-2.92-1.99-4.02-2.24-5.46-.98-3.24,2.73-5.13,9.29-5.13,17.97,0,6.81-.47,8.92-2.38,10.64-1.86,1.75-2.91,1.87-4.87.89-1.37-.77-3.56-1.38-4.83-1.38-5.15,0-15.39-4.08-20.87-8.19-6.61-5.06-7.04-4.81-9.23,5.09-8.76,39.52-8.84,39.92-9.52,68.41-.72,29.99,0,38.91,5.96,71.38,1.97,10.79,5.55,32.47,7.95,48.36,2.42,15.85,4.66,29.62,4.99,30.72,1.41,4.57,30.51,23.55,49.52,32.35,27.54,12.76,42.96,16.1,78.08,16.59,25.36.4,28.21.25,40.7-2.58,31.22-7.08,59.98-22.57,81.4-44,9.72-9.69,22.6-26.89,27.81-37.07,1.67-3.22,2.42-3.83,3.31-2.48,4.24,6.32-14.25-136.33-21.21-163.71-1.3-5.09-4.94-15.36-8.1-22.94-6.46-15.36-6.95-17.32-4.31-17.32,2.08,0,12.01,19.07,16.1,30.97,2.96,8.68,7.95,34.47,14.1,73.13,5.39,33.82,8.13,56.02,13.82,112.13,13.04,128.66,21.55,159.26,54.01,193.85,7.46,8.06,7.93,8.31,8.71,5.58.46-1.62.89-5.83.95-9.41.26-13.64,4.3-16.86,11.38-9.08,4.77,5.21,13.11,9.57,14.88,7.82,1.14-1.11-11.84-21.68-18.86-29.87-10.81-12.63-21.72-50.56-26.51-91.96-1.5-13-4.08-56.14-4.01-66.94.14-18.95,2.53-76.81,4.18-101.12,2.85-42.01,2.85-96.53,0-116.36-3.29-22.66-8.95-43.11-15.75-56.63-10.02-20.08-28.8-40.41-46.41-50.56-33.16-18.95-78.8-27.75-122.02-23.67-35.36,3.47-57.5,10.92-82.8,27.87-10.94,7.33-12.63,8.06-12.63,5.09,0-3.71,27.3-21.43,42.31-27.38,40.2-15.85,102.22-17.11,147.07-2.85,32.57,10.4,56.7,27.75,72.79,52.43,16.47,25.27,23.85,52.03,26.74,96.65,1.45,22.57.9,50.07-2.06,102.14-2.43,42.74-2.44,115.26,0,141.51,4.6,50.32,14.72,87.27,31.12,113.67,4.58,7.3,10.53,16.34,13.21,19.93,5.16,6.96,5.65,10.43,1.6,11.28-1.35.24-3.82,1.5-5.48,2.85-3.66,2.85-8.13,2.24-15.99-2.36-2.95-1.72-5.57-2.85-5.84-2.61-.27.28-.62,3.99-.79,8.31-.3,7.45-.55,7.94-4.6,10.79l-4.29,2.85-4.55-3.34c-7.3-5.34-12.57-10.3-19.11-17.97-3.37-3.86-6.91-7.08-7.89-7.08s-4.91-1.84-8.75-4.2c-3.84-2.36-9.67-5.58-12.95-7.05l-5.98-2.97-10.77,11.5c-10.32,10.92-13.84,13.4-13.84,9.69,0-.89-1.53-2.73-3.38-3.99-6.11-3.96-15.43-13.37-21.04-21.31-3.05-4.2-5.69-7.67-5.89-7.67s-5.29,5.55-11.34,12.39c-10.96,12.39-14.48,14.99-16.88,12.63-.87-.86-.34-2.24,1.7-4.2,1.65-1.63,8.48-9.2,15.21-16.86,6.72-7.57,13.19-13.89,14.35-13.89,1.28,0,3.97,2.98,6.62,7.33,4.76,7.67,16.55,20.57,22.19,24.16l3.37,2.24,10.46-10.92c8.13-8.43,10.83-10.55,12.12-9.54,1.4,1.1,16.74,7.79,17.99,7.79.24,0-.62-2.09-1.92-4.69-6.63-13.03-14.16-42.65-18.76-73.74-2.32-15.73-9.91-84.9-9.91-90.48,0-1.72-2.28.77-7.06,7.94-9.41,13.89-32.84,37.32-46.23,45.99-22.84,14.99-42.46,23.03-69.26,28.36l-14.12,2.73.8,13c.43,7.21.79,15.39.79,18.24,0,3.96.83,6.2,3.41,9.05,4.91,5.43,9.48,12.14,22.64,33.09,18.58,29.62,30.71,46.58,57.64,80.55,19.1,24.04,30.53,40.26,30.08,42.5-.2,1.01-1.32,2.48-2.47,3.22-1.7,1.01-2.65.49-4.96-2.33-1.58-2.12-5.66-6.84-9.1-10.55-19.01-20.82-54.06-67.55-70.85-94.56-5.85-9.41-10.79-16.86-10.98-16.74-.2.28,1.58,7.33,3.93,15.88,2.34,8.56,5,19.69,5.92,24.78,1.59,8.92,1.7,9.17,3.26,5.83.89-1.87,2.08-3.34,2.65-3.34,3.44,0-2.5,11.04-8.89,16.5-9.43,8.03-21.83,9.05-27.59,2.21-2.71-3.22-3.22-3.34-5.96-1.84-1.65.86-4.67,1.72-6.71,1.72s-4.34.49-5.09,1.01c-.83.49-1.66,7.42-2.1,17.6-.46,10.52-1.89,22.17-3.85,31.58-2.98,14.14-10.43,42.13-12.44,46.73-.89,2.11,1.35,2.24,37.54,2.24h38.48l-2.29-5.34c-2.63-5.95-12.44-73.25-12.44-85.15,0-6.56.3-7.54,2.14-7.18,1.71.37,2.84,3.96,5.55,17.72,5.58,28.49,9.89,58.87,9.9,69.76,0,9.81.14,10.3,2.68,9.93,2.48-.4,2.68-1.14,3.01-12.42.32-11.25.54-12.14,3.57-14.63,2.9-2.21,4.97-2.45,20.71-2.45,9.63,0,27.54.61,39.81,1.23,12.27.74,46.29,1.75,75.6,2.36,29.31.61,54.97,1.59,57.01,2.24,6.46,1.96,4.65,4.69-3.1,4.69-22.84,0-98.57-2.24-126.41-3.83-18.07-.86-39.4-1.75-47.4-1.75h-14.56v24.81h48.47c47.12,0,48.4-.12,45.68-2.24-2.37-1.99-2.66-2.98-1.93-6.93.97-5.09,3.33-5.46,4.47-.64.51,2.12,1.55,2.98,3.76,2.98,1.87,0,3.04-.74,3.04-1.84,0-2.61,3.59-2.36,4.12.37.51,2.61-1.79,5.7-5.32,7.05-1.38.61,26.91,1.13,62.86,1.13l65.37.12v-5.46c0-9.05.12-9.05,11.51-8.43,5.6.24,10.66.98,11.26,1.5,1.56,1.47-.12,7.05-2.99,9.9-2.43,2.48-1.93,2.48,116.53,2.48h118.97v-10.92l-8.99-.74c-15.78-1.26-89.72-4.35-121.14-5.09-38.96-.86-84.11-2.85-99.14-4.32-29.8-2.85-43.36-4.97-50.03-7.7-6.93-2.85-6.96-2.85-6.19-7.18,1.39-7.7,6.07-15.27,51.67-83.43,24.66-36.92,52.87-80.43,62.66-96.65,9.79-16.25,18.81-29.99,20.04-30.6,2.91-1.63,7.04-1.63,7.57,0,.22.73,9.68,2.57,21.01,4.32,32.01,4.72,58.27,10.55,152.29,34.1,41.74,10.39,51.7,12.76,79.31,17.97,23.75,4.45,28.99,6.07,28.16,8.4-1.62,4.6-39.41-2.58-119.87-22.66-104.2-26.03-150.22-35.94-153.28-32.96-.81.74-13.83,22.05-28.95,47.22-41.51,69.27-51.67,84.87-76.73,118.08-7.87,10.55-17.45,23.92-21.28,29.86l-6.95,10.92,24.3,2.11c33.75,2.85,64.23,4.2,124.08,5.7,28.28.73,67.6,2.08,87.37,3.1,19.76.98,41.83,1.84,49.03,1.84,14.78,0,19.26,1.62,15.47,5.34-1.6,1.62-4.35,2.11-11.77,2.11-10.54,0-11.2.49-11.2,7.54v3.62h22.21c12.21,0,23.09.37,24.17.74,2.35.86,2.54,3.47.4,5.21-2.49,2.09-27.71,2.09-530.35,1.47h-.04ZM980.08,1862.14c-1.71-10.3-7.15-16.86-16.57-20.08-7.2-2.48-23.11-2.36-32.79.12-13.79,3.59-29.57,13.77-33.7,21.68l-1.86,3.62h85.8l-.88-5.34ZM1434.79,1864.38c3.07-4.6,2.48-5.58-3.49-5.58s-7.49,1.23-6.37,5.7c1.06,4.2,7.09,4.2,9.86-.12h0ZM1404.4,1827.68c1.61-3.47,7.23-11.9,12.47-18.83,26.1-34.59,39.5-54.8,81.84-123.57,16.57-26.89,31.45-50.69,33.08-52.92l2.94-3.96-4.59-1.23c-2.53-.77-4.67-1.14-4.77-1.01-.12.12-6.83,11.65-14.94,25.67-8.12,13.89-35.56,56.51-60.96,94.56-46.71,69.88-55.45,84.38-52.18,86.5,3.05,1.99,4.14,1.1,7.11-5.21h0ZM1159.57,1762.12c3.21-1.96,5.83-3.96,5.83-4.32s-1.43-2.85-3.19-5.46c-1.75-2.73-4.97-11.28-7.16-19.35l-3.98-14.35-6.94-.52c-7.97-.49-14.37-3.34-15.75-7.05-.76-1.99-2.95,1.63-11.08,18.21-5.59,11.41-10.15,21.92-10.15,23.43s1.44,4.08,3.2,5.83c2.93,2.73,4.24,2.97,15.22,2.97,9.29.12,12.69.61,15.03,2.24,4.76,3.34,12.23,2.73,18.97-1.63h0ZM923.92,1715.67c-.31-6.23-.84-8.07-2.29-8.07-1.21,0-1.62.74-1.14,1.96.42,1.14.76,4.72.76,8.07,0,3.99.52,6.07,1.55,6.07,1.13,0,1.44-2.24,1.13-8.03h0ZM1149.28,1711.32c0-.98-6.19-24.65-8.19-31.37-.36-1.1-1.61-2.09-2.8-2.09-1.63,0-2.53,1.84-3.73,7.67-.88,4.23-2.6,10.43-3.84,13.64-1.85,4.85-1.95,5.95-.52,5.95.96,0,1.74.61,1.74,1.23,0,2.36,7.98,6.19,12.7,6.19,2.55,0,4.65-.49,4.65-1.23h0ZM1208.36,1862.88c-1.19-1.1-.99-10.64.27-12.63,1.15-1.75,17.18-3.22,22.14-1.99,4.21,1.01,3.78,7.33-.83,11.9-5.07,5.09-7.14,4.6-3.94-.86,1.44-2.36,2.6-4.85,2.6-5.58,0-.61-3.35-1.1-7.44-1.1-6.34,0-7.44.37-7.44,2.21,0,1.26.63,2.85,1.4,3.62,2.12,2.09.31,5.31-3.01,5.31-1.61,0-3.31-.37-3.75-.86h0ZM1384.75,1855.7c0-7.57.21-8.19,3.19-9.29,1.75-.77,5.65-1.26,8.67-1.26,3.23,0,5.49-.61,5.49-1.35,0-1.01.49-1.01,1.55-.25.86.74,3.64,1.6,6.2,2.09,3.01.64,4.65,1.5,4.65,2.73,0,1.75-1.85,1.87-12.39,1.5l-12.39-.37v4.69c0,5.09-1.77,9.54-3.77,9.54-.66,0-1.19-3.59-1.19-8.03h0ZM1694.57,1842.06c0-1.99,3.13-5.83,19.27-23.55,30.46-33.45,54.58-64.05,82.33-104.71,18.99-27.75,24.81-34.71,24.81-29.62,0,2.85-36.04,56.76-53.47,80.06-15.03,19.96-38.52,47.46-56.4,65.8-12.89,13.4-16.53,15.97-16.53,12.02h0ZM1283.69,1825.19c-1.3-2.08,8.81-10.52,19.14-15.85,19.17-9.9,42.99-14.14,52.47-9.29,6.33,3.34,8.29,6.56,8.34,13.89,0,7.3-1.54,11.38-4.4,11.38-1.46,0-1.7-.98-1.07-4.2,2.2-11.77-6.53-19.19-20.65-17.6-16.27,1.87-36.52,9.9-46.76,18.46-6.03,5.09-5.94,5.09-7.06,3.22h0ZM1283.56,1781.84c.77-20.08,3.89-54.15,5.06-55.41.29-.24,1.75-.12,3.25.37,2.53.89,2.68,1.5,1.97,7.94-.42,3.83-1.64,18.21-2.7,31.98-2.44,31.83-3.07,35.57-6.07,36.06-2.24.49-2.31-.37-1.5-20.94h0ZM1599.22,1757.92c-1.71-2.12-.95-5.21,4.6-19.1,3.94-9.78,5.55-12.14,7.61-10.89,2.07,1.35,1.67,3.59-2.42,13.86-3.83,9.69-3.99,12.02-.6,9.17,3.3-2.73,2.05.77-1.71,4.85-4.01,4.35-5.34,4.72-7.49,2.12h0ZM1653.53,1758.66c-.12-.49,0-1.87.12-2.97.19-1.87-.36-1.87-6.03-.37-7.36,1.99-11.23,1.23-11.23-1.99s-.89-2.98-7.31,1.38c-6.2,4.2-11.99,4.81-13.05,1.47-1.32-4.08,4.13-16.86,7.87-18.21,3.46-1.35,4.2,1.63,1.5,5.95-6.67,10.79,1.07,11.16,11.65.49,4.89-4.81,7.29-4.45,6.39,1.14-.92,5.55.9,6.32,8.58,3.71,3.16-1.13,6.23-1.63,6.83-1.26,1.45.89,1.39,5.09-.12,7.82-1.27,2.48-4.9,4.48-5.15,2.85h-.05ZM995.6,1749.24c0-.86,3.77-4.48,8.37-7.94,4.6-3.46,14.5-11.9,22-18.83,8.98-8.19,14.44-12.39,16-12.14,1.77.25,3.24,2.98,5.74,10.39,5.95,17.72,4.52,17.48,18.48,3.71,11.6-11.38,15.02-13.49,16.88-10.52.93,1.47-23.9,27.14-28.9,29.74-2.83,1.59-3.3,1.35-6.02-1.99-1.62-2.09-4.41-8.03-6.18-13.37l-3.25-9.81-3.89,3.62c-2.13,1.84-7.23,6.56-11.33,10.4-15.27,14.13-27.88,21.83-27.88,16.74h0ZM1202.56,1351.06c-7.53-3.99-17.16-9.81-21.4-13.03l-7.71-5.83-2.78,5.83c-1.53,3.22-2.78,6.68-2.79,7.82,0,8.55-24.49,6.07-46.89-4.6-11.14-5.31-21.68-14.99-21.07-19.19.65-4.6,4.2-4.23,10.62,1.1,8.9,7.45,18.02,12.02,33.87,16.86,7.9,2.48,14.86,4.45,15.49,4.45s2.78-4.08,4.76-8.92c5-12.39,11.18-18.21,12.76-12.14.36,1.38,1.22,2.48,1.91,2.48s3.83,1.87,6.98,4.11c7.16,5.06,26.68,15.73,28.96,15.73.94,0,3.34-3.47,5.35-7.7,4.62-9.66,9.94-17.11,12.32-17.11,2.89,0,2.27,2.48-3.88,15.02-3.15,6.44-5.7,13.12-5.66,14.99.12,3.1-3.47,7.18-6.21,7.18-.52,0-7.1-3.22-14.64-7.05h0Z"/>
      <g>
        <path class="cls-4" d="M1378.91,1305.87c.02-1.34,1.4-2.67,3.98-3.8,4.33-1.89,20.45-14.23,28.07-21.48,3.96-3.75,9.67-10.09,12.67-14.07,14.11-18.74,24.52-48.24,23.81-67.46l-.28-7.46-20.06-3.96c-63.18-12.48-105.73-28.76-138.06-52.82-46.84-34.86-63.33-74.79-49.95-121.09,14.64-50.79,66.27-101.79,130.72-129.18,30.27-12.87,69.6-22.54,104.65-25.74,6.49-.6,17.06-1.7,23.48-2.46,6.4-.78,19.51-1.82,29.1-2.35,9.63-.51,21.79-1.46,27.03-2.1,15.59-1.93,94.16-1.57,115.06.53,60.42,6.05,113.57,17.41,151.33,32.33,38.04,15.01,72.09,39.47,92.17,66.18,5.85,7.76,14.81,24.75,17.67,33.41,6.24,18.97,5.62,47.34-1.5,68.57-13.2,39.37-47.32,72.5-101.64,98.64-44.81,21.55-104.67,37.07-170.8,44.28-30.9,3.36-40.67,3.94-73.59,4.4-17.85.25-32.44.55-32.47.64-.02.12-1.87,3.87-4.1,8.34-9.9,19.89-29.59,39.68-54.61,54.92-11.93,7.27-39.19,21.3-52.09,26.78-14.37,6.15-34.08,12.5-44.03,14.25-8.87,1.54-16.6,1.89-16.58.71h0ZM1411.36,1294.7c27.3-7.83,74.28-31.13,95.46-47.34,12.85-9.83,29.17-28.05,34.65-38.64,1.08-2.09,2.85-6.4,3.96-9.56l1.98-5.73,37.71-.6c36.36-.58,43.93-1.01,73.04-4.19,128.9-14.12,223.72-57.77,256.16-117.89,4.88-9.07,9.23-21.46,11.28-32.21,2.35-12.27,2.16-30.95-.39-41.42-12.3-50.45-66.17-94.64-141.35-115.89-46.59-13.17-93.55-20.54-149.09-23.44-35.32-1.82-114.44.09-136.94,3.32-5.73.83-13.7,1.5-17.71,1.5-18.33,0-68.43,10.93-94.06,20.56-14.39,5.36-36.31,15.73-47.62,22.45-22.08,13.13-47.18,34.4-63.14,53.49-23.83,28.51-35.27,58.44-33.59,87.77.74,12.67,2.42,19.05,8.25,31.11,17.87,36.91,60.72,68.18,119.37,87.13,16.51,5.32,39.95,11.12,62.38,15.43,10.4,2,19.11,3.84,19.36,4.07.85.88,2.28,11.79,2.28,17.57.02,17.36-9.14,43.84-21.58,62.49-4.6,6.87-19.64,22.91-28.06,29.94-2.35,1.96-3.64,3.38-2.86,3.13.78-.23,5.51-1.62,10.5-3.04h0Z"/>
        <g>
          <path class="cls-1" d="M1420.38,1030.56c0,1.41,0,3.52.03,6.33s.03,4.92.03,6.33c0,.43.03,1.08.1,1.96s.1,1.53.1,1.96c0,.84-.28,1.53-.85,2.07s-1.26.81-2.08.81c-1.5,0-2.46-.93-2.87-2.78-2.44,1.27-5.25,1.9-8.44,1.9-2.56,0-4.68-.57-6.36-1.7-1.86-1.25-2.96-3.08-3.31-5.48-.76-5.18-1.14-9.79-1.14-13.83,0-2.68.29-5.72.88-9.14.27-1.7,1.2-2.55,2.78-2.55.84,0,1.54.27,2.11.81s.85,1.23.85,2.07c0,.9-.14,2.33-.42,4.31s-.42,3.48-.42,4.51c0,3.26.11,6.05.32,8.38s.54,4.19.97,5.6c.64.35,1.28.62,1.9.81s1.24.28,1.85.28c2.62,0,5.38-.42,8.29-1.26l-.03-5.95-.06-5.68c0-4.22.19-7.88.56-10.99.21-1.8,1.16-2.7,2.84-2.7.84,0,1.54.27,2.11.82s.83,1.23.79,2.05l-.53,11.07Z"/>
          <path class="cls-1" d="M1464.88,1050.11c-1.6,0-2.54-.85-2.81-2.55-.35-2.15-.7-5.18-1.05-9.08l-1-9.08c-.2-1.35-.53-2.67-1-3.96-.66-1.76-1.39-2.64-2.17-2.64-.72,0-2.07.62-4.04,1.85-1.88,1.13-3.11,2.04-3.69,2.72-.02,1.84.03,3.67.15,5.51l.88,7.82c.37,3.09.56,5.63.56,7.65,0,.86-.27,1.57-.81,2.12s-1.23.83-2.07.83-1.53-.28-2.07-.83-.81-1.26-.81-2.12c0-2.36-.24-5.85-.72-10.47s-.72-8.11-.72-10.47c0-2.07-.29-3.68-.88-4.83-1.37.62-2.75,1.64-4.16,3.05l-3.46,3.87c-.31.47-.81,1.08-1.49,1.85,0,1.17-.11,2.9-.32,5.19s-.32,3.97-.32,5.07c0,.59.09,1.41.28,2.46s.28,1.82.28,2.29c0,.8-.3,1.47-.89,2.02s-1.29.82-2.09.82c-2.21,0-3.31-2.51-3.31-7.53,0-1.17.11-2.92.32-5.24s.32-4.07.32-5.24c0-1.04-.09-2.59-.28-4.66s-.28-3.63-.28-4.69c0-4.43,1-6.65,2.99-6.65.76,0,1.46.33,2.09,1s.95,1.39.95,2.17c0,.37-.05.95-.15,1.73s-.15,1.38-.15,1.79l.06,3.08c1.02-2.09,2.51-3.98,4.48-5.67s3.65-2.53,5.04-2.53c3.07,0,5.18,1.52,6.33,4.57,1.07-1.43,2.35-2.5,3.84-3.21s3.18-1.07,5.1-1.07c3.26,0,5.49,1.76,6.68,5.27.23.7.63,3.45,1.2,8.23.55,3.36,1.25,8.96,2.11,16.79.06.78-.21,1.45-.79,1.99s-1.3.82-2.14.82Z"/>
          <path class="cls-1" d="M1511.49,1050.11c-1.6,0-2.54-.85-2.81-2.55-.35-2.15-.7-5.18-1.05-9.08l-1-9.08c-.2-1.35-.53-2.67-1-3.96-.66-1.76-1.39-2.64-2.17-2.64-.72,0-2.07.62-4.04,1.85-1.88,1.13-3.11,2.04-3.69,2.72-.02,1.84.03,3.67.15,5.51l.88,7.82c.37,3.09.56,5.63.56,7.65,0,.86-.27,1.57-.81,2.12s-1.23.83-2.07.83-1.53-.28-2.07-.83-.81-1.26-.81-2.12c0-2.36-.24-5.85-.72-10.47s-.72-8.11-.72-10.47c0-2.07-.29-3.68-.88-4.83-1.37.62-2.75,1.64-4.16,3.05l-3.46,3.87c-.31.47-.81,1.08-1.49,1.85,0,1.17-.11,2.9-.32,5.19s-.32,3.97-.32,5.07c0,.59.09,1.41.28,2.46s.28,1.82.28,2.29c0,.8-.3,1.47-.89,2.02s-1.29.82-2.09.82c-2.21,0-3.31-2.51-3.31-7.53,0-1.17.11-2.92.32-5.24s.32-4.07.32-5.24c0-1.04-.09-2.59-.28-4.66s-.28-3.63-.28-4.69c0-4.43,1-6.65,2.99-6.65.76,0,1.46.33,2.09,1s.95,1.39.95,2.17c0,.37-.05.95-.15,1.73s-.15,1.38-.15,1.79l.06,3.08c1.02-2.09,2.51-3.98,4.48-5.67s3.65-2.53,5.04-2.53c3.07,0,5.18,1.52,6.33,4.57,1.07-1.43,2.35-2.5,3.84-3.21s3.18-1.07,5.1-1.07c3.26,0,5.49,1.76,6.68,5.27.23.7.63,3.45,1.2,8.23.55,3.36,1.25,8.96,2.11,16.79.06.78-.21,1.45-.79,1.99s-1.3.82-2.14.82Z"/>
          <path class="cls-1" d="M1524.64,1050.4c-1.02,0-1.88-.35-2.58-1.05s-1.05-1.56-1.05-2.58.35-1.85,1.05-2.56,1.56-1.07,2.58-1.07,1.85.36,2.56,1.07,1.07,1.57,1.07,2.56-.36,1.88-1.07,2.58-1.57,1.05-2.56,1.05Z"/>
          <path class="cls-1" d="M1539.59,1050.4c-1.02,0-1.88-.35-2.58-1.05s-1.05-1.56-1.05-2.58.35-1.85,1.05-2.56,1.56-1.07,2.58-1.07,1.85.36,2.56,1.07,1.07,1.57,1.07,2.56-.36,1.88-1.07,2.58-1.57,1.05-2.56,1.05Z"/>
          <path class="cls-1" d="M1554.53,1050.4c-1.02,0-1.88-.35-2.58-1.05s-1.05-1.56-1.05-2.58.35-1.85,1.05-2.56,1.56-1.07,2.58-1.07,1.85.36,2.56,1.07,1.07,1.57,1.07,2.56-.36,1.88-1.07,2.58-1.57,1.05-2.56,1.05Z"/>
          <path class="cls-1" d="M1596.1,1048.7c-1.95,0-4.1-.31-6.45-.94l-.06,14c0,.86-.27,1.56-.81,2.11s-1.23.82-2.07.82-1.53-.27-2.07-.82-.81-1.25-.81-2.11l.09-11.72v-11.69c-.06-4.28-.21-8.17-.44-11.69l-.44-5.95c0-1.39.25-2.56.76-3.52.59-1.15,1.44-1.73,2.55-1.73.76,0,1.4.27,1.92.81s.78,1.2.78,1.98c0,.18-.03.5-.09.97-.1.61-.17,1.16-.21,1.67,1.68-1.15,3.3-2.02,4.86-2.59s3.06-.86,4.48-.86c4,0,6.93,1.78,8.79,5.33,1.46,2.81,2.2,6.53,2.2,11.16,0,4.22-1.13,7.7-3.4,10.43-2.4,2.89-5.61,4.34-9.61,4.34ZM1598.12,1023.3c-1.8,0-3.42.4-4.86,1.2-1.04.57-2.34,1.6-3.93,3.11.25,4.43.38,9.09.38,13.97,2.13.82,4.26,1.23,6.39,1.23,2.44,0,4.31-.91,5.6-2.72,1.11-1.58,1.67-3.63,1.67-6.15,0-3.55-.43-6.22-1.3-7.98s-2.18-2.65-3.94-2.65Z"/>
          <path class="cls-1" d="M1638.52,1026.02c-.14,2.44-1.11,3.66-2.93,3.66-1.68,0-2.52-.97-2.52-2.9,0-.37-.03-1.05-.09-2.05l-.09-2.46c-3.09.37-5.56,1.24-7.41,2.61-1.74,1.27-3.18,3.18-4.34,5.74l.06,16.05c0,1.97-.97,2.96-2.9,2.96-1.72,0-2.58-.99-2.58-2.96v-20.57c0-.64.02-1.61.07-2.9s.07-2.26.07-2.9c0-1.97.86-2.96,2.58-2.96,1.91,0,2.88,1.62,2.9,4.86,3.75-3.61,7.91-5.42,12.48-5.42,1.58,0,2.76.6,3.54,1.79s1.17,2.99,1.17,5.39c0,1.02,0,1.7-.03,2.05Z"/>
          <path class="cls-1" d="M1651.47,1034.37c0,1.17.03,2.92.1,5.26s.1,4.09.1,5.26c0,.86-.26,1.56-.79,2.11s-1.22.82-2.08.82-1.53-.27-2.07-.82-.81-1.25-.81-2.11c0-1.17-.03-2.92-.1-5.26s-.1-4.09-.1-5.26c0-1.84.1-4.13.29-6.87s.29-5.03.29-6.87c0-.88.27-1.59.81-2.14s1.23-.82,2.07-.82,1.53.27,2.07.82.81,1.26.81,2.14c0,1.84-.1,4.13-.29,6.87s-.29,5.03-.29,6.87ZM1650.15,1010.58c-.94,0-1.75-.33-2.43-1s-1.03-1.46-1.03-2.4.34-1.74,1.03-2.4,1.49-1,2.43-1,1.74.33,2.42,1,1.01,1.46,1.01,2.4-.34,1.74-1.01,2.4-1.48,1-2.42,1Z"/>
          <path class="cls-1" d="M1674.88,1046.15c-.06,1.8-.95,2.7-2.67,2.7-1.43,0-2.46-.84-3.11-2.52l-4.48-11.89-5.21-13.45c-.2-.51-.29-.96-.29-1.35,0-.8.3-1.48.91-2.05s1.31-.85,2.11-.85c1.17,0,2.01.6,2.52,1.79l7.44,20.48c1.46-3.12,3.31-7.66,5.54-13.59.53-1.56,1.36-3.77,2.49-6.62.61-1.25,1.46-1.88,2.58-1.88.8,0,1.5.28,2.11.85s.91,1.24.91,2.02-1.61,4.92-4.83,12.54l-6.01,13.83Z"/>
          <path class="cls-1" d="M1713.43,1049.61c-.37,0-1.04-.43-2.02-1.29-.88-.8-1.53-1.51-1.96-2.14-1.88,1.02-3.53,1.78-4.95,2.3s-2.62.78-3.57.78c-4.57,0-7.9-1.29-9.99-3.87-1.97-2.42-2.96-6.13-2.96-11.13,0-4.73,1.63-8.77,4.88-12.13s7.13-5.04,11.65-5.04c1.7,0,3.6.44,5.71,1.32,2.66,1.09,3.98,2.41,3.98,3.96,0,.53-.2,1-.59,1.41-.2.74-.35,1.96-.45,3.66s-.17,3.88-.19,6.53c-.02,2.42.15,4.34.5,5.74.2.86.81,2.58,1.85,5.16.14.35.36.87.67,1.55l.18.5c0,.78-.27,1.43-.82,1.93s-1.18.76-1.9.76ZM1707.34,1029.25c0-.84.05-1.75.16-2.74s.27-2.04.48-3.15c-.72-.37-1.34-.64-1.86-.82s-.93-.26-1.25-.26c-3.03,0-5.64,1.24-7.84,3.71s-3.3,5.32-3.3,8.54.57,5.61,1.7,7.21,2.83,2.4,5.1,2.4c1.88,0,3.47-.34,4.78-1.03.7-.37,1.69-1.11,2.96-2.23-.62-5.18-.94-9.05-.94-11.63Z"/>
          <path class="cls-1" d="M1734.5,1049.52c-4,0-7.34-1.21-10.02-3.63-2.81-2.54-4.22-5.89-4.22-10.05s1.32-8.06,3.96-12.28c2.93-4.69,6.23-7.03,9.9-7.03,1.91,0,4.05.45,6.42,1.35,2.99,1.15,4.48,2.56,4.48,4.22,0,.74-.24,1.4-.73,1.98s-1.09.86-1.82.86c-.57,0-1.06-.17-1.48-.51s-.83-.68-1.22-1.01c-1.15-.92-3.04-1.38-5.65-1.38-1.99,0-3.96,1.78-5.92,5.33-1.78,3.26-2.67,6.08-2.67,8.47,0,2.58.88,4.61,2.64,6.09,1.64,1.39,3.75,2.08,6.33,2.08,1.17,0,2.42-.31,3.75-.94l3.4-1.82c.59-.31,1.01-.47,1.26-.47.72,0,1.35.29,1.88.86s.79,1.24.79,1.98c0,1.43-1.5,2.8-4.51,4.13-2.64,1.17-4.82,1.76-6.56,1.76Z"/>
          <path class="cls-1" d="M1777.62,1021.54l-10.14,21.91c-2.5,5.33-4.41,9.79-5.74,13.39l-1.93,5.68c-.51,1.41-1.39,2.11-2.64,2.11-.82,0-1.53-.27-2.12-.81s-.89-1.21-.89-2.01c0-1.95,2.11-7.61,6.33-16.96l-10.49-20.19-1.32-2.14c-.53-.9-.79-1.65-.79-2.26,0-.8.31-1.5.92-2.11s1.3-.91,2.07-.91c.9,0,1.59.34,2.08,1.03,3.32,4.61,6.88,11.17,10.69,19.69l4.34-10.11c1.56-3.5,3.07-6.5,4.51-9.02.62-1.09,1.45-1.64,2.46-1.64.8,0,1.51.28,2.12.85s.92,1.24.92,2.02c0,.43-.13.92-.38,1.46Z"/>
          <path class="cls-1" d="M1790.1,1038.65c-.8,0-1.5-.31-2.11-.92s-.91-1.31-.91-2.09c0-1.35,1.25-3.01,3.75-4.98l7-5.27c2.52-2.17,3.78-4.15,3.78-5.95,0-2.27-1.06-4.36-3.19-6.27-2.05-1.86-4.23-2.78-6.53-2.78-1.23,0-2.79.63-4.69,1.89s-3.07,1.89-3.52,1.89c-.8,0-1.49-.32-2.07-.97s-.86-1.37-.86-2.17c0-1.54,1.49-3.08,4.48-4.6,2.68-1.37,4.89-2.05,6.65-2.05,3.93,0,7.49,1.53,10.69,4.6s4.8,6.55,4.8,10.46c0,2.85-.92,5.38-2.75,7.59-1.09,1.33-3.12,3.05-6.09,5.16-2.99,2.17-5.07,3.93-6.24,5.27-.68.8-1.42,1.2-2.2,1.2ZM1788.49,1049.78c-.86,0-1.64-.29-2.33-.86s-1.04-1.27-1.04-2.09c0-1.21.32-2.3.97-3.28.72-1.09,1.65-1.64,2.78-1.64,1.88,0,2.81,1.15,2.81,3.46,0,1.07-.25,2.04-.76,2.9-.62,1.02-1.44,1.52-2.43,1.52Z"/>
        </g>
      </g>
    </g>
  </g>
</svg>