<?xml version="1.0" encoding="UTF-8"?>
<svg id="Layer_2" xmlns="http://www.w3.org/2000/svg" xmlns:xlink="http://www.w3.org/1999/xlink" viewBox="0 0 1934.61 1977.1">
  <defs>
    <style>
      .cls-1 {
        fill: #231f20;
      }

      .cls-2 {
        fill: none;
      }

      .cls-3 {
        clip-path: url(#clippath);
      }

      .cls-4 {
        fill: #0c0c0c;
      }
    </style>
    <clipPath id="clippath">
      <path class="cls-2" d="M1233.35,1530.51c26.84,134.13,34.72,150.93-102.07,150.93s-127.34,17.39-127.34-119.4c0-79.21,4.26-108.1,32.09-123.59,20.23-11.26,51.77-20.44,108.78-12.35,46.7,6.63,55.49,9.32,62.94,18.72,7.45,9.41,13.56,25.53,25.6,85.68Z"/>
    </clipPath>
  </defs>
  <g id="Layer_1-2" data-name="Layer_1">
    <g>
      <path class="cls-4" d="M474.11,1976.25c-19.82-3.65-37.9-12.73-50.78-25.5-9.88-9.79-11.92-14.98-9.21-23.21,1.42-4.36,1.07-5.55-5.78-19.17-12.26-24.47-38.36-88.23-38.36-93.85,0-1.74-1.77-1.9-12.36-1.16-75.09,5.17-144.82,4.22-196.44-2.62l-6.23-.8-5.07,25.24c-7.94,39.35-13.53,60.34-18.79,70.48-2.61,5-4.74,10.07-4.74,11.26s-1.49,4.68-3.29,7.78c-8.59,14.66-40.55,24.35-68.64,20.83-18.34-2.3-27.12-9.01-27.12-20.76,0-6.69,4.32-15.75,9.68-20.24,13.05-10.98,40.1-19.02,58.59-17.37,12.5,1.1,22.28,3.1,27.21,5.65,2.1,1.07,4.07,1.68,4.36,1.39.68-.68,18.11-85.64,17.62-85.94-.19-.12-7.91-1.83-17.14-3.83-9.23-1.98-26.66-6.65-38.74-10.4-16.76-5.17-23.54-6.69-28.54-6.36l-6.59.45.71-6.01c.41-3.32,4.03-16.56,8.1-29.47,18.69-59.5,43.74-145.56,50.43-173.33,2.13-8.84,5.93-23.66,8.49-32.93,8.36-30.57,48.49-208.35,47.3-209.55-.26-.26-2.52,2.3-5.04,5.65-4.64,6.17-12.81,13.53-18.24,16.4-1.61.84-5.36,1.55-8.33,1.55-6.97,0-8.78-3.07-7.71-13.21,1.49-14.53,17.4-39.55,32.8-51.59l6.64-5.23-18.82-23.56c-26.02-32.51-32.12-39.35-65.92-73.77-16.26-16.56-33.41-34.64-38.12-40.16-12.5-14.66-22.85-25.21-27.79-28.28q-7.36-4.59,14.62-19.83c95.82-66.24,152.02-109.25,187.69-143.63l17.27-16.62-.71-34.03c-.39-18.72-1.36-35.64-2.13-37.57-1.39-3.52-1.45-3.52-16.17-3.62-32.96-.17-57.82-6.45-88.29-22.34-17.12-8.91-35.93-22.15-48.01-33.67-4.84-4.65-8.91-8.46-9.01-8.46-.09,0-.19,11.92-.22,26.44-.07,29.67-1.9,44.75-9.07,74.64-7.91,32.77-7.84,28.34-.29,37.16,6.07,7.07,10.33,9.4,12.07,6.55,1.39-2.26,11.21-8.33,15.37-9.53,4.03-1.16,4.74-.8,10.91,5.36,3.64,3.61,8.13,6.94,9.97,7.42,1.9.45,7.26-.39,12.59-2,13.88-4.2,15.95-3.88,23.47,3.78,3.59,3.62,7.62,6.88,9.01,7.23,1.58.42,4.78-1.22,8.81-4.59,7.88-6.49,11.04-6.58,15.66-.55,4.39,5.74,8.13,6.78,16.72,4.71,7.26-1.71,12.17-.9,12.17,2.07,0,3.23-5.68,5.79-14.95,6.72-11.2,1.16-14.46.36-19.59-4.91l-4.07-4.16-5.13,4.03c-9.07,7.21-15.07,6.4-24.02-3.19l-6.94-7.46-9.33,2.78c-15.88,4.75-20.85,3.84-30.54-5.45l-5.45-5.26-6.59,4.75c-13.36,9.62-15.5,9.45-24.47-1.88l-5.33-6.71-3.36,5.71c-4.88,8.3-14.33,16.53-21.15,18.37-7.39,2-28.79,3.13-29.76,1.58-.39-.64,2.26-9.94,5.91-20.66,8.45-24.95,9.94-32.18,13.26-65.5,1.49-15.11,4.2-34.67,6.04-43.42,7.84-38.06,9.33-57.4,9.49-125.71.17-65.37.71-73.4,7.45-107.76,2.49-12.65,14.76-36.02,25.79-49.2,12.95-15.43,28.35-29.96,39.42-37.12,4.91-3.2,10.69-7.65,12.82-9.91,2.17-2.26,8.45-6.01,14.07-8.36,9.98-4.17,33.09-10.55,38.16-10.55,2.32,0,2.2-.42-1.1-3.88-2.07-2.13-6.39-4.88-9.65-6.13-6.49-2.49-7.26-4.39-3.19-8.07,2.58-2.36,3.1-2.29,16.4,2.01,7.52,2.41,15.75,5.55,18.24,6.93,2.49,1.42,4.65,2.39,4.84,2.17.16-.19,1.29-2.26,2.45-4.55,3.36-6.59,8.91-12.55,11.72-12.55,2.32,0,2.55,1.07,2.55,11.23v11.21l21.76.64c43.55,1.26,69.12,10.62,101.56,37.12,11.11,9.07,32.51,35.38,37,45.52,14.4,32.25,19.56,52.1,24.44,93.74,1.42,12.14,3.55,30.51,4.78,40.81,2.55,21.66,2.03,60.73-1.39,105.76-1.1,14.72-2.71,41.83-3.55,60.24-1.51,33.02-1.48,33.57,1.39,41.12,1.78,4.62,5.3,10.11,8.88,13.78,3.26,3.36,5.93,7.01,5.93,8.14,0,3.07-6.17,8.59-9.65,8.59-1.68,0-6.29,1.51-10.23,3.36-11.5,5.36-22.24,4.26-30.15-3.13-3.1-2.87-4.01-3.19-4.55-1.58-.39,1.1-2.68,3.97-5.07,6.36-3.81,3.84-5.17,4.36-11.56,4.36-7.69,0-18.69-4.42-23.08-9.3-2.22-2.45-2.55-2.39-12.33,2.87-7.3,3.97-10.43,5.04-11.5,3.94-2.26-2.26,1.45-5.55,13.63-12.04,11.23-5.98,13.2-6.07,17.59-.74,2.87,3.45,11.98,7.17,17.65,7.2,4.3,0,5.26-.51,6.46-3.64,1.8-4.78,7.81-11.04,10.59-11.04,1.19,0,3.93,1.87,6.1,4.2,7.79,8.23,16.07,9.71,26.4,4.74,6.14-3,6.3-3.2,3.88-5.4-4.13-3.71-9.23-14.4-11.01-22.95-1.74-8.55-1.07-38.06,1.39-59.59,5.72-50.3,7.88-113.15,4.78-139.21-1.16-9.94-3.03-26.5-4.17-36.8-1.12-10.33-3.16-25.08-4.58-32.79-1.39-7.75-2.94-16.47-3.42-19.44-.98-6.03-12.79-38.35-17.4-47.52-3.91-7.74-19.82-28.28-28.31-36.55-7.59-7.33-25.92-21.27-31.89-24.24-25.57-12.66-47.2-17.95-77.64-18.95l-20.07-.65-.45-7-.45-6.98-2.9,5.91c-4.26,8.72-6.4,9.52-11.56,4.36-4.78-4.78-8.07-5.49-8.07-1.74,0,3.01-2.13,4.91-6.69,5.91-1.83.42-8.74,1.97-15.4,3.42-19.63,4.36-24.76,6.79-44.84,21.15-27.57,19.73-46.61,40.29-57.59,62.11-7.03,14.02-8.71,20.28-13.49,49.78-2.62,16.07-2.91,23.47-3.1,77.35-.26,63.02-.88,72.09-8.11,119.12-4.1,26.77-8.1,57.69-7.78,60.24,1.03,7.78-7.4,44.49-14.31,62.4l-3.87,10.04,3.36,1.26c2.1.81,4.2.81,5.74,0,1.32-.71,5.36-1.93,8.91-2.74,16.95-3.78,23.02-16.56,31.9-66.88,3-16.92,5-33.39,4.26-34.61-.39-.58-.93-21.83-1.22-47.16-.42-35.7-1.07-49.07-2.88-59.31-3.2-18.4-2.52-38.22,1.49-42.55,2.74-2.98,2.9-4.72,3.55-35.93.88-40.83,3.13-51.78,16.02-77.54,5.68-11.3,17.07-25.54,20.44-25.54,1,0,4.1,3.33,6.91,7.36,2.8,4.03,5.71,7.13,6.42,6.91.74-.22,1.64-4.29,2.03-9.01.74-9.59,1.64-11.65,5.74-13.17,5.98-2.19,37.81,6.01,72.77,18.76,11.91,4.36,22.08,7.91,22.66,7.91,2.07,0-5.78-7.17-17.17-15.66-6.45-4.78-11.72-9.23-11.72-9.88s1.49-2.17,3.3-3.32c2.58-1.71,5.17-1.97,12.36-1.29,23.08,2.26,43.64,7.32,55.11,13.55,4.68,2.59,8.71,4.45,8.98,4.23.22-.22-.78-3.1-2.23-6.36-3.03-6.71-2.91-10.49.36-12.52,1.74-1.1,4.91-.17,14.07,4.1,6.49,3.07,15.72,7.17,20.5,9.1,17.75,7.3,27.31,14.63,34.77,26.7,2.8,4.52,3.32,4.84,4.19,2.58.55-1.39.68-4.51.3-6.91-.78-4.61,1.22-8.36,4.45-8.36,1.03,0,2.19.77,2.55,1.74.36.97,4.17,5.39,8.43,9.88,15.24,16.01,22.08,35.45,22.21,63.02.07,15.66.32,17.73,2.33,17.73,2.64.02,6.81,10.23,9,22.07,2.1,11.4,1.81,37.07-.64,51.65-1.12,6.94-5.26,22.12-9.13,33.68-3.84,11.59-6.52,21.21-5.91,21.43.58.2.19,4.59-.93,9.72-1.1,5.17-2.65,19.31-3.45,31.48-1.17,17.4-1.94,22.44-3.62,23.76-1.49,1.16-2.55,1.26-3.55.26-2.55-2.55-1.09-49.72,1.94-63.47.64-2.93,1.03-5.49.83-5.68-.22-.2-4.81,4.84-10.23,11.2-22.15,25.99-61.46,47.1-99.04,53.17l-10.04,1.64.13,6.62c.06,3.64.58,17.46,1.19,30.74,1.03,22.76,1.26,24.31,4.36,28.02,2.59,3.1,9.78,6.49,33.61,15.82,16.69,6.52,36.96,13.88,45.07,16.34,42.39,12.85,108.02,23.73,154.57,25.63l18.11.74,10.82-13.17c5.94-7.23,13.53-17.08,16.88-21.86,7.45-10.69,54.3-91.84,66.79-115.77,9.11-17.43,24.96-54.97,27.99-66.27.9-3.33,2.13-7.23,2.74-8.72.61-1.49,1.83-6.3,2.71-10.72,2.39-12.33,8.88-31.12,13.59-39.39,4.88-8.52,14.02-18.82,21.67-24.4,6.26-4.58,13.36-5.13,15.46-1.22,4.93,9.26-3.81,40.03-22.73,79.77-5.13,10.82-9.36,20.21-9.36,20.89s.9,1.19,1.97,1.19c4.52,0,17.5,6.01,22.27,10.33,9.82,8.84,9.53,20.02-.74,29.38-8.11,7.39-17.24,10.45-30.87,10.4-11.84-.07-19.27-2.01-25.59-6.72l-4.2-3.13-12.04,21.69c-15.21,27.41-50.91,89.55-55.98,97.4-5.88,9.11-18.31,25.38-25.56,33.48-3.59,4.01-8.26,9.65-10.4,12.53l-3.88,5.2-22.86-.84c-43.83-1.64-95.43-9.4-139.33-20.85-17.31-4.52-51.07-16.56-68.6-24.47-6.81-3.07-12.72-5.23-13.11-4.81-.42.41.45,5.49,1.91,11.26,3.58,14.14,20.66,102.34,25.63,132.26,2.17,13.17,6.4,41.48,9.33,62.92,10.72,77.38,14.17,97.21,36.29,208.25,24.34,122.25,58.14,283.15,72.99,347.37,4.78,20.63,10.45,46.84,12.65,58.24,2.2,11.42,4.81,23.76,5.81,27.44,1,3.68,1.39,7.17.88,7.71-.49.55-4.94,1.23-9.85,1.55-22.53,1.45-33.09,2.55-33.09,3.42,0,.55.84,2.71,1.88,4.84,1.03,2.16,6.39,15.33,11.94,29.35,14.4,36.41,29.89,69.76,31.99,68.92.94-.36,11.33-.62,23.12-.55,19.18.1,22.69.49,33.48,3.71,13.75,4.13,33.45,13.27,41.87,19.47,16.95,12.5,14.11,28.69-6.07,34.93-10.01,3.1-35.83,4.62-46.16,2.74v-.02ZM522.95,1961.52c2.74-.83,5.01-2.29,5.01-3.19,0-2.52-9.14-10.82-16.76-15.27-18.79-10.94-43.93-17.73-65.73-17.73-15.01,0-15.23.07-15.23,3.07,0,6.23,6.55,16.63,13.13,20.83,9.01,5.74,20.6,10.55,30.87,12.88,10.2,2.29,40.41,1.93,48.71-.59h0ZM91.24,1930.7c20.08-4.81,28.44-11.07,28.44-21.27,0-3.49-.74-4.26-6.36-6.43-5.13-1.97-10.17-2.45-26.44-2.45-19.15,0-20.54.2-29.45,3.91-17.92,7.45-23.02,12.56-18.85,18.92,6.2,9.46,29.96,12.75,52.65,7.33h0ZM126.36,1908.51c0-1.16-.61-1.71-1.36-1.26-.74.48-1,1.42-.58,2.1,1.12,1.83,1.93,1.51,1.93-.84h0ZM373.97,1802.28c23.15-1.59,42.36-3.13,42.68-3.45.29-.29-2.2-9.46-5.59-20.37-12.26-39.64-22.66-84.88-53.62-232.63-43.1-205.77-56.95-279.3-68.44-363.43-9.07-66.6-13.27-93.11-23.5-148.57-9.3-50.49-16.79-84.39-18.59-84.39-.55,0-1.36,5.62-1.81,12.46-1.13,17.12-6.13,49.3-14.88,95.3-4.03,21.37-11.62,63.54-16.85,93.72-15.72,90.94-33.83,184.15-49.03,252.35-11.17,50.17-24.21,106.11-28.54,122.49-2.17,8.1-8.5,32.47-14.08,54.2-15.82,61.54-48.93,173.04-56.33,189.76-1.81,4.04-3.26,7.85-3.26,8.43s3.16,1.03,7.03,1.03c4.26,0,13.36,1.84,23.08,4.74,23.96,7.13,49.2,12.92,56.56,12.92,3.55,0,7.07.55,7.74,1.22,1.55,1.49,29.96,5.17,52.17,6.74,28.4,2.04,118.92.65,165.25-2.51h0ZM148.38,1347.09c10.98-8.72,18.05-22.05,21.54-40.59.55-2.93,1.71-5,2.8-5,1,0,1.84-.9,1.84-2,0-4.3-4.84-1.62-13.98,7.84-12.92,13.26-23.96,34.77-21.37,41.55,1.19,3.1,3.55,2.65,9.17-1.8h0ZM181.14,1276.1c3.55-16.6,14.11-73.28,22.21-119.16,4.88-27.64,12.43-68.89,16.76-91.72,11.01-58.04,19.53-110.05,18.24-111.35-.29-.29-5.91,5.16-12.5,12.14-13.07,13.79-24.21,23.73-49.94,44.45-39.41,31.74-128.03,95.65-141.95,102.4l-7.64,3.71,15.46,15.82c8.49,8.72,31.21,31.8,50.45,51.3,19.27,19.5,38.97,40,43.74,45.52,8.52,9.78,37.45,46.42,40.42,51.16,2.32,3.69,3.19,2.91,4.74-4.29h0ZM259.37,857c34.6-7.04,63.11-21.59,83.97-42.81,11.11-11.3,25.21-29.35,29.47-37.7,5.33-10.43,8.4-28.28,8.5-49.26.09-18.12-2.07-35.26-4.62-36.83-.51-.32-2.03.61-3.36,2.07-1.32,1.45-2.81,2.64-3.3,2.64s-.64-9.78-.32-21.76c.42-16.43.03-24.21-1.55-31.79-2.36-11.24-10.53-28.8-17.02-36.58l-4.26-5.13-2.84,7.13c-2.55,6.39-3.26,7.13-6.81,7.13-3.07,0-4.62-1.03-6.69-4.42-5.84-9.59-11.14-15.85-17.43-20.59-6.52-4.91-35-18.08-36.29-16.78-.39.38.19,4.13,1.29,8.32,2.42,9.17,7.82,14.69,15.66,15.92,3.39.55,7.23,2.59,10.59,5.65,5.78,5.2,7.36,8.49,6.1,12.52-1.09,3.4-3.81,2.36-10.84-4-6.84-6.2-13.72-8.55-22.12-7.55-7.3.87-9.33-.64-5.94-4.39,2.13-2.36,1.78-2.84-7-9.94-11.21-9.04-20.08-13.27-35.12-16.69-22.37-5.13-21.64-5.59-9.78,6.2,10.07,10.01,17.56,21.56,15.82,24.37-1.84,2.98-10.01.81-42.45-11.2-35.31-13.11-55.94-20.05-64.11-21.57l-4.81-.9-.88,6.33c-.49,3.45-.87,8.88-.87,12.01,0,3.52-.94,6.84-2.45,8.72-3.78,4.68-8.53,2.64-15.85-6.79-4.78-6.13-6.62-7.65-7.94-6.55-3.71,3.07-15.43,29.28-18.79,42.07-3.32,12.53-3.61,15.92-4.42,53.53-.48,22.11-1.39,41.22-1.97,42.51s-2.2,2.36-3.62,2.36c-3.32,0-3.29,4.04.17,24.76,1.45,8.82,2.68,19.27,2.68,23.21,0,8.84,2.13,13.46,11.33,24.63,23.25,28.19,72.28,54.82,113.83,61.86,17.27,2.9,47.94,2.58,64.05-.68h0ZM189.95,806.71c-1.48-.36-7.45-1.88-13.26-3.32-22.54-5.69-42.64-18.24-51.78-32.32-6.17-9.55-7.65-15.2-4.81-18.07,3.07-3.07,5.4-1.42,11.75,8.23,18.17,27.67,67.18,42.87,106.3,32.99,20.66-5.23,55.07-19.92,69.21-29.6,8.53-5.81,11.56-5.68,9.24.36-2.81,7.43-21.05,18.05-52.07,30.41-23.89,9.52-30.9,11.07-52.5,11.55-10.65.26-20.6.17-22.08-.22h0ZM261.94,668.73c-1.64-.32-4.26-2.2-5.81-4.17-2.42-3.07-2.78-5.01-2.36-13.11.39-7.91,1.1-10.3,4.2-14.4,2.07-2.69,5.49-5.79,7.62-6.88,4.68-2.42,21.11-2.72,26.05-.49,3,1.39,4.81.87,15.11-4.26,6.45-3.19,12.17-6.45,12.69-7.26.64-.87,1-.9,1-.06.03,2.03-10.62,12.62-14.94,14.84-3.88,2.01-4.74,3.81-2.49,5.2,1.58.98,25.34-8.2,28.5-11.01,1.29-1.16,2.81-1.68,3.33-1.12,1.55,1.55-9.01,9.98-18.02,14.36-4.59,2.22-10.91,4.26-14.04,4.55-3.17.26-6.04.55-6.4.61-.39.07,1.42,1.03,4.01,2.2,4.55,2,17.75,1.97,24.76-.13,1.48-.42-.32.71-4.01,2.55-8.26,4.13-17.33,5.62-22.44,3.69-3.55-1.32-4.19-1.03-8.78,4.07-6.98,7.74-19.24,12.46-27.99,10.79v.03ZM140.43,661.08c-2.17-2.17-3.52-5.45-4.13-10.04-.81-6.13-1.22-6.81-4.26-6.81-1.83,0-5.51-1.36-8.2-3.01l-4.84-3,10.33-1.36c12.31-1.58,15.37-3.64,8.91-5.91-5.93-2.07-11.88-7.94-11.88-11.75,0-1.71.26-3.1.58-3.1.29,0,4.88,2.07,10.14,4.62,8.74,4.17,10.4,4.52,18.53,3.91,14.53-1.1,20.31,4.17,20.31,18.5,0,6.03-.55,7.3-5.07,11.82-3.33,3.32-7.55,5.81-12.3,7.2-10.04,3-14.31,2.74-18.12-1.07h0ZM118.94,619.47c4.07-9.85,16.04-19.31,24.5-19.37,5.01-.1,3.4,2.61-3.36,5.59-3.49,1.55-10.17,6.49-14.85,10.98l-8.52,8.17,2.23-5.36ZM663.29,828.82c4.88-2.69,5.97-4.01,6.32-7.65.36-3.62-.48-5.3-4.68-9.46-5.42-5.42-17.78-10.84-24.6-10.84-4.29,0-6.49-2.94-4.26-5.72,3.07-3.8,24.47-50.81,28.37-62.27,4.91-14.36,8.65-32.41,7.04-34.02-1.45-1.45-8.62,3.98-13.78,10.43-8.52,10.69-13.5,23.83-19.98,52.75-2.23,9.94-5.52,21.07-7.3,24.76-1.78,3.68-5,11.52-7.17,17.4-2.17,5.91-4.36,11.72-4.88,12.92-1.42,3.49,6.55,11.52,13.82,13.84,9.17,2.94,23.66,1.98,31.09-2.12h0ZM168.68,922.99c.61-1.29,1.23-10.36,1.32-20.17.17-11.72.78-18.37,1.81-19.4,2.52-2.49,5.42,2.64,5.42,9.52,0,5.3-.9,9.85-5.49,27.38-.71,2.78-1.93,5.03-2.74,5.03-.87,0-1-.87-.32-2.36h0ZM126.9,907.69c.49-2.71,1.17-14.43,1.49-26.09.52-17.04,1-21.27,2.55-21.6,5.84-1.26,5.97,17.05.26,38.9-3.13,12.01-5.91,17.66-4.3,8.78h0ZM97.6,871.47c0-23.89.41-33.74,1.51-34.09,4.91-1.64,6.04,28.5,1.91,52.26-1.39,7.98-2.72,14.69-2.98,14.95-.26.22-.45-14.66-.45-33.12h0ZM323.22,891.57c-2.58-12.26-3.26-21.11-1.61-21.11.78,0,1.81.68,2.32,1.51,1.32,2.13,3.01,25.7,1.94,26.96-.49.55-1.69-2.74-2.65-7.36h0Z"/>
      <path class="cls-4" d="M455.67,747.91c.04-2.2,2.3-4.39,6.54-6.25,7.12-3.1,33.59-23.38,46.12-35.29,6.51-6.17,15.89-16.57,20.81-23.12,23.18-30.8,40.29-79.25,39.11-110.83l-.46-12.26-32.96-6.51c-103.79-20.5-173.7-47.25-226.81-86.78-76.95-57.27-104.04-122.86-82.05-198.94,24.06-83.45,108.87-167.23,214.75-212.22,49.74-21.14,114.35-37.03,171.93-42.29,10.66-.99,28.03-2.8,38.58-4.05,10.52-1.29,32.04-2.99,47.81-3.85,15.81-.83,35.79-2.39,44.41-3.45,25.61-3.18,154.68-2.58,189.03.87,99.26,9.95,186.57,28.6,248.61,53.11,62.49,24.67,118.44,64.84,151.42,108.72,9.62,12.74,24.33,40.66,29.02,54.89,10.25,31.17,9.23,77.77-2.46,112.66-21.68,64.68-77.74,119.11-166.98,162.05-73.61,35.41-171.96,60.9-280.61,72.75-50.76,5.52-66.81,6.47-120.9,7.22-29.32.42-53.3.91-53.34,1.06-.04.19-3.07,6.35-6.74,13.69-16.26,32.68-48.6,65.18-89.72,90.23-19.6,11.95-64.39,34.99-85.57,43.99-23.61,10.1-55.98,20.54-72.33,23.42-14.56,2.53-27.27,3.1-27.23,1.17h0ZM508.97,729.56c44.86-12.86,122.03-51.14,156.83-77.77,21.11-16.15,47.93-46.08,56.93-63.48,1.77-3.44,4.69-10.52,6.51-15.7l3.25-9.41,61.96-.99c59.73-.95,72.18-1.67,120-6.89,211.76-23.19,367.54-94.91,420.84-193.68,8.02-14.9,15.17-35.26,18.54-52.92,3.85-20.16,3.55-50.84-.65-68.05-20.2-82.89-108.71-155.48-232.22-190.39-76.53-21.64-153.7-33.75-244.94-38.51-58.03-2.98-188.01.16-224.97,5.45-9.41,1.36-22.51,2.46-29.09,2.46-30.11,0-112.42,17.96-154.53,33.78-23.64,8.81-59.65,25.84-78.23,36.88-36.28,21.57-77.51,56.52-103.73,87.88-39.15,46.83-57.95,96.01-55.19,144.2,1.21,20.81,3.97,31.29,13.55,51.11,29.35,60.63,99.75,112.01,196.1,143.14,27.12,8.74,65.63,18.27,102.48,25.34,17.09,3.29,31.4,6.31,31.81,6.69,1.39,1.44,3.75,19.37,3.75,28.87.03,28.52-15.02,72.02-35.45,102.66-7.56,11.28-32.27,37.64-46.11,49.19-3.86,3.22-5.98,5.56-4.7,5.14,1.29-.38,9.04-2.65,17.26-5h0Z"/>
      <g>
        <rect class="cls-2" x="287.67" y="121.1" width="1029.46" height="378.39"/>
        <path class="cls-1" d="M466.77,188.74c-1.23,0-2.31-.35-3.24-1.04-1.07-.8-1.6-1.79-1.6-2.96-1.23-3.23-2-5.86-2.32-7.89-.32-2.03-1.38-7.78-3.16-17.26-1.36-7.18-2.27-12.95-2.72-17.3-2.38,8.81-4.92,16.27-7.65,22.38-3.15,7.07-5.19,12.61-6.13,16.62.32.61.48,1.21.48,1.8,0,1.2-.53,2.19-1.6,2.96-.96.72-2.06,1.08-3.28,1.08-3.6,0-5.41-1.62-5.41-4.84l-1.24-5.08-4.36-19.62c-1.74-6.62-4.7-16.11-8.89-28.47-.19-.59-.28-1.12-.28-1.6,0-2.48,1.4-3.72,4.2-3.72,1.73,0,3.07.95,4,2.84.48.96,1.45,3.72,2.92,8.29,1.57,4.83,3.15,10.65,4.72,17.46l3.88,17.7c2.86-6.62,5.7-14.68,8.53-24.18,1.73-5.79,3.06-9.81,3.96-12.05,2.4-5.9,4.74-8.85,7.01-8.85,1.87,0,3.19.95,3.96,2.84.96,2.3,1.93,7.77,2.92,16.42.53,4.38,1.44,9.64,2.72,15.78l3.44,15.74c3.58-8.59,8.05-20.22,13.41-34.87.29-.8.96-3.32,2-7.57.77-3.12,1.72-5.55,2.84-7.29.96-1.47,2.21-2.2,3.76-2.2,2.7,0,4.04,1.33,4.04,4,0,.45-.43,1.79-1.28,4l-1.6,4.32-2.2,7.13-11.89,28.91c-1.09,3.18-2.98,7.79-5.65,13.85-.96,1.79-2.4,2.68-4.32,2.68Z"/>
        <path class="cls-1" d="M519.3,186.74c-6.03,0-10.92-1.51-14.65-4.52-4.08-3.34-6.13-8.01-6.13-14.01,0-6.94,1.68-12.76,5.04-17.46,3.66-5.12,8.54-7.69,14.65-7.69,4.43,0,8.05.75,10.85,2.24,3.44,1.84,5.17,4.67,5.17,8.49,0,2.67-1.51,5.1-4.52,7.29-1.33.96-4.16,2.46-8.49,4.48l-15.29,7.25c1.49,2.22,3.36,3.88,5.59,5,2.23,1.12,4.82,1.68,7.79,1.68,1.84,0,4-.35,6.49-1.04,3.15-.88,5.18-2.04,6.09-3.46.91-1.43,1.88-2.14,2.92-2.14.93,0,1.77.35,2.5,1.06.73.71,1.1,1.53,1.1,2.46,0,2.96-2.39,5.51-7.17,7.65-4.08,1.81-8.06,2.72-11.93,2.72ZM518.22,150.27c-3.26,0-5.97,1.26-8.13,3.78s-3.78,6.32-4.84,11.39l12.29-5.85c4.83-2.35,8.27-4.39,10.33-6.13-2.3-2.14-5.51-3.2-9.65-3.2Z"/>
        <path class="cls-1" d="M600.74,187.74c-2.3,0-3.59-1.25-3.88-3.76l-1.12-8.77c-.37-3.12-.56-6.05-.56-8.77,0-.75.05-2.02.14-3.8.09-1.79.14-3.06.14-3.8,0-5.77-1.07-8.65-3.2-8.65-2.99,0-5.85,1.78-8.57,5.33-2.46,3.23-4.38,7.31-5.77,12.25-.05,1.04-.17,2.35-.36,3.92-.16,1.33-.24,2.63-.24,3.88,0,.8.08,2,.24,3.6s.24,2.8.24,3.6c0,1.2-.37,2.18-1.1,2.92-.74.75-1.68,1.12-2.82,1.12s-2.12-.37-2.84-1.12c-.72-.75-1.08-1.72-1.08-2.92,0-.8-.09-2-.26-3.6s-.26-2.8-.26-3.6c0-2.75.19-6.56.58-11.43.39-4.87.58-8.68.58-11.43,0-.85-.05-2.12-.14-3.8-.09-1.68-.14-2.95-.14-3.8,0-1.15.38-2.09,1.14-2.82.76-.73,1.7-1.1,2.82-1.1,2.46,0,3.8,1.74,4.04,5.21l.12,4.68c4.48-5.98,9.09-8.97,13.81-8.97,4.27,0,7.25,1.88,8.93,5.65,1.15,2.51,1.77,6.22,1.88,11.13v4.04l-.04,3.72c0,2.22.29,5.08.86,8.59.57,3.51.86,6.36.86,8.55,0,1.17-.38,2.13-1.14,2.86-.76.73-1.72,1.1-2.86,1.1Z"/>
        <path class="cls-1" d="M631.65,186.74c-6.03,0-10.92-1.51-14.65-4.52-4.08-3.34-6.13-8.01-6.13-14.01,0-6.94,1.68-12.76,5.04-17.46,3.66-5.12,8.54-7.69,14.65-7.69,4.43,0,8.05.75,10.85,2.24,3.44,1.84,5.17,4.67,5.17,8.49,0,2.67-1.51,5.1-4.52,7.29-1.33.96-4.16,2.46-8.49,4.48l-15.29,7.25c1.49,2.22,3.36,3.88,5.59,5,2.23,1.12,4.82,1.68,7.79,1.68,1.84,0,4-.35,6.49-1.04,3.15-.88,5.18-2.04,6.09-3.46.91-1.43,1.88-2.14,2.92-2.14.93,0,1.77.35,2.5,1.06.73.71,1.1,1.53,1.1,2.46,0,2.96-2.39,5.51-7.17,7.65-4.08,1.81-8.06,2.72-11.93,2.72ZM630.57,150.27c-3.26,0-5.97,1.26-8.13,3.78s-3.78,6.32-4.84,11.39l12.29-5.85c4.83-2.35,8.27-4.39,10.33-6.13-2.3-2.14-5.51-3.2-9.65-3.2Z"/>
        <path class="cls-1" d="M676.58,186.74c-6.03,0-10.92-1.51-14.65-4.52-4.08-3.34-6.13-8.01-6.13-14.01,0-6.94,1.68-12.76,5.04-17.46,3.66-5.12,8.54-7.69,14.65-7.69,4.43,0,8.05.75,10.85,2.24,3.44,1.84,5.17,4.67,5.17,8.49,0,2.67-1.51,5.1-4.52,7.29-1.33.96-4.16,2.46-8.49,4.48l-15.29,7.25c1.49,2.22,3.36,3.88,5.59,5,2.23,1.12,4.82,1.68,7.79,1.68,1.84,0,4-.35,6.49-1.04,3.15-.88,5.18-2.04,6.09-3.46.91-1.43,1.88-2.14,2.92-2.14.93,0,1.77.35,2.5,1.06.73.71,1.1,1.53,1.1,2.46,0,2.96-2.39,5.51-7.17,7.65-4.08,1.81-8.06,2.72-11.93,2.72ZM675.5,150.27c-3.26,0-5.97,1.26-8.13,3.78s-3.78,6.32-4.84,11.39l12.29-5.85c4.83-2.35,8.27-4.39,10.33-6.13-2.3-2.14-5.51-3.2-9.65-3.2Z"/>
        <path class="cls-1" d="M739.68,149.55c-.32,3.92-.48,7.85-.48,11.77,0,8.89.41,15.6,1.24,20.14.05.37.08.68.08.92,0,1.07-.37,1.95-1.12,2.64-.75.69-1.62,1.04-2.6,1.04-1.66,0-2.87-1.2-3.64-3.6-1.92,1.42-3.92,2.48-5.99,3.2-2.07.72-4.22,1.08-6.47,1.08-5.53,0-10.1-1.84-13.73-5.53-3.74-3.76-5.61-8.59-5.61-14.49,0-7.13,1.89-12.84,5.67-17.14,3.78-4.3,8.68-6.45,14.71-6.45,3.1,0,5.49.48,7.17,1.44l3.76,2.76c.37-11.24.81-18.8,1.32-22.7.35-2.38,1.56-3.56,3.64-3.56,2.43,0,3.64,1.29,3.64,3.88,0,3.71-.53,11.91-1.6,24.58ZM721.9,150.59c-4.48,0-7.85,1.33-10.09,3.98-2.24,2.66-3.36,6.65-3.36,11.99,0,3.44,1.22,6.41,3.66,8.89,2.44,2.48,5.3,3.72,8.59,3.72,2.24,0,4.14-.41,5.69-1.24.91-.48,2.39-1.59,4.44-3.32.4-.35.79-.76,1.16-1.24l-.12-6.93.04-4.64.08-4.72c-1.01-2.16-2.36-3.78-4.04-4.86s-3.7-1.62-6.05-1.62Z"/>
        <path class="cls-1" d="M806.74,187.54c-.51,0-1.43-.59-2.76-1.76-1.2-1.09-2.1-2.07-2.68-2.92-2.56,1.39-4.82,2.44-6.77,3.14-1.95.71-3.58,1.06-4.88,1.06-6.25,0-10.8-1.76-13.65-5.29-2.7-3.31-4.04-8.38-4.04-15.21,0-6.46,2.22-11.98,6.67-16.58,4.44-4.59,9.75-6.89,15.92-6.89,2.32,0,4.92.6,7.81,1.8,3.63,1.5,5.45,3.3,5.45,5.41,0,.72-.27,1.36-.8,1.92-.27,1.01-.47,2.68-.62,5s-.23,5.3-.26,8.93c-.03,3.31.2,5.93.68,7.85.27,1.17,1.11,3.52,2.52,7.05.19.48.49,1.19.92,2.12l.24.68c0,1.07-.37,1.95-1.12,2.64-.75.69-1.62,1.04-2.6,1.04ZM798.42,159.72c0-1.15.07-2.4.22-3.74.15-1.35.37-2.78.66-4.3-.99-.51-1.84-.88-2.54-1.12s-1.27-.36-1.7-.36c-4.14,0-7.71,1.69-10.71,5.06-3,3.38-4.5,7.27-4.5,11.67s.77,7.66,2.32,9.85c1.55,2.19,3.87,3.28,6.97,3.28,2.56,0,4.74-.47,6.53-1.4.96-.51,2.31-1.52,4.04-3.04-.85-7.07-1.28-12.37-1.28-15.9Z"/>
        <path class="cls-1" d="M873.09,155.31c-.19,3.34-1.52,5-4,5-2.3,0-3.44-1.32-3.44-3.96,0-.51-.04-1.44-.12-2.8l-.12-3.36c-4.22.51-7.59,1.7-10.13,3.56-2.38,1.74-4.35,4.35-5.93,7.85l.08,21.94c0,2.7-1.32,4.04-3.96,4.04-2.35,0-3.52-1.35-3.52-4.04v-28.11c0-.88.03-2.2.1-3.96.07-1.76.1-3.08.1-3.96,0-2.7,1.17-4.04,3.52-4.04,2.62,0,3.94,2.22,3.96,6.65,5.12-4.94,10.81-7.41,17.06-7.41,2.16,0,3.78.81,4.84,2.44,1.07,1.63,1.6,4.08,1.6,7.37,0,1.39-.01,2.32-.04,2.8Z"/>
        <path class="cls-1" d="M900.04,186.74c-6.03,0-10.92-1.51-14.65-4.52-4.08-3.34-6.13-8.01-6.13-14.01,0-6.94,1.68-12.76,5.04-17.46,3.66-5.12,8.54-7.69,14.65-7.69,4.43,0,8.05.75,10.85,2.24,3.44,1.84,5.17,4.67,5.17,8.49,0,2.67-1.51,5.1-4.52,7.29-1.33.96-4.16,2.46-8.49,4.48l-15.29,7.25c1.49,2.22,3.36,3.88,5.59,5,2.23,1.12,4.82,1.68,7.79,1.68,1.84,0,4-.35,6.49-1.04,3.15-.88,5.18-2.04,6.09-3.46.91-1.43,1.88-2.14,2.92-2.14.93,0,1.77.35,2.5,1.06.73.71,1.1,1.53,1.1,2.46,0,2.96-2.39,5.51-7.17,7.65-4.08,1.81-8.06,2.72-11.93,2.72ZM898.95,150.27c-3.26,0-5.97,1.26-8.13,3.78s-3.78,6.32-4.84,11.39l12.29-5.85c4.83-2.35,8.27-4.39,10.33-6.13-2.3-2.14-5.51-3.2-9.65-3.2Z"/>
        <path class="cls-1" d="M943.28,186.3c-2.67,0-5.61-.43-8.81-1.28l-.08,19.14c0,1.17-.37,2.14-1.1,2.88-.73.75-1.67,1.12-2.82,1.12s-2.09-.37-2.82-1.12c-.74-.75-1.1-1.71-1.1-2.88l.12-16.02v-15.98c-.08-5.85-.28-11.17-.6-15.98l-.6-8.13c0-1.9.35-3.5,1.04-4.8.8-1.57,1.96-2.36,3.48-2.36,1.04,0,1.92.37,2.62,1.1.71.73,1.06,1.64,1.06,2.7,0,.24-.04.68-.12,1.32-.13.83-.23,1.59-.28,2.28,2.29-1.57,4.51-2.76,6.65-3.54,2.13-.79,4.18-1.18,6.13-1.18,5.47,0,9.48,2.43,12.01,7.29,2,3.84,3,8.93,3,15.25,0,5.77-1.55,10.52-4.64,14.25-3.28,3.95-7.66,5.93-13.13,5.93ZM946.04,151.59c-2.46,0-4.67.55-6.65,1.64-1.42.77-3.2,2.19-5.37,4.24.35,6.06.52,12.43.52,19.1,2.91,1.12,5.82,1.68,8.73,1.68,3.34,0,5.89-1.24,7.65-3.72,1.52-2.16,2.28-4.96,2.28-8.41,0-4.86-.59-8.49-1.78-10.91-1.19-2.42-2.98-3.62-5.39-3.62Z"/>
        <path class="cls-1" d="M985.12,187.26c-4.48,0-8.34-1.66-11.57-4.96-3.6-3.68-5.5-8.63-5.69-14.85-.16-6.03,1.36-11.34,4.56-15.94,3.74-5.42,8.94-8.13,15.62-8.13,5.34,0,9.38,2.44,12.13,7.33,2.19,3.95,3.24,8.7,3.16,14.25-.08,5.93-1.63,10.98-4.64,15.17-3.42,4.75-7.94,7.13-13.57,7.13ZM987.52,151.51c-3.92-.03-6.98,1.84-9.17,5.61-1.74,3.02-2.6,6.46-2.6,10.33s1.05,6.89,3.16,9.05c1.76,1.79,3.83,2.68,6.21,2.68,2.78,0,5.17-1.01,7.17-3.04,2.27-2.24,3.47-5.27,3.6-9.09.37-10.33-2.42-15.51-8.37-15.54Z"/>
        <path class="cls-1" d="M1044.38,155.31c-.19,3.34-1.52,5-4,5-2.3,0-3.44-1.32-3.44-3.96,0-.51-.04-1.44-.12-2.8l-.12-3.36c-4.22.51-7.59,1.7-10.13,3.56-2.38,1.74-4.35,4.35-5.93,7.85l.08,21.94c0,2.7-1.32,4.04-3.96,4.04-2.35,0-3.52-1.35-3.52-4.04v-28.11c0-.88.03-2.2.1-3.96.07-1.76.1-3.08.1-3.96,0-2.7,1.17-4.04,3.52-4.04,2.62,0,3.94,2.22,3.96,6.65,5.12-4.94,10.81-7.41,17.06-7.41,2.16,0,3.78.81,4.84,2.44,1.07,1.63,1.6,4.08,1.6,7.37,0,1.39-.01,2.32-.04,2.8Z"/>
        <path class="cls-1" d="M1079.41,150.79c-.56,0-1.22-.03-1.98-.08-.76-.05-1.42-.08-1.98-.08-.61,0-2.43.2-5.45.6l.76,23.66.04,1.76.04,2.04c.11,5.85-1.29,8.77-4.2,8.77-1.07,0-2-.35-2.78-1.04-.79-.69-1.18-1.56-1.18-2.6s.04-2.54.12-4.56c.08-2.03.12-3.55.12-4.56l-.8-23.38c-1.95-.08-4.91-.31-8.89-.68-2.38-.32-3.56-1.64-3.56-3.96,0-1.17.36-2.15,1.08-2.92.72-.77,1.64-1.16,2.76-1.16l8.41.68c0-1.36-.06-3.18-.18-5.47-.12-2.28-.18-3.93-.18-4.94,0-1.12.39-2.05,1.16-2.78.77-.73,1.72-1.1,2.84-1.1,2.4,0,3.8,1.96,4.2,5.89.08.99.12,2.18.12,3.56l-.08,2.32-.04,2.48c3.31-.43,5.21-.64,5.69-.64,2.78,0,4.59.13,5.45.4,1.63.53,2.44,1.79,2.44,3.76,0,1.17-.37,2.14-1.1,2.9s-1.67,1.14-2.82,1.14Z"/>
        <path class="cls-1" d="M1130.78,187.26c-4.48,0-8.34-1.66-11.57-4.96-3.6-3.68-5.5-8.63-5.69-14.85-.16-6.03,1.36-11.34,4.56-15.94,3.74-5.42,8.94-8.13,15.62-8.13,5.34,0,9.38,2.44,12.13,7.33,2.19,3.95,3.24,8.7,3.16,14.25-.08,5.93-1.63,10.98-4.64,15.17-3.42,4.75-7.94,7.13-13.57,7.13ZM1133.18,151.51c-3.92-.03-6.98,1.84-9.17,5.61-1.74,3.02-2.6,6.46-2.6,10.33s1.05,6.89,3.16,9.05c1.76,1.79,3.83,2.68,6.21,2.68,2.78,0,5.17-1.01,7.17-3.04,2.27-2.24,3.47-5.27,3.6-9.09.37-10.33-2.42-15.51-8.37-15.54Z"/>
        <path class="cls-1" d="M1185.79,128.6c-6.46,0-10.08,4.48-10.85,13.45l-.12,2.48c4.54-.32,7.47-.48,8.81-.48,4.24,0,6.37,1.33,6.37,4,0,1.95-1.04,3.11-3.12,3.48-.91.16-1.97.22-3.18.18s-4.29.14-9.23.54l-.32,9.13c0,1.66.05,4.14.16,7.45.11,3.31.16,5.78.16,7.41,0,5.07-.29,9.02-.88,11.85-.45,2.14-1.7,3.2-3.72,3.2-1.09,0-2.03-.35-2.8-1.06-.77-.71-1.16-1.6-1.16-2.66,0-.21.03-.48.08-.8.56-3.47.84-7.25.84-11.33l-.12-10.93v-11.61c-3.34.27-5.45.4-6.33.4-2.7,0-4.04-1.29-4.04-3.88s2.33-4.03,7.01-4.16l3.84-.12c.08-1.49.28-3.52.6-6.09.69-5.93,2.19-10.29,4.48-13.09,2.78-3.39,7.11-5.08,13.01-5.08,3.82,0,5.73,1.29,5.73,3.88s-1.74,3.84-5.21,3.84Z"/>
        <path class="cls-1" d="M336.05,284.7c-2.67,0-5.61-.43-8.81-1.28l-.08,19.14c0,1.17-.37,2.14-1.1,2.88-.73.75-1.67,1.12-2.82,1.12s-2.09-.37-2.82-1.12c-.74-.75-1.1-1.71-1.1-2.88l.12-16.02v-15.98c-.08-5.85-.28-11.17-.6-15.98l-.6-8.13c0-1.9.35-3.5,1.04-4.8.8-1.57,1.96-2.36,3.48-2.36,1.04,0,1.92.37,2.62,1.1.71.73,1.06,1.64,1.06,2.7,0,.24-.04.68-.12,1.32-.13.83-.23,1.59-.28,2.28,2.29-1.57,4.51-2.76,6.65-3.54,2.13-.79,4.18-1.18,6.13-1.18,5.47,0,9.48,2.43,12.01,7.29,2,3.84,3,8.93,3,15.25,0,5.77-1.55,10.52-4.64,14.25-3.28,3.95-7.66,5.93-13.13,5.93ZM338.81,249.99c-2.46,0-4.67.55-6.65,1.64-1.42.77-3.2,2.19-5.37,4.24.35,6.06.52,12.43.52,19.1,2.91,1.12,5.82,1.68,8.73,1.68,3.34,0,5.89-1.24,7.65-3.72,1.52-2.16,2.28-4.96,2.28-8.41,0-4.86-.59-8.49-1.78-10.91-1.19-2.42-2.98-3.62-5.39-3.62Z"/>
        <path class="cls-1" d="M381.57,285.14c-6.03,0-10.92-1.51-14.65-4.52-4.08-3.34-6.13-8.01-6.13-14.01,0-6.94,1.68-12.76,5.04-17.46,3.66-5.12,8.54-7.69,14.65-7.69,4.43,0,8.05.75,10.85,2.24,3.44,1.84,5.17,4.67,5.17,8.49,0,2.67-1.51,5.1-4.52,7.29-1.33.96-4.16,2.46-8.49,4.48l-15.29,7.25c1.49,2.22,3.36,3.88,5.59,5,2.23,1.12,4.82,1.68,7.79,1.68,1.84,0,4-.35,6.49-1.04,3.15-.88,5.18-2.04,6.09-3.46.91-1.43,1.88-2.14,2.92-2.14.93,0,1.77.35,2.5,1.06.73.71,1.1,1.53,1.1,2.46,0,2.96-2.39,5.51-7.17,7.65-4.08,1.81-8.06,2.72-11.93,2.72ZM380.49,248.67c-3.26,0-5.97,1.26-8.13,3.78s-3.78,6.32-4.84,11.39l12.29-5.85c4.83-2.35,8.27-4.39,10.33-6.13-2.3-2.14-5.51-3.2-9.65-3.2Z"/>
        <path class="cls-1" d="M438.95,253.71c-.19,3.34-1.52,5-4,5-2.3,0-3.44-1.32-3.44-3.96,0-.51-.04-1.44-.12-2.8l-.12-3.36c-4.22.51-7.59,1.7-10.13,3.56-2.38,1.74-4.35,4.35-5.93,7.85l.08,21.94c0,2.7-1.32,4.04-3.96,4.04-2.35,0-3.52-1.35-3.52-4.04v-28.11c0-.88.03-2.2.1-3.96.07-1.76.1-3.08.1-3.96,0-2.7,1.17-4.04,3.52-4.04,2.62,0,3.94,2.22,3.96,6.65,5.12-4.94,10.81-7.41,17.06-7.41,2.16,0,3.78.81,4.84,2.44,1.07,1.63,1.6,4.08,1.6,7.37,0,1.39-.01,2.32-.04,2.8Z"/>
        <path class="cls-1" d="M474.22,252.47c-1.47,0-2.5-.49-3.08-1.48-.4-.69-.75-2.14-1.04-4.32-2,.51-5.08,1.44-9.25,2.8-4.3,1.71-6.46,3.82-6.49,6.33.8.29,1.59.51,2.36.64,6.14,1.09,10.7,2.6,13.69,4.52,4.35,2.8,6.53,6.86,6.53,12.17,0,4.35-1.88,7.63-5.65,9.85-3.12,1.81-7.07,2.72-11.85,2.72-3.5,0-6.83-.59-10.01-1.76-4.11-1.49-6.17-3.58-6.17-6.25,0-1.07.42-2,1.26-2.8.84-.8,1.79-1.2,2.86-1.2.83,0,1.89.64,3.2,1.92.64.61,2.08,1.12,4.32,1.52,1.79.32,3.3.48,4.52.48,2.24,0,4.22-.27,5.93-.8,2.48-.77,3.72-2,3.72-3.68,0-3.63-2.54-6.09-7.61-7.37l-4.16-.92c-3.55-.77-6.07-1.68-7.57-2.72-2.16-1.49-3.24-3.75-3.24-6.77,0-5.58,2.63-9.56,7.89-11.93,1.6-.72,4.16-1.58,7.69-2.58s6.05-1.85,7.57-2.54c1.09-.48,2.28-.72,3.56-.72,1.15,0,2.09.37,2.82,1.12.73.75,1.1,1.72,1.1,2.92,0,.77.17,1.91.5,3.4.33,1.5.5,2.63.5,3.4,0,1.2-.37,2.18-1.1,2.92-.73.75-1.67,1.12-2.82,1.12Z"/>
        <path class="cls-1" d="M502.13,285.66c-4.48,0-8.34-1.66-11.57-4.96-3.6-3.68-5.5-8.63-5.69-14.85-.16-6.03,1.36-11.34,4.56-15.94,3.74-5.42,8.94-8.13,15.62-8.13,5.34,0,9.38,2.44,12.13,7.33,2.19,3.95,3.24,8.7,3.16,14.25-.08,5.93-1.63,10.98-4.64,15.17-3.42,4.75-7.94,7.13-13.57,7.13ZM504.53,249.91c-3.92-.03-6.98,1.84-9.17,5.61-1.74,3.02-2.6,6.46-2.6,10.33s1.05,6.89,3.16,9.05c1.76,1.79,3.83,2.68,6.21,2.68,2.78,0,5.17-1.01,7.17-3.04,2.27-2.24,3.47-5.27,3.6-9.09.37-10.33-2.42-15.51-8.37-15.54Z"/>
        <path class="cls-1" d="M560.94,286.14c-2.3,0-3.59-1.25-3.88-3.76l-1.12-8.77c-.37-3.12-.56-6.05-.56-8.77,0-.75.05-2.02.14-3.8.09-1.79.14-3.06.14-3.8,0-5.77-1.07-8.65-3.2-8.65-2.99,0-5.85,1.78-8.57,5.33-2.46,3.23-4.38,7.31-5.77,12.25-.05,1.04-.17,2.35-.36,3.92-.16,1.33-.24,2.63-.24,3.88,0,.8.08,2,.24,3.6s.24,2.8.24,3.6c0,1.2-.37,2.18-1.1,2.92-.74.75-1.68,1.12-2.82,1.12s-2.12-.37-2.84-1.12c-.72-.75-1.08-1.72-1.08-2.92,0-.8-.09-2-.26-3.6s-.26-2.8-.26-3.6c0-2.75.19-6.56.58-11.43.39-4.87.58-8.68.58-11.43,0-.85-.05-2.12-.14-3.8-.09-1.68-.14-2.95-.14-3.8,0-1.15.38-2.09,1.14-2.82.76-.73,1.7-1.1,2.82-1.1,2.46,0,3.8,1.74,4.04,5.21l.12,4.68c4.48-5.98,9.09-8.97,13.81-8.97,4.27,0,7.25,1.88,8.93,5.65,1.15,2.51,1.77,6.22,1.88,11.13v4.04l-.04,3.72c0,2.22.29,5.08.86,8.59.57,3.51.86,6.36.86,8.55,0,1.17-.38,2.13-1.14,2.86-.76.73-1.72,1.1-2.86,1.1Z"/>
        <path class="cls-1" d="M604.43,285.94c-.51,0-1.43-.59-2.76-1.76-1.2-1.09-2.1-2.07-2.68-2.92-2.56,1.39-4.82,2.44-6.77,3.14-1.95.71-3.58,1.06-4.88,1.06-6.25,0-10.8-1.76-13.65-5.29-2.7-3.31-4.04-8.38-4.04-15.21,0-6.46,2.22-11.98,6.67-16.58,4.44-4.59,9.75-6.89,15.92-6.89,2.32,0,4.92.6,7.81,1.8,3.63,1.5,5.45,3.3,5.45,5.41,0,.72-.27,1.36-.8,1.92-.27,1.01-.47,2.68-.62,5s-.23,5.3-.26,8.93c-.03,3.31.2,5.93.68,7.85.27,1.17,1.11,3.52,2.52,7.05.19.48.49,1.19.92,2.12l.24.68c0,1.07-.37,1.95-1.12,2.64-.75.69-1.62,1.04-2.6,1.04ZM596.1,258.12c0-1.15.07-2.4.22-3.74.15-1.35.37-2.78.66-4.3-.99-.51-1.84-.88-2.54-1.12s-1.27-.36-1.7-.36c-4.14,0-7.71,1.69-10.71,5.06-3,3.38-4.5,7.27-4.5,11.67s.77,7.66,2.32,9.85c1.55,2.19,3.87,3.28,6.97,3.28,2.56,0,4.74-.47,6.53-1.4.96-.51,2.31-1.52,4.04-3.04-.85-7.07-1.28-12.37-1.28-15.9Z"/>
        <path class="cls-1" d="M625.29,251.83l-.6,19.9c0,2.11-.11,5.21-.32,9.29-.27,2.67-1.58,4-3.92,4-2.62,0-3.92-1.36-3.92-4.08,0-3.23.15-8.08.44-14.55.29-6.47.44-11.32.44-14.55,0-4.22.07-9.04.2-14.47.13-5.43.2-10.26.2-14.47,0-2.67,1.31-4,3.92-4s3.96,1.33,3.96,4c0,4.22-.07,9.04-.2,14.47-.13,5.43-.2,10.26-.2,14.47Z"/>
        <path class="cls-1" d="M694.76,259.92c0,1.92.01,4.8.04,8.65.03,3.84.04,6.73.04,8.65,0,.59.05,1.48.14,2.68s.14,2.1.14,2.68c0,1.15-.39,2.09-1.16,2.82-.77.73-1.72,1.1-2.84,1.1-2.06,0-3.36-1.27-3.92-3.8-3.34,1.73-7.18,2.6-11.53,2.6-3.5,0-6.39-.77-8.69-2.32-2.54-1.71-4.04-4.2-4.52-7.49-1.04-7.07-1.56-13.37-1.56-18.9,0-3.66.4-7.82,1.2-12.49.37-2.32,1.64-3.48,3.8-3.48,1.15,0,2.11.37,2.88,1.1.77.73,1.16,1.68,1.16,2.82,0,1.23-.19,3.19-.58,5.89-.39,2.7-.58,4.75-.58,6.17,0,4.46.15,8.27.44,11.45.29,3.18.73,5.73,1.32,7.65.88.48,1.75.85,2.6,1.1.85.25,1.69.38,2.52.38,3.58,0,7.35-.57,11.33-1.72l-.04-8.13-.08-7.77c0-5.77.25-10.77.76-15.01.29-2.46,1.59-3.68,3.88-3.68,1.15,0,2.11.37,2.88,1.12.77.75,1.13,1.68,1.08,2.8l-.72,15.13Z"/>
        <path class="cls-1" d="M731.75,252.47c-1.47,0-2.5-.49-3.08-1.48-.4-.69-.75-2.14-1.04-4.32-2,.51-5.08,1.44-9.25,2.8-4.3,1.71-6.46,3.82-6.49,6.33.8.29,1.59.51,2.36.64,6.14,1.09,10.7,2.6,13.69,4.52,4.35,2.8,6.53,6.86,6.53,12.17,0,4.35-1.88,7.63-5.65,9.85-3.12,1.81-7.07,2.72-11.85,2.72-3.5,0-6.83-.59-10.01-1.76-4.11-1.49-6.17-3.58-6.17-6.25,0-1.07.42-2,1.26-2.8.84-.8,1.79-1.2,2.86-1.2.83,0,1.89.64,3.2,1.92.64.61,2.08,1.12,4.32,1.52,1.79.32,3.3.48,4.52.48,2.24,0,4.22-.27,5.93-.8,2.48-.77,3.72-2,3.72-3.68,0-3.63-2.54-6.09-7.61-7.37l-4.16-.92c-3.55-.77-6.07-1.68-7.57-2.72-2.16-1.49-3.24-3.75-3.24-6.77,0-5.58,2.63-9.56,7.89-11.93,1.6-.72,4.16-1.58,7.69-2.58s6.05-1.85,7.57-2.54c1.09-.48,2.28-.72,3.56-.72,1.15,0,2.09.37,2.82,1.12.73.75,1.1,1.72,1.1,2.92,0,.77.17,1.91.5,3.4.33,1.5.5,2.63.5,3.4,0,1.2-.37,2.18-1.1,2.92-.73.75-1.67,1.12-2.82,1.12Z"/>
        <path class="cls-1" d="M763.34,285.14c-6.03,0-10.92-1.51-14.65-4.52-4.08-3.34-6.13-8.01-6.13-14.01,0-6.94,1.68-12.76,5.04-17.46,3.66-5.12,8.54-7.69,14.65-7.69,4.43,0,8.05.75,10.85,2.24,3.44,1.84,5.17,4.67,5.17,8.49,0,2.67-1.51,5.1-4.52,7.29-1.33.96-4.16,2.46-8.49,4.48l-15.29,7.25c1.49,2.22,3.36,3.88,5.59,5,2.23,1.12,4.82,1.68,7.79,1.68,1.84,0,4-.35,6.49-1.04,3.15-.88,5.18-2.04,6.09-3.46.91-1.43,1.88-2.14,2.92-2.14.93,0,1.77.35,2.5,1.06.73.71,1.1,1.53,1.1,2.46,0,2.96-2.39,5.51-7.17,7.65-4.08,1.81-8.06,2.72-11.93,2.72ZM762.26,248.67c-3.26,0-5.97,1.26-8.13,3.78s-3.78,6.32-4.84,11.39l12.29-5.85c4.83-2.35,8.27-4.39,10.33-6.13-2.3-2.14-5.51-3.2-9.65-3.2Z"/>
        <path class="cls-1" d="M820.72,253.71c-.19,3.34-1.52,5-4,5-2.3,0-3.44-1.32-3.44-3.96,0-.51-.04-1.44-.12-2.8l-.12-3.36c-4.22.51-7.59,1.7-10.13,3.56-2.38,1.74-4.35,4.35-5.93,7.85l.08,21.94c0,2.7-1.32,4.04-3.96,4.04-2.35,0-3.52-1.35-3.52-4.04v-28.11c0-.88.03-2.2.1-3.96.07-1.76.1-3.08.1-3.96,0-2.7,1.17-4.04,3.52-4.04,2.62,0,3.94,2.22,3.96,6.65,5.12-4.94,10.81-7.41,17.06-7.41,2.16,0,3.78.81,4.84,2.44,1.07,1.63,1.6,4.08,1.6,7.37,0,1.39-.01,2.32-.04,2.8Z"/>
        <path class="cls-1" d="M862.92,265.12c0,1.6.05,4,.14,7.19.09,3.19.14,5.59.14,7.19,0,1.17-.36,2.14-1.08,2.88-.72.75-1.67,1.12-2.84,1.12s-2.09-.37-2.82-1.12c-.74-.75-1.1-1.71-1.1-2.88,0-1.6-.05-4-.14-7.19-.09-3.19-.14-5.59-.14-7.19,0-2.51.13-5.64.4-9.39.27-3.75.4-6.88.4-9.39,0-1.2.37-2.18,1.1-2.92.73-.75,1.67-1.12,2.82-1.12s2.09.37,2.82,1.12c.73.75,1.1,1.72,1.1,2.92,0,2.51-.13,5.64-.4,9.39-.27,3.75-.4,6.88-.4,9.39ZM861.12,232.61c-1.28,0-2.39-.45-3.32-1.36-.93-.91-1.4-2-1.4-3.28s.47-2.38,1.4-3.28c.93-.91,2.04-1.36,3.32-1.36s2.38.45,3.3,1.36c.92.91,1.38,2,1.38,3.28s-.46,2.38-1.38,3.28c-.92.91-2.02,1.36-3.3,1.36Z"/>
        <path class="cls-1" d="M907.16,286.14c-2.3,0-3.59-1.25-3.88-3.76l-1.12-8.77c-.37-3.12-.56-6.05-.56-8.77,0-.75.05-2.02.14-3.8.09-1.79.14-3.06.14-3.8,0-5.77-1.07-8.65-3.2-8.65-2.99,0-5.85,1.78-8.57,5.33-2.46,3.23-4.38,7.31-5.77,12.25-.05,1.04-.17,2.35-.36,3.92-.16,1.33-.24,2.63-.24,3.88,0,.8.08,2,.24,3.6s.24,2.8.24,3.6c0,1.2-.37,2.18-1.1,2.92-.74.75-1.68,1.12-2.82,1.12s-2.12-.37-2.84-1.12c-.72-.75-1.08-1.72-1.08-2.92,0-.8-.09-2-.26-3.6s-.26-2.8-.26-3.6c0-2.75.19-6.56.58-11.43.39-4.87.58-8.68.58-11.43,0-.85-.05-2.12-.14-3.8-.09-1.68-.14-2.95-.14-3.8,0-1.15.38-2.09,1.14-2.82.76-.73,1.7-1.1,2.82-1.1,2.46,0,3.8,1.74,4.04,5.21l.12,4.68c4.48-5.98,9.09-8.97,13.81-8.97,4.27,0,7.25,1.88,8.93,5.65,1.15,2.51,1.77,6.22,1.88,11.13v4.04l-.04,3.72c0,2.22.29,5.08.86,8.59.57,3.51.86,6.36.86,8.55,0,1.17-.38,2.13-1.14,2.86-.76.73-1.72,1.1-2.86,1.1Z"/>
        <path class="cls-1" d="M946.28,227c-6.46,0-10.08,4.48-10.85,13.45l-.12,2.48c4.54-.32,7.47-.48,8.81-.48,4.24,0,6.37,1.33,6.37,4,0,1.95-1.04,3.11-3.12,3.48-.91.16-1.97.22-3.18.18s-4.29.14-9.23.54l-.32,9.13c0,1.66.05,4.14.16,7.45.11,3.31.16,5.78.16,7.41,0,5.07-.29,9.02-.88,11.85-.45,2.14-1.7,3.2-3.72,3.2-1.09,0-2.03-.35-2.8-1.06-.77-.71-1.16-1.6-1.16-2.66,0-.21.03-.48.08-.8.56-3.47.84-7.25.84-11.33l-.12-10.93v-11.61c-3.34.27-5.45.4-6.33.4-2.7,0-4.04-1.29-4.04-3.88s2.33-4.03,7.01-4.16l3.84-.12c.08-1.49.28-3.52.6-6.09.69-5.93,2.19-10.29,4.48-13.09,2.78-3.39,7.11-5.08,13.01-5.08,3.82,0,5.73,1.29,5.73,3.88s-1.74,3.84-5.21,3.84Z"/>
        <path class="cls-1" d="M976.07,285.66c-4.48,0-8.34-1.66-11.57-4.96-3.6-3.68-5.5-8.63-5.69-14.85-.16-6.03,1.36-11.34,4.56-15.94,3.74-5.42,8.94-8.13,15.62-8.13,5.34,0,9.38,2.44,12.13,7.33,2.19,3.95,3.24,8.7,3.16,14.25-.08,5.93-1.63,10.98-4.64,15.17-3.42,4.75-7.94,7.13-13.57,7.13ZM978.47,249.91c-3.92-.03-6.98,1.84-9.17,5.61-1.74,3.02-2.6,6.46-2.6,10.33s1.05,6.89,3.16,9.05c1.76,1.79,3.83,2.68,6.21,2.68,2.78,0,5.17-1.01,7.17-3.04,2.27-2.24,3.47-5.27,3.6-9.09.37-10.33-2.42-15.51-8.37-15.54Z"/>
        <path class="cls-1" d="M1035.33,253.71c-.19,3.34-1.52,5-4,5-2.3,0-3.44-1.32-3.44-3.96,0-.51-.04-1.44-.12-2.8l-.12-3.36c-4.22.51-7.59,1.7-10.13,3.56-2.38,1.74-4.35,4.35-5.93,7.85l.08,21.94c0,2.7-1.32,4.04-3.96,4.04-2.35,0-3.52-1.35-3.52-4.04v-28.11c0-.88.03-2.2.1-3.96.07-1.76.1-3.08.1-3.96,0-2.7,1.17-4.04,3.52-4.04,2.62,0,3.94,2.22,3.96,6.65,5.12-4.94,10.81-7.41,17.06-7.41,2.16,0,3.78.81,4.84,2.44,1.07,1.63,1.6,4.08,1.6,7.37,0,1.39-.01,2.32-.04,2.8Z"/>
        <path class="cls-1" d="M1094.43,286.62c-2.19,0-3.47-1.16-3.84-3.48-.48-2.94-.96-7.07-1.44-12.41l-1.36-12.41c-.27-1.84-.72-3.64-1.36-5.41-.91-2.4-1.9-3.6-2.96-3.6-.99,0-2.83.84-5.53,2.52-2.56,1.55-4.24,2.79-5.04,3.72-.03,2.51.04,5.02.2,7.53l1.2,10.69c.51,4.22.76,7.7.76,10.45,0,1.17-.37,2.14-1.1,2.9-.74.76-1.68,1.14-2.82,1.14s-2.09-.38-2.82-1.14-1.1-1.73-1.1-2.9c0-3.23-.33-8-.98-14.31-.65-6.31-.98-11.08-.98-14.31,0-2.83-.4-5.03-1.2-6.61-1.87.85-3.76,2.24-5.69,4.16l-4.72,5.29c-.43.64-1.11,1.48-2.04,2.52,0,1.6-.15,3.96-.44,7.09-.29,3.12-.44,5.43-.44,6.93,0,.8.13,1.92.38,3.36s.38,2.48.38,3.12c0,1.09-.41,2.02-1.22,2.76-.82.75-1.77,1.12-2.86,1.12-3.02,0-4.52-3.43-4.52-10.29,0-1.6.15-3.99.44-7.17.29-3.18.44-5.57.44-7.17,0-1.41-.13-3.54-.38-6.37-.25-2.83-.38-4.96-.38-6.41,0-6.06,1.36-9.09,4.08-9.09,1.04,0,2,.45,2.86,1.36.87.91,1.3,1.9,1.3,2.96,0,.51-.07,1.29-.2,2.36-.13,1.07-.2,1.88-.2,2.44l.08,4.2c1.39-2.86,3.43-5.44,6.13-7.75,2.7-2.31,4.99-3.46,6.89-3.46,4.19,0,7.07,2.08,8.65,6.25,1.47-1.95,3.22-3.41,5.25-4.38,2.03-.97,4.35-1.46,6.97-1.46,4.46,0,7.5,2.4,9.13,7.21.32.96.87,4.71,1.64,11.25.75,4.59,1.71,12.24,2.88,22.94.08,1.07-.28,1.98-1.08,2.72-.8.75-1.78,1.12-2.92,1.12Z"/>
        <path class="cls-1" d="M1138.55,285.94c-.51,0-1.43-.59-2.76-1.76-1.2-1.09-2.1-2.07-2.68-2.92-2.56,1.39-4.82,2.44-6.77,3.14-1.95.71-3.58,1.06-4.88,1.06-6.25,0-10.8-1.76-13.65-5.29-2.7-3.31-4.04-8.38-4.04-15.21,0-6.46,2.22-11.98,6.67-16.58,4.44-4.59,9.75-6.89,15.92-6.89,2.32,0,4.92.6,7.81,1.8,3.63,1.5,5.45,3.3,5.45,5.41,0,.72-.27,1.36-.8,1.92-.27,1.01-.47,2.68-.62,5s-.23,5.3-.26,8.93c-.03,3.31.2,5.93.68,7.85.27,1.17,1.11,3.52,2.52,7.05.19.48.49,1.19.92,2.12l.24.68c0,1.07-.37,1.95-1.12,2.64-.75.69-1.62,1.04-2.6,1.04ZM1130.22,258.12c0-1.15.07-2.4.22-3.74.15-1.35.37-2.78.66-4.3-.99-.51-1.84-.88-2.54-1.12s-1.27-.36-1.7-.36c-4.14,0-7.71,1.69-10.71,5.06-3,3.38-4.5,7.27-4.5,11.67s.77,7.66,2.32,9.85c1.55,2.19,3.87,3.28,6.97,3.28,2.56,0,4.74-.47,6.53-1.4.96-.51,2.31-1.52,4.04-3.04-.85-7.07-1.28-12.37-1.28-15.9Z"/>
        <path class="cls-1" d="M1176.02,249.19c-.56,0-1.22-.03-1.98-.08-.76-.05-1.42-.08-1.98-.08-.61,0-2.43.2-5.45.6l.76,23.66.04,1.76.04,2.04c.11,5.85-1.29,8.77-4.2,8.77-1.07,0-2-.35-2.78-1.04-.79-.69-1.18-1.56-1.18-2.6s.04-2.54.12-4.56c.08-2.03.12-3.55.12-4.56l-.8-23.38c-1.95-.08-4.91-.31-8.89-.68-2.38-.32-3.56-1.64-3.56-3.96,0-1.17.36-2.15,1.08-2.92.72-.77,1.64-1.16,2.76-1.16l8.41.68c0-1.36-.06-3.18-.18-5.47-.12-2.28-.18-3.93-.18-4.94,0-1.12.39-2.05,1.16-2.78.77-.73,1.72-1.1,2.84-1.1,2.4,0,3.8,1.96,4.2,5.89.08.99.12,2.18.12,3.56l-.08,2.32-.04,2.48c3.31-.43,5.21-.64,5.69-.64,2.78,0,4.59.13,5.45.4,1.63.53,2.44,1.79,2.44,3.76,0,1.17-.37,2.14-1.1,2.9s-1.67,1.14-2.82,1.14Z"/>
        <path class="cls-1" d="M1197.33,265.12c0,1.6.05,4,.14,7.19.09,3.19.14,5.59.14,7.19,0,1.17-.36,2.14-1.08,2.88-.72.75-1.67,1.12-2.84,1.12s-2.09-.37-2.82-1.12c-.74-.75-1.1-1.71-1.1-2.88,0-1.6-.05-4-.14-7.19-.09-3.19-.14-5.59-.14-7.19,0-2.51.13-5.64.4-9.39.27-3.75.4-6.88.4-9.39,0-1.2.37-2.18,1.1-2.92.73-.75,1.67-1.12,2.82-1.12s2.09.37,2.82,1.12c.73.75,1.1,1.72,1.1,2.92,0,2.51-.13,5.64-.4,9.39-.27,3.75-.4,6.88-.4,9.39ZM1195.52,232.61c-1.28,0-2.39-.45-3.32-1.36-.93-.91-1.4-2-1.4-3.28s.47-2.38,1.4-3.28c.93-.91,2.04-1.36,3.32-1.36s2.38.45,3.3,1.36c.92.91,1.38,2,1.38,3.28s-.46,2.38-1.38,3.28c-.92.91-2.02,1.36-3.3,1.36Z"/>
        <path class="cls-1" d="M1225.87,285.66c-4.48,0-8.34-1.66-11.57-4.96-3.6-3.68-5.5-8.63-5.69-14.85-.16-6.03,1.36-11.34,4.56-15.94,3.74-5.42,8.94-8.13,15.62-8.13,5.34,0,9.38,2.44,12.13,7.33,2.19,3.95,3.24,8.7,3.16,14.25-.08,5.93-1.63,10.98-4.64,15.17-3.42,4.75-7.94,7.13-13.57,7.13ZM1228.28,249.91c-3.92-.03-6.98,1.84-9.17,5.61-1.74,3.02-2.6,6.46-2.6,10.33s1.05,6.89,3.16,9.05c1.76,1.79,3.83,2.68,6.21,2.68,2.78,0,5.17-1.01,7.17-3.04,2.27-2.24,3.47-5.27,3.6-9.09.37-10.33-2.42-15.51-8.37-15.54Z"/>
        <path class="cls-1" d="M1284.69,286.14c-2.3,0-3.59-1.25-3.88-3.76l-1.12-8.77c-.37-3.12-.56-6.05-.56-8.77,0-.75.05-2.02.14-3.8.09-1.79.14-3.06.14-3.8,0-5.77-1.07-8.65-3.2-8.65-2.99,0-5.85,1.78-8.57,5.33-2.46,3.23-4.38,7.31-5.77,12.25-.05,1.04-.17,2.35-.36,3.92-.16,1.33-.24,2.63-.24,3.88,0,.8.08,2,.24,3.6s.24,2.8.24,3.6c0,1.2-.37,2.18-1.1,2.92-.74.75-1.68,1.12-2.82,1.12s-2.12-.37-2.84-1.12c-.72-.75-1.08-1.72-1.08-2.92,0-.8-.09-2-.26-3.6s-.26-2.8-.26-3.6c0-2.75.19-6.56.58-11.43.39-4.87.58-8.68.58-11.43,0-.85-.05-2.12-.14-3.8-.09-1.68-.14-2.95-.14-3.8,0-1.15.38-2.09,1.14-2.82.76-.73,1.7-1.1,2.82-1.1,2.46,0,3.8,1.74,4.04,5.21l.12,4.68c4.48-5.98,9.09-8.97,13.81-8.97,4.27,0,7.25,1.88,8.93,5.65,1.15,2.51,1.77,6.22,1.88,11.13v4.04l-.04,3.72c0,2.22.29,5.08.86,8.59.57,3.51.86,6.36.86,8.55,0,1.17-.38,2.13-1.14,2.86-.76.73-1.72,1.1-2.86,1.1Z"/>
        <path class="cls-1" d="M331.6,350.87c-1.47,0-2.5-.49-3.08-1.48-.4-.69-.75-2.14-1.04-4.32-2,.51-5.08,1.44-9.25,2.8-4.3,1.71-6.46,3.82-6.49,6.33.8.29,1.59.51,2.36.64,6.14,1.09,10.7,2.6,13.69,4.52,4.35,2.8,6.53,6.86,6.53,12.17,0,4.35-1.88,7.63-5.65,9.85-3.12,1.81-7.07,2.72-11.85,2.72-3.5,0-6.83-.59-10.01-1.76-4.11-1.49-6.17-3.58-6.17-6.25,0-1.07.42-2,1.26-2.8.84-.8,1.79-1.2,2.86-1.2.83,0,1.89.64,3.2,1.92.64.61,2.08,1.12,4.32,1.52,1.79.32,3.3.48,4.52.48,2.24,0,4.22-.27,5.93-.8,2.48-.77,3.72-2,3.72-3.68,0-3.63-2.54-6.09-7.61-7.37l-4.16-.92c-3.55-.77-6.07-1.68-7.57-2.72-2.16-1.49-3.24-3.75-3.24-6.77,0-5.58,2.63-9.56,7.89-11.93,1.6-.72,4.16-1.58,7.69-2.58s6.05-1.85,7.57-2.54c1.09-.48,2.28-.72,3.56-.72,1.15,0,2.09.37,2.82,1.12.73.75,1.1,1.72,1.1,2.92,0,.77.17,1.91.5,3.4.33,1.5.5,2.63.5,3.4,0,1.2-.37,2.18-1.1,2.92-.73.75-1.67,1.12-2.82,1.12Z"/>
        <path class="cls-1" d="M359.51,384.06c-4.48,0-8.34-1.66-11.57-4.96-3.6-3.68-5.5-8.63-5.69-14.85-.16-6.03,1.36-11.34,4.56-15.94,3.74-5.42,8.94-8.13,15.62-8.13,5.34,0,9.38,2.44,12.13,7.33,2.19,3.95,3.24,8.7,3.16,14.25-.08,5.93-1.63,10.98-4.64,15.17-3.42,4.75-7.94,7.13-13.57,7.13ZM361.91,348.31c-3.92-.03-6.98,1.84-9.17,5.61-1.74,3.02-2.6,6.46-2.6,10.33s1.05,6.89,3.16,9.05c1.76,1.79,3.83,2.68,6.21,2.68,2.78,0,5.17-1.01,7.17-3.04,2.27-2.24,3.47-5.27,3.6-9.09.37-10.33-2.42-15.51-8.37-15.54Z"/>
        <path class="cls-1" d="M460.05,345.87c-2.08,8.7-4.8,18.54-8.17,29.51-.75,2.43-1.99,4.92-3.72,7.49-.93,1.41-2.2,2.11-3.8,2.08-2.91-.05-5.18-3.67-6.81-10.85-.53-2.3-1.08-5.42-1.64-9.37l-1.32-8.93-3.28,7.65-6.09,16.54c-.35,1.01-.85,1.79-1.52,2.32-.8,1.55-2.08,2.35-3.84,2.4-2.03.08-3.99-3.9-5.89-11.93-.96-4.14-1.92-9.74-2.88-16.82l-.96-6.01c-.35-2.4-.52-4.42-.52-6.05,0-1.12.39-2.05,1.18-2.78.79-.73,1.74-1.1,2.86-1.1,2.03,0,3.28,1.11,3.76,3.32.35,1.58.63,3.52.84,5.85l.6,5.89,2.36,17.98c2.96-8.22,6.03-17.7,9.21-28.43.88-2.96,2.42-4.44,4.6-4.44s3.54,1.66,4.28,4.96c.69,3.12,1.56,7.93,2.6,14.41,1.07,6.73,2.01,11.97,2.84,15.74l2.92-10.89,5.17-21.82c.4-1.63,1.55-2.44,3.44-2.44,1.12,0,2.09.38,2.92,1.14.83.76,1.24,1.68,1.24,2.74,0,.13-.13.75-.4,1.84Z"/>
        <path class="cls-1" d="M486.91,383.54c-6.03,0-10.92-1.51-14.65-4.52-4.08-3.34-6.13-8.01-6.13-14.01,0-6.94,1.68-12.76,5.04-17.46,3.66-5.12,8.54-7.69,14.65-7.69,4.43,0,8.05.75,10.85,2.24,3.44,1.84,5.17,4.67,5.17,8.49,0,2.67-1.51,5.1-4.52,7.29-1.33.96-4.16,2.46-8.49,4.48l-15.29,7.25c1.49,2.22,3.36,3.88,5.59,5,2.23,1.12,4.82,1.68,7.79,1.68,1.84,0,4-.35,6.49-1.04,3.15-.88,5.18-2.04,6.09-3.46.91-1.43,1.88-2.14,2.92-2.14.93,0,1.77.35,2.5,1.06.73.71,1.1,1.53,1.1,2.46,0,2.96-2.39,5.51-7.17,7.65-4.08,1.81-8.06,2.72-11.93,2.72ZM485.83,347.07c-3.26,0-5.97,1.26-8.13,3.78s-3.78,6.32-4.84,11.39l12.29-5.85c4.83-2.35,8.27-4.39,10.33-6.13-2.3-2.14-5.51-3.2-9.65-3.2Z"/>
        <path class="cls-1" d="M555.74,384.22c-5.47,0-10.04-1.66-13.69-4.96-3.84-3.47-5.77-8.05-5.77-13.73s1.8-11.01,5.41-16.78c4-6.41,8.51-9.61,13.53-9.61,2.62,0,5.54.61,8.77,1.84,4.08,1.58,6.13,3.5,6.13,5.77,0,1.01-.33,1.92-1,2.7-.67.79-1.5,1.18-2.48,1.18-.77,0-1.45-.23-2.02-.7-.57-.47-1.13-.93-1.66-1.38-1.58-1.25-4.15-1.88-7.73-1.88-2.72,0-5.42,2.43-8.09,7.29-2.43,4.46-3.64,8.31-3.64,11.57,0,3.52,1.2,6.3,3.6,8.33,2.24,1.9,5.12,2.84,8.65,2.84,1.6,0,3.31-.43,5.12-1.28l4.64-2.48c.8-.43,1.37-.64,1.72-.64.99,0,1.84.39,2.56,1.18.72.79,1.08,1.69,1.08,2.7,0,1.95-2.06,3.83-6.17,5.65-3.6,1.6-6.59,2.4-8.97,2.4Z"/>
        <path class="cls-1" d="M611.03,384.34c-.51,0-1.43-.59-2.76-1.76-1.2-1.09-2.1-2.07-2.68-2.92-2.56,1.39-4.82,2.44-6.77,3.14-1.95.71-3.58,1.06-4.88,1.06-6.25,0-10.8-1.76-13.65-5.29-2.7-3.31-4.04-8.38-4.04-15.21,0-6.46,2.22-11.98,6.67-16.58,4.44-4.59,9.75-6.89,15.92-6.89,2.32,0,4.92.6,7.81,1.8,3.63,1.5,5.45,3.3,5.45,5.41,0,.72-.27,1.36-.8,1.92-.27,1.01-.47,2.68-.62,5s-.23,5.3-.26,8.93c-.03,3.31.2,5.93.68,7.85.27,1.17,1.11,3.52,2.52,7.05.19.48.49,1.19.92,2.12l.24.68c0,1.07-.37,1.95-1.12,2.64-.75.69-1.62,1.04-2.6,1.04ZM602.71,356.52c0-1.15.07-2.4.22-3.74.15-1.35.37-2.78.66-4.3-.99-.51-1.84-.88-2.54-1.12s-1.27-.36-1.7-.36c-4.14,0-7.71,1.69-10.71,5.06-3,3.38-4.5,7.27-4.5,11.67s.77,7.66,2.32,9.85c1.55,2.19,3.87,3.28,6.97,3.28,2.56,0,4.74-.47,6.53-1.4.96-.51,2.31-1.52,4.04-3.04-.85-7.07-1.28-12.37-1.28-15.9Z"/>
        <path class="cls-1" d="M652.43,384.54c-2.3,0-3.59-1.25-3.88-3.76l-1.12-8.77c-.37-3.12-.56-6.05-.56-8.77,0-.75.05-2.02.14-3.8.09-1.79.14-3.06.14-3.8,0-5.77-1.07-8.65-3.2-8.65-2.99,0-5.85,1.78-8.57,5.33-2.46,3.23-4.38,7.31-5.77,12.25-.05,1.04-.17,2.35-.36,3.92-.16,1.33-.24,2.63-.24,3.88,0,.8.08,2,.24,3.6s.24,2.8.24,3.6c0,1.2-.37,2.18-1.1,2.92-.74.75-1.68,1.12-2.82,1.12s-2.12-.37-2.84-1.12c-.72-.75-1.08-1.72-1.08-2.92,0-.8-.09-2-.26-3.6s-.26-2.8-.26-3.6c0-2.75.19-6.56.58-11.43.39-4.87.58-8.68.58-11.43,0-.85-.05-2.12-.14-3.8-.09-1.68-.14-2.95-.14-3.8,0-1.15.38-2.09,1.14-2.82.76-.73,1.7-1.1,2.82-1.1,2.46,0,3.8,1.74,4.04,5.21l.12,4.68c4.48-5.98,9.09-8.97,13.81-8.97,4.27,0,7.25,1.88,8.93,5.65,1.15,2.51,1.77,6.22,1.88,11.13v4.04l-.04,3.72c0,2.22.29,5.08.86,8.59.57,3.51.86,6.36.86,8.55,0,1.17-.38,2.13-1.14,2.86-.76.73-1.72,1.1-2.86,1.1Z"/>
        <path class="cls-1" d="M722.1,364.44l-.92,13.45c-.16,5.34-.71,9.7-1.64,13.09-1.2,4.32-3.12,7.51-5.77,9.57-3.2,2.48-7.83,3.72-13.89,3.72-3.55,0-6.53-.24-8.93-.72-3.36-.67-5.04-2.06-5.04-4.16,0-2.38,1.16-3.56,3.48-3.56.96,0,2.56.23,4.8.7,2.24.47,4.72.67,7.45.62,5.12-.08,8.66-2.56,10.61-7.45,1.28-3.26,1.96-8.26,2.04-15.01-1.44,2.67-3.16,4.67-5.15,6.01s-4.26,2-6.83,2c-4.83,0-8.76-1.65-11.79-4.94-3.03-3.3-4.54-7.57-4.54-12.83,0-7.21,2.07-13.01,6.21-17.42,4.27-4.54,10.09-6.81,17.46-6.81,2.48,0,4.56.32,6.25.96s2.96,1.6,3.84,2.88c2.86.08,4.28,1.67,4.28,4.76,0,1.9-.28,4.43-.84,7.61-.61,3.68-.97,6.19-1.08,7.53ZM709.25,347.11c-5.07,0-9,1.75-11.77,5.25-2.48,3.15-3.72,7.15-3.72,12.01,0,3.87.73,6.78,2.2,8.73,1.47,1.95,3.67,2.92,6.61,2.92,2.7,0,5.31-1.52,7.85-4.56,2.29-2.8,3.6-5.58,3.92-8.33.56-2.88,1.16-7.41,1.8-13.57-1.07-.83-2.18-1.44-3.32-1.84-1.15-.4-2.34-.6-3.56-.6Z"/>
        <path class="cls-1" d="M742.12,363.52c0,1.6.05,4,.14,7.19.09,3.19.14,5.59.14,7.19,0,1.17-.36,2.14-1.08,2.88-.72.75-1.67,1.12-2.84,1.12s-2.09-.37-2.82-1.12c-.74-.75-1.1-1.71-1.1-2.88,0-1.6-.05-4-.14-7.19-.09-3.19-.14-5.59-.14-7.19,0-2.51.13-5.64.4-9.39.27-3.75.4-6.88.4-9.39,0-1.2.37-2.18,1.1-2.92.73-.75,1.67-1.12,2.82-1.12s2.09.37,2.82,1.12c.73.75,1.1,1.72,1.1,2.92,0,2.51-.13,5.64-.4,9.39-.27,3.75-.4,6.88-.4,9.39ZM740.32,331.01c-1.28,0-2.39-.45-3.32-1.36-.93-.91-1.4-2-1.4-3.28s.47-2.38,1.4-3.28c.93-.91,2.04-1.36,3.32-1.36s2.38.45,3.3,1.36c.92.91,1.38,2,1.38,3.28s-.46,2.38-1.38,3.28c-.92.91-2.02,1.36-3.3,1.36Z"/>
        <path class="cls-1" d="M774.11,379.62c-.08,2.46-1.29,3.68-3.64,3.68-1.95,0-3.36-1.15-4.24-3.44l-6.13-16.26-7.13-18.38c-.27-.69-.4-1.31-.4-1.84,0-1.09.41-2.03,1.24-2.8.83-.77,1.79-1.16,2.88-1.16,1.6,0,2.75.81,3.44,2.44l10.17,27.99c2-4.27,4.52-10.46,7.57-18.58.72-2.14,1.85-5.15,3.4-9.05.83-1.71,2-2.56,3.52-2.56,1.09,0,2.05.39,2.88,1.16.83.77,1.24,1.7,1.24,2.76s-2.2,6.73-6.61,17.14l-8.21,18.9Z"/>
        <path class="cls-1" d="M814.23,383.54c-6.03,0-10.92-1.51-14.65-4.52-4.08-3.34-6.13-8.01-6.13-14.01,0-6.94,1.68-12.76,5.04-17.46,3.66-5.12,8.54-7.69,14.65-7.69,4.43,0,8.05.75,10.85,2.24,3.44,1.84,5.17,4.67,5.17,8.49,0,2.67-1.51,5.1-4.52,7.29-1.33.96-4.16,2.46-8.49,4.48l-15.29,7.25c1.49,2.22,3.36,3.88,5.59,5,2.23,1.12,4.82,1.68,7.79,1.68,1.84,0,4-.35,6.49-1.04,3.15-.88,5.18-2.04,6.09-3.46.91-1.43,1.88-2.14,2.92-2.14.93,0,1.77.35,2.5,1.06.73.71,1.1,1.53,1.1,2.46,0,2.96-2.39,5.51-7.17,7.65-4.08,1.81-8.06,2.72-11.93,2.72ZM813.15,347.07c-3.26,0-5.97,1.26-8.13,3.78s-3.78,6.32-4.84,11.39l12.29-5.85c4.83-2.35,8.27-4.39,10.33-6.13-2.3-2.14-5.51-3.2-9.65-3.2Z"/>
        <path class="cls-1" d="M896.23,384.34c-.51,0-1.43-.59-2.76-1.76-1.2-1.09-2.1-2.07-2.68-2.92-2.56,1.39-4.82,2.44-6.77,3.14-1.95.71-3.58,1.06-4.88,1.06-6.25,0-10.8-1.76-13.65-5.29-2.7-3.31-4.04-8.38-4.04-15.21,0-6.46,2.22-11.98,6.67-16.58,4.44-4.59,9.75-6.89,15.92-6.89,2.32,0,4.92.6,7.81,1.8,3.63,1.5,5.45,3.3,5.45,5.41,0,.72-.27,1.36-.8,1.92-.27,1.01-.47,2.68-.62,5s-.23,5.3-.26,8.93c-.03,3.31.2,5.93.68,7.85.27,1.17,1.11,3.52,2.52,7.05.19.48.49,1.19.92,2.12l.24.68c0,1.07-.37,1.95-1.12,2.64-.75.69-1.62,1.04-2.6,1.04ZM887.9,356.52c0-1.15.07-2.4.22-3.74.15-1.35.37-2.78.66-4.3-.99-.51-1.84-.88-2.54-1.12s-1.27-.36-1.7-.36c-4.14,0-7.71,1.69-10.71,5.06-3,3.38-4.5,7.27-4.5,11.67s.77,7.66,2.32,9.85c1.55,2.19,3.87,3.28,6.97,3.28,2.56,0,4.74-.47,6.53-1.4.96-.51,2.31-1.52,4.04-3.04-.85-7.07-1.28-12.37-1.28-15.9Z"/>
        <path class="cls-1" d="M941.6,350.23l-.6,19.9c0,2.11-.11,5.21-.32,9.29-.27,2.67-1.58,4-3.92,4-2.62,0-3.92-1.36-3.92-4.08,0-3.23.15-8.08.44-14.55.29-6.47.44-11.32.44-14.55,0-4.22.07-9.04.2-14.47.13-5.43.2-10.26.2-14.47,0-2.67,1.31-4,3.92-4s3.96,1.33,3.96,4c0,4.22-.07,9.04-.2,14.47-.13,5.43-.2,10.26-.2,14.47Z"/>
        <path class="cls-1" d="M963.34,363.52c0,1.6.05,4,.14,7.19.09,3.19.14,5.59.14,7.19,0,1.17-.36,2.14-1.08,2.88-.72.75-1.67,1.12-2.84,1.12s-2.09-.37-2.82-1.12c-.74-.75-1.1-1.71-1.1-2.88,0-1.6-.05-4-.14-7.19-.09-3.19-.14-5.59-.14-7.19,0-2.51.13-5.64.4-9.39.27-3.75.4-6.88.4-9.39,0-1.2.37-2.18,1.1-2.92.73-.75,1.67-1.12,2.82-1.12s2.09.37,2.82,1.12c.73.75,1.1,1.72,1.1,2.92,0,2.51-.13,5.64-.4,9.39-.27,3.75-.4,6.88-.4,9.39ZM961.54,331.01c-1.28,0-2.39-.45-3.32-1.36-.93-.91-1.4-2-1.4-3.28s.47-2.38,1.4-3.28c.93-.91,2.04-1.36,3.32-1.36s2.38.45,3.3,1.36c.92.91,1.38,2,1.38,3.28s-.46,2.38-1.38,3.28c-.92.91-2.02,1.36-3.3,1.36Z"/>
        <path class="cls-1" d="M1003.9,350.87c-1.47,0-2.5-.49-3.08-1.48-.4-.69-.75-2.14-1.04-4.32-2,.51-5.08,1.44-9.25,2.8-4.3,1.71-6.46,3.82-6.49,6.33.8.29,1.59.51,2.36.64,6.14,1.09,10.7,2.6,13.69,4.52,4.35,2.8,6.53,6.86,6.53,12.17,0,4.35-1.88,7.63-5.65,9.85-3.12,1.81-7.07,2.72-11.85,2.72-3.5,0-6.83-.59-10.01-1.76-4.11-1.49-6.17-3.58-6.17-6.25,0-1.07.42-2,1.26-2.8.84-.8,1.79-1.2,2.86-1.2.83,0,1.89.64,3.2,1.92.64.61,2.08,1.12,4.32,1.52,1.79.32,3.3.48,4.52.48,2.24,0,4.22-.27,5.93-.8,2.48-.77,3.72-2,3.72-3.68,0-3.63-2.54-6.09-7.61-7.37l-4.16-.92c-3.55-.77-6.07-1.68-7.57-2.72-2.16-1.49-3.24-3.75-3.24-6.77,0-5.58,2.63-9.56,7.89-11.93,1.6-.72,4.16-1.58,7.69-2.58s6.05-1.85,7.57-2.54c1.09-.48,2.28-.72,3.56-.72,1.15,0,2.09.37,2.82,1.12.73.75,1.1,1.72,1.1,2.92,0,.77.17,1.91.5,3.4.33,1.5.5,2.63.5,3.4,0,1.2-.37,2.18-1.1,2.92-.73.75-1.67,1.12-2.82,1.12Z"/>
        <path class="cls-1" d="M1043.58,347.59c-.56,0-1.22-.03-1.98-.08-.76-.05-1.42-.08-1.98-.08-.61,0-2.43.2-5.45.6l.76,23.66.04,1.76.04,2.04c.11,5.85-1.29,8.77-4.2,8.77-1.07,0-2-.35-2.78-1.04-.79-.69-1.18-1.56-1.18-2.6s.04-2.54.12-4.56c.08-2.03.12-3.55.12-4.56l-.8-23.38c-1.95-.08-4.91-.31-8.89-.68-2.38-.32-3.56-1.64-3.56-3.96,0-1.17.36-2.15,1.08-2.92.72-.77,1.64-1.16,2.76-1.16l8.41.68c0-1.36-.06-3.18-.18-5.47-.12-2.28-.18-3.93-.18-4.94,0-1.12.39-2.05,1.16-2.78.77-.73,1.72-1.1,2.84-1.1,2.4,0,3.8,1.96,4.2,5.89.08.99.12,2.18.12,3.56l-.08,2.32-.04,2.48c3.31-.43,5.21-.64,5.69-.64,2.78,0,4.59.13,5.45.4,1.63.53,2.44,1.79,2.44,3.76,0,1.17-.37,2.14-1.1,2.9s-1.67,1.14-2.82,1.14Z"/>
        <path class="cls-1" d="M1106.72,347.59c-.56,0-1.22-.03-1.98-.08-.76-.05-1.42-.08-1.98-.08-.61,0-2.43.2-5.45.6l.76,23.66.04,1.76.04,2.04c.11,5.85-1.29,8.77-4.2,8.77-1.07,0-2-.35-2.78-1.04-.79-.69-1.18-1.56-1.18-2.6s.04-2.54.12-4.56c.08-2.03.12-3.55.12-4.56l-.8-23.38c-1.95-.08-4.91-.31-8.89-.68-2.38-.32-3.56-1.64-3.56-3.96,0-1.17.36-2.15,1.08-2.92.72-.77,1.64-1.16,2.76-1.16l8.41.68c0-1.36-.06-3.18-.18-5.47-.12-2.28-.18-3.93-.18-4.94,0-1.12.39-2.05,1.16-2.78.77-.73,1.72-1.1,2.84-1.1,2.4,0,3.8,1.96,4.2,5.89.08.99.12,2.18.12,3.56l-.08,2.32-.04,2.48c3.31-.43,5.21-.64,5.69-.64,2.78,0,4.59.13,5.45.4,1.63.53,2.44,1.79,2.44,3.76,0,1.17-.37,2.14-1.1,2.9s-1.67,1.14-2.82,1.14Z"/>
        <path class="cls-1" d="M1133.58,384.06c-4.48,0-8.34-1.66-11.57-4.96-3.6-3.68-5.5-8.63-5.69-14.85-.16-6.03,1.36-11.34,4.56-15.94,3.74-5.42,8.94-8.13,15.62-8.13,5.34,0,9.38,2.44,12.13,7.33,2.19,3.95,3.24,8.7,3.16,14.25-.08,5.93-1.63,10.98-4.64,15.17-3.42,4.75-7.94,7.13-13.57,7.13ZM1135.99,348.31c-3.92-.03-6.98,1.84-9.17,5.61-1.74,3.02-2.6,6.46-2.6,10.33s1.05,6.89,3.16,9.05c1.76,1.79,3.83,2.68,6.21,2.68,2.78,0,5.17-1.01,7.17-3.04,2.27-2.24,3.47-5.27,3.6-9.09.37-10.33-2.42-15.51-8.37-15.54Z"/>
        <path class="cls-1" d="M1201.21,384.06c-4.48,0-8.34-1.66-11.57-4.96-3.6-3.68-5.5-8.63-5.69-14.85-.16-6.03,1.36-11.34,4.56-15.94,3.74-5.42,8.94-8.13,15.62-8.13,5.34,0,9.38,2.44,12.13,7.33,2.19,3.95,3.24,8.7,3.16,14.25-.08,5.93-1.63,10.98-4.64,15.17-3.42,4.75-7.94,7.13-13.57,7.13ZM1203.61,348.31c-3.92-.03-6.98,1.84-9.17,5.61-1.74,3.02-2.6,6.46-2.6,10.33s1.05,6.89,3.16,9.05c1.76,1.79,3.83,2.68,6.21,2.68,2.78,0,5.17-1.01,7.17-3.04,2.27-2.24,3.47-5.27,3.6-9.09.37-10.33-2.42-15.51-8.37-15.54Z"/>
        <path class="cls-1" d="M1261.99,358.32c0,1.92.01,4.8.04,8.65.03,3.84.04,6.73.04,8.65,0,.59.05,1.48.14,2.68s.14,2.1.14,2.68c0,1.15-.39,2.09-1.16,2.82-.77.73-1.72,1.1-2.84,1.1-2.06,0-3.36-1.27-3.92-3.8-3.34,1.73-7.18,2.6-11.53,2.6-3.5,0-6.39-.77-8.69-2.32-2.54-1.71-4.04-4.2-4.52-7.49-1.04-7.07-1.56-13.37-1.56-18.9,0-3.66.4-7.82,1.2-12.49.37-2.32,1.64-3.48,3.8-3.48,1.15,0,2.11.37,2.88,1.1.77.73,1.16,1.68,1.16,2.82,0,1.23-.19,3.19-.58,5.89-.39,2.7-.58,4.75-.58,6.17,0,4.46.15,8.27.44,11.45.29,3.18.73,5.73,1.32,7.65.88.48,1.75.85,2.6,1.1.85.25,1.69.38,2.52.38,3.58,0,7.35-.57,11.33-1.72l-.04-8.13-.08-7.77c0-5.77.25-10.77.76-15.01.29-2.46,1.59-3.68,3.88-3.68,1.15,0,2.11.37,2.88,1.12.77.75,1.13,1.68,1.08,2.8l-.72,15.13Z"/>
        <path class="cls-1" d="M1303.11,352.11c-.19,3.34-1.52,5-4,5-2.3,0-3.44-1.32-3.44-3.96,0-.51-.04-1.44-.12-2.8l-.12-3.36c-4.22.51-7.59,1.7-10.13,3.56-2.38,1.74-4.35,4.35-5.93,7.85l.08,21.94c0,2.7-1.32,4.04-3.96,4.04-2.35,0-3.52-1.35-3.52-4.04v-28.11c0-.88.03-2.2.1-3.96.07-1.76.1-3.08.1-3.96,0-2.7,1.17-4.04,3.52-4.04,2.62,0,3.94,2.22,3.96,6.65,5.12-4.94,10.81-7.41,17.06-7.41,2.16,0,3.78.81,4.84,2.44,1.07,1.63,1.6,4.08,1.6,7.37,0,1.39-.01,2.32-.04,2.8Z"/>
        <path class="cls-1" d="M649.27,481.5c-2.67,0-5.61-.43-8.81-1.28l-.08,19.14c0,1.17-.37,2.14-1.1,2.88-.73.75-1.67,1.12-2.82,1.12s-2.09-.37-2.82-1.12c-.74-.75-1.1-1.71-1.1-2.88l.12-16.02v-15.98c-.08-5.85-.28-11.17-.6-15.98l-.6-8.13c0-1.9.35-3.5,1.04-4.8.8-1.57,1.96-2.36,3.48-2.36,1.04,0,1.92.37,2.62,1.1.71.73,1.06,1.64,1.06,2.7,0,.24-.04.68-.12,1.32-.13.83-.23,1.59-.28,2.28,2.29-1.57,4.51-2.76,6.65-3.54,2.13-.79,4.18-1.18,6.13-1.18,5.47,0,9.48,2.43,12.01,7.29,2,3.84,3,8.93,3,15.25,0,5.77-1.55,10.52-4.64,14.25-3.28,3.95-7.66,5.93-13.13,5.93ZM652.03,446.79c-2.46,0-4.67.55-6.65,1.64-1.42.77-3.2,2.19-5.37,4.24.35,6.06.52,12.43.52,19.1,2.91,1.12,5.82,1.68,8.73,1.68,3.34,0,5.89-1.24,7.65-3.72,1.52-2.16,2.28-4.96,2.28-8.41,0-4.86-.59-8.49-1.78-10.91-1.19-2.42-2.98-3.62-5.39-3.62Z"/>
        <path class="cls-1" d="M707.37,482.74c-.51,0-1.43-.59-2.76-1.76-1.2-1.09-2.1-2.07-2.68-2.92-2.56,1.39-4.82,2.44-6.77,3.14-1.95.71-3.58,1.06-4.88,1.06-6.25,0-10.8-1.76-13.65-5.29-2.7-3.31-4.04-8.38-4.04-15.21,0-6.46,2.22-11.98,6.67-16.58,4.44-4.59,9.75-6.89,15.92-6.89,2.32,0,4.92.6,7.81,1.8,3.63,1.5,5.45,3.3,5.45,5.41,0,.72-.27,1.36-.8,1.92-.27,1.01-.47,2.68-.62,5s-.23,5.3-.26,8.93c-.03,3.31.2,5.93.68,7.85.27,1.17,1.11,3.52,2.52,7.05.19.48.49,1.19.92,2.12l.24.68c0,1.07-.37,1.95-1.12,2.64-.75.69-1.62,1.04-2.6,1.04ZM699.04,454.92c0-1.15.07-2.4.22-3.74.15-1.35.37-2.78.66-4.3-.99-.51-1.84-.88-2.54-1.12s-1.27-.36-1.7-.36c-4.14,0-7.71,1.69-10.71,5.06-3,3.38-4.5,7.27-4.5,11.67s.77,7.66,2.32,9.85c1.55,2.19,3.87,3.28,6.97,3.28,2.56,0,4.74-.47,6.53-1.4.96-.51,2.31-1.52,4.04-3.04-.85-7.07-1.28-12.37-1.28-15.9Z"/>
        <path class="cls-1" d="M749.21,450.51c-.19,3.34-1.52,5-4,5-2.3,0-3.44-1.32-3.44-3.96,0-.51-.04-1.44-.12-2.8l-.12-3.36c-4.22.51-7.59,1.7-10.13,3.56-2.38,1.74-4.35,4.35-5.93,7.85l.08,21.94c0,2.7-1.32,4.04-3.96,4.04-2.35,0-3.52-1.35-3.52-4.04v-28.11c0-.88.03-2.2.1-3.96.07-1.76.1-3.08.1-3.96,0-2.7,1.17-4.04,3.52-4.04,2.62,0,3.94,2.22,3.96,6.65,5.12-4.94,10.81-7.41,17.06-7.41,2.16,0,3.78.81,4.84,2.44,1.07,1.63,1.6,4.08,1.6,7.37,0,1.39-.01,2.32-.04,2.8Z"/>
        <path class="cls-1" d="M784.24,445.99c-.56,0-1.22-.03-1.98-.08-.76-.05-1.42-.08-1.98-.08-.61,0-2.43.2-5.45.6l.76,23.66.04,1.76.04,2.04c.11,5.85-1.29,8.77-4.2,8.77-1.07,0-2-.35-2.78-1.04-.79-.69-1.18-1.56-1.18-2.6s.04-2.54.12-4.56c.08-2.03.12-3.55.12-4.56l-.8-23.38c-1.95-.08-4.91-.31-8.89-.68-2.38-.32-3.56-1.64-3.56-3.96,0-1.17.36-2.15,1.08-2.92.72-.77,1.64-1.16,2.76-1.16l8.41.68c0-1.36-.06-3.18-.18-5.47-.12-2.28-.18-3.93-.18-4.94,0-1.12.39-2.05,1.16-2.78.77-.73,1.72-1.1,2.84-1.1,2.4,0,3.8,1.96,4.2,5.89.08.99.12,2.18.12,3.56l-.08,2.32-.04,2.48c3.31-.43,5.21-.64,5.69-.64,2.78,0,4.59.13,5.45.4,1.63.53,2.44,1.79,2.44,3.76,0,1.17-.37,2.14-1.1,2.9s-1.67,1.14-2.82,1.14Z"/>
        <path class="cls-1" d="M826.8,482.94c-2.3,0-3.59-1.25-3.88-3.76l-1.12-8.77c-.37-3.12-.56-6.05-.56-8.77,0-.75.05-2.02.14-3.8.09-1.79.14-3.06.14-3.8,0-5.77-1.07-8.65-3.2-8.65-2.99,0-5.85,1.78-8.57,5.33-2.46,3.23-4.38,7.31-5.77,12.25-.05,1.04-.17,2.35-.36,3.92-.16,1.33-.24,2.63-.24,3.88,0,.8.08,2,.24,3.6s.24,2.8.24,3.6c0,1.2-.37,2.18-1.1,2.92-.74.75-1.68,1.12-2.82,1.12s-2.12-.37-2.84-1.12c-.72-.75-1.08-1.72-1.08-2.92,0-.8-.09-2-.26-3.6s-.26-2.8-.26-3.6c0-2.75.19-6.56.58-11.43.39-4.87.58-8.68.58-11.43,0-.85-.05-2.12-.14-3.8-.09-1.68-.14-2.95-.14-3.8,0-1.15.38-2.09,1.14-2.82.76-.73,1.7-1.1,2.82-1.1,2.46,0,3.8,1.74,4.04,5.21l.12,4.68c4.48-5.98,9.09-8.97,13.81-8.97,4.27,0,7.25,1.88,8.93,5.65,1.15,2.51,1.77,6.22,1.88,11.13v4.04l-.04,3.72c0,2.22.29,5.08.86,8.59.57,3.51.86,6.36.86,8.55,0,1.17-.38,2.13-1.14,2.86-.76.73-1.72,1.1-2.86,1.1Z"/>
        <path class="cls-1" d="M857.71,481.94c-6.03,0-10.92-1.51-14.65-4.52-4.08-3.34-6.13-8.01-6.13-14.01,0-6.94,1.68-12.76,5.04-17.46,3.66-5.12,8.54-7.69,14.65-7.69,4.43,0,8.05.75,10.85,2.24,3.44,1.84,5.17,4.67,5.17,8.49,0,2.67-1.51,5.1-4.52,7.29-1.33.96-4.16,2.46-8.49,4.48l-15.29,7.25c1.49,2.22,3.36,3.88,5.59,5,2.23,1.12,4.82,1.68,7.79,1.68,1.84,0,4-.35,6.49-1.04,3.15-.88,5.18-2.04,6.09-3.46.91-1.43,1.88-2.14,2.92-2.14.93,0,1.77.35,2.5,1.06.73.71,1.1,1.53,1.1,2.46,0,2.96-2.39,5.51-7.17,7.65-4.08,1.81-8.06,2.72-11.93,2.72ZM856.63,445.47c-3.26,0-5.97,1.26-8.13,3.78s-3.78,6.32-4.84,11.39l12.29-5.85c4.83-2.35,8.27-4.39,10.33-6.13-2.3-2.14-5.51-3.2-9.65-3.2Z"/>
        <path class="cls-1" d="M915.09,450.51c-.19,3.34-1.52,5-4,5-2.3,0-3.44-1.32-3.44-3.96,0-.51-.04-1.44-.12-2.8l-.12-3.36c-4.22.51-7.59,1.7-10.13,3.56-2.38,1.74-4.35,4.35-5.93,7.85l.08,21.94c0,2.7-1.32,4.04-3.96,4.04-2.35,0-3.52-1.35-3.52-4.04v-28.11c0-.88.03-2.2.1-3.96.07-1.76.1-3.08.1-3.96,0-2.7,1.17-4.04,3.52-4.04,2.62,0,3.94,2.22,3.96,6.65,5.12-4.94,10.81-7.41,17.06-7.41,2.16,0,3.78.81,4.84,2.44,1.07,1.63,1.6,4.08,1.6,7.37,0,1.39-.01,2.32-.04,2.8Z"/>
        <path class="cls-1" d="M950.36,449.27c-1.47,0-2.5-.49-3.08-1.48-.4-.69-.75-2.14-1.04-4.32-2,.51-5.08,1.44-9.25,2.8-4.3,1.71-6.46,3.82-6.49,6.33.8.29,1.59.51,2.36.64,6.14,1.09,10.7,2.6,13.69,4.52,4.35,2.8,6.53,6.86,6.53,12.17,0,4.35-1.88,7.63-5.65,9.85-3.12,1.81-7.07,2.72-11.85,2.72-3.5,0-6.83-.59-10.01-1.76-4.11-1.49-6.17-3.58-6.17-6.25,0-1.07.42-2,1.26-2.8.84-.8,1.79-1.2,2.86-1.2.83,0,1.89.64,3.2,1.92.64.61,2.08,1.12,4.32,1.52,1.79.32,3.3.48,4.52.48,2.24,0,4.22-.27,5.93-.8,2.48-.77,3.72-2,3.72-3.68,0-3.63-2.54-6.09-7.61-7.37l-4.16-.92c-3.55-.77-6.07-1.68-7.57-2.72-2.16-1.49-3.24-3.75-3.24-6.77,0-5.58,2.63-9.56,7.89-11.93,1.6-.72,4.16-1.58,7.69-2.58s6.05-1.85,7.57-2.54c1.09-.48,2.28-.72,3.56-.72,1.15,0,2.09.37,2.82,1.12.73.75,1.1,1.72,1.1,2.92,0,.77.17,1.91.5,3.4.33,1.5.5,2.63.5,3.4,0,1.2-.37,2.18-1.1,2.92-.73.75-1.67,1.12-2.82,1.12Z"/>
        <path class="cls-1" d="M968.38,483.82c-1.39,0-2.56-.48-3.52-1.44s-1.44-2.14-1.44-3.52.48-2.53,1.44-3.5c.96-.97,2.13-1.46,3.52-1.46s2.53.49,3.5,1.46c.97.97,1.46,2.14,1.46,3.5s-.49,2.56-1.46,3.52-2.14,1.44-3.5,1.44Z"/>
      </g>
    </g>
    <g>
      <g class="cls-3">
        <path d="M704.81,2155.74c0-5.27-10.17-5.09,292.73-5.44,158.04-.17,288.03-.55,288.84-.85,1.15-.41,1.5-9.32,1.5-39.17v-38.62l-10.53.68c-15.56,1-20.72-.11-26.54-5.62l-4.85-4.62.46-8.17c.66-11.91,5.99-22.14,17.55-33.69,5.07-5.07,12.28-10.82,16.45-13.09l7.41-4.05.31-95.01c.18-52.26.02-95.5-.33-96.09-.41-.65-64.08-.96-156.48-.77l-155.8.29.2,4.17c1.4,30.86,1.68,78.97.59,100.55-.72,14.4-1.68,39.62-2.12,56.02l-.79,29.86,11.78.75c11.47.74,12.18.96,28.15,8.75,8.99,4.39,17.4,9.09,18.65,10.43,1.26,1.34,4.31,6.73,6.8,11.96,5.66,11.91,6.74,22.68,2.89,28.81-3.98,6.34-10.16,8.66-23.02,8.66s-21.16-1.9-34.34-7.6l-9.07-3.91-.54,41.51c-.53,40.61-.6,41.55-3.11,44.08-5.09,5.09-5.36,2.87-5.47-45.5l-.11-45.29-6.08-5.63c-8.31-7.69-11.59-14.39-10.86-22.19.31-3.34.92-6.88,1.36-7.91.61-1.45-2.97-3.67-16.81-10.32-9.67-4.64-25.51-11.72-35.22-15.72-9.7-3.98-23.61-10.25-30.93-13.9-16.09-8.04-42.47-25.31-42.43-27.8.09-4.98,28.96-28.04,89.22-71.21,18.65-13.36,36.53-26.38,39.73-28.9,5.7-4.52,10.25-5.96,10.25-3.22,0,2.52-11.02,11.56-35.67,29.18-31.52,22.54-73.22,53.64-80.65,60.15-3.2,2.78-7.87,6.69-10.36,8.68l-4.54,3.6,15.43,9.14c17.7,10.51,27.21,15.04,60.81,29,25.79,10.69,35.04,15.08,42.2,19.98l4.5,3.06,4.55-4.45,4.57-4.44.85-33.92c.46-18.64,1.33-41.93,1.92-51.74,1.22-20.13,1.29-63.45.13-87.21-.77-16.22-.24-21.33,2.45-23.04.85-.53,74.14-.98,162.88-1h161.35l.77,20.54c.42,11.28.77,55.72.77,98.75l.02,78.23h4.46c6.91,0,12.83,2.1,16.99,5.99l3.82,3.58,19.78-12.31c10.9-6.77,27.13-16.76,36.1-22.19,18.05-10.95,17.97-10.84,10.06-17.51-16.4-13.81-43.11-38.36-55.63-51.14-13.77-14.05-29.64-32.67-29.64-34.77,0-1.53,2.8-3.72,4.78-3.72,1.03,0,6.16,4.89,11.35,10.84,11.59,13.33,34.49,35.56,51.49,50.01,6.99,5.96,17.4,15.37,23.12,20.92,10.91,10.6,12.53,14.04,8.33,17.56-1.14.94-18.67,12.08-38.97,24.7l-36.89,22.97-.77,8.65c-.51,5.71-1.86,10.86-3.98,15.19-3.59,7.33-14.1,19.31-20.31,23.17l-4.08,2.51v83.1h303.88c271.03,0,303.97.2,304.58,1.81.39,1.01-.39,2.91-1.77,4.29l-2.49,2.49-597.79-.42c-565.07-.39-597.81-.52-597.81-2.45v-.02ZM1292.17,2060.38c12.15-5.56,22.43-18.17,23.93-29.36.52-3.78.18-5.16-1.49-6.4-1.26-.9-1.85-2.34-1.42-3.44,1.93-5.04-10.19-12.74-20.09-12.74-5.12,0-6.91.72-13.02,5.16-15.08,10.97-25.66,26.14-25.82,37.02-.09,6.03,1.73,8.79,7.83,11.89,6.06,3.1,20.96,2.04,30.08-2.12h0ZM1033.77,2061.58c5.79-4.24-3.93-30.15-14.03-37.4-18.05-12.98-48.87-20.11-56.41-13.07-1.47,1.38-2.67,3.39-2.67,4.5s-1.12,3.01-2.51,4.24c-3.3,2.99-2.49,9.64,1.95,16.04,5.54,8,25.14,19.37,42.19,24.48,10.51,3.15,27.91,3.84,31.47,1.22h0ZM1352.16,2126.63c.2-7.39-1.31-74.56-1.9-84.32-.68-11.15-.51-13.36,1.09-14.67,2.73-2.27,4.35-.65,4.37,4.37,0,2.41.79,10.8,1.77,18.62,2.28,18.32,2.45,68.85.24,73.22-1.4,2.8-5.63,4.9-5.57,2.78h0ZM897.63,2120.36c-1.71-3.2-1.55-22.76.46-51.39.92-13.33,2.07-31.6,2.51-40.61.44-8.99,1.26-16.35,1.83-16.35,4.05,0,5.51,19.03,3.56,46.4-.77,10.8-1.86,29.13-2.44,40.72-.55,11.59-1.34,21.62-1.77,22.31-1.18,1.9-2.78,1.47-4.15-1.07h0ZM1346.89,1982.55c-.39-3.1-.83-13.57-1-23.25-.26-14.54,0-17.77,1.47-18.69,1.05-.64,2.19-.66,2.84,0,1.29,1.31,2.58,40.11,1.47,44.52-1.31,5.18-4,3.74-4.79-2.54v-.04ZM901.58,1942.2c.72-22.23,2.8-39.32,4.72-38.86.48.11,1.44.41,2.14.63.89.29.87,6.56-.07,21.22-.74,11.43-1.46,25.07-1.59,30.31-.26,9.05-.41,9.53-3.11,9.91l-2.86.41.77-23.61ZM1347.5,1874.88c-.56-1.48-1.31-19.65-1.66-40.39l-.65-37.71-3.87-5.71c-7.38-10.9-18.97-23.74-23.87-26.51-6.03-3.39-20.13-4.83-23.1-2.36-2.21,1.83-21.94,3.19-21.94,1.49,0-3.2,3.39-4.99,10.69-5.64,26.79-2.4,30.67-2.28,37.51,1.07,8.76,4.28,26.07,23.77,29.55,33.24.46,1.24,1.09,15.69,1.4,32.13.31,16.43.86,32.93,1.22,36.68.64,6.8-1.26,16.39-3.27,16.39-.55,0-1.47-1.22-2.02-2.67h0ZM904.8,1871.75c-.92-1.74-1.24-16.02-1.03-47.32l.3-44.83,3.15-4.28c7.48-10.16,13.97-13.68,27.74-15.1,6.82-.7,7.54-.55,8.11,1.6.56,2.16-.15,2.41-8.13,3.02-10.53.79-18.65,4.78-23.12,11.32l-2.99,4.4.61,24.39c.83,32.21-.15,66.1-1.93,67.89-1.05,1.05-1.69.77-2.71-1.1h0ZM1040.76,1799.5c-.94-2.45,2.06-5.14,15.69-14.12,14.95-9.84,30.93-17.66,34.1-16.64l2.66.83-2.91,2.38c-1.6,1.29-7.58,4.68-13.26,7.56-5.7,2.86-12.11,6.71-14.28,8.57-3.1,2.66-13.97,9.62-20.3,13-.5.26-1.26-.44-1.69-1.59v.02ZM969.78,1792.77c-18.15-19.35-35.65-55.02-49.49-100.98-7.26-24.1-9.71-36.67-10.84-55.8-.55-9.49-2.6-29.57-4.55-44.61-1.95-15.06-3.83-32.91-4.18-39.65-.77-14.6.92-40.85,3.56-54.95,4.5-24.15,16.3-52.02,32.24-76.15,10.62-16.07,17.53-23.52,37.07-40.04,15.82-13.36,23.49-18.27,28.54-18.27,1.44,0,8.65-2.93,15.98-6.52,23.34-11.39,54.23-19.73,79.39-21.41,24.33-1.64,52.24,4.55,65.26,14.47,3.95,3.02,4.61,3.11,18.51,2.89,16.87-.27,23.94,1.22,38.71,8.26,35.98,17.14,66.99,60.15,80.15,111.18,11.14,43.19,15.89,87.25,14.77,136.83-1.31,57.73-6.25,80.63-25.94,120.19-10.54,21.16-24.19,41.57-39.43,58.91-9.44,10.73-10.19,11.3-15.19,11.67l-5.23.37,9.48-9.9c30.27-31.56,55.82-78.12,61.84-112.69,10.62-60.83,7.52-139.49-7.85-200.24-11.84-46.78-39.6-89.07-70.14-106.84-14.36-8.37-23.67-11.04-40.74-11.67-10.62-.39-15.17-.17-15.17.75,0,.74-2.82-.29-6.25-2.25-20.52-11.72-32.65-14.77-58.6-14.75-15.28,0-21.5.55-31.49,2.71-18.93,4.09-37.05,10.31-54.66,18.73-8.76,4.19-17.07,7.61-18.47,7.61-3.28,0-6.01,1.9-19.74,13.75-23.61,20.35-35.04,34.51-47.62,58.99-12.62,24.59-19.09,47.56-21.44,76.01-1.53,18.76-.79,34.1,3.04,63.65,12.02,92.41,11.43,88.79,17.81,108.28,15.84,48.32,31.36,77.48,53.37,100.26l8.33,8.63h-14.03l-6.99-7.45v.02ZM998.41,1789.79c-8.02-13.33-13.26-25.51-21.13-49.07-7.92-23.8-8.13-25.2-12.18-81.51-3.52-48.91-3.78-114.14-.55-131.49,8.66-46.27,29.59-76.09,67.96-96.91,21.83-11.84,70.66-30.27,91.4-34.49,16.44-3.36,24.29-2.66,40.09,3.57,23.93,9.42,37.94,18.27,53.01,33.44,22.53,22.68,35.56,52.37,40.5,92.32,2.01,16.24,3.7,62.08,4.83,130.59l.74,45.81-7.19,24.41c-8.02,27.26-12.68,39.54-22.45,59.17-6.38,12.85-6.8,13.38-10.41,13.38h-3.78l6.84-13.38c9.62-18.84,15.71-34.49,21.14-54.43,5.07-18.55,6.14-27.91,6.14-53.68v-24.87l-12.41,12.85c-14.28,14.78-26.41,23.93-43.82,33.01-21.33,11.13-51.59,19.59-70.12,19.59-3.82,0-6.95.41-6.97.9-.02.48-.2,7.05-.42,14.56l-.39,13.7,7.01,11.48c3.85,6.32,8.39,14.88,10.07,19.01,1.68,4.15,4.62,10.66,6.56,14.47l3.5,6.93-5.6-.37-5.59-.37-4.87-11.32c-7.1-16.52-12.17-24.96-14.95-24.96s-3.78,1.62-11.32,20.81c-5.66,14.4-6.32,15.5-9.46,15.88-2.88.33-3.27.09-2.52-1.79.46-1.2,2.89-7.54,5.4-14.09,2.49-6.54,6.77-16.66,9.49-22.51,4.76-10.18,4.99-11.21,5.66-25.4.81-17.13.94-16.88-9.64-16.92-36.96-.09-85.24-20.24-119.25-49.75l-9.63-8.37.41,5.54c2.09,27.52,4.45,47.98,6.46,55.75,6.34,24.46,17.03,50.38,27.52,66.64,2.87,4.46,5.64,8.79,6.13,9.6.67,1.1-.57,1.5-4.88,1.5h-5.79l-5.55-9.24ZM1152.3,1705.69c39.69-8.26,72.94-28.61,94.44-57.81l5.44-7.39-.02-21c-.03-27.13-1.95-73.77-3.63-88.21-4.9-42.16-17.18-69.96-41.64-94.18-12.98-12.86-29.4-23.01-51.08-31.54-13.1-5.16-21.07-5.28-39.5-.52-25.75,6.65-69.18,24.15-87.56,35.27-34.09,20.65-50.86,48.15-56.79,93.11-2.77,20.87-1.94,92.47,1.21,106.92.83,3.74,17.42,20.22,29,28.79,28.68,21.25,56.55,33,91.76,38.64,1.64.25,12.33.55,23.8.62,17.79.13,22.82-.25,34.58-2.71h0ZM1159.87,1652.7c-5.47-2.21-27.23-4.74-46.33-5.38-22.65-.77-45.4-2.65-51.89-4.28-6.21-1.59-10.47-5.4-13.69-12.3-3.23-6.95-3.6-14.03-1.07-20.09,3.49-8.32,6.53-6.71,6.55,3.44.02,6.97,3.74,15.06,8.54,18.65,3.93,2.91,23.02,5.12,53.36,6.18,21.74.74,40.19,2.84,51.76,5.88,7.34,1.93,11.25.77,14.18-4.2l2.16-3.65-4.96-10.03c-6.86-13.81-10.73-16.37-25.57-16.88-7.69-.28-15.87.5-28.42,2.67-18.9,3.28-39.38,4.04-50.77,1.88-3.43-.66-9.4-2.6-13.26-4.33-5.58-2.51-7-3.69-7-5.88,0-4.11,3.7-4.57,9.95-1.25,2.99,1.59,9.35,3.56,14.12,4.37,11.02,1.86,34.4.79,49.7-2.29,25.25-5.09,36.28-4.74,46.53,1.4,5.4,3.25,7.08,5.2,11.41,13.33,6.34,11.84,6.71,17.11,1.69,24.02-5.88,8.13-8.99,9.9-17.25,9.81-4,0-8.39-.51-9.73-1.07h0ZM1060.66,1525.39c-3.3-3.3-5.2-11.45-4.28-18.38.98-7.39,2.97-12.15,7.12-17.07,2.91-3.44,3.93-3.87,9.44-3.87,6.95,0,10.56,1.95,13.25,7.15,6.51,12.59-5.91,34.49-19.57,34.49-2.01,0-4.66-1.03-5.96-2.32h0ZM1148.7,1523.77c-2.4-.81-5.33-3.15-6.97-5.56-2.43-3.58-2.75-5.2-2.28-11.36.7-9.03,3.19-13.9,9.42-18.41,6.17-4.48,11.39-4.64,16.28-.53,9.7,8.16,7.5,25.33-4.29,33.64-4.72,3.32-7.48,3.83-12.15,2.23h0ZM1178.25,1465.96c-10.19-6.65-19.82-10.49-29.03-11.58-6.91-.81-8.04-2.27-4.33-5.6,2.54-2.31,9.83-2.58,17.49-.65,4.98,1.26,5.6,1.1,11.08-2.4,3.17-2.04,6.74-4.77,7.92-6.08,2.62-2.89,4.15-3.02,4.15-.37,0,1.1-2.6,4.54-5.8,7.61l-5.81,5.61,2.9,1.31c4.4,2.01,5.31,1.73,13.23-4.03,4.04-2.93,7.97-5.35,8.7-5.35,2.1,0-2.1,5.99-7.67,10.93-4.66,4.15-4.83,4.52-2.91,6.45,1.9,1.94,2.34,1.94,7.04.09,2.77-1.09,5.29-1.69,5.62-1.38,1,1.01-4.97,6.65-9.47,8.98l-4.31,2.19-8.8-5.71v-.02ZM1036.81,1465.32c0-.92-.96-1.99-2.12-2.38-4.52-1.42-7.67-10.99-5.49-16.63,1.16-3,3.93-2.19,4.67,1.38.92,4.41,4.26,11,5.56,11,.59,0,2.69-.83,4.67-1.86,2.73-1.42,3.39-2.36,2.67-3.87-1.36-2.91-1.24-14.45.15-14.6.67-.09,2.19,3,3.43,6.84,1.24,3.82,2.36,7.1,2.52,7.28.15.18,2.43,0,5.05-.42,4.74-.76,4.78-.79,3.15-3.91-2.06-3.95-2.12-7.83-.13-9.48,2.67-2.23,4.78.44,4.9,6.22l.11,5.47h5.37c4.9,0,12.28,3.58,10.69,5.14-.65.62-9.99,2.34-23.76,4.33-5.33.77-10.88,2.45-13.88,4.22-5.73,3.36-7.56,3.65-7.56,1.24v.02ZM1184.33,1792.67c-4.24-2.86-12.03-7.65-17.31-10.69-12.44-7.15-19.04-12.83-18.03-15.46,1.22-3.15,3.8-2.43,14.89,4.09,5.68,3.36,14.56,8.57,19.73,11.61,15.63,9.16,20.72,15.62,12.33,15.62-2.6,0-6.43-1.72-11.61-5.16h0ZM1002.34,1764.59c-.68-1.27-1.24-2.75-1.24-3.28,0-1.01,33.11-.77,37.81.26,2.28.51,2.51.98,1.46,2.97-1.18,2.18-2.56,2.34-19.03,2.34s-17.86-.18-19-2.3v.02ZM1188.52,1761.94c-25.27-1.14-27.97-1.51-27.97-3.91s1.9-2.54,20.08-1.68c8.92.42,24.17.81,33.9.88,15.59.11,17.58.35,16.94,2.01-.39,1.03-.72,2.38-.72,2.99,0,1.23-9.81,1.16-42.23-.3h0Z"/>
      </g>
      <path d="M1198.61,1952.14c-357.75-.49-475.88-.98-476.96-2.12-1.08-.98-.87-1.6.87-2.58,1.82-.89,103.1-2.73,156.16-2.73h8.87l3.19-5.46c4.57-7.82,14.36-16.13,25.8-21.83,5.48-2.7,10.72-4.94,11.67-4.94,2.05,0,2.12-.61.42-3.47-.71-1.13-2.26-6.84-3.46-12.54l-2.18-10.27-3.42,4.45c-5.2,6.84-7.1,5.95-12.85-5.67-2.76-5.7-5.42-11.53-5.89-13.15-.82-2.73-1.65-2.12-12.41,8.31-11.49,11.04-19.71,16.22-22.13,13.89-.8-.89.74-5.83,4.45-14.63,10.62-25.05,15.79-46.24,21.26-87.14,5.92-44.25,7.29-67.52,6.53-111.52-.38-22.2-1.25-50.56-1.93-63.23-6.87-127.28-5.79-161.35,6.18-195.41,13.05-37.07,43.05-78.46,70.5-97.05,9.9-6.68,28.27-15.48,37.76-17.97,8.25-2.12,26.07-2.48,30.93-.61,1.76.61,3.19,1.96,3.19,2.98,0,1.35-3.26,1.84-16.42,2.21-14.94.49-17.32.89-26.43,4.48-23.42,9.29-43.81,25.14-59.82,46.45-21.21,28.27-33.93,55.78-39.48,85.15-1.88,10.06-2.21,18.46-2.14,55.77,0,24.16,1.03,62.7,2.19,85.52,4.4,86.5,4.87,104.59,3.42,131.24-3.76,69.14-12.54,121.58-25.95,154.79-1.45,3.46-2.16,6.44-1.58,6.44s6.4-5.58,12.92-12.39c6.53-6.81,12.52-12.39,13.32-12.39.93,0,1.23,1.23.8,3.47-.46,2.36.85,6.56,4.38,14.26,2.76,5.95,5.25,10.79,5.52,10.79s1.83-.89,3.48-1.99c2.28-1.5,2.86-2.73,2.43-5.21-1.16-6.56-10.47-68.53-10.47-69.76,0-.64,1.19-2.36,2.65-3.74,2.45-2.45,2.54-3.22,1.24-8.8-1.69-7.3-1.79-13.37-.28-15.73,1.21-1.84,12.58-4.08,14.05-2.73.51.49,1.07,6.32,1.24,13.03.3,11.77.37,12.02,3.1,11.53,1.99-.4,2.79.12,2.79,1.6,0,1.75,1.01,1.99,6.79,1.5,6.52-.52,6.84-.4,8.12,2.98,2.11,5.55,6.16,30.97,6.16,38.79,0,3.96-.73,8.03-1.66,9.29-1.53,2.09-1.81,1.96-3.61-2.61-1.07-2.61-2.87-10.92-4-18.33-3.35-22.2-3.67-23.55-5.63-23.79-5.11-1.01-5.27.86-1.96,23.3,7.35,49.79,8.37,62.83,5.11,65.56-2.71,2.21-4.04-2.24-6.95-23.43-1.38-9.93-3.85-27.9-5.53-39.8-1.67-11.9-3.03-23.79-3.03-26.4,0-5.06-.51-5.31-7.68-3.1-4.08,1.26-4.76,1.87-4.16,3.99,1.85,6.56,15.6,91.07,15.58,95.79,0,1.5-.43,2.85-.94,3.22-.51.25-.12.25.93-.12,1.01-.24,7.5-.73,14.39-1.1,9.88-.64,13.98-.24,19.39,1.47,15.95,4.97,23.83,18.33,17.75,30.11l-2.03,3.99,56.12-.24c52.89-.4,56.09-.52,55.74-2.61-.2-1.14,2.16-12.66,5.24-25.42,6.27-25.91,8.87-41.03,10.11-58.75q.84-12.02-2.27-13.49c-3.1-1.38-8.38-9.17-8.38-12.39,0-1.01,3.41-8.68,7.57-17.23,13.49-27.63,18.03-38.79,22.93-56.39.38-1.38-2.62,3.34-6.65,10.52-10.56,18.73-18.12,30.88-43.28,70.03-21.66,33.7-53.04,85.03-58.5,95.67-1.78,3.59-3.5,5.34-5.13,5.34-3.01,0-3.02.37.19-8.19,4.8-12.88,23.52-44.37,61-102.72,12.26-19.1,29-45.87,37.23-59.49l14.94-24.8.45-14.14c.25-7.67.12-15.85-.3-18.09l-.77-4.08-14.72-.12c-21.53-.12-53.15-5.46-58.96-10.03-.68-.52-3.2-1.38-5.58-1.87-6.22-1.23-32.26-14.5-44.61-22.81-5.8-3.83-10.85-7.05-11.23-7.3-.38-.12.31,4.57,1.55,10.52,3.81,18.61,5.42,50.56,3.71,73.74-1.69,22.93-5.26,47.83-8.98,62.34-3.21,12.63-9.08,25.42-11.64,25.42-1.05,0-1.92-.25-1.92-.49s1.97-7.7,4.36-16.5c2.41-8.68,5.86-25.66,7.7-37.56,2.91-19.07,3.33-25.51,3.37-52.65,0-32.96-1.19-46.36-6.16-65.43-1.55-5.95-2.57-11.9-2.23-13.15.63-2.36-5.11-43.36-10.14-72.36-6.26-36.06-6.92-42.77-6.87-70.52,0-29.25.88-37.56,6.37-62.83,4.78-21.95,9.47-36.95,11.84-37.81,2.5-.98,4.15.12,4.15,2.85,0,4.72,13.89,13.52,24.34,15.36,3.84.73,3.91.61,4.73-5.09,1.48-10.27,3.57-15.48,8.25-20.3,4.25-4.6,4.95-4.85,10.03-4.23,3.1.37,8.56,2.48,12.62,4.97,7.31,4.32,26.41,11.9,30.3,11.9,1.36,0,3.9-3.1,6.9-8.43,6.74-11.77,10.41-16.34,13.19-16.34,1.33,0,2.42.61,2.42,1.35,0,.61-3.35,7.05-7.44,14.14-4.09,7.05-7.44,13.74-7.44,14.75,0,1.1-1.43,2.85-3.16,3.96-2.52,1.75-3.71,1.87-5.89.74-1.5-.86-6.63-2.61-11.4-4.08-8.6-2.61-23.9-9.78-30.92-14.63-2.92-1.99-4.02-2.24-5.46-.98-3.24,2.73-5.13,9.29-5.13,17.97,0,6.81-.47,8.92-2.38,10.64-1.86,1.75-2.91,1.87-4.87.89-1.37-.77-3.56-1.38-4.83-1.38-5.15,0-15.39-4.08-20.87-8.19-6.61-5.06-7.04-4.81-9.23,5.09-8.76,39.52-8.84,39.92-9.52,68.41-.72,29.99,0,38.91,5.96,71.38,1.97,10.79,5.55,32.47,7.95,48.36,2.42,15.85,4.66,29.62,4.99,30.72,1.41,4.57,30.51,23.55,49.52,32.35,27.54,12.76,42.96,16.1,78.08,16.59,25.36.4,28.21.25,40.7-2.58,31.22-7.08,59.98-22.57,81.4-44,9.72-9.69,22.6-26.89,27.81-37.07,1.67-3.22,2.42-3.83,3.31-2.48,4.24,6.32-14.25-136.33-21.21-163.71-1.3-5.09-4.94-15.36-8.1-22.94-6.46-15.36-6.95-17.32-4.31-17.32,2.08,0,12.01,19.07,16.1,30.97,2.96,8.68,7.95,34.47,14.1,73.13,5.39,33.82,8.13,56.02,13.82,112.13,13.04,128.66,21.55,159.26,54.01,193.85,7.46,8.06,7.93,8.31,8.71,5.58.46-1.62.89-5.83.95-9.41.26-13.64,4.3-16.86,11.38-9.08,4.77,5.21,13.11,9.57,14.88,7.82,1.14-1.11-11.84-21.68-18.86-29.87-10.81-12.63-21.72-50.56-26.51-91.96-1.5-13-4.08-56.14-4.01-66.94.14-18.95,2.53-76.81,4.18-101.12,2.85-42.01,2.85-96.53,0-116.36-3.29-22.66-8.95-43.11-15.75-56.63-10.02-20.08-28.8-40.41-46.41-50.56-33.16-18.95-78.8-27.75-122.02-23.67-35.36,3.47-57.5,10.92-82.8,27.87-10.94,7.33-12.63,8.06-12.63,5.09,0-3.71,27.3-21.43,42.31-27.38,40.2-15.85,102.22-17.11,147.07-2.85,32.57,10.4,56.7,27.75,72.79,52.43,16.47,25.27,23.85,52.03,26.74,96.65,1.45,22.57.9,50.07-2.06,102.14-2.43,42.74-2.44,115.26,0,141.51,4.6,50.32,14.72,87.27,31.12,113.67,4.58,7.3,10.53,16.34,13.21,19.93,5.16,6.96,5.65,10.43,1.6,11.28-1.35.24-3.82,1.5-5.48,2.85-3.66,2.85-8.13,2.24-15.99-2.36-2.95-1.72-5.57-2.85-5.84-2.61-.27.28-.62,3.99-.79,8.31-.3,7.45-.55,7.94-4.6,10.79l-4.29,2.85-4.55-3.34c-7.3-5.34-12.57-10.3-19.11-17.97-3.37-3.86-6.91-7.08-7.89-7.08s-4.91-1.84-8.75-4.2c-3.84-2.36-9.67-5.58-12.95-7.05l-5.98-2.97-10.77,11.5c-10.32,10.92-13.84,13.4-13.84,9.69,0-.89-1.53-2.73-3.38-3.99-6.11-3.96-15.43-13.37-21.04-21.31-3.05-4.2-5.69-7.67-5.89-7.67s-5.29,5.55-11.34,12.39c-10.96,12.39-14.48,14.99-16.88,12.63-.87-.86-.34-2.24,1.7-4.2,1.65-1.63,8.48-9.2,15.21-16.86,6.72-7.57,13.19-13.89,14.35-13.89,1.28,0,3.97,2.98,6.62,7.33,4.76,7.67,16.55,20.57,22.19,24.16l3.37,2.24,10.46-10.92c8.13-8.43,10.83-10.55,12.12-9.54,1.4,1.1,16.74,7.79,17.99,7.79.24,0-.62-2.09-1.92-4.69-6.63-13.03-14.16-42.65-18.76-73.74-2.32-15.73-9.91-84.9-9.91-90.48,0-1.72-2.28.77-7.06,7.94-9.41,13.89-32.84,37.32-46.23,45.99-22.84,14.99-42.46,23.03-69.26,28.36l-14.12,2.73.8,13c.43,7.21.79,15.39.79,18.24,0,3.96.83,6.2,3.41,9.05,4.91,5.43,9.48,12.14,22.64,33.09,18.58,29.62,30.71,46.58,57.64,80.55,19.1,24.04,30.53,40.26,30.08,42.5-.2,1.01-1.32,2.48-2.47,3.22-1.7,1.01-2.65.49-4.96-2.33-1.58-2.12-5.66-6.84-9.1-10.55-19.01-20.82-54.06-67.55-70.85-94.56-5.85-9.41-10.79-16.86-10.98-16.74-.2.28,1.58,7.33,3.93,15.88,2.34,8.56,5,19.69,5.92,24.78,1.59,8.92,1.7,9.17,3.26,5.83.89-1.87,2.08-3.34,2.65-3.34,3.44,0-2.5,11.04-8.89,16.5-9.43,8.03-21.83,9.05-27.59,2.21-2.71-3.22-3.22-3.34-5.96-1.84-1.65.86-4.67,1.72-6.71,1.72s-4.34.49-5.09,1.01c-.83.49-1.66,7.42-2.1,17.6-.46,10.52-1.89,22.17-3.85,31.58-2.98,14.14-10.43,42.13-12.44,46.73-.89,2.11,1.35,2.24,37.54,2.24h38.48l-2.29-5.34c-2.63-5.95-12.44-73.25-12.44-85.15,0-6.56.3-7.54,2.14-7.18,1.71.37,2.84,3.96,5.55,17.72,5.58,28.49,9.89,58.87,9.9,69.76,0,9.81.14,10.3,2.68,9.93,2.48-.4,2.68-1.14,3.01-12.42.32-11.25.54-12.14,3.57-14.63,2.9-2.21,4.97-2.45,20.71-2.45,9.63,0,27.54.61,39.81,1.23,12.27.74,46.29,1.75,75.6,2.36,29.31.61,54.97,1.59,57.01,2.24,6.46,1.96,4.65,4.69-3.1,4.69-22.84,0-98.57-2.24-126.41-3.83-18.07-.86-39.4-1.75-47.4-1.75h-14.56v24.81h48.47c47.12,0,48.4-.12,45.68-2.24-2.37-1.99-2.66-2.98-1.93-6.93.97-5.09,3.33-5.46,4.47-.64.51,2.12,1.55,2.98,3.76,2.98,1.87,0,3.04-.74,3.04-1.84,0-2.61,3.59-2.36,4.12.37.51,2.61-1.79,5.7-5.32,7.05-1.38.61,26.91,1.13,62.86,1.13l65.37.12v-5.46c0-9.05.12-9.05,11.51-8.43,5.6.24,10.66.98,11.26,1.5,1.56,1.47-.12,7.05-2.99,9.9-2.43,2.48-1.93,2.48,116.53,2.48h118.97v-10.92l-8.99-.74c-15.78-1.26-89.72-4.35-121.14-5.09-38.96-.86-84.11-2.85-99.14-4.32-29.8-2.85-43.36-4.97-50.03-7.7-6.93-2.85-6.96-2.85-6.19-7.18,1.39-7.7,6.07-15.27,51.67-83.43,24.66-36.92,52.87-80.43,62.66-96.65,9.79-16.25,18.81-29.99,20.04-30.6,2.91-1.63,7.04-1.63,7.57,0,.22.73,9.68,2.57,21.01,4.32,32.01,4.72,58.27,10.55,152.29,34.1,41.74,10.39,51.7,12.76,79.31,17.97,23.75,4.45,28.99,6.07,28.16,8.4-1.62,4.6-39.41-2.58-119.87-22.66-104.2-26.03-150.22-35.94-153.28-32.96-.81.74-13.83,22.05-28.95,47.22-41.51,69.27-51.67,84.87-76.73,118.08-7.87,10.55-17.45,23.92-21.28,29.86l-6.95,10.92,24.3,2.11c33.75,2.85,64.23,4.2,124.08,5.7,28.28.73,67.6,2.08,87.37,3.1,19.76.98,41.83,1.84,49.03,1.84,14.78,0,19.26,1.62,15.47,5.34-1.6,1.62-4.35,2.11-11.77,2.11-10.54,0-11.2.49-11.2,7.54v3.62h22.21c12.21,0,23.09.37,24.17.74,2.35.86,2.54,3.47.4,5.21-2.49,2.09-27.71,2.09-530.35,1.47h-.04ZM980.08,1939.39c-1.71-10.3-7.15-16.86-16.57-20.08-7.2-2.48-23.11-2.36-32.79.12-13.79,3.59-29.57,13.77-33.7,21.68l-1.86,3.62h85.8l-.88-5.34ZM1434.79,1941.63c3.07-4.6,2.48-5.58-3.49-5.58s-7.49,1.23-6.37,5.7c1.06,4.2,7.09,4.2,9.86-.12h0ZM1404.4,1904.92c1.61-3.47,7.23-11.9,12.47-18.83,26.1-34.59,39.5-54.8,81.84-123.57,16.57-26.89,31.45-50.69,33.08-52.92l2.94-3.96-4.59-1.23c-2.53-.77-4.67-1.14-4.77-1.01-.12.12-6.83,11.65-14.94,25.67-8.12,13.89-35.56,56.51-60.96,94.56-46.71,69.88-55.45,84.38-52.18,86.5,3.05,1.99,4.14,1.1,7.11-5.21h0ZM1159.57,1839.37c3.21-1.96,5.83-3.96,5.83-4.32s-1.43-2.85-3.19-5.46c-1.75-2.73-4.97-11.28-7.16-19.35l-3.98-14.35-6.94-.52c-7.97-.49-14.37-3.34-15.75-7.05-.76-1.99-2.95,1.63-11.08,18.21-5.59,11.41-10.15,21.92-10.15,23.43s1.44,4.08,3.2,5.83c2.93,2.73,4.24,2.97,15.22,2.97,9.29.12,12.69.61,15.03,2.24,4.76,3.34,12.23,2.73,18.97-1.63h0ZM923.92,1792.91c-.31-6.23-.84-8.07-2.29-8.07-1.21,0-1.62.74-1.14,1.96.42,1.14.76,4.72.76,8.07,0,3.99.52,6.07,1.55,6.07,1.13,0,1.44-2.24,1.13-8.03h0ZM1149.28,1788.56c0-.98-6.19-24.65-8.19-31.37-.36-1.1-1.61-2.09-2.8-2.09-1.63,0-2.53,1.84-3.73,7.67-.88,4.23-2.6,10.43-3.84,13.64-1.85,4.85-1.95,5.95-.52,5.95.96,0,1.74.61,1.74,1.23,0,2.36,7.98,6.19,12.7,6.19,2.55,0,4.65-.49,4.65-1.23h0ZM1208.36,1940.12c-1.19-1.1-.99-10.64.27-12.63,1.15-1.75,17.18-3.22,22.14-1.99,4.21,1.01,3.78,7.33-.83,11.9-5.07,5.09-7.14,4.6-3.94-.86,1.44-2.36,2.6-4.85,2.6-5.58,0-.61-3.35-1.1-7.44-1.1-6.34,0-7.44.37-7.44,2.21,0,1.26.63,2.85,1.4,3.62,2.12,2.09.31,5.31-3.01,5.31-1.61,0-3.31-.37-3.75-.86h0ZM1384.75,1932.95c0-7.57.21-8.19,3.19-9.29,1.75-.77,5.65-1.26,8.67-1.26,3.23,0,5.49-.61,5.49-1.35,0-1.01.49-1.01,1.55-.25.86.74,3.64,1.6,6.2,2.09,3.01.64,4.65,1.5,4.65,2.73,0,1.75-1.85,1.87-12.39,1.5l-12.39-.37v4.69c0,5.09-1.77,9.54-3.77,9.54-.66,0-1.19-3.59-1.19-8.03h0ZM1694.57,1919.3c0-1.99,3.13-5.83,19.27-23.55,30.46-33.45,54.58-64.05,82.33-104.71,18.99-27.75,24.81-34.71,24.81-29.62,0,2.85-36.04,56.76-53.47,80.06-15.03,19.96-38.52,47.46-56.4,65.8-12.89,13.4-16.53,15.97-16.53,12.02h0ZM1283.69,1902.44c-1.3-2.08,8.81-10.52,19.14-15.85,19.17-9.9,42.99-14.14,52.47-9.29,6.33,3.34,8.29,6.56,8.34,13.89,0,7.3-1.54,11.38-4.4,11.38-1.46,0-1.7-.98-1.07-4.2,2.2-11.77-6.53-19.19-20.65-17.6-16.27,1.87-36.52,9.9-46.76,18.46-6.03,5.09-5.94,5.09-7.06,3.22h0ZM1283.56,1859.08c.77-20.08,3.89-54.15,5.06-55.41.29-.24,1.75-.12,3.25.37,2.53.89,2.68,1.5,1.97,7.94-.42,3.83-1.64,18.21-2.7,31.98-2.44,31.83-3.07,35.57-6.07,36.06-2.24.49-2.31-.37-1.5-20.94h0ZM1599.22,1835.17c-1.71-2.12-.95-5.21,4.6-19.1,3.94-9.78,5.55-12.14,7.61-10.89,2.07,1.35,1.67,3.59-2.42,13.86-3.83,9.69-3.99,12.02-.6,9.17,3.3-2.73,2.05.77-1.71,4.85-4.01,4.35-5.34,4.72-7.49,2.12h0ZM1653.53,1835.9c-.12-.49,0-1.87.12-2.97.19-1.87-.36-1.87-6.03-.37-7.36,1.99-11.23,1.23-11.23-1.99s-.89-2.98-7.31,1.38c-6.2,4.2-11.99,4.81-13.05,1.47-1.32-4.08,4.13-16.86,7.87-18.21,3.46-1.35,4.2,1.63,1.5,5.95-6.67,10.79,1.07,11.16,11.65.49,4.89-4.81,7.29-4.45,6.39,1.14-.92,5.55.9,6.32,8.58,3.71,3.16-1.13,6.23-1.63,6.83-1.26,1.45.89,1.39,5.09-.12,7.82-1.27,2.48-4.9,4.48-5.15,2.85h-.05ZM995.6,1826.49c0-.86,3.77-4.48,8.37-7.94,4.6-3.46,14.5-11.9,22-18.83,8.98-8.19,14.44-12.39,16-12.14,1.77.25,3.24,2.98,5.74,10.39,5.95,17.72,4.52,17.48,18.48,3.71,11.6-11.38,15.02-13.49,16.88-10.52.93,1.47-23.9,27.14-28.9,29.74-2.83,1.59-3.3,1.35-6.02-1.99-1.62-2.09-4.41-8.03-6.18-13.37l-3.25-9.81-3.89,3.62c-2.13,1.84-7.23,6.56-11.33,10.4-15.27,14.13-27.88,21.83-27.88,16.74h0ZM1202.56,1428.31c-7.53-3.99-17.16-9.81-21.4-13.03l-7.71-5.83-2.78,5.83c-1.53,3.22-2.78,6.68-2.79,7.82,0,8.55-24.49,6.07-46.89-4.6-11.14-5.31-21.68-14.99-21.07-19.19.65-4.6,4.2-4.23,10.62,1.1,8.9,7.45,18.02,12.02,33.87,16.86,7.9,2.48,14.86,4.45,15.49,4.45s2.78-4.08,4.76-8.92c5-12.39,11.18-18.21,12.76-12.14.36,1.38,1.22,2.48,1.91,2.48s3.83,1.87,6.98,4.11c7.16,5.06,26.68,15.73,28.96,15.73.94,0,3.34-3.47,5.35-7.7,4.62-9.66,9.94-17.11,12.32-17.11,2.89,0,2.27,2.48-3.88,15.02-3.15,6.44-5.7,13.12-5.66,14.99.12,3.1-3.47,7.18-6.21,7.18-.52,0-7.1-3.22-14.64-7.05h0Z"/>
      <g>
        <path class="cls-4" d="M1378.91,1383.11c.02-1.34,1.4-2.67,3.98-3.8,4.33-1.89,20.45-14.23,28.07-21.48,3.96-3.75,9.67-10.09,12.67-14.07,14.11-18.74,24.52-48.24,23.81-67.46l-.28-7.46-20.06-3.96c-63.18-12.48-105.73-28.76-138.06-52.82-46.84-34.86-63.33-74.79-49.95-121.09,14.64-50.79,66.27-101.79,130.72-129.18,30.27-12.87,69.6-22.54,104.65-25.74,6.49-.6,17.06-1.7,23.48-2.46,6.4-.78,19.51-1.82,29.1-2.35,9.63-.51,21.79-1.46,27.03-2.1,15.59-1.93,94.16-1.57,115.06.53,60.42,6.05,113.57,17.41,151.33,32.33,38.04,15.01,72.09,39.47,92.17,66.18,5.85,7.76,14.81,24.75,17.67,33.41,6.24,18.97,5.62,47.34-1.5,68.57-13.2,39.37-47.32,72.5-101.64,98.64-44.81,21.55-104.67,37.07-170.8,44.28-30.9,3.36-40.67,3.94-73.59,4.4-17.85.25-32.44.55-32.47.64-.02.12-1.87,3.87-4.1,8.34-9.9,19.89-29.59,39.68-54.61,54.92-11.93,7.27-39.19,21.3-52.09,26.78-14.37,6.15-34.08,12.5-44.03,14.25-8.87,1.54-16.6,1.89-16.58.71h0ZM1411.36,1371.94c27.3-7.83,74.28-31.13,95.46-47.34,12.85-9.83,29.17-28.05,34.65-38.64,1.08-2.09,2.85-6.4,3.96-9.56l1.98-5.73,37.71-.6c36.36-.58,43.93-1.01,73.04-4.19,128.9-14.12,223.72-57.77,256.16-117.89,4.88-9.07,9.23-21.46,11.28-32.21,2.35-12.27,2.16-30.95-.39-41.42-12.3-50.45-66.17-94.64-141.35-115.89-46.59-13.17-93.55-20.54-149.09-23.44-35.32-1.82-114.44.09-136.94,3.32-5.73.83-13.7,1.5-17.71,1.5-18.33,0-68.43,10.93-94.06,20.56-14.39,5.36-36.31,15.73-47.62,22.45-22.08,13.13-47.18,34.4-63.14,53.49-23.83,28.51-35.27,58.44-33.59,87.77.74,12.67,2.42,19.05,8.25,31.11,17.87,36.91,60.72,68.18,119.37,87.13,16.51,5.32,39.95,11.12,62.38,15.43,10.4,2,19.11,3.84,19.36,4.07.85.88,2.28,11.79,2.28,17.57.02,17.36-9.14,43.84-21.58,62.49-4.6,6.87-19.64,22.91-28.06,29.94-2.35,1.96-3.64,3.38-2.86,3.13.78-.23,5.51-1.62,10.5-3.04h0Z"/>
        <g>
          <rect class="cls-2" x="1285.68" y="1063.24" width="599.47" height="109.12"/>
          <path class="cls-1" d="M1337.83,1103.65c0,1.92.01,4.8.04,8.65.03,3.84.04,6.73.04,8.65,0,.59.05,1.48.14,2.68s.14,2.1.14,2.68c0,1.15-.39,2.09-1.16,2.82-.77.73-1.72,1.1-2.84,1.1-2.06,0-3.36-1.27-3.92-3.8-3.34,1.73-7.18,2.6-11.53,2.6-3.5,0-6.39-.77-8.69-2.32-2.54-1.71-4.04-4.2-4.52-7.49-1.04-7.07-1.56-13.37-1.56-18.9,0-3.66.4-7.82,1.2-12.49.37-2.32,1.64-3.48,3.8-3.48,1.15,0,2.11.37,2.88,1.1.77.73,1.16,1.67,1.16,2.82,0,1.23-.19,3.19-.58,5.89-.39,2.7-.58,4.75-.58,6.17,0,4.46.15,8.28.44,11.45.29,3.18.73,5.73,1.32,7.65.88.48,1.75.85,2.6,1.1.85.25,1.69.38,2.52.38,3.58,0,7.35-.57,11.33-1.72l-.04-8.13-.08-7.77c0-5.77.25-10.77.76-15.01.29-2.46,1.59-3.68,3.88-3.68,1.15,0,2.11.37,2.88,1.12.77.75,1.13,1.68,1.08,2.8l-.72,15.13Z"/>
          <path class="cls-1" d="M1398.65,1130.36c-2.19,0-3.47-1.16-3.84-3.48-.48-2.94-.96-7.07-1.44-12.41l-1.36-12.41c-.27-1.84-.72-3.64-1.36-5.41-.91-2.4-1.9-3.6-2.96-3.6-.99,0-2.83.84-5.53,2.52-2.56,1.55-4.24,2.79-5.04,3.72-.03,2.51.04,5.02.2,7.53l1.2,10.69c.51,4.22.76,7.7.76,10.45,0,1.17-.37,2.14-1.1,2.9-.73.76-1.67,1.14-2.82,1.14s-2.09-.38-2.82-1.14c-.73-.76-1.1-1.73-1.1-2.9,0-3.23-.33-8-.98-14.31s-.98-11.08-.98-14.31c0-2.83-.4-5.03-1.2-6.61-1.87.85-3.76,2.24-5.69,4.16l-4.72,5.29c-.43.64-1.11,1.48-2.04,2.52,0,1.6-.15,3.96-.44,7.09-.29,3.12-.44,5.43-.44,6.93,0,.8.13,1.92.38,3.36s.38,2.48.38,3.12c0,1.09-.41,2.01-1.22,2.76-.81.75-1.77,1.12-2.86,1.12-3.02,0-4.52-3.43-4.52-10.29,0-1.6.15-3.99.44-7.17.29-3.18.44-5.57.44-7.17,0-1.41-.13-3.54-.38-6.37-.25-2.83-.38-4.96-.38-6.41,0-6.06,1.36-9.09,4.08-9.09,1.04,0,2,.45,2.86,1.36.87.91,1.3,1.9,1.3,2.96,0,.51-.07,1.29-.2,2.36-.13,1.07-.2,1.88-.2,2.44l.08,4.2c1.39-2.86,3.43-5.44,6.13-7.75,2.7-2.31,4.99-3.46,6.89-3.46,4.19,0,7.07,2.08,8.65,6.25,1.47-1.95,3.22-3.41,5.25-4.38,2.03-.97,4.35-1.46,6.97-1.46,4.46,0,7.5,2.4,9.13,7.21.32.96.87,4.71,1.64,11.25.75,4.59,1.71,12.24,2.88,22.94.08,1.07-.28,1.97-1.08,2.72-.8.75-1.78,1.12-2.92,1.12Z"/>
          <path class="cls-1" d="M1462.35,1130.36c-2.19,0-3.47-1.16-3.84-3.48-.48-2.94-.96-7.07-1.44-12.41l-1.36-12.41c-.27-1.84-.72-3.64-1.36-5.41-.91-2.4-1.9-3.6-2.96-3.6-.99,0-2.83.84-5.53,2.52-2.56,1.55-4.24,2.79-5.04,3.72-.03,2.51.04,5.02.2,7.53l1.2,10.69c.51,4.22.76,7.7.76,10.45,0,1.17-.37,2.14-1.1,2.9-.73.76-1.67,1.14-2.82,1.14s-2.09-.38-2.82-1.14c-.73-.76-1.1-1.73-1.1-2.9,0-3.23-.33-8-.98-14.31s-.98-11.08-.98-14.31c0-2.83-.4-5.03-1.2-6.61-1.87.85-3.76,2.24-5.69,4.16l-4.72,5.29c-.43.64-1.11,1.48-2.04,2.52,0,1.6-.15,3.96-.44,7.09-.29,3.12-.44,5.43-.44,6.93,0,.8.13,1.92.38,3.36s.38,2.48.38,3.12c0,1.09-.41,2.01-1.22,2.76-.81.75-1.77,1.12-2.86,1.12-3.02,0-4.52-3.43-4.52-10.29,0-1.6.15-3.99.44-7.17.29-3.18.44-5.57.44-7.17,0-1.41-.13-3.54-.38-6.37-.25-2.83-.38-4.96-.38-6.41,0-6.06,1.36-9.09,4.08-9.09,1.04,0,2,.45,2.86,1.36.87.91,1.3,1.9,1.3,2.96,0,.51-.07,1.29-.2,2.36-.13,1.07-.2,1.88-.2,2.44l.08,4.2c1.39-2.86,3.43-5.44,6.13-7.75,2.7-2.31,4.99-3.46,6.89-3.46,4.19,0,7.07,2.08,8.65,6.25,1.47-1.95,3.22-3.41,5.25-4.38,2.03-.97,4.35-1.46,6.97-1.46,4.46,0,7.5,2.4,9.13,7.21.32.96.87,4.71,1.64,11.25.75,4.59,1.71,12.24,2.88,22.94.08,1.07-.28,1.97-1.08,2.72-.8.75-1.78,1.12-2.92,1.12Z"/>
          <path class="cls-1" d="M1480.33,1130.76c-1.39,0-2.56-.48-3.52-1.44s-1.44-2.14-1.44-3.52.48-2.53,1.44-3.5,2.13-1.46,3.52-1.46,2.53.49,3.5,1.46,1.46,2.14,1.46,3.5-.49,2.56-1.46,3.52-2.14,1.44-3.5,1.44Z"/>
          <path class="cls-1" d="M1500.75,1130.76c-1.39,0-2.56-.48-3.52-1.44s-1.44-2.14-1.44-3.52.48-2.53,1.44-3.5,2.13-1.46,3.52-1.46,2.53.49,3.5,1.46,1.46,2.14,1.46,3.5-.49,2.56-1.46,3.52-2.14,1.44-3.5,1.44Z"/>
          <path class="cls-1" d="M1521.17,1130.76c-1.39,0-2.56-.48-3.52-1.44s-1.44-2.14-1.44-3.52.48-2.53,1.44-3.5,2.13-1.46,3.52-1.46,2.53.49,3.5,1.46,1.46,2.14,1.46,3.5-.49,2.56-1.46,3.52-2.14,1.44-3.5,1.44Z"/>
          <path class="cls-1" d="M1577.99,1128.44c-2.67,0-5.61-.43-8.81-1.28l-.08,19.14c0,1.17-.37,2.13-1.1,2.88-.73.75-1.67,1.12-2.82,1.12s-2.09-.37-2.82-1.12c-.74-.75-1.1-1.71-1.1-2.88l.12-16.02v-15.98c-.08-5.85-.28-11.17-.6-15.98l-.6-8.13c0-1.89.35-3.5,1.04-4.8.8-1.57,1.96-2.36,3.48-2.36,1.04,0,1.92.37,2.62,1.1.71.74,1.06,1.64,1.06,2.7,0,.24-.04.68-.12,1.32-.13.83-.23,1.59-.28,2.28,2.29-1.57,4.51-2.76,6.65-3.54,2.13-.79,4.18-1.18,6.13-1.18,5.47,0,9.48,2.43,12.01,7.29,2,3.84,3,8.93,3,15.25,0,5.77-1.55,10.52-4.64,14.25-3.28,3.95-7.66,5.93-13.13,5.93ZM1580.75,1093.72c-2.46,0-4.67.55-6.65,1.64-1.42.77-3.2,2.19-5.37,4.24.35,6.06.52,12.43.52,19.1,2.91,1.12,5.82,1.68,8.73,1.68,3.34,0,5.89-1.24,7.65-3.72,1.52-2.16,2.28-4.96,2.28-8.41,0-4.86-.59-8.49-1.78-10.91-1.19-2.42-2.98-3.62-5.39-3.62Z"/>
          <path class="cls-1" d="M1635.96,1097.45c-.19,3.34-1.52,5-4,5-2.3,0-3.44-1.32-3.44-3.96,0-.51-.04-1.44-.12-2.8l-.12-3.36c-4.22.51-7.59,1.7-10.13,3.56-2.38,1.74-4.35,4.35-5.93,7.85l.08,21.94c0,2.7-1.32,4.04-3.96,4.04-2.35,0-3.52-1.35-3.52-4.04v-28.11c0-.88.03-2.2.1-3.96.07-1.76.1-3.08.1-3.96,0-2.7,1.17-4.04,3.52-4.04,2.62,0,3.94,2.22,3.96,6.65,5.12-4.94,10.81-7.41,17.06-7.41,2.16,0,3.78.81,4.84,2.44,1.07,1.63,1.6,4.08,1.6,7.37,0,1.39-.01,2.32-.04,2.8Z"/>
          <path class="cls-1" d="M1653.66,1108.86c0,1.6.05,4,.14,7.19s.14,5.58.14,7.19c0,1.17-.36,2.14-1.08,2.88-.72.75-1.67,1.12-2.84,1.12s-2.09-.37-2.82-1.12c-.74-.75-1.1-1.71-1.1-2.88,0-1.6-.05-4-.14-7.19s-.14-5.59-.14-7.19c0-2.51.13-5.64.4-9.39.27-3.75.4-6.88.4-9.39,0-1.2.37-2.17,1.1-2.92.73-.75,1.67-1.12,2.82-1.12s2.09.37,2.82,1.12c.73.75,1.1,1.72,1.1,2.92,0,2.51-.13,5.64-.4,9.39-.27,3.75-.4,6.88-.4,9.39ZM1651.86,1076.35c-1.28,0-2.39-.45-3.32-1.36-.93-.91-1.4-2-1.4-3.28s.47-2.38,1.4-3.28c.93-.91,2.04-1.36,3.32-1.36s2.38.45,3.3,1.36c.92.91,1.38,2,1.38,3.28s-.46,2.38-1.38,3.28c-.92.91-2.02,1.36-3.3,1.36Z"/>
          <path class="cls-1" d="M1685.65,1124.95c-.08,2.46-1.29,3.68-3.64,3.68-1.95,0-3.36-1.15-4.24-3.44l-6.13-16.26-7.13-18.38c-.27-.69-.4-1.31-.4-1.84,0-1.09.41-2.03,1.24-2.8.83-.77,1.79-1.16,2.88-1.16,1.6,0,2.75.81,3.44,2.44l10.17,27.99c2-4.27,4.52-10.46,7.57-18.58.72-2.13,1.85-5.15,3.4-9.05.83-1.71,2-2.56,3.52-2.56,1.09,0,2.05.39,2.88,1.16.83.77,1.24,1.7,1.24,2.76s-2.2,6.73-6.61,17.14l-8.21,18.9Z"/>
          <path class="cls-1" d="M1738.34,1129.68c-.51,0-1.43-.59-2.76-1.76-1.2-1.09-2.1-2.07-2.68-2.92-2.56,1.39-4.82,2.44-6.77,3.14-1.95.71-3.58,1.06-4.88,1.06-6.25,0-10.8-1.76-13.65-5.29-2.7-3.31-4.04-8.38-4.04-15.21,0-6.46,2.22-11.98,6.67-16.58,4.44-4.59,9.75-6.89,15.92-6.89,2.32,0,4.92.6,7.81,1.8,3.63,1.5,5.45,3.3,5.45,5.41,0,.72-.27,1.36-.8,1.92-.27,1.01-.47,2.68-.62,5s-.23,5.3-.26,8.93c-.03,3.31.2,5.93.68,7.85.27,1.17,1.11,3.52,2.52,7.05.19.48.49,1.19.92,2.12l.24.68c0,1.07-.37,1.95-1.12,2.64-.75.69-1.62,1.04-2.6,1.04ZM1730.01,1101.85c0-1.15.07-2.4.22-3.74.15-1.35.37-2.78.66-4.3-.99-.51-1.84-.88-2.54-1.12s-1.27-.36-1.7-.36c-4.14,0-7.71,1.69-10.71,5.07-3,3.38-4.5,7.27-4.5,11.67s.77,7.66,2.32,9.85c1.55,2.19,3.87,3.28,6.97,3.28,2.56,0,4.74-.47,6.53-1.4.96-.51,2.31-1.52,4.04-3.04-.85-7.07-1.28-12.37-1.28-15.9Z"/>
          <path class="cls-1" d="M1767.13,1129.56c-5.47,0-10.04-1.66-13.69-4.96-3.84-3.47-5.77-8.05-5.77-13.73s1.8-11.01,5.41-16.78c4-6.41,8.51-9.61,13.53-9.61,2.62,0,5.54.61,8.77,1.84,4.08,1.58,6.13,3.5,6.13,5.77,0,1.01-.33,1.92-1,2.7-.67.79-1.5,1.18-2.48,1.18-.77,0-1.45-.23-2.02-.7-.57-.47-1.13-.93-1.66-1.38-1.58-1.25-4.15-1.88-7.73-1.88-2.72,0-5.42,2.43-8.09,7.29-2.43,4.46-3.64,8.32-3.64,11.57,0,3.52,1.2,6.3,3.6,8.33,2.24,1.9,5.12,2.84,8.65,2.84,1.6,0,3.31-.43,5.12-1.28l4.64-2.48c.8-.43,1.37-.64,1.72-.64.99,0,1.84.39,2.56,1.18.72.79,1.08,1.69,1.08,2.7,0,1.95-2.06,3.83-6.17,5.65-3.6,1.6-6.59,2.4-8.97,2.4Z"/>
          <path class="cls-1" d="M1826.07,1091.32l-13.85,29.95c-3.42,7.29-6.03,13.39-7.85,18.3l-2.64,7.77c-.69,1.92-1.9,2.88-3.6,2.88-1.12,0-2.09-.37-2.9-1.1-.81-.74-1.22-1.65-1.22-2.74,0-2.67,2.88-10.4,8.65-23.18l-14.33-27.59-1.8-2.92c-.72-1.23-1.08-2.25-1.08-3.08,0-1.09.42-2.05,1.26-2.88.84-.83,1.78-1.24,2.82-1.24,1.23,0,2.17.47,2.84,1.4,4.54,6.3,9.41,15.27,14.61,26.91l5.93-13.81c2.13-4.78,4.19-8.89,6.17-12.33.85-1.49,1.97-2.24,3.36-2.24,1.09,0,2.06.39,2.9,1.16.84.77,1.26,1.7,1.26,2.76,0,.59-.17,1.25-.52,2Z"/>
          <path class="cls-1" d="M1843.12,1114.7c-1.09,0-2.06-.42-2.88-1.26-.83-.84-1.24-1.79-1.24-2.86,0-1.84,1.71-4.11,5.12-6.81l9.57-7.21c3.44-2.96,5.17-5.67,5.17-8.13,0-3.1-1.46-5.95-4.36-8.57-2.8-2.54-5.78-3.8-8.93-3.8-1.68,0-3.82.86-6.41,2.58-2.59,1.72-4.19,2.58-4.8,2.58-1.09,0-2.04-.44-2.82-1.32-.79-.88-1.18-1.87-1.18-2.96,0-2.11,2.04-4.2,6.13-6.29,3.66-1.87,6.69-2.8,9.09-2.8,5.37,0,10.24,2.1,14.61,6.29,4.38,4.19,6.57,8.96,6.57,14.29,0,3.9-1.25,7.35-3.76,10.37-1.5,1.82-4.27,4.16-8.33,7.05-4.08,2.96-6.93,5.37-8.53,7.21-.93,1.09-1.94,1.64-3,1.64ZM1840.92,1129.92c-1.17,0-2.24-.39-3.18-1.18s-1.42-1.74-1.42-2.86c0-1.65.44-3.15,1.32-4.48.99-1.49,2.25-2.24,3.8-2.24,2.56,0,3.84,1.58,3.84,4.72,0,1.47-.35,2.79-1.04,3.96-.85,1.39-1.96,2.08-3.32,2.08Z"/>
        </g>
      </g>
    </g>
  </g>
</svg>