<?xml version="1.0" encoding="UTF-8"?>
<svg id="Layer_2" xmlns="http://www.w3.org/2000/svg" viewBox="0 0 358.5 248.25">
  <defs>
    <style>
      .cls-1 {
        fill: #fff;
      }
    </style>
  </defs>
  <g id="Layer_2-2" data-name="Layer_2">
    <g>
      <rect class="cls-1" width="358.5" height="248.25"/>
      <g>
        <g>
          <path d="M103.49,20.51c.1,0,.21-.02.31-.08.34-.18.48-.6.31-.94L94.26,0h-1.57l10.18,20.12c.13.25.37.39.63.39Z"/>
          <path d="M98.26,23.24h0c.1,0,.21-.02.31-.07.34-.18.48-.6.31-.94L87.64,0h-1.57l11.56,22.86c.13.24.37.39.63.39Z"/>
          <path d="M253.63,20.63c.1.05.21.08.31.08h0c.26,0,.5-.14.63-.39l10.28-20.32h-1.57l-9.96,19.69c-.17.35-.04.77.31.94Z"/>
          <path d="M258.91,23.26c.1.05.21.08.31.08h0c.26,0,.5-.14.63-.38l11.61-22.96h-1.57l-11.29,22.32c-.17.35-.04.77.31.94Z"/>
          <path d="M105.58,42c.58,1.14,1.98,1.6,3.13,1.03l5.16-2.56c.56-.28.97-.75,1.16-1.34.19-.58.15-1.2-.13-1.74l-7.89-15.6c-.58-1.14-1.98-1.6-3.13-1.03l-5.16,2.57c-.56.28-.97.75-1.16,1.34-.19.58-.15,1.2.13,1.74l7.89,15.6h0ZM107.67,44.67c-1.37,0-2.69-.75-3.34-2.04l-7.89-15.6c-.44-.88-.52-1.88-.21-2.82.31-.94.98-1.7,1.87-2.15l5.16-2.57c1.84-.91,4.08-.18,5,1.65l7.89,15.6c.44.88.52,1.88.21,2.82-.31.94-.98,1.7-1.87,2.15l-5.16,2.56c-.54.27-1.1.39-1.67.39h0Z"/>
          <rect x="97.06" y="25.65" width="12.87" height="1.4" transform="translate(17.1 89.13) rotate(-50.29)"/>
          <rect x="100.19" y="31.84" width="12.87" height="1.4" transform="translate(13.47 93.78) rotate(-50.29)"/>
          <rect x="103.32" y="38.03" width="12.87" height="1.4" transform="translate(9.84 98.43) rotate(-50.29)"/>
          <path d="M122.61,106.11c-.46,0-.93-.09-1.36-.26-.96-.39-1.71-1.16-2.06-2.12-3.19-8.83-5.72-17.97-7.52-27.16-2.12-10.8-3.27-21.86-3.42-32.86l1.4-.02c.15,10.92,1.29,21.89,3.39,32.62,1.79,9.13,4.3,18.2,7.46,26.96.22.6.66,1.06,1.26,1.3.6.24,1.28.21,1.86-.08l.07-.04c.97-.48,1.41-1.6,1.05-2.61-3.31-9.06-5.93-18.44-7.78-27.9-2.12-10.8-3.27-21.86-3.42-32.86l1.4-.02c.15,10.92,1.29,21.9,3.39,32.62,1.84,9.39,4.44,18.7,7.72,27.69.61,1.68-.13,3.55-1.74,4.34l-.07.04c-.51.26-1.08.39-1.64.39h.01Z"/>
          <path d="M129.81,71.28c-.7-.74-1.41-1.5-2.11-2.26-4.82-5.25-9.37-10.84-13.55-16.61l1.13-.82c4.15,5.72,8.67,11.27,13.45,16.48.7.76,1.4,1.52,2.1,2.25l-1.01.96h0Z"/>
          <path d="M133.96,67.43c-.32-.35-.65-.7-.97-1.05-7.1-7.75-13.59-16.16-19.27-24.98l1.18-.76c5.64,8.76,12.08,17.1,19.13,24.8.32.35.64.7.96,1.04l-1.02.96h0Z"/>
          <path d="M228.52,97.65c-.74-2.21-1.29-4.49-1.65-6.78-.97-6.2-.51-12.67,1.32-18.77-1.52-.7-2.89-1.65-4.08-2.83-1.19-1.18-2.15-2.55-2.86-4.06-13.83,3.8-28.12,5.73-42.48,5.73s-27.59-1.79-40.94-5.31c-.86-.23-1.79.14-2.25.9-.61,1-1.33,1.93-2.16,2.74-.82.82-1.75,1.53-2.75,2.13-.75.45-1.13,1.35-.9,2.2,1.49,5.71,1.79,11.52.9,17.27-.36,2.29-.91,4.58-1.65,6.78l-1.33-.44c.71-2.14,1.25-4.34,1.6-6.56.87-5.56.58-11.17-.87-16.7-.38-1.45.26-2.99,1.54-3.76.9-.54,1.74-1.18,2.48-1.92.75-.74,1.4-1.57,1.94-2.47.78-1.28,2.34-1.91,3.8-1.53,13.23,3.49,26.89,5.26,40.58,5.26,14.43,0,28.8-1.96,42.69-5.84.34-.09.7.08.83.41.65,1.57,1.6,2.97,2.8,4.17,1.21,1.2,2.63,2.14,4.21,2.78.34.14.51.51.4.86-1.92,6.07-2.42,12.55-1.46,18.74.35,2.21.88,4.42,1.6,6.56l-1.33.44h0Z"/>
          <path d="M178.77,129.57c-9.76,0-19.32-2.7-27.65-7.79-8.28-5.06-14.97-12.26-19.35-20.81-1.36-2.66-4.6-3.77-7.36-2.53l-.06.03-.57-1.28.06-.03c3.44-1.55,7.47-.16,9.18,3.16,8.66,16.92,26.62,27.85,45.75,27.85s37.09-10.93,45.75-27.85c1.7-3.33,5.74-4.72,9.18-3.17l.06.03-.58,1.27.29-.64-.31.63h-.04c-2.76-1.26-5.99-.15-7.36,2.52-4.38,8.56-11.07,15.75-19.35,20.81-8.33,5.1-17.89,7.79-27.65,7.79h0Z"/>
          <path d="M178.77,146.25c-13.1,0-25.94-3.6-37.15-10.41-11.15-6.78-20.19-16.44-26.14-27.92-.77-1.49-.89-3.18-.34-4.76.55-1.58,1.7-2.84,3.24-3.53l.05-.02.58,1.27-.05.02c-1.18.53-2.07,1.5-2.49,2.71-.42,1.21-.33,2.51.27,3.65,12,23.18,35.77,37.58,62.05,37.58s50.05-14.4,62.05-37.58c.59-1.14.69-2.44.27-3.66-.42-1.21-1.31-2.18-2.49-2.71l.24-.66-.28.64.55-1.29.04.02c1.56.7,2.71,1.96,3.26,3.54.55,1.58.43,3.27-.34,4.76-5.95,11.49-14.99,21.15-26.14,27.92-11.2,6.81-24.05,10.41-37.15,10.41h0Z"/>
          <path d="M252.61,20.5c-.85,0-1.68.47-2.09,1.27l-7.89,15.6c-.28.55-.32,1.17-.13,1.74.2.58.61,1.06,1.16,1.34l5.16,2.56c1.15.57,2.56.11,3.13-1.03l7.89-15.6c.28-.55.32-1.17.13-1.74-.2-.58-.61-1.06-1.16-1.34l-5.16-2.57c-.34-.17-.69-.25-1.05-.25h0ZM249.87,44.67c-.56,0-1.13-.13-1.67-.39l-5.16-2.56c-.9-.44-1.56-1.21-1.87-2.15-.31-.93-.23-1.94.21-2.82l7.89-15.6c.92-1.82,3.17-2.56,5-1.65l5.16,2.57c.9.44,1.56,1.21,1.87,2.15.31.93.24,1.94-.21,2.82l-7.89,15.6c-.65,1.29-1.97,2.04-3.34,2.04h0Z"/>
          <rect x="253.34" y="19.91" width="1.4" height="12.87" transform="translate(41.88 168.54) rotate(-39.75)"/>
          <rect x="250.21" y="26.1" width="1.4" height="12.87" transform="translate(37.19 167.97) rotate(-39.75)"/>
          <rect x="247.08" y="32.3" width="1.4" height="12.87" transform="translate(32.5 167.4) rotate(-39.75)"/>
          <path d="M234.93,106.11c-.56,0-1.13-.13-1.64-.39l-.07-.03c-1.61-.8-2.35-2.67-1.74-4.35,3.28-8.99,5.88-18.3,7.72-27.69,2.1-10.72,3.24-21.69,3.39-32.62l1.4.02c-.15,11.01-1.3,22.06-3.42,32.86-1.85,9.46-4.47,18.84-7.78,27.9-.37,1.01.08,2.13,1.05,2.61l.07.03c.58.29,1.26.32,1.86.08.6-.24,1.05-.7,1.26-1.3,3.16-8.76,5.67-17.83,7.46-26.96,2.1-10.72,3.24-21.69,3.39-32.62l1.4.02c-.15,11.01-1.3,22.06-3.42,32.86-1.8,9.2-4.33,18.34-7.52,27.16-.35.97-1.1,1.74-2.06,2.12-.44.18-.9.26-1.36.26h0Z"/>
          <path d="M227.72,71.28l-1.01-.96c.7-.73,1.4-1.49,2.1-2.25,4.78-5.21,9.3-10.76,13.45-16.48l1.13.82c-4.18,5.77-8.73,11.35-13.55,16.61-.7.77-1.41,1.53-2.11,2.26h0Z"/>
          <path d="M223.58,67.43l-1.02-.96c.32-.34.64-.69.96-1.04,7.05-7.69,13.49-16.03,19.13-24.8l1.18.76c-5.68,8.83-12.17,17.23-19.27,24.98-.32.35-.65.7-.97,1.05h0Z"/>
          <path d="M190.48,128.05l-1.1-.87c3.82-4.84,7.11-10.12,9.76-15.68-4.92-6.57-10.61-12.59-16.91-17.88-6.31-5.29-13.23-9.86-20.59-13.58-5.98,4.13-11.4,9.02-16.1,14.53-3.32,3.89-6.29,8.1-8.84,12.53l-1.21-.7c2.59-4.5,5.61-8.79,8.99-12.74,4.88-5.71,10.5-10.76,16.72-15.01.21-.14.48-.16.71-.05,7.59,3.81,14.74,8.5,21.23,13.95,6.5,5.45,12.34,11.66,17.39,18.45.15.21.18.48.07.72-2.73,5.8-6.14,11.29-10.11,16.33h0Z"/>
          <path d="M219.41,108.73c-.19-.98-.4-1.96-.63-2.92-1.64-7.04-4.21-13.84-7.62-20.22h-.3c-8.16,0-16.32.92-24.27,2.75-2.62.6-5.26,1.31-7.84,2.11l-.41-1.34c2.61-.81,5.28-1.53,7.94-2.14,8.29-1.9,16.79-2.84,25.32-2.78.26,0,.49.14.61.37,3.57,6.6,6.24,13.64,7.95,20.93.23.97.44,1.97.64,2.97l-1.37.27h0Z"/>
          <path d="M146.88,92.39c-.17,0-.34-.06-.48-.19-1.69-1.59-3.32-3.3-4.82-5.08-2.58-3.05-4.87-6.37-6.81-9.86-.19-.34-.07-.76.27-.95.34-.19.76-.07.95.27,1.89,3.41,4.13,6.65,6.65,9.63,1.47,1.74,3.05,3.41,4.71,4.96.28.27.29.71.03.99-.14.15-.33.22-.51.22h0Z"/>
          <path d="M155.03,84.61c-.11,0-.23-.03-.34-.08-.64-.35-1.27-.71-1.88-1.07-3.45-2.04-6.71-4.42-9.7-7.09-.29-.26-.31-.7-.06-.99.26-.29.7-.32.99-.06,2.92,2.6,6.11,4.94,9.48,6.93.6.35,1.22.71,1.84,1.05.34.19.47.61.28.95-.13.23-.37.36-.62.36h0Z"/>
          <path d="M203.03,85.8c-.21,0-.43-.1-.56-.28-.23-.31-.16-.75.15-.98,1.23-.91,2.43-1.88,3.59-2.88,2.8-2.43,5.39-5.13,7.7-8.03.24-.3.68-.35.98-.11.3.24.35.68.11.98-2.36,2.97-5.01,5.73-7.88,8.22-1.18,1.03-2.42,2.02-3.68,2.95-.13.09-.27.14-.42.14h0Z"/>
          <path d="M214.25,90.64c-.14,0-.29-.05-.42-.14-.31-.23-.38-.67-.15-.98.08-.11.16-.22.24-.33,2.18-2.99,4.09-6.21,5.67-9.55.16-.35.58-.5.93-.33.35.16.5.58.33.93-1.62,3.42-3.58,6.71-5.8,9.77-.08.11-.16.23-.25.34-.14.19-.35.28-.56.28h0Z"/>
        </g>
        <g>
          <path d="M92.72,162.38c.41,0,.76.34.76.74v11.33c0,.41-.34.76-.76.76s-.77-.34-.77-.76v-11.33c0-.4.34-.74.77-.74Z"/>
          <path d="M100.87,173.65c.32,0,.61.22.61.59,0,.22-.11.41-.38.58-.47.29-1.04.4-1.73.4-1.82,0-2.54-1.15-2.54-3.22v-6.59c0-.38.31-.68.72-.68s.72.31.72.68v1.57h2.29c.38,0,.68.31.68.67,0,.38-.31.68-.68.68h-2.29v3.53c0,1.28.41,2.02,1.44,2.02.47,0,.88-.22,1.15-.22Z"/>
          <path d="M102.87,165.66c-.11-.11-.16-.22-.16-.34,0-.11.05-.23.16-.34.34-.4.5-.9.5-1.44,0-.25-.05-.49-.13-.67-.04-.11-.07-.2-.07-.29,0-.16.09-.27.29-.4l.4-.23c.07-.04.14-.05.22-.05.16,0,.32.11.4.23.16.31.25.7.25,1.1,0,1.17-.54,1.96-1.15,2.43-.09.07-.23.13-.38.13-.13,0-.23-.04-.32-.13Z"/>
          <path d="M106.77,173.49c.14-.18.32-.25.5-.25.14,0,.29.04.41.13.61.42,1.22.63,1.87.63.76,0,1.44-.38,1.44-1.12,0-1.64-4.38-.83-4.38-3.8,0-1.42,1.15-2.29,2.75-2.29,1.03,0,1.71.27,2.3.61.18.11.29.29.29.5,0,.11-.04.23-.11.34-.13.2-.32.29-.54.29-.13,0-.23-.02-.36-.09-.45-.23-.9-.4-1.51-.4-.81,0-1.3.47-1.3,1.01,0,1.71,4.38.9,4.38,3.75,0,1.71-1.51,2.45-3.13,2.45-1.08,0-1.84-.32-2.54-.86-.14-.11-.23-.31-.23-.5,0-.14.05-.29.14-.4Z"/>
          <path d="M120.06,174.52c0,.38-.31.68-.72.68s-.72-.31-.72-.68v-6.95c0-.38.31-.68.72-.68s.72.31.72.68v.4c.56-.61,1.58-1.13,2.65-1.13,2.11,0,3.37,1.03,3.37,3.56v4.12c0,.38-.31.68-.72.68s-.72-.31-.72-.68v-3.85c0-1.69-.77-2.49-2.29-2.49-.92,0-1.76.45-2.29,1.04v5.29Z"/>
          <path d="M132.44,166.79c2.59,0,4.32,1.8,4.32,4.23s-1.73,4.23-4.32,4.23-4.32-1.8-4.32-4.23,1.73-4.23,4.32-4.23ZM132.44,173.91c1.62,0,2.79-1.15,2.79-2.88s-1.17-2.88-2.79-2.88-2.79,1.17-2.79,2.88,1.17,2.88,2.79,2.88Z"/>
          <path d="M142.67,173.65c.32,0,.61.22.61.59,0,.22-.11.41-.38.58-.47.29-1.04.4-1.73.4-1.82,0-2.54-1.15-2.54-3.22v-6.59c0-.38.31-.68.72-.68s.72.31.72.68v1.57h2.29c.38,0,.68.31.68.67,0,.38-.31.68-.68.68h-2.29v3.53c0,1.28.41,2.02,1.44,2.02.47,0,.88-.22,1.15-.22Z"/>
          <path d="M150.03,161.95c.11.11.16.22.16.34,0,.11-.05.23-.16.36-.34.38-.5.88-.5,1.42,0,.25.05.49.13.67.04.11.07.2.07.29,0,.16-.09.27-.29.4l-.4.23c-.09.05-.16.07-.23.07-.16,0-.31-.11-.36-.23-.16-.32-.27-.7-.27-1.1,0-1.19.54-1.98,1.15-2.45.09-.07.23-.11.38-.11.13,0,.25.04.32.11ZM152.64,161.95c.11.11.16.22.16.34,0,.11-.05.23-.16.36-.34.38-.5.88-.5,1.42,0,.25.05.49.13.67.04.11.07.2.07.29,0,.16-.09.27-.29.4l-.4.23c-.09.05-.16.07-.23.07-.16,0-.31-.11-.36-.23-.16-.32-.27-.7-.27-1.1,0-1.19.54-1.98,1.15-2.45.09-.07.23-.11.38-.11.13,0,.25.04.32.11Z"/>
          <path d="M162.27,174.52c0,.38-.31.68-.72.68s-.72-.31-.72-.68v-.47c-.59.65-1.48,1.17-2.57,1.17-2.38,0-3.91-1.64-3.91-4.14s1.87-4.29,4.43-4.29c.86,0,1.49.18,2.05.58v-4.21c0-.38.31-.68.72-.68s.72.31.72.68v11.36ZM160.83,168.77c-.68-.43-1.33-.63-2-.63-1.6,0-2.95,1.12-2.95,2.9s1.13,2.83,2.65,2.83c.94,0,1.8-.52,2.3-1.08v-4.01Z"/>
          <path d="M172.24,170.9c-.02.29-.32.58-.61.58h-5.69c.13,1.53,1.24,2.43,2.83,2.43.81,0,1.42-.16,1.98-.49.13-.07.27-.11.4-.11.18,0,.34.07.49.23.07.09.11.2.11.32,0,.2-.07.4-.22.49-.92.65-1.85.9-2.86.9-2.63,0-4.34-1.67-4.34-4.23,0-2.36,1.51-4.23,4.18-4.23,2.09,0,3.76,1.48,3.76,3.71,0,.14,0,.27-.02.4ZM168.42,168.14c-1.48,0-2.41.92-2.57,2.16h4.92c-.07-1.33-.94-2.16-2.34-2.16Z"/>
          <path d="M173.89,173.49c.14-.18.32-.25.5-.25.14,0,.29.04.41.13.61.42,1.22.63,1.87.63.76,0,1.44-.38,1.44-1.12,0-1.64-4.38-.83-4.38-3.8,0-1.42,1.15-2.29,2.75-2.29,1.03,0,1.71.27,2.3.61.18.11.29.29.29.5,0,.11-.04.23-.11.34-.13.2-.32.29-.54.29-.13,0-.23-.02-.36-.09-.45-.23-.9-.4-1.51-.4-.81,0-1.3.47-1.3,1.01,0,1.71,4.38.9,4.38,3.75,0,1.71-1.51,2.45-3.13,2.45-1.08,0-1.84-.32-2.54-.86-.14-.11-.23-.31-.23-.5,0-.14.05-.29.14-.4Z"/>
          <path d="M182.84,163.07c.45,0,.88.34.88.86,0,.59-.43.94-.88.94-.5,0-.94-.34-.94-.94,0-.52.43-.86.94-.86ZM183.52,174.52c0,.38-.31.68-.72.68s-.72-.31-.72-.68v-6.95c0-.38.31-.68.72-.68s.72.31.72.68v6.95Z"/>
          <path d="M189.52,173.63c2.36,0,4.12.85,4.12,2.61s-1.76,2.58-4.12,2.58-4.12-.81-4.12-2.58c0-1.31,1.04-2.14,2.59-2.47-.14-.18-.2-.43-.2-.67,0-.25.07-.5.22-.68-1.15-.47-1.82-1.48-1.82-2.67,0-1.62,1.28-2.97,3.31-2.97.79,0,1.49.22,2.05.59l1.82-.43c.05-.02.09-.02.14-.02.25,0,.49.18.54.43.02.04.02.09.02.13,0,.25-.18.5-.45.58l-1.19.29c.25.41.38.9.38,1.4,0,1.62-1.31,2.92-3.31,2.92-.18,0-.36,0-.54-.02-.07.14-.09.31-.09.45,0,.2.05.4.16.54.16,0,.32-.02.49-.02ZM189.52,177.65c1.67,0,2.77-.49,2.77-1.41s-1.04-1.44-2.77-1.44-2.77.54-2.77,1.44,1.1,1.41,2.77,1.41ZM189.5,171.51c1.13,0,1.96-.7,1.96-1.75s-.76-1.8-1.96-1.8-1.96.79-1.96,1.8.77,1.75,1.96,1.75Z"/>
          <path d="M196.99,174.52c0,.38-.31.68-.72.68s-.72-.31-.72-.68v-6.95c0-.38.31-.68.72-.68s.72.31.72.68v.4c.56-.61,1.58-1.13,2.65-1.13,2.11,0,3.37,1.03,3.37,3.56v4.12c0,.38-.31.68-.72.68s-.72-.31-.72-.68v-3.85c0-1.69-.77-2.49-2.29-2.49-.92,0-1.76.45-2.29,1.04v5.29Z"/>
          <path d="M212.13,170.12c.63,0,1.48.13,2.02.52,0-1.51-.23-2.56-1.84-2.56-.59,0-1.06.11-1.62.32-.09.04-.18.05-.27.05-.23,0-.45-.13-.56-.36-.04-.09-.05-.16-.05-.25,0-.25.14-.49.36-.58.83-.34,1.57-.49,2.23-.49,2.3,0,3.11,1.21,3.11,3.31v4.47c0,.34-.29.63-.68.63s-.68-.29-.68-.63v-.54c-.49.61-1.26,1.17-2.59,1.17-1.48,0-2.48-.94-2.48-2.5,0-1.66,1.31-2.57,3.06-2.57ZM214.14,171.83c-.5-.36-1.12-.54-1.82-.54-.86,0-1.73.4-1.73,1.33,0,.77.52,1.28,1.46,1.28,1.06,0,1.67-.56,2.09-1.04v-1.03Z"/>
          <path d="M225.73,168.14c-1.46,0-2.77,1.17-2.77,2.88s1.31,2.88,2.92,2.88c.65,0,1.21-.16,1.73-.56.18-.14.36-.23.56-.23.14,0,.29.05.41.18.14.13.2.29.2.45,0,.18-.07.36-.2.47-.9.81-1.8,1.04-2.81,1.04-2.58,0-4.34-1.67-4.34-4.23,0-2.36,1.73-4.23,4.1-4.23,1.06,0,1.84.18,2.63.63.23.13.38.36.38.61,0,.11-.02.22-.09.32-.13.22-.36.32-.59.32-.11,0-.23-.02-.34-.07-.58-.31-1.13-.47-1.78-.47Z"/>
          <path d="M232,174.52c0,.38-.31.68-.72.68s-.72-.31-.72-.68v-11.36c0-.38.31-.68.72-.68s.72.31.72.68v4.75c.59-.61,1.62-1.08,2.65-1.08,2.11,0,3.37,1.06,3.37,3.6v4.09c0,.38-.31.68-.72.68s-.72-.31-.72-.68v-3.89c0-1.62-.77-2.45-2.27-2.45-.9,0-1.8.45-2.3,1.03v5.31Z"/>
          <path d="M243.09,170.12c.63,0,1.48.13,2.02.52,0-1.51-.23-2.56-1.84-2.56-.59,0-1.06.11-1.62.32-.09.04-.18.05-.27.05-.23,0-.45-.13-.56-.36-.04-.09-.05-.16-.05-.25,0-.25.14-.49.36-.58.83-.34,1.57-.49,2.23-.49,2.3,0,3.11,1.21,3.11,3.31v4.47c0,.34-.29.63-.68.63s-.68-.29-.68-.63v-.54c-.49.61-1.26,1.17-2.59,1.17-1.48,0-2.48-.94-2.48-2.5,0-1.66,1.31-2.57,3.06-2.57ZM245.1,171.83c-.5-.36-1.12-.54-1.82-.54-.86,0-1.73.4-1.73,1.33,0,.77.52,1.28,1.46,1.28,1.06,0,1.67-.56,2.09-1.04v-1.03Z"/>
          <path d="M250.03,163.07c.45,0,.88.34.88.86,0,.59-.43.94-.88.94-.5,0-.94-.34-.94-.94,0-.52.43-.86.94-.86ZM250.72,174.52c0,.38-.31.68-.72.68s-.72-.31-.72-.68v-6.95c0-.38.31-.68.72-.68s.72.31.72.68v6.95Z"/>
          <path d="M255.15,174.48c0,.4-.32.72-.72.72s-.72-.32-.72-.72v-6.88c0-.4.32-.72.72-.72s.72.32.72.72v.32c.41-.61,1.01-1.1,2.03-1.1.29,0,.52.05.74.11.29.09.52.27.52.58,0,.07-.02.14-.04.23-.11.36-.34.5-.72.5-.11,0-.23-.02-.36-.04-.16-.04-.32-.04-.49-.04-.94,0-1.39.56-1.69,1.15v5.15Z"/>
          <path d="M260.46,173.15c.56,0,.95.49.95.95,0,.54-.4,1.03-.95,1.03-.63,0-1.03-.49-1.03-1.03,0-.47.4-.95,1.03-.95Z"/>
          <path d="M262.09,165.66c-.11-.11-.16-.22-.16-.34,0-.11.05-.23.16-.34.34-.4.5-.9.5-1.44,0-.25-.05-.49-.13-.67-.04-.11-.07-.2-.07-.29,0-.16.09-.27.29-.4l.4-.23c.07-.04.14-.05.22-.05.16,0,.32.11.4.23.16.31.25.7.25,1.1,0,1.17-.54,1.96-1.15,2.43-.09.07-.23.13-.38.13-.13,0-.23-.04-.32-.13ZM264.7,165.66c-.11-.11-.16-.22-.16-.34,0-.11.05-.23.16-.34.34-.4.5-.9.5-1.44,0-.25-.05-.49-.13-.67-.04-.11-.07-.2-.07-.29,0-.16.09-.27.29-.4l.4-.23c.07-.04.14-.05.22-.05.16,0,.32.11.4.23.16.31.25.7.25,1.1,0,1.17-.54,1.96-1.15,2.43-.09.07-.23.13-.38.13-.13,0-.23-.04-.32-.13Z"/>
          <path d="M34.96,193.98c.41,0,.76.34.76.74v11.33c0,.41-.34.76-.76.76s-.77-.34-.77-.76v-11.33c0-.4.34-.74.77-.74Z"/>
          <path d="M43.11,205.25c.32,0,.61.22.61.59,0,.22-.11.41-.38.58-.47.29-1.04.4-1.73.4-1.82,0-2.54-1.15-2.54-3.22v-6.59c0-.38.31-.68.72-.68s.72.31.72.68v1.57h2.29c.38,0,.68.31.68.67,0,.38-.31.68-.68.68h-2.29v3.53c0,1.28.41,2.02,1.44,2.02.47,0,.88-.22,1.15-.22Z"/>
          <path d="M45.11,197.26c-.11-.11-.16-.22-.16-.34,0-.11.05-.23.16-.34.34-.4.5-.9.5-1.44,0-.25-.05-.49-.13-.67-.04-.11-.07-.2-.07-.29,0-.16.09-.27.29-.4l.4-.23c.07-.04.14-.05.22-.05.16,0,.32.11.4.23.16.31.25.7.25,1.1,0,1.17-.54,1.96-1.15,2.43-.09.07-.23.13-.38.13-.13,0-.23-.04-.32-.13Z"/>
          <path d="M49.01,205.09c.14-.18.32-.25.5-.25.14,0,.29.04.41.13.61.42,1.22.63,1.87.63.76,0,1.44-.38,1.44-1.12,0-1.64-4.38-.83-4.38-3.8,0-1.42,1.15-2.29,2.75-2.29,1.03,0,1.71.27,2.3.61.18.11.29.29.29.5,0,.11-.04.23-.11.34-.13.2-.32.29-.54.29-.13,0-.23-.02-.36-.09-.45-.23-.9-.4-1.51-.4-.81,0-1.3.47-1.3,1.01,0,1.71,4.38.9,4.38,3.75,0,1.71-1.51,2.45-3.13,2.45-1.08,0-1.84-.32-2.54-.86-.14-.11-.23-.31-.23-.5,0-.14.05-.29.14-.4Z"/>
          <path d="M61.83,193.55c.11.11.16.22.16.34,0,.11-.05.23-.16.36-.34.38-.5.88-.5,1.42,0,.25.05.49.13.67.04.11.07.2.07.29,0,.16-.09.27-.29.4l-.4.23c-.09.05-.16.07-.23.07-.16,0-.31-.11-.36-.23-.16-.32-.27-.7-.27-1.1,0-1.19.54-1.98,1.15-2.45.09-.07.23-.11.38-.11.13,0,.25.04.32.11ZM64.44,193.55c.11.11.16.22.16.34,0,.11-.05.23-.16.36-.34.38-.5.88-.5,1.42,0,.25.05.49.13.67.04.11.07.2.07.29,0,.16-.09.27-.29.4l-.4.23c-.09.05-.16.07-.23.07-.16,0-.31-.11-.36-.23-.16-.32-.27-.7-.27-1.1,0-1.19.54-1.98,1.15-2.45.09-.07.23-.11.38-.11.13,0,.25.04.32.11Z"/>
          <path d="M70.24,199.74c-1.46,0-2.77,1.17-2.77,2.88s1.31,2.88,2.92,2.88c.65,0,1.21-.16,1.73-.56.18-.14.36-.23.56-.23.14,0,.29.05.41.18.14.13.2.29.2.45,0,.18-.07.36-.2.47-.9.81-1.8,1.04-2.81,1.04-2.57,0-4.34-1.67-4.34-4.23,0-2.36,1.73-4.23,4.1-4.23,1.06,0,1.84.18,2.63.63.23.13.38.36.38.61,0,.11-.02.22-.09.32-.13.22-.36.32-.59.32-.11,0-.23-.02-.34-.07-.58-.31-1.13-.47-1.78-.47Z"/>
          <path d="M76.5,206.08c0,.4-.32.72-.72.72s-.72-.32-.72-.72v-6.88c0-.4.32-.72.72-.72s.72.32.72.72v.32c.41-.61,1.01-1.1,2.03-1.1.29,0,.52.05.74.11.29.09.52.27.52.58,0,.07-.02.14-.04.23-.11.36-.34.5-.72.5-.11,0-.23-.02-.36-.04-.16-.04-.32-.04-.49-.04-.94,0-1.39.56-1.69,1.15v5.15Z"/>
          <path d="M88.56,202.5c-.02.29-.32.58-.61.58h-5.69c.13,1.53,1.24,2.43,2.83,2.43.81,0,1.42-.16,1.98-.49.13-.07.27-.11.4-.11.18,0,.34.07.49.23.07.09.11.2.11.32,0,.2-.07.4-.22.49-.92.65-1.85.9-2.86.9-2.63,0-4.34-1.67-4.34-4.23,0-2.36,1.51-4.23,4.18-4.23,2.09,0,3.76,1.48,3.76,3.71,0,.14,0,.27-.02.4ZM84.74,199.74c-1.48,0-2.41.92-2.57,2.16h4.92c-.07-1.33-.94-2.16-2.34-2.16Z"/>
          <path d="M93.11,201.72c.63,0,1.48.13,2.02.52,0-1.51-.23-2.56-1.84-2.56-.59,0-1.06.11-1.62.32-.09.04-.18.05-.27.05-.23,0-.45-.13-.56-.36-.04-.09-.05-.16-.05-.25,0-.25.14-.49.36-.58.83-.34,1.57-.49,2.23-.49,2.3,0,3.11,1.21,3.11,3.31v4.47c0,.34-.29.63-.68.63s-.68-.29-.68-.63v-.54c-.49.61-1.26,1.17-2.59,1.17-1.48,0-2.48-.94-2.48-2.5,0-1.66,1.31-2.57,3.06-2.57ZM95.13,203.43c-.5-.36-1.12-.54-1.82-.54-.86,0-1.73.4-1.73,1.33,0,.77.52,1.28,1.46,1.28,1.06,0,1.67-.56,2.09-1.04v-1.03Z"/>
          <path d="M102.76,205.25c.32,0,.61.22.61.59,0,.22-.11.41-.38.58-.47.29-1.04.4-1.73.4-1.82,0-2.54-1.15-2.54-3.22v-6.59c0-.38.31-.68.72-.68s.72.31.72.68v1.57h2.29c.38,0,.68.31.68.67,0,.38-.31.68-.68.68h-2.29v3.53c0,1.28.41,2.02,1.44,2.02.47,0,.88-.22,1.15-.22Z"/>
          <path d="M112.16,202.5c-.02.29-.32.58-.61.58h-5.69c.13,1.53,1.24,2.43,2.83,2.43.81,0,1.42-.16,1.98-.49.13-.07.27-.11.4-.11.18,0,.34.07.49.23.07.09.11.2.11.32,0,.2-.07.4-.22.49-.92.65-1.85.9-2.86.9-2.63,0-4.34-1.67-4.34-4.23,0-2.36,1.51-4.23,4.18-4.23,2.09,0,3.76,1.48,3.76,3.71,0,.14,0,.27-.02.4ZM108.34,199.74c-1.48,0-2.41.92-2.57,2.16h4.92c-.07-1.33-.94-2.16-2.34-2.16Z"/>
          <path d="M120.76,201.72c.63,0,1.48.13,2.02.52,0-1.51-.23-2.56-1.84-2.56-.59,0-1.06.11-1.62.32-.09.04-.18.05-.27.05-.23,0-.45-.13-.56-.36-.04-.09-.05-.16-.05-.25,0-.25.14-.49.36-.58.83-.34,1.57-.49,2.23-.49,2.3,0,3.11,1.21,3.11,3.31v4.47c0,.34-.29.63-.68.63s-.68-.29-.68-.63v-.54c-.49.61-1.26,1.17-2.59,1.17-1.48,0-2.48-.94-2.48-2.5,0-1.66,1.31-2.57,3.06-2.57ZM122.78,203.43c-.5-.36-1.12-.54-1.82-.54-.86,0-1.73.4-1.73,1.33,0,.77.52,1.28,1.46,1.28,1.06,0,1.67-.56,2.09-1.04v-1.03Z"/>
          <path d="M138.46,204.84c.09-.41.2-.83.32-1.24l1.33-4.57c.09-.31.36-.54.68-.54.45,0,.7.31.7.65,0,.07-.02.14-.04.22l-2.18,6.88c-.11.36-.4.58-.79.58s-.7-.22-.83-.56l-1.82-4.77c-.13-.32-.22-.65-.31-.99-.11.38-.2.7-.34,1.04l-1.76,4.7c-.14.4-.41.58-.79.58s-.63-.18-.76-.58l-2.25-6.81c-.02-.07-.04-.16-.04-.23,0-.38.32-.7.74-.7.36,0,.61.22.7.52l1.46,4.68c.13.4.2.76.31,1.13.11-.36.18-.68.34-1.13l1.66-4.59c.14-.4.4-.61.81-.61s.65.22.79.61l1.67,4.57c.14.38.25.77.38,1.17Z"/>
          <path d="M145.56,201.72c.63,0,1.48.13,2.02.52,0-1.51-.23-2.56-1.84-2.56-.59,0-1.06.11-1.62.32-.09.04-.18.05-.27.05-.23,0-.45-.13-.56-.36-.04-.09-.05-.16-.05-.25,0-.25.14-.49.36-.58.83-.34,1.57-.49,2.23-.49,2.3,0,3.11,1.21,3.11,3.31v4.47c0,.34-.29.63-.68.63s-.68-.29-.68-.63v-.54c-.49.61-1.26,1.17-2.59,1.17-1.48,0-2.48-.94-2.48-2.5,0-1.66,1.31-2.57,3.06-2.57ZM147.58,203.43c-.5-.36-1.12-.54-1.82-.54-.86,0-1.73.4-1.73,1.33,0,.77.52,1.28,1.46,1.28,1.06,0,1.67-.56,2.09-1.04v-1.03Z"/>
          <path d="M154.67,204.95c.11-.4.23-.81.38-1.24l1.71-4.66c.09-.29.32-.56.7-.56.52,0,.79.32.79.7,0,.11-.04.23-.07.34l-2.86,7.15c-1.17,2.92-1.94,3.6-3.1,3.6-.65,0-1.44-.16-1.44-.85,0-.36.22-.58.58-.58.2,0,.4.09.7.09.68,0,1.19-.54,1.73-1.84l.18-.43-3.4-7.09c-.05-.11-.07-.23-.07-.34,0-.4.31-.76.79-.76.29,0,.56.18.68.45l2.21,4.79c.2.41.32.81.49,1.22Z"/>
          <path d="M167.88,205.25c.32,0,.61.22.61.59,0,.22-.11.41-.38.58-.47.29-1.04.4-1.73.4-1.82,0-2.54-1.15-2.54-3.22v-6.59c0-.38.31-.68.72-.68s.72.31.72.68v1.57h2.29c.38,0,.68.31.68.67,0,.38-.31.68-.68.68h-2.29v3.53c0,1.28.41,2.02,1.44,2.02.47,0,.88-.22,1.15-.22Z"/>
          <path d="M173.68,198.39c2.59,0,4.32,1.8,4.32,4.23s-1.73,4.23-4.32,4.23-4.32-1.8-4.32-4.23,1.73-4.23,4.32-4.23ZM173.68,205.5c1.62,0,2.79-1.15,2.79-2.88s-1.17-2.88-2.79-2.88-2.79,1.17-2.79,2.88,1.17,2.88,2.79,2.88Z"/>
          <path d="M183.69,205.09c.14-.18.32-.25.5-.25.14,0,.29.04.41.13.61.42,1.22.63,1.87.63.76,0,1.44-.38,1.44-1.12,0-1.64-4.38-.83-4.38-3.8,0-1.42,1.15-2.29,2.75-2.29,1.03,0,1.71.27,2.3.61.18.11.29.29.29.5,0,.11-.04.23-.11.34-.13.2-.32.29-.54.29-.13,0-.23-.02-.36-.09-.45-.23-.9-.4-1.51-.4-.81,0-1.3.47-1.3,1.01,0,1.71,4.38.9,4.38,3.75,0,1.71-1.51,2.45-3.13,2.45-1.08,0-1.84-.32-2.54-.86-.14-.11-.23-.31-.23-.5,0-.14.05-.29.14-.4Z"/>
          <path d="M197.15,199.17c0-.38.31-.68.72-.68s.72.31.72.68v6.95c0,.38-.31.68-.72.68s-.72-.31-.72-.68v-.59c-.56.68-1.58,1.33-2.86,1.33-1.8,0-2.99-1.08-2.99-3.46v-4.23c0-.38.31-.68.72-.68s.72.31.72.68v3.91c0,1.53.61,2.43,2.09,2.43.94,0,1.82-.56,2.32-1.21v-5.13Z"/>
          <path d="M200.79,205.09c.14-.18.32-.25.5-.25.14,0,.29.04.41.13.61.42,1.22.63,1.87.63.76,0,1.44-.38,1.44-1.12,0-1.64-4.38-.83-4.38-3.8,0-1.42,1.15-2.29,2.75-2.29,1.03,0,1.71.27,2.3.61.18.11.29.29.29.5,0,.11-.04.23-.11.34-.13.2-.32.29-.54.29-.13,0-.23-.02-.36-.09-.45-.23-.9-.4-1.51-.4-.81,0-1.3.47-1.3,1.01,0,1.71,4.38.9,4.38,3.75,0,1.71-1.51,2.45-3.13,2.45-1.08,0-1.84-.32-2.54-.86-.14-.11-.23-.31-.23-.5,0-.14.05-.29.14-.4Z"/>
          <path d="M210.02,209.59c0,.38-.31.68-.72.68s-.72-.31-.72-.68v-10.42c0-.38.31-.68.72-.68s.72.31.72.68v.36c.56-.65,1.64-1.13,2.75-1.13,2.3,0,3.75,1.71,3.75,4.11s-1.67,4.36-4.21,4.36c-.86,0-1.71-.18-2.29-.56v3.29ZM210.02,204.87c.72.49,1.39.63,2.16.63,1.73,0,2.81-1.24,2.81-2.95s-.95-2.81-2.63-2.81c-.95,0-1.84.49-2.34,1.12v4.01Z"/>
          <path d="M225.97,202.5c-.02.29-.32.58-.61.58h-5.69c.13,1.53,1.24,2.43,2.83,2.43.81,0,1.42-.16,1.98-.49.13-.07.27-.11.4-.11.18,0,.34.07.49.23.07.09.11.2.11.32,0,.2-.07.4-.22.49-.92.65-1.85.9-2.86.9-2.63,0-4.34-1.67-4.34-4.23,0-2.36,1.51-4.23,4.18-4.23,2.09,0,3.76,1.48,3.76,3.71,0,.14,0,.27-.02.4ZM222.15,199.74c-1.48,0-2.41.92-2.57,2.16h4.92c-.07-1.33-.94-2.16-2.34-2.16Z"/>
          <path d="M229.48,206.12c0,.38-.31.68-.72.68s-.72-.31-.72-.68v-6.95c0-.38.31-.68.72-.68s.72.31.72.68v.4c.56-.61,1.58-1.13,2.65-1.13,2.11,0,3.37,1.03,3.37,3.56v4.12c0,.38-.31.68-.72.68s-.72-.31-.72-.68v-3.85c0-1.69-.77-2.49-2.29-2.49-.92,0-1.76.45-2.29,1.04v5.29Z"/>
          <path d="M245.46,206.12c0,.38-.31.68-.72.68s-.72-.31-.72-.68v-.47c-.59.65-1.48,1.17-2.57,1.17-2.38,0-3.91-1.64-3.91-4.14s1.87-4.29,4.43-4.29c.86,0,1.49.18,2.05.58v-4.21c0-.38.31-.68.72-.68s.72.31.72.68v11.36ZM244.02,200.37c-.68-.43-1.33-.63-2-.63-1.6,0-2.95,1.12-2.95,2.9s1.13,2.83,2.65,2.83c.94,0,1.8-.52,2.3-1.08v-4.01Z"/>
          <path d="M254.59,201.72c.63,0,1.48.13,2.02.52,0-1.51-.23-2.56-1.84-2.56-.59,0-1.06.11-1.62.32-.09.04-.18.05-.27.05-.23,0-.45-.13-.56-.36-.04-.09-.05-.16-.05-.25,0-.25.14-.49.36-.58.83-.34,1.57-.49,2.23-.49,2.3,0,3.11,1.21,3.11,3.31v4.47c0,.34-.29.63-.68.63s-.68-.29-.68-.63v-.54c-.49.61-1.26,1.17-2.59,1.17-1.48,0-2.48-.94-2.48-2.5,0-1.66,1.31-2.57,3.06-2.57ZM256.6,203.43c-.5-.36-1.12-.54-1.82-.54-.86,0-1.73.4-1.73,1.33,0,.77.52,1.28,1.46,1.28,1.06,0,1.67-.56,2.09-1.04v-1.03Z"/>
          <path d="M265.87,209.59c0,.38-.31.68-.72.68s-.72-.31-.72-.68v-10.42c0-.38.31-.68.72-.68s.72.31.72.68v.36c.56-.65,1.64-1.13,2.75-1.13,2.3,0,3.75,1.71,3.75,4.11s-1.67,4.36-4.21,4.36c-.86,0-1.71-.18-2.29-.56v3.29ZM265.87,204.87c.72.49,1.39.63,2.16.63,1.73,0,2.81-1.24,2.81-2.95s-.95-2.81-2.63-2.81c-.95,0-1.84.49-2.34,1.12v4.01Z"/>
          <path d="M281.82,202.5c-.02.29-.32.58-.61.58h-5.69c.13,1.53,1.24,2.43,2.83,2.43.81,0,1.42-.16,1.98-.49.13-.07.27-.11.4-.11.18,0,.34.07.49.23.07.09.11.2.11.32,0,.2-.07.4-.22.49-.92.65-1.85.9-2.86.9-2.63,0-4.34-1.67-4.34-4.23,0-2.36,1.51-4.23,4.18-4.23,2.09,0,3.76,1.48,3.76,3.71,0,.14,0,.27-.02.4ZM278.01,199.74c-1.48,0-2.41.92-2.57,2.16h4.92c-.07-1.33-.94-2.16-2.34-2.16Z"/>
          <path d="M285.33,206.08c0,.4-.32.72-.72.72s-.72-.32-.72-.72v-6.88c0-.4.32-.72.72-.72s.72.32.72.72v.32c.41-.61,1.01-1.1,2.03-1.1.29,0,.52.05.74.11.29.09.52.27.52.58,0,.07-.02.14-.04.23-.11.36-.34.5-.72.5-.11,0-.23-.02-.36-.04-.16-.04-.32-.04-.49-.04-.94,0-1.39.56-1.69,1.15v5.15Z"/>
          <path d="M289.6,205.09c.14-.18.32-.25.5-.25.14,0,.29.04.41.13.61.42,1.22.63,1.87.63.76,0,1.44-.38,1.44-1.12,0-1.64-4.38-.83-4.38-3.8,0-1.42,1.15-2.29,2.75-2.29,1.03,0,1.71.27,2.3.61.18.11.29.29.29.5,0,.11-.04.23-.11.34-.13.2-.32.29-.54.29-.13,0-.23-.02-.36-.09-.45-.23-.9-.4-1.51-.4-.81,0-1.3.47-1.3,1.01,0,1.71,4.38.9,4.38,3.75,0,1.71-1.51,2.45-3.13,2.45-1.08,0-1.84-.32-2.54-.86-.14-.11-.23-.31-.23-.5,0-.14.05-.29.14-.4Z"/>
          <path d="M301.17,198.39c2.59,0,4.32,1.8,4.32,4.23s-1.73,4.23-4.32,4.23-4.32-1.8-4.32-4.23,1.73-4.23,4.32-4.23ZM301.17,205.5c1.62,0,2.79-1.15,2.79-2.88s-1.17-2.88-2.79-2.88-2.79,1.17-2.79,2.88,1.17,2.88,2.79,2.88Z"/>
          <path d="M308.98,206.12c0,.38-.31.68-.72.68s-.72-.31-.72-.68v-6.95c0-.38.31-.68.72-.68s.72.31.72.68v.4c.56-.61,1.58-1.13,2.65-1.13,2.11,0,3.37,1.03,3.37,3.56v4.12c0,.38-.31.68-.72.68s-.72-.31-.72-.68v-3.85c0-1.69-.77-2.49-2.29-2.49-.92,0-1.76.45-2.29,1.04v5.29Z"/>
          <path d="M318.22,204.75c.56,0,.95.49.95.95,0,.54-.4,1.03-.95,1.03-.63,0-1.03-.49-1.03-1.03,0-.47.4-.95,1.03-.95Z"/>
          <path d="M319.85,197.26c-.11-.11-.16-.22-.16-.34,0-.11.05-.23.16-.34.34-.4.5-.9.5-1.44,0-.25-.05-.49-.13-.67-.04-.11-.07-.2-.07-.29,0-.16.09-.27.29-.4l.4-.23c.07-.04.14-.05.22-.05.16,0,.32.11.4.23.16.31.25.7.25,1.1,0,1.17-.54,1.96-1.15,2.43-.09.07-.23.13-.38.13-.13,0-.23-.04-.32-.13ZM322.46,197.26c-.11-.11-.16-.22-.16-.34,0-.11.05-.23.16-.34.34-.4.5-.9.5-1.44,0-.25-.05-.49-.13-.67-.04-.11-.07-.2-.07-.29,0-.16.09-.27.29-.4l.4-.23c.07-.04.14-.05.22-.05.16,0,.32.11.4.23.16.31.25.7.25,1.1,0,1.17-.54,1.96-1.15,2.43-.09.07-.23.13-.38.13-.13,0-.23-.04-.32-.13Z"/>
        </g>
      </g>
    </g>
  </g>
</svg>