<?xml version="1.0" encoding="UTF-8"?>
<svg id="Layer_2" xmlns="http://www.w3.org/2000/svg" viewBox="0 0 241.5 149.99">
  <g id="Layer_2-2" data-name="Layer_2">
    <g>
      <path d="M49.32,127.85c.48,1.34.72,2.74.72,4.17,0,6.84-5.56,12.4-12.4,12.4s-12.4-5.56-12.4-12.4c0-1.43.24-2.83.72-4.17h-.92c-.1,0-.2-.01-.3-.03-.44,1.35-.67,2.76-.67,4.2,0,7.48,6.09,13.56,13.57,13.56s13.57-6.08,13.57-13.56c0-1.44-.22-2.85-.67-4.2-.1.02-.2.03-.3.03h-.92,0Z"/>
      <path d="M25.56,126.69h-.52c-.07,0-.12-.03-.16-.09-.04-.06-.04-.12-.02-.18.71-1.61,1.71-3.06,2.97-4.31,2.19-2.16,3.55-4.56,4.3-7.54.13-.51.25-1.01.37-1.5.17-.7.34-1.37.5-2.02h9.28c.17.65.33,1.31.5,2.01.12.49.24,1,.37,1.5.75,2.98,2.12,5.38,4.3,7.54,1.26,1.24,2.26,2.69,2.97,4.31.03.07.03.12-.02.18-.04.06-.09.09-.16.09h-24.69,0ZM48.28,121.28c-2.03-2.01-3.3-4.23-3.99-7-.13-.5-.25-1-.37-1.5-.21-.86-.41-1.68-.62-2.47-.07-.26-.3-.44-.56-.44h-10.18c-.27,0-.5.18-.56.44-.21.79-.41,1.61-.62,2.47-.12.49-.24.99-.37,1.49-.69,2.77-1.96,4.99-3.99,7-1.36,1.35-2.44,2.92-3.21,4.67-.19.43-.15.9.11,1.29.2.31.5.51.84.59.1.02.2.03.3.03h25.2c.1,0,.2-.01.3-.03.34-.07.64-.28.84-.58.26-.39.29-.86.11-1.29-.77-1.75-1.85-3.32-3.21-4.67h0Z"/>
      <path d="M37.64,99.96c-.3,0-.55-.23-.58-.53-1.3.25-2.31,1.3-2.5,2.61-.02.12.01.22.09.31.08.09.18.13.29.13h5.39c.12,0,.22-.05.29-.13.08-.09.11-.19.09-.31-.19-1.32-1.2-2.37-2.5-2.61-.03.3-.28.53-.58.53h0Z"/>
      <path d="M32.47,106.61h10.35c.64,0,1.17.52,1.17,1.17s-.52,1.17-1.17,1.17h-10.35c-.64,0-1.17-.52-1.17-1.17s.52-1.17,1.17-1.17h0Z"/>
      <path d="M32.47,103.38h10.35c.64,0,1.17.52,1.17,1.17s-.52,1.17-1.17,1.17h-10.35c-.64,0-1.17-.52-1.17-1.17s.52-1.17,1.17-1.17Z"/>
      <path d="M37.06,99.43c.03.3.28.53.58.53s.55-.23.58-.53c0-.02,0-.04,0-.05V0h-1.17v99.38s0,.04,0,.05h0Z"/>
      <path d="M217.47,109.49c.48,1.34.72,2.74.72,4.17,0,6.84-5.56,12.4-12.4,12.4s-12.4-5.56-12.4-12.4c0-1.43.24-2.83.72-4.17h-.92c-.1,0-.2-.01-.3-.03-.44,1.35-.67,2.76-.67,4.2,0,7.48,6.09,13.56,13.57,13.56s13.57-6.08,13.57-13.56c0-1.44-.22-2.85-.67-4.2-.1.02-.2.03-.3.03h-.92,0Z"/>
      <path d="M193.71,108.32h-.52c-.07,0-.12-.03-.16-.09-.04-.06-.04-.12-.02-.18.71-1.61,1.71-3.06,2.97-4.31,2.19-2.16,3.55-4.56,4.3-7.54.13-.51.25-1.01.37-1.5.17-.7.34-1.37.5-2.01h9.28c.17.65.33,1.31.5,2.01.12.49.24,1,.37,1.5.75,2.98,2.12,5.38,4.3,7.54,1.26,1.24,2.26,2.69,2.97,4.31.03.07.03.12-.02.18-.04.06-.09.09-.16.09h-24.69,0ZM216.43,102.91c-2.03-2.01-3.3-4.23-3.99-7-.13-.5-.25-1-.37-1.5-.21-.86-.41-1.68-.62-2.47-.07-.26-.3-.44-.56-.44h-10.18c-.27,0-.5.18-.56.44-.21.79-.41,1.6-.62,2.47-.12.49-.24.99-.37,1.5-.69,2.77-1.96,4.99-3.99,7-1.36,1.35-2.44,2.92-3.21,4.67-.19.43-.15.9.11,1.29.2.31.5.51.84.59.1.02.2.03.3.03h25.2c.1,0,.2-.01.3-.03.34-.07.64-.28.84-.58.26-.39.3-.86.11-1.29-.77-1.75-1.85-3.32-3.21-4.67h0Z"/>
      <path d="M205.79,81.6c-.3,0-.55-.23-.58-.53-1.3.25-2.31,1.3-2.5,2.61-.02.12.01.22.09.31.08.09.18.13.29.13h5.39c.12,0,.22-.05.29-.13.08-.09.11-.19.09-.31-.19-1.32-1.2-2.37-2.5-2.61-.03.3-.28.53-.58.53h0Z"/>
      <path d="M200.62,88.24h10.35c.64,0,1.17.52,1.17,1.17s-.52,1.17-1.17,1.17h-10.35c-.64,0-1.17-.52-1.17-1.17s.52-1.17,1.17-1.17h0Z"/>
      <path d="M200.62,85.02h10.35c.64,0,1.17.52,1.17,1.17s-.52,1.17-1.17,1.17h-10.35c-.64,0-1.17-.52-1.17-1.17s.52-1.17,1.17-1.17Z"/>
      <path d="M205.21,81.07c.03.3.28.53.58.53s.55-.23.58-.53c0-.02,0-.04,0-.05V0h-1.17v81.01s0,.04,0,.05h0Z"/>
      <path d="M134.91,50.15c-.1.02-.2.03-.3.03h-.92c.48,1.34.72,2.74.72,4.17,0,6.84-5.56,12.4-12.4,12.4s-12.4-5.56-12.4-12.4c0-1.43.24-2.83.72-4.17h-.92c-.1,0-.2-.01-.3-.03-.44,1.35-.67,2.76-.67,4.2,0,7.48,6.09,13.56,13.57,13.56s13.57-6.08,13.57-13.56c0-1.44-.22-2.85-.67-4.2h0Z"/>
      <path d="M109.23,48.75c.71-1.61,1.71-3.06,2.97-4.31,2.19-2.16,3.55-4.56,4.3-7.54.13-.51.25-1.01.37-1.5.17-.7.34-1.37.5-2.02h9.28c.17.65.33,1.31.5,2.01.12.49.24,1,.37,1.5.75,2.98,2.12,5.38,4.3,7.54,1.26,1.24,2.26,2.69,2.97,4.31.03.07.03.12-.02.18-.04.06-.09.09-.16.09h-25.2c-.07,0-.12-.03-.16-.09s-.04-.12-.02-.18h0ZM110.33,50.19h24.28c.1,0,.2-.01.3-.03.34-.07.64-.28.84-.58.26-.39.29-.86.11-1.29-.77-1.75-1.85-3.32-3.21-4.67-2.03-2.01-3.3-4.23-3.99-7-.13-.5-.25-1-.37-1.5-.21-.86-.41-1.68-.62-2.47-.07-.26-.3-.44-.56-.44h-10.18c-.27,0-.5.18-.56.44-.21.79-.41,1.61-.62,2.47-.12.49-.24.99-.37,1.49-.69,2.77-1.96,4.99-3.99,7-1.36,1.35-2.44,2.92-3.21,4.67-.19.43-.15.9.11,1.29.2.31.5.51.84.59.1.02.2.03.3.03h.92,0Z"/>
      <path d="M122.01,22.29c-.3,0-.55-.23-.58-.53-1.3.25-2.31,1.3-2.5,2.61-.02.12.01.22.09.31.08.09.18.13.29.13h5.39c.12,0,.22-.05.29-.13.08-.09.11-.19.09-.31-.19-1.32-1.2-2.37-2.5-2.61-.03.3-.28.53-.58.53h0Z"/>
      <path d="M116.83,28.94h10.35c.64,0,1.17.52,1.17,1.17s-.52,1.17-1.17,1.17h-10.35c-.64,0-1.17-.52-1.17-1.17s.52-1.17,1.17-1.17h0Z"/>
      <path d="M116.83,25.72h10.35c.64,0,1.17.52,1.17,1.17s-.52,1.17-1.17,1.17h-10.35c-.64,0-1.17-.52-1.17-1.17s.52-1.17,1.17-1.17Z"/>
      <path d="M121.43,21.77c.03.3.28.53.58.53s.55-.23.58-.53c0-.02,0-.04,0-.05V0h-1.17v21.71s0,.04,0,.05h0Z"/>
      <path d="M95.26,109.86l1.47-7.02h2.45l1.63,5.54-5.55,1.49ZM100.17,102.11c-.07-.26-.3-.44-.57-.44h-3.36c-.28,0-.53.2-.57.48,0,.01,0,.02,0,.03l-1.75,8.36c-.04.2.02.4.17.54.11.1.25.16.4.16.05,0,.1,0,.15-.02l7.04-1.89c.15-.04.28-.14.36-.28.08-.14.1-.3.05-.45l-1.92-6.51h0Z"/>
      <path d="M89.99,127.58c-.31.08-.63.04-.91-.12-.28-.16-.48-.42-.56-.73-.17-.64.21-1.3.85-1.47l16.42-4.4c.64-.17,1.3.21,1.47.85.08.31.04.63-.12.91-.16.28-.42.48-.73.56l-16.42,4.4h0ZM108.15,123.21c.32-.55.4-1.18.24-1.79-.34-1.26-1.63-2.01-2.9-1.67l-16.42,4.4c-1.26.34-2.01,1.63-1.67,2.89.16.61.55,1.12,1.1,1.44.36.21.77.32,1.18.32.21,0,.41-.03.61-.08l16.42-4.4c.61-.16,1.12-.55,1.44-1.1h0Z"/>
      <path d="M107.14,128.94c-.16.28-.42.48-.73.56l-8.21,2.2c-.31.08-.63.04-.91-.12-.28-.16-.48-.42-.56-.73-.17-.64.21-1.3.85-1.47l8.21-2.2c.64-.17,1.3.21,1.47.85.08.31.04.63-.12.91h0ZM105.49,126.06l-8.21,2.2c-1.26.34-2.01,1.63-1.67,2.89.16.61.55,1.12,1.1,1.44.36.21.77.32,1.18.32.21,0,.41-.03.62-.08l8.21-2.2c.61-.16,1.12-.55,1.44-1.1.32-.55.4-1.18.24-1.79-.34-1.26-1.63-2.01-2.9-1.67h0Z"/>
      <path d="M88.64,119.51c.16-.28.42-.48.73-.56l16.42-4.4c.64-.17,1.3.21,1.47.85.08.31.04.63-.12.91-.16.28-.42.48-.73.56l-16.42,4.4c-.31.08-.63.04-.91-.12-.28-.16-.48-.42-.56-.73-.08-.31-.04-.63.12-.91h0ZM88.49,122.16c.36.21.77.32,1.18.32.21,0,.41-.03.61-.08l16.42-4.4c.61-.16,1.12-.55,1.44-1.1.32-.55.4-1.18.24-1.79-.34-1.26-1.63-2.01-2.9-1.67l-16.42,4.4c-.61.16-1.12.55-1.44,1.1-.32.55-.4,1.18-.24,1.79.16.61.55,1.12,1.1,1.44h0Z"/>
      <path d="M107.14,110c-.16.28-.42.48-.73.56l-13.94,3.73-2.48.67c-.64.17-1.3-.21-1.47-.85-.08-.31-.04-.63.12-.91.16-.28.42-.48.73-.56l1.42-.38c.21-.06.38-.23.42-.44l1.97-9.45c.03-.17,0-.34-.11-.47-.1-.13-.26-.22-.43-.23-.89-.05-1.58-.79-1.58-1.67v-2.36c0-1.52.85-2.9,2.21-3.61.66-.34,1.06-.98,1.09-1.72.03-1.06.93-1.93,1.99-1.93h3.04c1.06,0,1.96.86,1.99,1.93.02.74.43,1.38,1.09,1.72,1.36.7,2.21,2.09,2.21,3.61v2.36c0,.83-.62,1.55-1.45,1.66-.17.02-.32.12-.41.26-.09.14-.12.32-.07.48l1.66,5.63c.09.3.4.48.71.4l.67-.18c.31-.08.63-.04.91.12.28.16.48.42.56.73.08.31.04.63-.12.91h0ZM107.28,107.35c-.55-.32-1.18-.4-1.79-.24l-.12.03-1.33-4.51c1.07-.42,1.81-1.46,1.81-2.65v-2.36c0-1.96-1.09-3.74-2.84-4.64-.28-.15-.45-.4-.46-.72-.05-1.69-1.47-3.06-3.15-3.06h-3.04c-1.69,0-3.1,1.37-3.16,3.06,0,.32-.17.58-.46.72-1.75.91-2.84,2.69-2.84,4.64v2.36c0,1.27.85,2.36,2.02,2.72l-1.78,8.52-1.08.29c-.61.16-1.12.55-1.44,1.1-.32.55-.4,1.18-.24,1.79.28,1.06,1.24,1.75,2.29,1.75.2,0,.41-.03.61-.08l16.42-4.4c.61-.16,1.12-.55,1.44-1.1.32-.55.4-1.18.24-1.79-.16-.61-.55-1.12-1.1-1.44h0Z"/>
      <path d="M98.01,85.8c-.32,0-.58-.26-.58-.58-1.23.19-2.2,1.17-2.38,2.41-.02.11.01.2.08.28s.16.12.27.12h4.94c.11,0,.2-.04.27-.12.07-.08.1-.18.08-.28-.16-1.14-1.01-2.07-2.11-2.35-.03.29-.28.52-.58.52h0Z"/>
      <path d="M97.43,85.22c0,.32.26.58.58.58.3,0,.55-.23.58-.52,0-.02,0-.04,0-.06V0h-1.17v85.21h0Z"/>
      <path d="M19.83,70.46c-.16.28-.42.48-.73.56l-8.21,2.2c-.64.17-1.3-.21-1.47-.85-.17-.64.21-1.3.85-1.47l8.21-2.2c.31-.08.63-.04.91.12.28.16.48.42.56.73.08.31.04.63-.12.91h0ZM19.97,67.81c-.55-.32-1.18-.4-1.79-.24l-8.21,2.2c-1.26.34-2.01,1.63-1.67,2.89.28,1.06,1.24,1.75,2.29,1.75.2,0,.41-.03.61-.08l8.21-2.2c1.26-.34,2.01-1.63,1.67-2.89-.16-.61-.55-1.12-1.1-1.44Z"/>
      <path d="M19.83,57.83c-.16.28-.42.48-.73.56l-16.42,4.4c-.31.08-.63.04-.91-.12-.28-.16-.48-.42-.56-.73-.17-.64.21-1.3.85-1.47l16.42-4.4c.31-.08.63-.04.91.12.28.16.48.42.56.73.08.31.04.63-.12.91h0ZM19.97,55.19c-.55-.32-1.18-.4-1.79-.24L1.76,59.35c-1.26.34-2.01,1.63-1.67,2.89.16.61.55,1.12,1.1,1.44.36.21.77.32,1.18.32.21,0,.41-.03.61-.08l16.42-4.4c.61-.16,1.12-.55,1.44-1.1.32-.55.4-1.18.24-1.79-.16-.61-.55-1.12-1.1-1.44h0Z"/>
      <path d="M9.41,44.35h2.45l1.63,5.54-5.55,1.49,1.47-7.02ZM7.18,52.77s.1,0,.15-.02l7.04-1.89c.15-.04.28-.14.36-.28.08-.14.1-.3.05-.45l-1.92-6.51c-.06-.26-.3-.44-.57-.44h-3.36c-.28,0-.53.2-.57.48,0,.01,0,.02,0,.03l-1.75,8.36c-.04.2.02.4.17.54.11.1.25.16.4.16h0Z"/>
      <path d="M2.68,69.1c-.31.08-.63.04-.91-.12-.28-.16-.48-.42-.56-.73-.08-.31-.04-.63.12-.91.16-.28.42-.48.73-.56l16.42-4.4c.31-.08.63-.04.91.12.28.16.48.42.56.73.17.64-.21,1.3-.85,1.47l-16.42,4.4h0ZM21.07,62.94c-.16-.61-.55-1.12-1.1-1.44-.55-.32-1.18-.4-1.79-.24l-16.42,4.4c-.61.16-1.12.55-1.44,1.1-.32.55-.4,1.18-.24,1.79.16.61.55,1.12,1.1,1.44.36.21.77.32,1.18.32.21,0,.41-.03.61-.08l16.42-4.4c1.26-.34,2.01-1.64,1.67-2.89Z"/>
      <path d="M1.33,54.72c.16-.28.42-.48.73-.56l1.42-.38c.21-.06.38-.23.42-.44l1.97-9.45c.03-.17,0-.34-.11-.47-.1-.13-.26-.22-.43-.23-.89-.05-1.58-.79-1.58-1.67v-2.36c0-1.52.85-2.9,2.21-3.61.66-.34,1.06-.98,1.09-1.72.03-1.06.93-1.93,1.99-1.93h3.04c1.06,0,1.96.86,1.99,1.93.02.74.43,1.38,1.09,1.72,1.36.7,2.21,2.09,2.21,3.61v2.36c0,.83-.62,1.55-1.45,1.66-.17.02-.32.12-.41.26-.09.14-.12.32-.07.48l1.66,5.63c.09.3.4.48.71.4l.67-.18c.31-.08.63-.04.91.12.28.16.48.42.56.73.08.31.04.63-.12.91-.16.28-.42.48-.73.56l-16.42,4.4c-.31.08-.63.04-.91-.12-.28-.16-.48-.42-.56-.73-.08-.31-.04-.63.12-.91h0ZM1.18,57.37c.36.21.77.32,1.18.32.2,0,.41-.03.61-.08l2.48-.67,13.94-3.73c1.26-.34,2.01-1.63,1.67-2.89-.16-.61-.55-1.12-1.1-1.44-.55-.32-1.18-.4-1.79-.24l-.12.03-1.33-4.51c1.07-.42,1.81-1.46,1.81-2.65v-2.36c0-1.96-1.09-3.74-2.84-4.64-.28-.15-.45-.4-.46-.72-.05-1.69-1.47-3.06-3.15-3.06h-3.04c-1.69,0-3.1,1.37-3.16,3.06,0,.32-.17.58-.46.72-1.75.91-2.84,2.69-2.84,4.64v2.36c0,1.27.85,2.36,2.02,2.72l-1.78,8.52-1.08.29c-.61.16-1.12.55-1.44,1.1-.32.55-.4,1.18-.24,1.79.16.61.55,1.12,1.1,1.44h0Z"/>
      <path d="M10.7,27.32c-.32,0-.58-.26-.58-.58-1.23.19-2.2,1.17-2.38,2.41-.02.11.01.2.08.28.07.08.16.12.27.12h4.94c.11,0,.2-.04.27-.12.07-.08.1-.18.08-.28-.16-1.14-1.01-2.07-2.11-2.35-.03.29-.28.52-.58.52h0Z"/>
      <path d="M10.12,26.74c0,.32.26.58.58.58.3,0,.55-.23.58-.52,0-.02,0-.04,0-.06V0h-1.17v26.74h0Z"/>
      <path d="M221.68,48.18c.16-.28.42-.48.73-.56l1.42-.38c.21-.06.38-.23.42-.44l1.97-9.45c.03-.17,0-.34-.11-.47-.1-.13-.26-.22-.43-.23-.89-.05-1.58-.79-1.58-1.67v-2.36c0-1.52.85-2.9,2.21-3.61.66-.34,1.06-.98,1.09-1.72.03-1.06.93-1.93,1.99-1.93h3.04c1.06,0,1.96.86,1.99,1.93.02.74.43,1.38,1.09,1.72,1.36.7,2.21,2.09,2.21,3.61v2.36c0,.83-.62,1.55-1.45,1.66-.17.02-.32.12-.41.26-.09.14-.12.32-.07.48l1.66,5.63c.09.3.41.48.71.4l.67-.18c.31-.08.63-.04.91.12.28.16.48.42.56.73.17.64-.21,1.3-.85,1.47l-16.42,4.4c-.31.08-.63.04-.91-.12-.28-.16-.48-.42-.56-.73-.08-.31-.04-.63.12-.91h0ZM221.53,50.83c.36.21.77.32,1.18.32.2,0,.41-.03.61-.08l2.48-.67,13.94-3.73c1.26-.34,2.01-1.64,1.67-2.89-.16-.61-.55-1.12-1.1-1.44-.55-.32-1.18-.4-1.79-.24l-.12.03-1.33-4.51c1.07-.42,1.81-1.46,1.81-2.65v-2.36c0-1.96-1.09-3.74-2.84-4.64-.28-.15-.45-.4-.46-.72-.05-1.69-1.47-3.06-3.15-3.06h-3.04c-1.69,0-3.1,1.37-3.15,3.06-.01.32-.17.58-.46.72-1.75.91-2.84,2.69-2.84,4.64v2.36c0,1.27.85,2.36,2.02,2.72l-1.78,8.52-1.08.29c-.61.16-1.12.55-1.44,1.1s-.4,1.18-.24,1.79c.16.61.55,1.12,1.1,1.44h0Z"/>
      <path d="M240.17,63.93c-.16.28-.42.48-.73.56l-8.21,2.2c-.31.08-.63.04-.91-.12-.28-.16-.48-.42-.56-.73-.17-.64.21-1.3.85-1.47l8.21-2.2c.31-.08.63-.04.91.12.28.16.48.42.56.73.08.31.04.63-.12.91ZM240.32,61.28c-.55-.32-1.18-.4-1.79-.24l-8.21,2.2c-1.26.34-2.01,1.63-1.67,2.89.16.61.55,1.12,1.1,1.44.36.21.77.32,1.18.32.2,0,.41-.03.61-.08l8.21-2.2c.61-.16,1.12-.55,1.44-1.1.32-.55.4-1.18.24-1.79-.16-.61-.55-1.12-1.1-1.44h0Z"/>
      <path d="M240.17,51.3c-.16.28-.42.48-.73.56l-16.42,4.4c-.31.08-.63.04-.91-.12-.28-.16-.48-.42-.56-.73-.17-.64.21-1.3.85-1.47l16.42-4.4c.31-.08.63-.04.91.12.28.16.48.42.56.73.08.31.04.63-.12.91ZM240.32,48.65c-.55-.32-1.18-.4-1.79-.24l-16.42,4.4c-1.26.34-2.01,1.64-1.67,2.89.16.61.55,1.12,1.1,1.44.36.21.77.32,1.18.32.21,0,.41-.03.61-.08l16.42-4.4c.61-.16,1.12-.55,1.44-1.1.32-.55.4-1.18.24-1.79-.16-.61-.55-1.12-1.1-1.44h0Z"/>
      <path d="M229.76,37.82h2.45l1.63,5.54-5.55,1.49,1.47-7.02ZM227.53,46.23s.1,0,.15-.02l7.04-1.89c.15-.04.28-.14.36-.28.08-.14.1-.3.05-.45l-1.92-6.51c-.06-.26-.3-.44-.57-.44h-3.36c-.28,0-.53.2-.57.48,0,.01,0,.02,0,.03l-1.75,8.36c-.04.2.02.4.17.54.11.1.25.16.4.16h0Z"/>
      <path d="M223.02,62.57c-.31.08-.63.04-.91-.12-.28-.16-.48-.42-.56-.73-.08-.31-.04-.63.12-.91.16-.28.42-.48.73-.56l16.42-4.4c.31-.08.63-.04.91.12.28.16.48.42.56.73.17.64-.21,1.3-.85,1.47l-16.42,4.4h0ZM241.42,56.4c-.16-.61-.55-1.12-1.1-1.44-.55-.32-1.18-.4-1.79-.24l-16.42,4.4c-.61.16-1.12.55-1.44,1.1-.32.55-.4,1.18-.24,1.79.16.61.55,1.12,1.1,1.44.36.21.77.32,1.18.32.21,0,.41-.03.61-.08l16.42-4.4c1.26-.34,2.01-1.64,1.67-2.89h0Z"/>
      <path d="M231.05,20.78c-.32,0-.58-.26-.58-.58-1.23.19-2.2,1.17-2.38,2.41-.02.11.01.2.08.28.07.08.16.12.27.12h4.94c.11,0,.2-.04.27-.12.07-.08.1-.18.08-.28-.16-1.14-1.01-2.07-2.11-2.35-.03.29-.28.52-.58.52h0Z"/>
      <path d="M230.47,20.21c0,.32.26.58.58.58.3,0,.55-.23.58-.52,0-.02,0-.04,0-.06V0h-1.17v20.2h0Z"/>
      <path d="M75.9,56.02c-.13-.51-.25-1-.37-1.5-.21-.86-.41-1.68-.62-2.46-.07-.26-.3-.44-.56-.44h-3.39c.32,0,.58.26.58.58v.58h2.36c.17.65.33,1.31.5,2.01.12.49.25,1,.37,1.5.75,2.98,2.12,5.38,4.3,7.54,2.67,2.64,4.14,6.16,4.14,9.92,0,7.69-6.26,13.95-13.95,13.95s-13.95-6.26-13.95-13.95c0-3.75,1.47-7.28,4.14-9.92,2.19-2.16,3.55-4.56,4.3-7.54.13-.51.25-1.01.37-1.5.17-.7.34-1.37.5-2.02h2.36v-.58c0-.32.26-.58.58-.58h-3.39c-.27,0-.5.18-.56.44-.21.79-.41,1.6-.62,2.47-.12.49-.24.99-.37,1.49-.69,2.77-1.96,4.99-3.99,7-2.89,2.86-4.49,6.68-4.49,10.75,0,8.34,6.78,15.12,15.12,15.12s15.12-6.78,15.12-15.12c0-4.07-1.59-7.88-4.49-10.75-2.03-2.01-3.3-4.23-3.99-7h0Z"/>
      <path d="M69.25,41.7c-.3,0-.55-.23-.58-.53-1.3.25-2.31,1.3-2.5,2.61-.02.12.01.22.09.31.08.09.18.13.29.13h5.39c.12,0,.22-.05.29-.13.08-.09.11-.19.09-.31-.19-1.32-1.2-2.37-2.5-2.61-.03.3-.28.53-.58.53h0Z"/>
      <path d="M64.08,48.35h10.35c.64,0,1.17.52,1.17,1.17s-.52,1.17-1.17,1.17h-10.35c-.64,0-1.17-.52-1.17-1.17s.52-1.17,1.17-1.17h0Z"/>
      <path d="M64.08,45.12h10.35c.64,0,1.17.52,1.17,1.17s-.52,1.17-1.17,1.17h-10.35c-.64,0-1.17-.52-1.17-1.17s.52-1.17,1.17-1.17h0Z"/>
      <path d="M64.36,66.56v3.35c0,.57.16,1.07.5,1.53.26.35.26.84,0,1.19-.76,1.05-.96,2.61-.52,4.07.45,1.47,1.46,2.64,2.82,3.26v.54c0,.91.76,1.64,1.69,1.64h.8c.93,0,1.69-.74,1.69-1.64v-.54c1.35-.62,2.37-1.79,2.82-3.26.44-1.46.25-3.02-.52-4.07-.26-.35-.26-.84,0-1.19.33-.46.5-.96.5-1.53v-3.35c0-1.25-1.05-2.26-2.35-2.26h-.18v1.17h.18c.65,0,1.18.49,1.18,1.1v3.35c0,.32-.08.58-.27.84-.56.77-.56,1.8,0,2.57.55.76.69,1.92.35,3.04-.38,1.26-1.29,2.23-2.49,2.66-.23.08-.38.3-.38.55v.93c0,.26-.24.48-.53.48h-.8c-.29,0-.53-.22-.53-.48v-.93c0-.25-.15-.46-.38-.55-1.2-.44-2.1-1.41-2.49-2.66-.34-1.12-.21-2.28.35-3.04.56-.77.56-1.8,0-2.57-.19-.26-.27-.52-.27-.84v-3.35c0-.61.53-1.1,1.18-1.1h.18v-1.17h-.18c-1.29,0-2.35,1.02-2.35,2.26h0Z"/>
      <rect x="69.84" y="64.3" width=".62" height="1.17"/>
      <rect x="68.05" y="64.3" width=".62" height="1.17"/>
      <path d="M66.97,52.21v3.28c-.92.22-1.61,1.05-1.61,2.04v4.18c0,.96.64,1.77,1.52,2.02v9.03c0,.54.44.97.97.97h2.95c.19,0,.82-.07.82-.97v-9.03c.88-.25,1.52-1.06,1.52-2.02v-4.18c0-.99-.69-1.82-1.61-2.04v-3.28c0-.32-.26-.58-.58-.58h-1.7c.32,0,.58.26.58.58v.58h.53v3.22c0,.32.26.58.58.58h.09c.52,0,.94.42.94.93v4.18c0,.52-.42.93-.94.93-.32,0-.58.26-.58.58v9.33h-2.41v-9.33c0-.32-.26-.58-.58-.58-.52,0-.94-.42-.94-.93v-4.18c0-.52.42-.93.94-.93h.09c.32,0,.58-.26.58-.58v-3.22h.53v-.58c0-.32.26-.58.58-.58h-1.7c-.32,0-.58.26-.58.58h0Z"/>
      <path d="M68.67,52.21v15.93c0,.32.26.58.58.58s.58-.26.58-.58v-15.93c0-.32-.26-.58-.58-.58s-.58.26-.58.58Z"/>
      <path d="M68.67,41.17c.03.3.28.53.58.53s.55-.23.58-.53c0-.02,0-.04,0-.05V0h-1.17v41.12s0,.04,0,.05h0Z"/>
      <path d="M156.96,117.13c-.13-.5-.25-1-.37-1.5-.21-.86-.41-1.68-.62-2.47-.07-.26-.3-.44-.56-.44h-3.39c.32,0,.58.26.58.58v.58h2.36c.17.65.33,1.31.5,2.01.12.49.24.99.37,1.5.75,2.98,2.12,5.38,4.3,7.54,2.67,2.64,4.14,6.16,4.14,9.92,0,7.69-6.26,13.95-13.95,13.95s-13.95-6.26-13.95-13.95c0-3.75,1.47-7.28,4.14-9.92,2.19-2.16,3.55-4.56,4.3-7.54.13-.51.25-1.01.37-1.5.17-.7.34-1.37.5-2.02h2.36v-.58c0-.32.26-.58.58-.58h-3.39c-.27,0-.5.18-.56.44-.21.79-.41,1.61-.62,2.47-.12.49-.24.99-.37,1.49-.69,2.77-1.96,4.99-3.99,7-2.89,2.86-4.49,6.68-4.49,10.75,0,8.34,6.78,15.12,15.12,15.12s15.12-6.78,15.12-15.12c0-4.07-1.59-7.88-4.49-10.75-2.03-2.01-3.3-4.23-3.99-7h0Z"/>
      <path d="M150.32,102.81c-.3,0-.55-.23-.58-.53-1.3.25-2.31,1.3-2.5,2.61-.02.12.01.22.09.31.08.09.18.13.29.13h5.39c.12,0,.22-.05.29-.13.08-.09.11-.19.09-.31-.19-1.32-1.2-2.37-2.5-2.61-.03.3-.28.53-.58.53h0Z"/>
      <path d="M145.14,109.46h10.35c.64,0,1.17.52,1.17,1.17s-.52,1.17-1.17,1.17h-10.35c-.64,0-1.17-.52-1.17-1.17s.52-1.17,1.17-1.17h0Z"/>
      <path d="M145.14,106.23h10.35c.64,0,1.17.52,1.17,1.17s-.52,1.17-1.17,1.17h-10.35c-.64,0-1.17-.52-1.17-1.17s.52-1.17,1.17-1.17Z"/>
      <rect x="149.12" y="125.41" width=".62" height="1.17"/>
      <path d="M145.43,127.67v3.35c0,.57.16,1.07.5,1.53.26.35.26.84,0,1.19-.76,1.05-.96,2.61-.52,4.07.45,1.47,1.46,2.64,2.82,3.26v.54c0,.91.76,1.64,1.69,1.64h.8c.93,0,1.69-.74,1.69-1.64v-.54c1.35-.62,2.37-1.79,2.82-3.26.44-1.46.25-3.02-.52-4.07-.26-.35-.26-.84,0-1.19.33-.46.5-.96.5-1.53v-3.35c0-1.25-1.05-2.26-2.35-2.26h-.18v1.17h.18c.65,0,1.18.49,1.18,1.1v3.35c0,.32-.08.58-.27.84-.56.77-.56,1.8,0,2.57.55.76.69,1.92.35,3.04-.38,1.26-1.29,2.23-2.49,2.66-.23.08-.38.3-.38.55v.93c0,.26-.24.48-.53.48h-.8c-.29,0-.53-.22-.53-.48v-.93c0-.25-.15-.46-.38-.55-1.2-.44-2.1-1.41-2.49-2.66-.34-1.12-.21-2.28.35-3.04.56-.77.56-1.8,0-2.57-.19-.26-.27-.52-.27-.84v-3.35c0-.61.53-1.1,1.18-1.1h.18v-1.17h-.18c-1.29,0-2.35,1.02-2.35,2.26h0Z"/>
      <rect x="150.9" y="125.41" width=".62" height="1.17"/>
      <path d="M148.04,113.32v3.28c-.92.22-1.61,1.05-1.61,2.04v4.18c0,.96.64,1.77,1.52,2.02v9.03c0,.54.44.97.97.97h2.95c.19,0,.82-.07.82-.97v-9.03c.88-.25,1.52-1.06,1.52-2.02v-4.18c0-.99-.69-1.82-1.61-2.04v-3.28c0-.32-.26-.58-.58-.58h-1.7c.32,0,.58.26.58.58v.58h.53v3.22c0,.32.26.58.58.58h.09c.52,0,.93.42.93.93v4.18c0,.52-.42.93-.93.93-.32,0-.58.26-.58.58v9.33h-2.41v-9.33c0-.32-.26-.58-.58-.58-.52,0-.94-.42-.94-.93v-4.18c0-.52.42-.93.94-.93h.09c.32,0,.58-.26.58-.58v-3.22h.53v-.58c0-.32.26-.58.58-.58h-1.7c-.32,0-.58.26-.58.58h0Z"/>
      <path d="M149.74,113.32v15.93c0,.32.26.58.58.58s.58-.26.58-.58v-15.93c0-.32-.26-.58-.58-.58s-.58.26-.58.58Z"/>
      <path d="M149.74,102.29c.03.3.28.53.58.53s.55-.23.58-.53c0-.02,0-.04,0-.05V0h-1.17v102.23s0,.04,0,.05h0Z"/>
      <path d="M182.76,58.65c-.13-.5-.25-1-.37-1.5-.21-.86-.41-1.68-.62-2.47-.07-.26-.3-.44-.56-.44h-3.23c.32,0,.58.26.58.58v.58h2.19c.17.65.33,1.31.5,2.01.12.49.24,1,.37,1.5.75,2.98,2.12,5.38,4.3,7.54,2.67,2.64,4.14,6.16,4.14,9.92,0,7.69-6.26,13.95-13.95,13.95s-13.95-6.26-13.95-13.95c0-3.75,1.47-7.28,4.14-9.92,2.19-2.16,3.55-4.56,4.3-7.54.13-.5.25-1,.37-1.5.17-.7.34-1.37.5-2.02h2.19v-.58c0-.32.26-.58.58-.58h-3.23c-.27,0-.5.18-.56.44-.21.79-.41,1.61-.62,2.47-.12.49-.24.99-.37,1.49-.69,2.77-1.96,4.99-3.99,7-2.89,2.86-4.49,6.68-4.49,10.75,0,8.34,6.78,15.12,15.12,15.12s15.12-6.78,15.12-15.12c0-4.07-1.59-7.88-4.49-10.75-2.03-2.01-3.3-4.23-3.99-7h0Z"/>
      <path d="M174.84,54.84v.58h2.56v-.58c0-.32.26-.58.58-.58h-3.72c.32,0,.58.26.58.58h0Z"/>
      <path d="M176.12,44.34c-.3,0-.55-.23-.58-.53-1.3.25-2.31,1.3-2.5,2.61-.02.12.01.22.09.31.08.09.18.13.29.13h5.39c.12,0,.22-.05.29-.13.08-.09.11-.19.09-.31-.19-1.32-1.2-2.37-2.5-2.61-.03.3-.28.53-.58.53h0Z"/>
      <path d="M170.95,50.98h10.35c.15,0,.3.03.45.09.14.06.27.14.38.25.11.11.19.24.25.38.06.14.09.29.09.45s-.03.3-.09.45c-.06.14-.14.27-.25.38-.11.11-.24.19-.38.25-.14.06-.29.09-.45.09h-10.35c-.15,0-.3-.03-.45-.09s-.27-.14-.38-.25c-.11-.11-.19-.24-.25-.38-.06-.14-.09-.29-.09-.45s.03-.3.09-.45c.06-.14.14-.27.25-.38.11-.11.24-.19.38-.25.14-.06.29-.09.45-.09Z"/>
      <path d="M170.94,47.76h10.35c.64,0,1.17.52,1.17,1.17s-.52,1.17-1.17,1.17h-10.35c-.64,0-1.17-.52-1.17-1.17s.52-1.17,1.17-1.17h0Z"/>
      <path d="M172.24,75.14c.14-.19.46-.23.69-.23.21,0,.4.08.54.24.19.21.29.51.26.81-.04.45-.33,1.03-.81,1.39-.33-.37-.57-.79-.7-1.19-.14-.44-.13-.82,0-1.01h0ZM178.76,75.14c.15-.16.33-.24.54-.24.24,0,.55.04.69.23.14.19.15.57,0,1.01-.13.41-.37.82-.7,1.19-.48-.36-.77-.94-.81-1.39-.03-.3.07-.61.26-.81h0ZM173.68,54.84v10.12c0,2.11-1.2,3.64-2.47,5.25-1.05,1.34-2.13,2.72-2.47,4.44-.24,1.26-.04,2.37.58,3.12.4.48,1.18,1.06,2.63,1.06.27,0,.53-.04.77-.11.9.73,2.09,1.23,3.4,1.23s2.5-.5,3.4-1.23c.24.07.5.11.77.11,1.16,0,2.05-.36,2.63-1.06.61-.74.82-1.84.59-3.08-.33-1.75-1.42-3.15-2.48-4.5-1.26-1.62-2.46-3.14-2.46-5.24v-10.12c0-.32-.26-.58-.58-.58s-.58.26-.58.58v10.12c0,2.5,1.37,4.26,2.71,5.96,1.02,1.3,1.97,2.52,2.25,4,.17.9.05,1.65-.34,2.12-.31.38-.81.59-1.49.63.27-.38.47-.78.59-1.17.25-.82.19-1.55-.18-2.05-.24-.32-.71-.71-1.63-.71h0c-.54,0-1.03.22-1.4.62-.41.44-.62,1.08-.57,1.7.06.74.46,1.51,1.08,2.06-.65.41-1.43.68-2.29.68s-1.65-.27-2.29-.68c.62-.54,1.01-1.31,1.07-2.06.05-.62-.16-1.26-.57-1.7-.37-.4-.86-.62-1.4-.62h0c-.92,0-1.39.39-1.63.71-.37.51-.44,1.23-.18,2.05.12.39.32.79.59,1.17-.68-.04-1.18-.25-1.49-.63-.39-.48-.51-1.24-.34-2.16.28-1.45,1.23-2.66,2.24-3.94,1.34-1.7,2.72-3.46,2.72-5.97v-10.12c0-.32-.26-.58-.58-.58s-.58.26-.58.58h0Z"/>
      <path d="M175.54,43.81c.03.3.28.53.58.53s.55-.23.58-.53c0-.02,0-.04,0-.05V0h-1.17v43.75s0,.04,0,.05h0Z"/>
    </g>
  </g>
</svg>