<?xml version="1.0" encoding="UTF-8"?>
<svg id="Layer_2" xmlns="http://www.w3.org/2000/svg" viewBox="0 0 358.5 248.25">
  <defs>
    <style>
      .cls-1 {
        fill: #fff;
      }
    </style>
  </defs>
  <g id="Layer_2-2" data-name="Layer_2">
    <g>
      <rect class="cls-1" width="358.5" height="248.25"/>
      <g>
        <g>
          <path d="M107.62,127.85c.48,1.34.72,2.74.72,4.17,0,6.84-5.56,12.4-12.4,12.4s-12.4-5.56-12.4-12.4c0-1.43.24-2.83.72-4.17h-.92c-.1,0-.2-.01-.3-.03-.44,1.35-.67,2.76-.67,4.2,0,7.48,6.09,13.56,13.57,13.56s13.57-6.08,13.57-13.56c0-1.44-.22-2.85-.67-4.2-.1.02-.2.03-.3.03h-.92,0Z"/>
          <path d="M83.85,126.69h-.52c-.07,0-.12-.03-.16-.09-.04-.06-.04-.12-.02-.18.71-1.61,1.71-3.06,2.97-4.31,2.19-2.16,3.55-4.56,4.3-7.54.13-.51.25-1.01.37-1.5.17-.7.34-1.37.5-2.02h9.28c.17.65.33,1.31.5,2.01.12.49.24,1,.37,1.5.75,2.98,2.12,5.38,4.3,7.54,1.26,1.24,2.26,2.69,2.97,4.31.03.07.03.12-.02.18-.04.06-.09.09-.16.09h-24.69,0ZM106.57,121.28c-2.03-2.01-3.3-4.23-3.99-7-.13-.5-.25-1-.37-1.5-.21-.86-.41-1.68-.62-2.47-.07-.26-.3-.44-.56-.44h-10.18c-.27,0-.5.18-.56.44-.21.79-.41,1.61-.62,2.47-.12.49-.24.99-.37,1.49-.69,2.77-1.96,4.99-3.99,7-1.36,1.35-2.44,2.92-3.21,4.67-.19.43-.15.9.11,1.29.2.31.5.51.84.59.1.02.2.03.3.03h25.2c.1,0,.2-.01.3-.03.34-.07.64-.28.84-.58.26-.39.29-.86.11-1.29-.77-1.75-1.85-3.32-3.21-4.67h0Z"/>
          <path d="M95.94,99.96c-.3,0-.55-.23-.58-.53-1.3.25-2.31,1.3-2.5,2.61-.02.12.01.22.09.31.08.09.18.13.29.13h5.39c.12,0,.22-.05.29-.13.08-.09.11-.19.09-.31-.19-1.32-1.2-2.37-2.5-2.61-.03.3-.28.53-.58.53h0Z"/>
          <path d="M90.76,106.61h10.35c.64,0,1.17.52,1.17,1.17s-.52,1.17-1.17,1.17h-10.35c-.64,0-1.17-.52-1.17-1.17s.52-1.17,1.17-1.17h0Z"/>
          <path d="M90.76,103.38h10.35c.64,0,1.17.52,1.17,1.17s-.52,1.17-1.17,1.17h-10.35c-.64,0-1.17-.52-1.17-1.17s.52-1.17,1.17-1.17Z"/>
          <path d="M95.36,99.43c.03.3.28.53.58.53s.55-.23.58-.53c0-.02,0-.04,0-.05V0h-1.17v99.38s0,.04,0,.05h0Z"/>
          <path d="M275.77,109.49c.48,1.34.72,2.74.72,4.17,0,6.84-5.56,12.4-12.4,12.4s-12.4-5.56-12.4-12.4c0-1.43.24-2.83.72-4.17h-.92c-.1,0-.2-.01-.3-.03-.44,1.35-.67,2.76-.67,4.2,0,7.48,6.09,13.56,13.57,13.56s13.57-6.08,13.57-13.56c0-1.44-.22-2.85-.67-4.2-.1.02-.2.03-.3.03h-.92,0Z"/>
          <path d="M252,108.32h-.52c-.07,0-.12-.03-.16-.09-.04-.06-.04-.12-.02-.18.71-1.61,1.71-3.06,2.97-4.31,2.19-2.16,3.55-4.56,4.3-7.54.13-.51.25-1.01.37-1.5.17-.7.34-1.37.5-2.01h9.28c.17.65.33,1.31.5,2.01.12.49.24,1,.37,1.5.75,2.98,2.12,5.38,4.3,7.54,1.26,1.24,2.26,2.69,2.97,4.31.03.07.03.12-.02.18-.04.06-.09.09-.16.09h-24.69,0ZM274.72,102.91c-2.03-2.01-3.3-4.23-3.99-7-.13-.5-.25-1-.37-1.5-.21-.86-.41-1.68-.62-2.47-.07-.26-.3-.44-.56-.44h-10.18c-.27,0-.5.18-.56.44-.21.79-.41,1.6-.62,2.47-.12.49-.24.99-.37,1.5-.69,2.77-1.96,4.99-3.99,7-1.36,1.35-2.44,2.92-3.21,4.67-.19.43-.15.9.11,1.29.2.31.5.51.84.59.1.02.2.03.3.03h25.2c.1,0,.2-.01.3-.03.34-.07.64-.28.84-.58.26-.39.3-.86.11-1.29-.77-1.75-1.85-3.32-3.21-4.67h0Z"/>
          <path d="M264.09,81.6c-.3,0-.55-.23-.58-.53-1.3.25-2.31,1.3-2.5,2.61-.02.12.01.22.09.31.08.09.18.13.29.13h5.39c.12,0,.22-.05.29-.13.08-.09.11-.19.09-.31-.19-1.32-1.2-2.37-2.5-2.61-.03.3-.28.53-.58.53h0Z"/>
          <path d="M258.91,88.24h10.35c.64,0,1.17.52,1.17,1.17s-.52,1.17-1.17,1.17h-10.35c-.64,0-1.17-.52-1.17-1.17s.52-1.17,1.17-1.17h0Z"/>
          <path d="M258.91,85.02h10.35c.64,0,1.17.52,1.17,1.17s-.52,1.17-1.17,1.17h-10.35c-.64,0-1.17-.52-1.17-1.17s.52-1.17,1.17-1.17Z"/>
          <path d="M263.51,81.07c.03.3.28.53.58.53s.55-.23.58-.53c0-.02,0-.04,0-.05V0h-1.17v81.01s0,.04,0,.05h0Z"/>
          <path d="M193.2,50.15c-.1.02-.2.03-.3.03h-.92c.48,1.34.72,2.74.72,4.17,0,6.84-5.56,12.4-12.4,12.4s-12.4-5.56-12.4-12.4c0-1.43.24-2.83.72-4.17h-.92c-.1,0-.2-.01-.3-.03-.44,1.35-.67,2.76-.67,4.2,0,7.48,6.09,13.56,13.57,13.56s13.57-6.08,13.57-13.56c0-1.44-.22-2.85-.67-4.2h0Z"/>
          <path d="M167.52,48.75c.71-1.61,1.71-3.06,2.97-4.31,2.19-2.16,3.55-4.56,4.3-7.54.13-.51.25-1.01.37-1.5.17-.7.34-1.37.5-2.02h9.28c.17.65.33,1.31.5,2.01.12.49.24,1,.37,1.5.75,2.98,2.12,5.38,4.3,7.54,1.26,1.24,2.26,2.69,2.97,4.31.03.07.03.12-.02.18-.04.06-.09.09-.16.09h-25.2c-.07,0-.12-.03-.16-.09s-.04-.12-.02-.18h0ZM168.62,50.19h24.28c.1,0,.2-.01.3-.03.34-.07.64-.28.84-.58.26-.39.29-.86.11-1.29-.77-1.75-1.85-3.32-3.21-4.67-2.03-2.01-3.3-4.23-3.99-7-.13-.5-.25-1-.37-1.5-.21-.86-.41-1.68-.62-2.47-.07-.26-.3-.44-.56-.44h-10.18c-.27,0-.5.18-.56.44-.21.79-.41,1.61-.62,2.47-.12.49-.24.99-.37,1.49-.69,2.77-1.96,4.99-3.99,7-1.36,1.35-2.44,2.92-3.21,4.67-.19.43-.15.9.11,1.29.2.31.5.51.84.59.1.02.2.03.3.03h.92,0Z"/>
          <path d="M180.3,22.29c-.3,0-.55-.23-.58-.53-1.3.25-2.31,1.3-2.5,2.61-.02.12.01.22.09.31s.18.13.29.13h5.39c.12,0,.22-.05.29-.13.08-.09.11-.19.09-.31-.19-1.32-1.2-2.37-2.5-2.61-.03.3-.28.53-.58.53h0Z"/>
          <path d="M175.13,28.94h10.35c.64,0,1.17.52,1.17,1.17s-.52,1.17-1.17,1.17h-10.35c-.64,0-1.17-.52-1.17-1.17s.52-1.17,1.17-1.17h0Z"/>
          <path d="M175.13,25.72h10.35c.64,0,1.17.52,1.17,1.17s-.52,1.17-1.17,1.17h-10.35c-.64,0-1.17-.52-1.17-1.17s.52-1.17,1.17-1.17Z"/>
          <path d="M179.72,21.77c.03.3.28.53.58.53s.55-.23.58-.53c0-.02,0-.04,0-.05V0h-1.17v21.71s0,.04,0,.05h0Z"/>
          <path d="M153.55,109.86l1.47-7.02h2.45l1.63,5.54-5.55,1.49ZM158.47,102.11c-.07-.26-.3-.44-.57-.44h-3.36c-.28,0-.53.2-.57.48,0,.01,0,.02,0,.03l-1.75,8.36c-.04.2.02.4.17.54.11.1.25.16.4.16.05,0,.1,0,.15-.02l7.04-1.89c.15-.04.28-.14.36-.28.08-.14.1-.3.05-.45l-1.92-6.51h0Z"/>
          <path d="M148.28,127.58c-.31.08-.63.04-.91-.12-.28-.16-.48-.42-.56-.73-.17-.64.21-1.3.85-1.47l16.42-4.4c.64-.17,1.3.21,1.47.85.08.31.04.63-.12.91-.16.28-.42.48-.73.56l-16.42,4.4h0ZM166.44,123.21c.32-.55.4-1.18.24-1.79-.34-1.26-1.63-2.01-2.9-1.67l-16.42,4.4c-1.26.34-2.01,1.63-1.67,2.89.16.61.55,1.12,1.1,1.44.36.21.77.32,1.18.32.21,0,.41-.03.61-.08l16.42-4.4c.61-.16,1.12-.55,1.44-1.1h0Z"/>
          <path d="M165.43,128.94c-.16.28-.42.48-.73.56l-8.21,2.2c-.31.08-.63.04-.91-.12-.28-.16-.48-.42-.56-.73-.17-.64.21-1.3.85-1.47l8.21-2.2c.64-.17,1.3.21,1.47.85.08.31.04.63-.12.91h0ZM163.78,126.06l-8.21,2.2c-1.26.34-2.01,1.63-1.67,2.89.16.61.55,1.12,1.1,1.44.36.21.77.32,1.18.32.21,0,.41-.03.62-.08l8.21-2.2c.61-.16,1.12-.55,1.44-1.1.32-.55.4-1.18.24-1.79-.34-1.26-1.63-2.01-2.9-1.67h0Z"/>
          <path d="M146.93,119.51c.16-.28.42-.48.73-.56l16.42-4.4c.64-.17,1.3.21,1.47.85.08.31.04.63-.12.91-.16.28-.42.48-.73.56l-16.42,4.4c-.31.08-.63.04-.91-.12-.28-.16-.48-.42-.56-.73-.08-.31-.04-.63.12-.91h0ZM146.79,122.16c.36.21.77.32,1.18.32.21,0,.41-.03.61-.08l16.42-4.4c.61-.16,1.12-.55,1.44-1.1.32-.55.4-1.18.24-1.79-.34-1.26-1.63-2.01-2.9-1.67l-16.42,4.4c-.61.16-1.12.55-1.44,1.1-.32.55-.4,1.18-.24,1.79.16.61.55,1.12,1.1,1.44h0Z"/>
          <path d="M165.43,110c-.16.28-.42.48-.73.56l-13.94,3.73-2.48.67c-.64.17-1.3-.21-1.47-.85-.08-.31-.04-.63.12-.91.16-.28.42-.48.73-.56l1.42-.38c.21-.06.38-.23.42-.44l1.97-9.45c.03-.17,0-.34-.11-.47-.1-.13-.26-.22-.43-.23-.89-.05-1.58-.79-1.58-1.67v-2.36c0-1.52.85-2.9,2.21-3.61.66-.34,1.06-.98,1.09-1.72.03-1.06.93-1.93,1.99-1.93h3.04c1.06,0,1.96.86,1.99,1.93.02.74.43,1.38,1.09,1.72,1.36.7,2.21,2.09,2.21,3.61v2.36c0,.83-.62,1.55-1.45,1.66-.17.02-.32.12-.41.26-.09.14-.12.32-.07.48l1.66,5.63c.09.3.4.48.71.4l.67-.18c.31-.08.63-.04.91.12.28.16.48.42.56.73.08.31.04.63-.12.91h0ZM165.58,107.35c-.55-.32-1.18-.4-1.79-.24l-.12.03-1.33-4.51c1.07-.42,1.81-1.46,1.81-2.65v-2.36c0-1.96-1.09-3.74-2.84-4.64-.28-.15-.45-.4-.46-.72-.05-1.69-1.47-3.06-3.15-3.06h-3.04c-1.69,0-3.1,1.37-3.16,3.06,0,.32-.17.58-.46.72-1.75.91-2.84,2.69-2.84,4.64v2.36c0,1.27.85,2.36,2.02,2.72l-1.78,8.52-1.08.29c-.61.16-1.12.55-1.44,1.1-.32.55-.4,1.18-.24,1.79.28,1.06,1.24,1.75,2.29,1.75.2,0,.41-.03.61-.08l16.42-4.4c.61-.16,1.12-.55,1.44-1.1.32-.55.4-1.18.24-1.79-.16-.61-.55-1.12-1.1-1.44h0Z"/>
          <path d="M156.31,85.8c-.32,0-.58-.26-.58-.58-1.23.19-2.2,1.17-2.38,2.41-.02.11.01.2.08.28s.16.12.27.12h4.94c.11,0,.2-.04.27-.12.07-.08.1-.18.08-.28-.16-1.14-1.01-2.07-2.11-2.35-.03.29-.28.52-.58.52h0Z"/>
          <path d="M155.72,85.22c0,.32.26.58.58.58.3,0,.55-.23.58-.52,0-.02,0-.04,0-.06V0h-1.17v85.21h0Z"/>
          <path d="M78.12,70.46c-.16.28-.42.48-.73.56l-8.21,2.2c-.64.17-1.3-.21-1.47-.85-.17-.64.21-1.3.85-1.47l8.21-2.2c.31-.08.63-.04.91.12.28.16.48.42.56.73.08.31.04.63-.12.91h0ZM78.27,67.81c-.55-.32-1.18-.4-1.79-.24l-8.21,2.2c-1.26.34-2.01,1.63-1.67,2.89.28,1.06,1.24,1.75,2.29,1.75.2,0,.41-.03.61-.08l8.21-2.2c1.26-.34,2.01-1.63,1.67-2.89-.16-.61-.55-1.12-1.1-1.44Z"/>
          <path d="M78.12,57.83c-.16.28-.42.48-.73.56l-16.42,4.4c-.31.08-.63.04-.91-.12-.28-.16-.48-.42-.56-.73-.17-.64.21-1.3.85-1.47l16.42-4.4c.31-.08.63-.04.91.12.28.16.48.42.56.73.08.31.04.63-.12.91h0ZM78.27,55.19c-.55-.32-1.18-.4-1.79-.24l-16.42,4.4c-1.26.34-2.01,1.63-1.67,2.89.16.61.55,1.12,1.1,1.44.36.21.77.32,1.18.32.21,0,.41-.03.61-.08l16.42-4.4c.61-.16,1.12-.55,1.44-1.1.32-.55.4-1.18.24-1.79-.16-.61-.55-1.12-1.1-1.44h0Z"/>
          <path d="M67.7,44.35h2.45l1.63,5.54-5.55,1.49,1.47-7.02ZM65.47,52.77s.1,0,.15-.02l7.04-1.89c.15-.04.28-.14.36-.28.08-.14.1-.3.05-.45l-1.92-6.51c-.06-.26-.3-.44-.57-.44h-3.36c-.28,0-.53.2-.57.48,0,.01,0,.02,0,.03l-1.75,8.36c-.04.2.02.4.17.54.11.1.25.16.4.16h0Z"/>
          <path d="M60.97,69.1c-.31.08-.63.04-.91-.12-.28-.16-.48-.42-.56-.73-.08-.31-.04-.63.12-.91.16-.28.42-.48.73-.56l16.42-4.4c.31-.08.63-.04.91.12.28.16.48.42.56.73.17.64-.21,1.3-.85,1.47l-16.42,4.4h0ZM79.37,62.94c-.16-.61-.55-1.12-1.1-1.44-.55-.32-1.18-.4-1.79-.24l-16.42,4.4c-.61.16-1.12.55-1.44,1.1-.32.55-.4,1.18-.24,1.79.16.61.55,1.12,1.1,1.44.36.21.77.32,1.18.32.21,0,.41-.03.61-.08l16.42-4.4c1.26-.34,2.01-1.64,1.67-2.89Z"/>
          <path d="M59.62,54.72c.16-.28.42-.48.73-.56l1.42-.38c.21-.06.38-.23.42-.44l1.97-9.45c.03-.17,0-.34-.11-.47-.1-.13-.26-.22-.43-.23-.89-.05-1.58-.79-1.58-1.67v-2.36c0-1.52.85-2.9,2.21-3.61.66-.34,1.06-.98,1.09-1.72.03-1.06.93-1.93,1.99-1.93h3.04c1.06,0,1.96.86,1.99,1.93.02.74.43,1.38,1.09,1.72,1.36.7,2.21,2.09,2.21,3.61v2.36c0,.83-.62,1.55-1.45,1.66-.17.02-.32.12-.41.26-.09.14-.12.32-.07.48l1.66,5.63c.09.3.4.48.71.4l.67-.18c.31-.08.63-.04.91.12.28.16.48.42.56.73.08.31.04.63-.12.91-.16.28-.42.48-.73.56l-16.42,4.4c-.31.08-.63.04-.91-.12-.28-.16-.48-.42-.56-.73-.08-.31-.04-.63.12-.91h0ZM59.48,57.37c.36.21.77.32,1.18.32.2,0,.41-.03.61-.08l2.48-.67,13.94-3.73c1.26-.34,2.01-1.63,1.67-2.89-.16-.61-.55-1.12-1.1-1.44-.55-.32-1.18-.4-1.79-.24l-.12.03-1.33-4.51c1.07-.42,1.81-1.46,1.81-2.65v-2.36c0-1.96-1.09-3.74-2.84-4.64-.28-.15-.45-.4-.46-.72-.05-1.69-1.47-3.06-3.15-3.06h-3.04c-1.69,0-3.1,1.37-3.16,3.06,0,.32-.17.58-.46.72-1.75.91-2.84,2.69-2.84,4.64v2.36c0,1.27.85,2.36,2.02,2.72l-1.78,8.52-1.08.29c-.61.16-1.12.55-1.44,1.1-.32.55-.4,1.18-.24,1.79.16.61.55,1.12,1.1,1.44h0Z"/>
          <path d="M68.99,27.32c-.32,0-.58-.26-.58-.58-1.23.19-2.2,1.17-2.38,2.41-.02.11.01.2.08.28.07.08.16.12.27.12h4.94c.11,0,.2-.04.27-.12.07-.08.1-.18.08-.28-.16-1.14-1.01-2.07-2.11-2.35-.03.29-.28.52-.58.52h0Z"/>
          <path d="M68.41,26.74c0,.32.26.58.58.58.3,0,.55-.23.58-.52,0-.02,0-.04,0-.06V0h-1.17v26.74h0Z"/>
          <path d="M279.97,48.18c.16-.28.42-.48.73-.56l1.42-.38c.21-.06.38-.23.42-.44l1.97-9.45c.03-.17,0-.34-.11-.47-.1-.13-.26-.22-.43-.23-.89-.05-1.58-.79-1.58-1.67v-2.36c0-1.52.85-2.9,2.21-3.61.66-.34,1.06-.98,1.09-1.72.03-1.06.93-1.93,1.99-1.93h3.04c1.06,0,1.96.86,1.99,1.93.02.74.43,1.38,1.09,1.72,1.36.7,2.21,2.09,2.21,3.61v2.36c0,.83-.62,1.55-1.45,1.66-.17.02-.32.12-.41.26-.09.14-.12.32-.07.48l1.66,5.63c.09.3.41.48.71.4l.67-.18c.31-.08.63-.04.91.12.28.16.48.42.56.73.17.64-.21,1.3-.85,1.47l-16.42,4.4c-.31.08-.63.04-.91-.12-.28-.16-.48-.42-.56-.73-.08-.31-.04-.63.12-.91h0ZM279.82,50.83c.36.21.77.32,1.18.32.2,0,.41-.03.61-.08l2.48-.67,13.94-3.73c1.26-.34,2.01-1.64,1.67-2.89-.16-.61-.55-1.12-1.1-1.44-.55-.32-1.18-.4-1.79-.24l-.12.03-1.33-4.51c1.07-.42,1.81-1.46,1.81-2.65v-2.36c0-1.96-1.09-3.74-2.84-4.64-.28-.15-.45-.4-.46-.72-.05-1.69-1.47-3.06-3.15-3.06h-3.04c-1.69,0-3.1,1.37-3.15,3.06-.01.32-.17.58-.46.72-1.75.91-2.84,2.69-2.84,4.64v2.36c0,1.27.85,2.36,2.02,2.72l-1.78,8.52-1.08.29c-.61.16-1.12.55-1.44,1.1s-.4,1.18-.24,1.79c.16.61.55,1.12,1.1,1.44h0Z"/>
          <path d="M298.46,63.93c-.16.28-.42.48-.73.56l-8.21,2.2c-.31.08-.63.04-.91-.12-.28-.16-.48-.42-.56-.73-.17-.64.21-1.3.85-1.47l8.21-2.2c.31-.08.63-.04.91.12.28.16.48.42.56.73.08.31.04.63-.12.91ZM298.61,61.28c-.55-.32-1.18-.4-1.79-.24l-8.21,2.2c-1.26.34-2.01,1.63-1.67,2.89.16.61.55,1.12,1.1,1.44.36.21.77.32,1.18.32.2,0,.41-.03.61-.08l8.21-2.2c.61-.16,1.12-.55,1.44-1.1.32-.55.4-1.18.24-1.79-.16-.61-.55-1.12-1.1-1.44h0Z"/>
          <path d="M298.46,51.3c-.16.28-.42.48-.73.56l-16.42,4.4c-.31.08-.63.04-.91-.12-.28-.16-.48-.42-.56-.73-.17-.64.21-1.3.85-1.47l16.42-4.4c.31-.08.63-.04.91.12.28.16.48.42.56.73.08.31.04.63-.12.91ZM298.61,48.65c-.55-.32-1.18-.4-1.79-.24l-16.42,4.4c-1.26.34-2.01,1.64-1.67,2.89.16.61.55,1.12,1.1,1.44.36.21.77.32,1.18.32.21,0,.41-.03.61-.08l16.42-4.4c.61-.16,1.12-.55,1.44-1.1.32-.55.4-1.18.24-1.79-.16-.61-.55-1.12-1.1-1.44h0Z"/>
          <path d="M288.05,37.82h2.45l1.63,5.54-5.55,1.49,1.47-7.02ZM285.82,46.23s.1,0,.15-.02l7.04-1.89c.15-.04.28-.14.36-.28.08-.14.1-.3.05-.45l-1.92-6.51c-.06-.26-.3-.44-.57-.44h-3.36c-.28,0-.53.2-.57.48,0,.01,0,.02,0,.03l-1.75,8.36c-.04.2.02.4.17.54.11.1.25.16.4.16h0Z"/>
          <path d="M281.32,62.57c-.31.08-.63.04-.91-.12-.28-.16-.48-.42-.56-.73-.08-.31-.04-.63.12-.91.16-.28.42-.48.73-.56l16.42-4.4c.31-.08.63-.04.91.12.28.16.48.42.56.73.17.64-.21,1.3-.85,1.47l-16.42,4.4h0ZM299.71,56.4c-.16-.61-.55-1.12-1.1-1.44-.55-.32-1.18-.4-1.79-.24l-16.42,4.4c-.61.16-1.12.55-1.44,1.1-.32.55-.4,1.18-.24,1.79.16.61.55,1.12,1.1,1.44.36.21.77.32,1.18.32.21,0,.41-.03.61-.08l16.42-4.4c1.26-.34,2.01-1.64,1.67-2.89h0Z"/>
          <path d="M289.34,20.78c-.32,0-.58-.26-.58-.58-1.23.19-2.2,1.17-2.38,2.41-.02.11.01.2.08.28.07.08.16.12.27.12h4.94c.11,0,.2-.04.27-.12.07-.08.1-.18.08-.28-.16-1.14-1.01-2.07-2.11-2.35-.03.29-.28.52-.58.52h0Z"/>
          <path d="M288.76,20.21c0,.32.26.58.58.58.3,0,.55-.23.58-.52,0-.02,0-.04,0-.06V0h-1.17v20.2h0Z"/>
          <path d="M134.19,56.02c-.13-.51-.25-1-.37-1.5-.21-.86-.41-1.68-.62-2.46-.07-.26-.3-.44-.56-.44h-3.39c.32,0,.58.26.58.58v.58h2.36c.17.65.33,1.31.5,2.01.12.49.25,1,.37,1.5.75,2.98,2.12,5.38,4.3,7.54,2.67,2.64,4.14,6.16,4.14,9.92,0,7.69-6.26,13.95-13.95,13.95s-13.95-6.26-13.95-13.95c0-3.75,1.47-7.28,4.14-9.92,2.19-2.16,3.55-4.56,4.3-7.54.13-.51.25-1.01.37-1.5.17-.7.34-1.37.5-2.02h2.36v-.58c0-.32.26-.58.58-.58h-3.39c-.27,0-.5.18-.56.44-.21.79-.41,1.6-.62,2.47-.12.49-.24.99-.37,1.49-.69,2.77-1.96,4.99-3.99,7-2.89,2.86-4.49,6.68-4.49,10.75,0,8.34,6.78,15.12,15.12,15.12s15.12-6.78,15.12-15.12c0-4.07-1.59-7.88-4.49-10.75-2.03-2.01-3.3-4.23-3.99-7h0Z"/>
          <path d="M127.55,41.7c-.3,0-.55-.23-.58-.53-1.3.25-2.31,1.3-2.5,2.61-.02.12.01.22.09.31.08.09.18.13.29.13h5.39c.12,0,.22-.05.29-.13.08-.09.11-.19.09-.31-.19-1.32-1.2-2.37-2.5-2.61-.03.3-.28.53-.58.53h0Z"/>
          <path d="M122.37,48.35h10.35c.64,0,1.17.52,1.17,1.17s-.52,1.17-1.17,1.17h-10.35c-.64,0-1.17-.52-1.17-1.17s.52-1.17,1.17-1.17h0Z"/>
          <path d="M122.37,45.12h10.35c.64,0,1.17.52,1.17,1.17s-.52,1.17-1.17,1.17h-10.35c-.64,0-1.17-.52-1.17-1.17s.52-1.17,1.17-1.17h0Z"/>
          <path d="M122.65,66.56v3.35c0,.57.16,1.07.5,1.53.26.35.26.84,0,1.19-.76,1.05-.96,2.61-.52,4.07.45,1.47,1.46,2.64,2.82,3.26v.54c0,.91.76,1.64,1.69,1.64h.8c.93,0,1.69-.74,1.69-1.64v-.54c1.35-.62,2.37-1.79,2.82-3.26.44-1.46.25-3.02-.52-4.07-.26-.35-.26-.84,0-1.19.33-.46.5-.96.5-1.53v-3.35c0-1.25-1.05-2.26-2.35-2.26h-.18v1.17h.18c.65,0,1.18.49,1.18,1.1v3.35c0,.32-.08.58-.27.84-.56.77-.56,1.8,0,2.57.55.76.69,1.92.35,3.04-.38,1.26-1.29,2.23-2.49,2.66-.23.08-.38.3-.38.55v.93c0,.26-.24.48-.53.48h-.8c-.29,0-.53-.22-.53-.48v-.93c0-.25-.15-.46-.38-.55-1.2-.44-2.1-1.41-2.49-2.66-.34-1.12-.21-2.28.35-3.04.56-.77.56-1.8,0-2.57-.19-.26-.27-.52-.27-.84v-3.35c0-.61.53-1.1,1.18-1.1h.18v-1.17h-.18c-1.29,0-2.35,1.02-2.35,2.26h0Z"/>
          <rect x="128.13" y="64.3" width=".62" height="1.17"/>
          <rect x="126.34" y="64.3" width=".62" height="1.17"/>
          <path d="M125.27,52.21v3.28c-.92.22-1.61,1.05-1.61,2.04v4.18c0,.96.64,1.77,1.52,2.02v9.03c0,.54.44.97.97.97h2.95c.19,0,.82-.07.82-.97v-9.03c.88-.25,1.52-1.06,1.52-2.02v-4.18c0-.99-.69-1.82-1.61-2.04v-3.28c0-.32-.26-.58-.58-.58h-1.7c.32,0,.58.26.58.58v.58h.53v3.22c0,.32.26.58.58.58h.09c.52,0,.94.42.94.93v4.18c0,.52-.42.93-.94.93-.32,0-.58.26-.58.58v9.33h-2.41v-9.33c0-.32-.26-.58-.58-.58-.52,0-.94-.42-.94-.93v-4.18c0-.52.42-.93.94-.93h.09c.32,0,.58-.26.58-.58v-3.22h.53v-.58c0-.32.26-.58.58-.58h-1.7c-.32,0-.58.26-.58.58h0Z"/>
          <path d="M126.96,52.21v15.93c0,.32.26.58.58.58s.58-.26.58-.58v-15.93c0-.32-.26-.58-.58-.58s-.58.26-.58.58Z"/>
          <path d="M126.97,41.17c.03.3.28.53.58.53s.55-.23.58-.53c0-.02,0-.04,0-.05V0h-1.17v41.12s0,.04,0,.05h0Z"/>
          <path d="M215.26,117.13c-.13-.5-.25-1-.37-1.5-.21-.86-.41-1.68-.62-2.47-.07-.26-.3-.44-.56-.44h-3.39c.32,0,.58.26.58.58v.58h2.36c.17.65.33,1.31.5,2.01.12.49.24.99.37,1.5.75,2.98,2.12,5.38,4.3,7.54,2.67,2.64,4.14,6.16,4.14,9.92,0,7.69-6.26,13.95-13.95,13.95s-13.95-6.26-13.95-13.95c0-3.75,1.47-7.28,4.14-9.92,2.19-2.16,3.55-4.56,4.3-7.54.13-.51.25-1.01.37-1.5.17-.7.34-1.37.5-2.02h2.36v-.58c0-.32.26-.58.58-.58h-3.39c-.27,0-.5.18-.56.44-.21.79-.41,1.61-.62,2.47-.12.49-.24.99-.37,1.49-.69,2.77-1.96,4.99-3.99,7-2.89,2.86-4.49,6.68-4.49,10.75,0,8.34,6.78,15.12,15.12,15.12s15.12-6.78,15.12-15.12c0-4.07-1.59-7.88-4.49-10.75-2.03-2.01-3.3-4.23-3.99-7h0Z"/>
          <path d="M208.61,102.81c-.3,0-.55-.23-.58-.53-1.3.25-2.31,1.3-2.5,2.61-.02.12.01.22.09.31.08.09.18.13.29.13h5.39c.12,0,.22-.05.29-.13.08-.09.11-.19.09-.31-.19-1.32-1.2-2.37-2.5-2.61-.03.3-.28.53-.58.53h0Z"/>
          <path d="M203.44,109.46h10.35c.64,0,1.17.52,1.17,1.17s-.52,1.17-1.17,1.17h-10.35c-.64,0-1.17-.52-1.17-1.17s.52-1.17,1.17-1.17h0Z"/>
          <path d="M203.44,106.23h10.35c.64,0,1.17.52,1.17,1.17s-.52,1.17-1.17,1.17h-10.35c-.64,0-1.17-.52-1.17-1.17s.52-1.17,1.17-1.17Z"/>
          <rect x="207.41" y="125.41" width=".62" height="1.17"/>
          <path d="M203.72,127.67v3.35c0,.57.16,1.07.5,1.53.26.35.26.84,0,1.19-.76,1.05-.96,2.61-.52,4.07.45,1.47,1.46,2.64,2.82,3.26v.54c0,.91.76,1.64,1.69,1.64h.8c.93,0,1.69-.74,1.69-1.64v-.54c1.35-.62,2.37-1.79,2.82-3.26.44-1.46.25-3.02-.52-4.07-.26-.35-.26-.84,0-1.19.33-.46.5-.96.5-1.53v-3.35c0-1.25-1.05-2.26-2.35-2.26h-.18v1.17h.18c.65,0,1.18.49,1.18,1.1v3.35c0,.32-.08.58-.27.84-.56.77-.56,1.8,0,2.57.55.76.69,1.92.35,3.04-.38,1.26-1.29,2.23-2.49,2.66-.23.08-.38.3-.38.55v.93c0,.26-.24.48-.53.48h-.8c-.29,0-.53-.22-.53-.48v-.93c0-.25-.15-.46-.38-.55-1.2-.44-2.1-1.41-2.49-2.66-.34-1.12-.21-2.28.35-3.04.56-.77.56-1.8,0-2.57-.19-.26-.27-.52-.27-.84v-3.35c0-.61.53-1.1,1.18-1.1h.18v-1.17h-.18c-1.29,0-2.35,1.02-2.35,2.26h0Z"/>
          <rect x="209.2" y="125.41" width=".62" height="1.17"/>
          <path d="M206.33,113.32v3.28c-.92.22-1.61,1.05-1.61,2.04v4.18c0,.96.64,1.77,1.52,2.02v9.03c0,.54.44.97.97.97h2.95c.19,0,.82-.07.82-.97v-9.03c.88-.25,1.52-1.06,1.52-2.02v-4.18c0-.99-.69-1.82-1.61-2.04v-3.28c0-.32-.26-.58-.58-.58h-1.7c.32,0,.58.26.58.58v.58h.53v3.22c0,.32.26.58.58.58h.09c.52,0,.93.42.93.93v4.18c0,.52-.42.93-.93.93-.32,0-.58.26-.58.58v9.33h-2.41v-9.33c0-.32-.26-.58-.58-.58-.52,0-.94-.42-.94-.93v-4.18c0-.52.42-.93.94-.93h.09c.32,0,.58-.26.58-.58v-3.22h.53v-.58c0-.32.26-.58.58-.58h-1.7c-.32,0-.58.26-.58.58h0Z"/>
          <path d="M208.03,113.32v15.93c0,.32.26.58.58.58s.58-.26.58-.58v-15.93c0-.32-.26-.58-.58-.58s-.58.26-.58.58Z"/>
          <path d="M208.03,102.29c.03.3.28.53.58.53s.55-.23.58-.53c0-.02,0-.04,0-.05V0h-1.17v102.23s0,.04,0,.05h0Z"/>
          <path d="M241.06,58.65c-.13-.5-.25-1-.37-1.5-.21-.86-.41-1.68-.62-2.47-.07-.26-.3-.44-.56-.44h-3.23c.32,0,.58.26.58.58v.58h2.19c.17.65.33,1.31.5,2.01.12.49.24,1,.37,1.5.75,2.98,2.12,5.38,4.3,7.54,2.67,2.64,4.14,6.16,4.14,9.92,0,7.69-6.26,13.95-13.95,13.95s-13.95-6.26-13.95-13.95c0-3.75,1.47-7.28,4.14-9.92,2.19-2.16,3.55-4.56,4.3-7.54.13-.5.25-1,.37-1.5.17-.7.34-1.37.5-2.02h2.19v-.58c0-.32.26-.58.58-.58h-3.23c-.27,0-.5.18-.56.44-.21.79-.41,1.61-.62,2.47-.12.49-.24.99-.37,1.49-.69,2.77-1.96,4.99-3.99,7-2.89,2.86-4.49,6.68-4.49,10.75,0,8.34,6.78,15.12,15.12,15.12s15.12-6.78,15.12-15.12c0-4.07-1.59-7.88-4.49-10.75-2.03-2.01-3.3-4.23-3.99-7h0Z"/>
          <path d="M233.13,54.84v.58h2.56v-.58c0-.32.26-.58.58-.58h-3.72c.32,0,.58.26.58.58h0Z"/>
          <path d="M234.41,44.34c-.3,0-.55-.23-.58-.53-1.3.25-2.31,1.3-2.5,2.61-.02.12.01.22.09.31.08.09.18.13.29.13h5.39c.12,0,.22-.05.29-.13.08-.09.11-.19.09-.31-.19-1.32-1.2-2.37-2.5-2.61-.03.3-.28.53-.58.53h0Z"/>
          <path d="M229.24,50.98h10.35c.15,0,.3.03.45.09.14.06.27.14.38.25.11.11.19.24.25.38.06.14.09.29.09.45s-.03.3-.09.45c-.06.14-.14.27-.25.38-.11.11-.24.19-.38.25-.14.06-.29.09-.45.09h-10.35c-.15,0-.3-.03-.45-.09s-.27-.14-.38-.25c-.11-.11-.19-.24-.25-.38-.06-.14-.09-.29-.09-.45s.03-.3.09-.45c.06-.14.14-.27.25-.38.11-.11.24-.19.38-.25.14-.06.29-.09.45-.09Z"/>
          <path d="M229.24,47.76h10.35c.64,0,1.17.52,1.17,1.17s-.52,1.17-1.17,1.17h-10.35c-.64,0-1.17-.52-1.17-1.17s.52-1.17,1.17-1.17h0Z"/>
          <path d="M230.53,75.14c.14-.19.46-.23.69-.23.21,0,.4.08.54.24.19.21.29.51.26.81-.04.45-.33,1.03-.81,1.39-.33-.37-.57-.79-.7-1.19-.14-.44-.13-.82,0-1.01h0ZM237.06,75.14c.15-.16.33-.24.54-.24.24,0,.55.04.69.23.14.19.15.57,0,1.01-.13.41-.37.82-.7,1.19-.48-.36-.77-.94-.81-1.39-.03-.3.07-.61.26-.81h0ZM231.97,54.84v10.12c0,2.11-1.2,3.64-2.47,5.25-1.05,1.34-2.13,2.72-2.47,4.44-.24,1.26-.04,2.37.58,3.12.4.48,1.18,1.06,2.63,1.06.27,0,.53-.04.77-.11.9.73,2.09,1.23,3.4,1.23s2.5-.5,3.4-1.23c.24.07.5.11.77.11,1.16,0,2.05-.36,2.63-1.06.61-.74.82-1.84.59-3.08-.33-1.75-1.42-3.15-2.48-4.5-1.26-1.62-2.46-3.14-2.46-5.24v-10.12c0-.32-.26-.58-.58-.58s-.58.26-.58.58v10.12c0,2.5,1.37,4.26,2.71,5.96,1.02,1.3,1.97,2.52,2.25,4,.17.9.05,1.65-.34,2.12-.31.38-.81.59-1.49.63.27-.38.47-.78.59-1.17.25-.82.19-1.55-.18-2.05-.24-.32-.71-.71-1.63-.71h0c-.54,0-1.03.22-1.4.62-.41.44-.62,1.08-.57,1.7.06.74.46,1.51,1.08,2.06-.65.41-1.43.68-2.29.68s-1.65-.27-2.29-.68c.62-.54,1.01-1.31,1.07-2.06.05-.62-.16-1.26-.57-1.7-.37-.4-.86-.62-1.4-.62h0c-.92,0-1.39.39-1.63.71-.37.51-.44,1.23-.18,2.05.12.39.32.79.59,1.17-.68-.04-1.18-.25-1.49-.63-.39-.48-.51-1.24-.34-2.16.28-1.45,1.23-2.66,2.24-3.94,1.34-1.7,2.72-3.46,2.72-5.97v-10.12c0-.32-.26-.58-.58-.58s-.58.26-.58.58h0Z"/>
          <path d="M233.83,43.81c.03.3.28.53.58.53s.55-.23.58-.53c0-.02,0-.04,0-.05V0h-1.17v43.75s0,.04,0,.05h0Z"/>
        </g>
        <g>
          <path d="M52.89,178.33l-.31.29c.02.13.05.25.07.37.02.11.05.22.07.33.13.49.28.96.45,1.39.17.44.3.66.4.66.14,0,.31-.24.5-.72.05-.12.1-.2.15-.23.05-.04.12-.05.19-.05.05,0,.1.01.14.04s.07.05.07.09c0,.06-.06.28-.18.65-.12.37-.26.71-.41,1.03-.16.31-.31.47-.45.47-.22,0-.38-.08-.5-.25s-.21-.34-.28-.51c-.07-.17-.11-.29-.13-.35-.16-.32-.37-.92-.63-1.78l-.16-.52c-.76.53-1.39.89-1.91,1.07-.52.19-1.12.28-1.82.28s-1.35-.19-1.9-.56c-.55-.37-.97-.91-1.28-1.61-.31-.7-.46-1.54-.46-2.51,0-1.27.31-2.52.92-3.75.61-1.23,1.37-2.35,2.27-3.38.04-.05.12-.15.25-.31.13-.16.28-.28.44-.38s.33-.14.51-.14c.19,0,.38.02.56.05.07-.1.13-.16.19-.19.05-.03.14-.04.26-.04.94,0,1.82.17,2.66.5.83.33,1.51.85,2.04,1.57.53.71.79,1.61.79,2.69,0,1.27-.22,2.35-.65,3.24s-1.06,1.75-1.87,2.59ZM49.87,168.65c0,.14-.06.27-.17.38-.11.11-.26.16-.44.16-.16,0-.39-.02-.7-.07-.96.92-1.72,1.96-2.29,3.12s-.85,2.42-.85,3.79c0,1.21.25,2.13.75,2.75s1.17.94,2.02.94c.72,0,1.31-.09,1.76-.27s1.04-.53,1.75-1.04l-.23-1.21c-.31-1.54-.47-2.36-.47-2.47,0-.16.05-.29.14-.39.1-.1.25-.15.47-.15.1,0,.2.22.3.67.1.44.22,1.1.37,1.98l.16.95c.68-.74,1.22-1.5,1.61-2.27s.58-1.72.58-2.86c0-.92-.22-1.69-.66-2.29-.44-.6-1.02-1.04-1.74-1.31-.72-.28-1.51-.41-2.38-.41Z"/>
          <path d="M58.8,180.94c-.23,0-.44-.13-.62-.39-.19-.26-.34-.55-.45-.86s-.17-.53-.17-.62c0-.13.06-.26.19-.38s.25-.18.39-.18c.11,0,.26.14.46.43s.38.61.55.96c.17.35.25.61.25.76,0,.18-.2.27-.59.27ZM58.67,174.59c-.26,0-.47-.19-.63-.58-.16-.39-.23-.75-.23-1.09,0-.13.06-.26.19-.38s.25-.18.39-.18c.24,0,.45.23.62.68.17.46.26.88.26,1.28,0,.18-.2.27-.59.27Z"/>
          <path d="M76.15,176.01c-.22.07-.48.12-.78.14-.31.02-.51.03-.6.03-.01.37-.04.79-.07,1.24s-.07.83-.09,1.13l-.05.56-.04.58-.11,1.39c-.05.61-.25.92-.59.92-.13,0-.26-.15-.39-.46-.13-.31-.19-.56-.19-.75,0-.05.05-.14.14-.29s.16-.32.18-.54c.05-.34.1-.89.16-1.67.06-.78.1-1.43.13-1.96-.47.04-.97.09-1.51.16-.24.02-.78.08-1.62.16s-1.5.14-1.98.16c-.05.79-.1,1.76-.16,2.9-.06,1.14-.09,1.84-.09,2.09,0,.1.01.22.04.38.03.16.04.28.04.36,0,.11-.08.22-.24.32-.16.11-.29.16-.39.16-.12,0-.22-.08-.3-.23-.08-.16-.12-.34-.12-.54,0-.11.01-.29.04-.53.02-.25.04-.46.05-.64.05-.32.08-.59.09-.79.06-.71.11-1.39.14-2.05.04-.66.06-1.1.07-1.33-.76.13-1.47.2-2.14.2-.23,0-.42-.06-.58-.17-.16-.11-.24-.28-.24-.5,0-.16.04-.27.12-.35s.24-.12.48-.12l.95.02c.62.02,1.13.04,1.51.04.06-1.02.09-1.84.09-2.45,0-1.39-.01-2.64-.04-3.74v-.67c0-.18.07-.33.21-.44.14-.11.3-.17.48-.17.13,0,.22.1.27.31.05.21.07.43.07.68s-.03.8-.09,1.62c-.07,1.39-.11,2.13-.11,2.21l-.09,2.57c1.01-.02,2.72-.18,5.13-.47.05-.35.13-1.26.25-2.74.05-.78.09-1.35.13-1.71l.11-1.4c.16-1.76.23-2.87.23-3.31,0-.16.06-.28.18-.38.12-.1.26-.14.41-.14.22,0,.32.21.32.63,0,.26-.06.97-.18,2.11-.13,1.49-.21,2.32-.22,2.48-.07.92-.14,1.81-.21,2.65-.07.84-.11,1.4-.13,1.69.22-.04.41-.09.58-.16.22-.07.38-.11.5-.11s.26.07.41.22c.16.14.23.25.23.31,0,.19-.14.33-.41.41Z"/>
          <path d="M80.58,180.62c-.8,0-1.4-.22-1.78-.67-.38-.44-.58-1-.58-1.66,0-.58.11-1.29.32-2.14.21-.85.51-1.61.89-2.29.02-.05.12-.22.3-.53.17-.31.37-.54.58-.7.22-.16.44-.24.68-.24.11,0,.21.03.3.08.09.05.13.12.13.21,0,.02-.03.08-.1.17-.07.09-.12.16-.15.21-.41.49-.74.98-.99,1.46-.34.61-.6,1.22-.78,1.82-.19.6-.28,1.25-.28,1.96,0,.95.58,1.42,1.73,1.42.54,0,1.04-.16,1.5-.47.46-.31.83-.69,1.11-1.14s.41-.86.41-1.23c0-.42-.14-.79-.41-1.1-.28-.31-.65-.64-1.13-.99-.31-.23-.54-.41-.68-.56-.14-.14-.22-.26-.22-.36,0-.14.1-.26.31-.35.2-.09.44-.14.72-.14.16,0,.26,0,.31.03s.07.05.07.1c0,.02-.02.06-.06.12s-.06.1-.06.13.12.16.36.36c.48.4.88.8,1.21,1.21.32.41.49.89.49,1.44,0,.47-.17,1.01-.52,1.62-.35.61-.84,1.14-1.48,1.58-.64.44-1.36.66-2.18.66Z"/>
          <path d="M94.72,180.6c-.36,0-.7-.35-1.03-1.04-.32-.7-.59-1.54-.8-2.52-.21-.98-.34-1.88-.39-2.68-.32.62-.67,1.33-1.04,2.11-.37.79-.67,1.46-.88,2.01-.32.85-.61,1.68-.86,2.48-.01.02-.03.08-.05.17-.02.09-.06.15-.1.19s-.1.05-.19.05c-.18,0-.32-.04-.41-.12s-.17-.2-.24-.37l-.14-.74c-.22-1.18-.44-2.29-.68-3.35-.26-1.09-.53-1.99-.81-2.7-.28-.71-.49-1.06-.63-1.06-.05,0-.12.04-.22.12-.1.08-.19.14-.27.19-.08.05-.16.06-.22.04-.14-.07-.22-.16-.22-.25s.07-.25.22-.45.31-.39.5-.55c.19-.16.35-.24.5-.24.11,0,.2.03.28.08.08.05.16.14.24.24.16.2.37.68.65,1.43.28.75.53,1.66.76,2.73l.74,3.15c.55-1.54,1.06-2.81,1.52-3.83s.99-2.07,1.58-3.16c.23-.41.47-.61.72-.61.17,0,.31.06.41.18.11.12.16.22.16.29,0,.05-.03.1-.09.16s-.11.12-.14.18c-.1.13-.17.28-.22.45s-.08.43-.08.77c0,.42.08,1.08.23,1.97.15.89.35,1.7.61,2.4s.54,1.06.84,1.06c.18,0,.4-.3.67-.9.26-.6.5-1.34.69-2.22s.3-1.73.3-2.55c0-.17-.08-.36-.25-.58-.13-.18-.2-.31-.2-.4,0-.07.06-.18.17-.31s.23-.21.35-.21c.16,0,.3.13.44.38s.21.5.21.76c0,1.22-.16,2.39-.48,3.5-.32,1.11-.69,2.01-1.11,2.7s-.76,1.04-1.01,1.04Z"/>
          <path d="M115.05,180.84c-.22,0-.32-.11-.32-.32,0-2.42-.08-4.28-.23-5.57-.16-1.29-.43-1.94-.81-1.94-.65,0-1.6,2.26-2.84,6.79v.02c0,.14-.05.27-.14.37-.1.1-.22.15-.38.15-.22,0-.32-.11-.32-.32,0-.48.02-1.22.07-2.23.05-1.13.07-2.02.07-2.66,0-.9-.03-1.54-.08-1.92s-.17-.57-.35-.57c-.41,0-.92.75-1.55,2.24s-1.28,3.25-1.96,5.28l-.16.47c-.05.12-.12.22-.21.31-.09.08-.19.13-.3.13-.14,0-.24-.01-.29-.04-.05-.02-.08-.1-.09-.22-.06-.59-.11-1.37-.14-2.36-.02-.25-.05-.67-.07-1.24-.12-2.03-.23-3.4-.32-4.11s-.14-1.11-.14-1.2c0-.1.05-.21.14-.34.1-.13.19-.2.27-.2.19,0,.35.14.47.41.06.13.13.66.2,1.58.07.92.13,2.07.18,3.44l.09,2.75c.66-2.04,1.34-3.89,2.05-5.55s1.36-2.49,1.94-2.49c.4,0,.67.29.81.86.14.58.22,1.41.22,2.5,0,.58-.01,1.4-.04,2.48l-.02.83c.49-1.72.98-3.16,1.47-4.32.49-1.16.97-1.75,1.47-1.75,1.24,0,1.85,2.74,1.85,8.21,0,.14-.05.27-.14.37-.1.1-.22.15-.38.15Z"/>
          <path d="M125.41,179.83c0,.14-.06.31-.18.5-.12.19-.24.28-.36.28-.2,0-.36-.13-.47-.38-.11-.25-.16-.55-.16-.88,0-.29.02-1.15.05-2.59l.02-.68c0-.28-.07-.47-.22-.59-.54.91-1.04,1.7-1.51,2.38-.47.67-1.06,1.31-1.78,1.9-.72.59-1.48.89-2.27.89-.38,0-.68-.12-.89-.36-.21-.24-.32-.55-.32-.94,0-.48.22-1.14.65-1.97.43-.83.98-1.68,1.66-2.54.67-.86,1.34-1.56,2.02-2.12.44-.36.8-.6,1.06-.73s.5-.19.7-.19c.19,0,.39.06.59.18s.38.29.52.5c.14.22.22.46.22.74,0,.37-.1.73-.31,1.06l.31-.09c.13,0,.21.16.23.49.01.19.03.58.04,1.17.02.59.03,1.07.04,1.46.01.4.02.78.04,1.15.01.37.02.67.04.88.01.08.06.17.14.26.08.09.13.17.13.22ZM123.85,174.77c.14-.36.22-.75.22-1.17,0-.25-.08-.47-.23-.66-.15-.19-.35-.28-.6-.28-.3,0-.68.2-1.15.61-.54.46-1.11,1.06-1.71,1.83-.6.76-1.1,1.51-1.49,2.26-.4.74-.59,1.33-.59,1.76,0,.36.17.54.5.54.65,0,1.27-.24,1.87-.72.6-.48,1.14-1.05,1.61-1.72.47-.67,1-1.49,1.58-2.46Z"/>
          <path d="M132.78,181.14c-.12,0-.22-.03-.31-.08-.08-.05-.13-.13-.13-.23,0-.49.04-1.25.11-2.29.07-1.1.11-2.02.11-2.75s-.02-1.29-.06-1.74c-.04-.45-.14-.68-.3-.68-.41,0-.86.51-1.34,1.52-.49,1.01-1.04,2.35-1.67,4l-.27.72c-.05.12-.13.22-.24.29s-.23.11-.35.11c-.14,0-.24-.01-.29-.04s-.08-.1-.09-.22l-.14-1.48-.27-2.59c-.08-1.03-.19-1.93-.31-2.7-.04-.18-.05-.32-.05-.41,0-.18.08-.33.23-.44.16-.11.34-.17.54-.17.12,0,.21.29.26.86.05.58.11,1.51.17,2.79l.07.95c.1,1.21.15,1.98.16,2.3.04-.07.07-.15.1-.24s.07-.19.12-.3c.65-1.68,1.26-3.08,1.83-4.2.57-1.12,1.12-1.68,1.65-1.68.37,0,.63.32.77.95.14.63.22,1.44.26,2.42.04,1.09.05,2.69.05,4.79,0,.14-.06.27-.18.37-.12.1-.26.15-.43.15Z"/>
          <path d="M141.25,174.34c-.14,1.06-.22,1.65-.23,1.78-.16,1.48-.27,2.6-.33,3.38-.07.77-.1,1.47-.1,2.1,0,.52.04.92.12,1.22.08.3.16.54.25.71s.13.28.13.31c0,.11-.1.2-.29.29-.19.08-.39.13-.59.13-.16,0-.28-.21-.37-.63-.09-.42-.13-1.07-.13-1.96,0-.67.07-1.58.2-2.72l.27-2.48c-.32.62-.72,1.22-1.2,1.79-.47.57-.96.86-1.47.86-.47,0-.89-.41-1.26-1.22-.37-.82-.66-1.74-.87-2.77s-.31-1.79-.31-2.27c0-.3.09-.45.27-.45.26,0,.43.25.5.74.46,3.34,1.09,5,1.91,5,.32,0,.61-.13.86-.39.25-.26.54-.66.87-1.2.16-.25.32-.59.5-1.01.18-.42.32-.77.41-1.04l.13-1.82c.02-.28.06-.47.11-.59.05-.11.14-.17.29-.17.12,0,.24.07.36.21.12.14.18.27.18.41,0,.28-.07.88-.2,1.8Z"/>
          <path d="M154.75,168.18c0,.24-.01.71-.04,1.41-.02.7-.04,1.41-.04,2.12,0,1.37.03,2.76.09,4.19.06,1.42.11,2.35.14,2.8,0,.07,0,.15.02.23.01.08.02.16.04.23.05.34.07.54.07.61,0,.12-.09.23-.26.34s-.31.16-.4.16c-.13,0-.22-.05-.26-.15-.04-.1-.06-.24-.06-.42,0-.66.02-1.35.05-2.07l.02-1.01c0-.34,0-.78-.02-1.32-.01-.55-.03-1-.05-1.38-.61,1.97-1.3,3.6-2.08,4.89s-1.61,1.93-2.51,1.93c-.41,0-.75-.19-1.04-.58-.28-.38-.42-.94-.42-1.66,0-.95.32-1.98.96-3.1.64-1.12,1.37-2.08,2.2-2.88.82-.8,1.43-1.21,1.83-1.21s.58.13.58.38c0,.17-.06.36-.17.58-.11.22-.24.42-.38.6-.14.18-.22.27-.24.27s-.05,0-.08-.03c-.03-.02-.04-.04-.04-.06,0-.06.03-.16.09-.31.06-.14.09-.24.09-.29,0-.06,0-.1-.02-.13s-.05-.04-.11-.04c-.25,0-.71.34-1.36,1.04-.65.69-1.24,1.51-1.75,2.46-.52.95-.77,1.83-.77,2.65,0,.29.06.56.18.81s.32.38.59.38c.88,0,1.69-.74,2.44-2.22.75-1.48,1.4-3.17,1.95-5.05l-.04-1.51c-.04-1.33-.05-2.04-.05-2.12,0-.72.03-1.24.09-1.55.02-.12.05-.2.08-.25s.09-.07.19-.07c.12,0,.24.04.36.12s.18.18.18.31l-.04.88Z"/>
          <path d="M163.79,176.17c0,.22-.16.69-.48,1.42-.32.73-.8,1.41-1.44,2.03-.64.62-1.43.94-2.37.94-.77,0-1.41-.24-1.93-.72-.52-.48-.77-1.22-.77-2.21,0-.94.22-1.86.65-2.78.43-.92,1-1.67,1.69-2.25.7-.58,1.42-.87,2.16-.87.44,0,.82.1,1.12.3.31.2.46.48.46.85,0,.42-.24.83-.71,1.22-.47.4-1.09.74-1.85,1.04-.76.3-1.54.52-2.34.65-.14.55-.22,1.09-.22,1.62,0,.7.17,1.24.5,1.62s.8.58,1.41.58c.92,0,1.67-.33,2.25-.99s1.06-1.4,1.44-2.23c.02-.05.07-.14.13-.28.06-.14.11-.21.16-.21.08,0,.13.09.13.27ZM161.09,172.47c-.46,0-.89.15-1.31.45s-.77.66-1.05,1.08c-.28.42-.47.79-.55,1.12.55-.06,1.13-.22,1.75-.47.61-.25,1.12-.53,1.54-.83s.62-.55.62-.74-.1-.34-.3-.45c-.2-.11-.43-.16-.69-.16Z"/>
          <path d="M167.19,181.11c-.52,0-.86-.05-1.04-.14-.18-.1-.27-.23-.27-.4,0-.11.14-.3.41-.57.28-.27.46-.41.56-.41.14,0,.22.03.22.09,0,.05-.03.1-.09.14-.06.05-.09.09-.09.13,0,.05.08.1.23.14.15.05.33.07.55.07.5,0,1.01-.09,1.52-.28.51-.19.93-.43,1.25-.73.32-.3.49-.62.49-.95s-.1-.58-.31-.77c-.2-.19-.46-.33-.77-.42-.31-.09-.82-.22-1.54-.39-.79-.18-1.41-.34-1.84-.48-.44-.14-.79-.31-1.05-.52-.26-.21-.4-.48-.4-.8,0-.58.28-1.1.85-1.58.56-.48,1.21-.86,1.94-1.13.73-.28,1.3-.41,1.69-.41s.61.12.61.36c0,.14-.05.3-.14.48s-.24.26-.43.26c-.07,0-.15-.03-.23-.08s-.17-.08-.25-.08c-.24,0-.62.08-1.13.23-.52.16-.98.39-1.4.7-.42.31-.63.69-.63,1.13,0,.29.17.5.5.64.33.14.95.31,1.84.51.11.04.22.06.32.08.11.02.2.04.29.06.92.22,1.63.46,2.12.74s.74.69.74,1.24-.21,1.03-.64,1.52-.99.88-1.68,1.17c-.7.29-1.42.44-2.18.44Z"/>
          <path d="M173.81,169.5c-.2,0-.41-.08-.62-.25s-.31-.31-.31-.41c0-.13.06-.26.19-.38s.25-.18.39-.18c.18.06.33.16.45.29.1.1.2.22.32.38.12.16.18.25.18.29,0,.18-.2.27-.59.27ZM174.35,180.91c-.17-.01-.29-.28-.37-.81-.08-.53-.16-1.53-.24-3.01-.05-.97-.09-1.92-.13-2.85-.04-.93-.06-1.65-.07-2.15,0-.13.02-.23.06-.3.04-.07.12-.1.24-.1.28,0,.45.11.52.34.07.23.11.67.11,1.31l-.02,2.12c0,1.21.04,2.18.11,2.92,0,.04.05.42.16,1.15.08.5.13.84.13,1.01,0,.12-.05.21-.15.28-.1.07-.22.09-.35.08Z"/>
          <path d="M183.28,184.74c-.52.49-1.05.89-1.61,1.2-.56.31-1.04.46-1.45.46-.23,0-.39-.06-.49-.17-.1-.11-.14-.25-.14-.41,0-.14.27-.31.81-.5.82-.26,1.57-.71,2.27-1.33.54-.48.94-1.03,1.19-1.64.25-.61.38-1.24.38-1.87,0-.72-.04-1.38-.13-1.98-.09-.6-.23-1.34-.42-2.21-.22-.92-.37-1.71-.45-2.36-.2.55-.52,1.22-.95,2-.43.78-.93,1.53-1.52,2.25-.55.68-1.05,1.19-1.5,1.53s-.89.5-1.31.5c-.36,0-.63-.14-.8-.42s-.26-.67-.26-1.16c0-.82.25-1.78.76-2.88.5-1.1,1.13-2.05,1.89-2.84.76-.79,1.5-1.19,2.23-1.19.25,0,.45.09.58.27.14.18.21.4.21.65,0,.32-.07.49-.2.49-.04,0-.08-.04-.13-.13-.05-.09-.12-.17-.19-.24-.07-.07-.15-.11-.23-.11-.61,0-1.23.34-1.86,1.03-.63.68-1.15,1.48-1.57,2.4-.41.92-.62,1.67-.62,2.26,0,.32.04.56.13.7.09.14.23.22.42.22.29,0,.64-.17,1.04-.5s.89-.86,1.46-1.58c.5-.64.96-1.38,1.38-2.22.41-.85.73-1.65.95-2.42.02-.07.06-.13.12-.18.05-.05.12-.07.19-.07.11,0,.22.03.33.1.11.07.17.13.17.21,0,.05,0,.1-.03.15-.02.05-.03.09-.04.1.08.66.28,1.69.59,3.08.23.98.4,1.81.51,2.48s.17,1.32.17,1.95c0,.94-.19,1.79-.56,2.56-.37.77-.81,1.39-1.31,1.87Z"/>
          <path d="M192.46,181.14c-.12,0-.22-.03-.31-.08-.08-.05-.13-.13-.13-.23,0-.49.04-1.25.11-2.29.07-1.1.11-2.02.11-2.75s-.02-1.29-.06-1.74c-.04-.45-.14-.68-.3-.68-.41,0-.86.51-1.34,1.52-.49,1.01-1.04,2.35-1.67,4l-.27.72c-.05.12-.13.22-.24.29s-.23.11-.35.11c-.14,0-.24-.01-.29-.04s-.08-.1-.09-.22l-.14-1.48-.27-2.59c-.08-1.03-.19-1.93-.31-2.7-.04-.18-.05-.32-.05-.41,0-.18.08-.33.23-.44.16-.11.34-.17.54-.17.12,0,.21.29.26.86.05.58.11,1.51.17,2.79l.07.95c.1,1.21.15,1.98.16,2.3.04-.07.07-.15.1-.24s.07-.19.12-.3c.65-1.68,1.26-3.08,1.83-4.2.57-1.12,1.12-1.68,1.65-1.68.37,0,.63.32.77.95.14.63.22,1.44.26,2.42.04,1.09.05,2.69.05,4.79,0,.14-.06.27-.18.37-.12.1-.26.15-.43.15Z"/>
          <path d="M202.11,176.17c0,.22-.16.69-.48,1.42-.32.73-.8,1.41-1.44,2.03-.64.62-1.43.94-2.37.94-.77,0-1.41-.24-1.93-.72-.52-.48-.77-1.22-.77-2.21,0-.94.22-1.86.65-2.78.43-.92,1-1.67,1.69-2.25.7-.58,1.42-.87,2.16-.87.44,0,.82.1,1.12.3.31.2.46.48.46.85,0,.42-.24.83-.71,1.22-.47.4-1.09.74-1.85,1.04-.76.3-1.54.52-2.34.65-.14.55-.22,1.09-.22,1.62,0,.7.17,1.24.5,1.62s.8.58,1.41.58c.92,0,1.67-.33,2.25-.99s1.06-1.4,1.44-2.23c.02-.05.07-.14.13-.28.06-.14.11-.21.16-.21.08,0,.13.09.13.27ZM199.41,172.47c-.46,0-.89.15-1.31.45s-.77.66-1.05,1.08c-.28.42-.47.79-.55,1.12.55-.06,1.13-.22,1.75-.47.61-.25,1.12-.53,1.54-.83s.62-.55.62-.74-.1-.34-.3-.45c-.2-.11-.43-.16-.69-.16Z"/>
          <path d="M209.09,173.49c-.08,0-.17-.04-.24-.11-.08-.07-.17-.17-.26-.31-.08-.12-.19-.22-.33-.31-.14-.08-.28-.13-.42-.13-.35,0-.82.46-1.4,1.38-.59.92-1.16,2.07-1.73,3.46.01.28.03.62.06,1.04.03.42.05.73.06.94l.05.72c0,.17-.04.31-.11.44s-.2.19-.4.19c-.2,0-.34-.27-.4-.82-.06-.55-.1-1.34-.11-2.38-.01-.26-.02-.64-.03-1.13,0-.49-.02-1.08-.04-1.76-.04-1.03-.05-1.77-.05-2.21,0-.28.17-.41.5-.41.2,0,.33.09.37.26s.06.51.06,1v2.86c.36-.92.75-1.72,1.17-2.39.42-.67.83-1.19,1.23-1.54.4-.35.76-.53,1.07-.53.26,0,.52.06.76.18.24.12.43.27.58.46.14.19.22.36.22.53,0,.11-.08.23-.22.37-.15.14-.28.21-.39.21Z"/>
          <path d="M212.96,181.11c-.52,0-.86-.05-1.04-.14-.18-.1-.27-.23-.27-.4,0-.11.14-.3.41-.57.28-.27.46-.41.56-.41.14,0,.22.03.22.09,0,.05-.03.1-.09.14-.06.05-.09.09-.09.13,0,.05.08.1.23.14.15.05.33.07.55.07.5,0,1.01-.09,1.52-.28.51-.19.93-.43,1.25-.73.32-.3.49-.62.49-.95s-.1-.58-.31-.77c-.2-.19-.46-.33-.77-.42-.31-.09-.82-.22-1.54-.39-.79-.18-1.41-.34-1.84-.48-.44-.14-.79-.31-1.05-.52-.26-.21-.4-.48-.4-.8,0-.58.28-1.1.85-1.58.56-.48,1.21-.86,1.94-1.13.73-.28,1.3-.41,1.69-.41s.61.12.61.36c0,.14-.05.3-.14.48s-.24.26-.43.26c-.07,0-.15-.03-.23-.08s-.17-.08-.25-.08c-.24,0-.62.08-1.13.23-.52.16-.98.39-1.4.7-.42.31-.63.69-.63,1.13,0,.29.17.5.5.64.33.14.95.31,1.84.51.11.04.22.06.32.08.11.02.2.04.29.06.92.22,1.63.46,2.12.74s.74.69.74,1.24-.21,1.03-.64,1.52-.99.88-1.68,1.17c-.7.29-1.42.44-2.18.44Z"/>
          <path d="M230.6,168.18c0,.24-.01.71-.04,1.41-.02.7-.04,1.41-.04,2.12,0,1.37.03,2.76.09,4.19.06,1.42.11,2.35.14,2.8,0,.07,0,.15.02.23.01.08.02.16.04.23.05.34.07.54.07.61,0,.12-.09.23-.26.34s-.31.16-.4.16c-.13,0-.22-.05-.26-.15-.04-.1-.06-.24-.06-.42,0-.66.02-1.35.05-2.07l.02-1.01c0-.34,0-.78-.02-1.32-.01-.55-.03-1-.05-1.38-.61,1.97-1.3,3.6-2.08,4.89s-1.61,1.93-2.51,1.93c-.41,0-.75-.19-1.04-.58-.28-.38-.42-.94-.42-1.66,0-.95.32-1.98.96-3.1.64-1.12,1.37-2.08,2.2-2.88.82-.8,1.43-1.21,1.83-1.21s.58.13.58.38c0,.17-.06.36-.17.58-.11.22-.24.42-.38.6-.14.18-.22.27-.24.27s-.05,0-.08-.03c-.03-.02-.04-.04-.04-.06,0-.06.03-.16.09-.31.06-.14.09-.24.09-.29,0-.06,0-.1-.02-.13s-.05-.04-.11-.04c-.25,0-.71.34-1.36,1.04-.65.69-1.24,1.51-1.75,2.46-.52.95-.77,1.83-.77,2.65,0,.29.06.56.18.81s.32.38.59.38c.88,0,1.69-.74,2.44-2.22.75-1.48,1.4-3.17,1.95-5.05l-.04-1.51c-.04-1.33-.05-2.04-.05-2.12,0-.72.03-1.24.09-1.55.02-.12.05-.2.08-.25s.09-.07.19-.07c.12,0,.24.04.36.12s.18.18.18.31l-.04.88Z"/>
          <path d="M234.78,180.62c-.8,0-1.4-.22-1.78-.67-.38-.44-.58-1-.58-1.66,0-.58.11-1.29.32-2.14.21-.85.51-1.61.89-2.29.02-.05.12-.22.3-.53.17-.31.37-.54.58-.7.22-.16.44-.24.68-.24.11,0,.21.03.3.08.09.05.13.12.13.21,0,.02-.03.08-.1.17-.07.09-.12.16-.15.21-.41.49-.74.98-.99,1.46-.34.61-.6,1.22-.78,1.82-.19.6-.28,1.25-.28,1.96,0,.95.58,1.42,1.73,1.42.54,0,1.04-.16,1.5-.47.46-.31.83-.69,1.11-1.14.28-.45.41-.86.41-1.23,0-.42-.14-.79-.41-1.1-.28-.31-.65-.64-1.13-.99-.31-.23-.54-.41-.68-.56-.14-.14-.22-.26-.22-.36,0-.14.1-.26.31-.35.2-.09.44-.14.72-.14.16,0,.26,0,.31.03s.07.05.07.1c0,.02-.02.06-.06.12s-.06.1-.06.13.12.16.36.36c.48.4.88.8,1.21,1.21s.49.89.49,1.44c0,.47-.17,1.01-.52,1.62-.35.61-.84,1.14-1.48,1.58-.64.44-1.36.66-2.18.66Z"/>
          <path d="M247.34,176.17c0,.22-.16.69-.48,1.42-.32.73-.8,1.41-1.44,2.03-.64.62-1.43.94-2.37.94-.77,0-1.41-.24-1.93-.72-.52-.48-.77-1.22-.77-2.21,0-.94.22-1.86.65-2.78.43-.92,1-1.67,1.69-2.25.7-.58,1.42-.87,2.16-.87.44,0,.82.1,1.12.3.31.2.46.48.46.85,0,.42-.24.83-.71,1.22-.47.4-1.09.74-1.85,1.04-.76.3-1.54.52-2.34.65-.14.55-.22,1.09-.22,1.62,0,.7.17,1.24.5,1.62s.8.58,1.41.58c.92,0,1.67-.33,2.25-.99s1.06-1.4,1.44-2.23c.02-.05.07-.14.13-.28.06-.14.11-.21.16-.21.08,0,.13.09.13.27ZM244.64,172.47c-.46,0-.89.15-1.31.45s-.77.66-1.05,1.08c-.28.42-.47.79-.55,1.12.55-.06,1.13-.22,1.75-.47.61-.25,1.12-.53,1.54-.83s.62-.55.62-.74-.1-.34-.3-.45c-.2-.11-.43-.16-.69-.16Z"/>
          <path d="M250.75,181.11c-.52,0-.86-.05-1.04-.14-.18-.1-.27-.23-.27-.4,0-.11.14-.3.41-.57.28-.27.46-.41.56-.41.14,0,.22.03.22.09,0,.05-.03.1-.09.14-.06.05-.09.09-.09.13,0,.05.08.1.23.14.15.05.33.07.55.07.5,0,1.01-.09,1.52-.28.51-.19.93-.43,1.25-.73.32-.3.49-.62.49-.95s-.1-.58-.31-.77c-.2-.19-.46-.33-.77-.42-.31-.09-.82-.22-1.54-.39-.79-.18-1.41-.34-1.84-.48-.44-.14-.79-.31-1.05-.52-.26-.21-.4-.48-.4-.8,0-.58.28-1.1.85-1.58.56-.48,1.21-.86,1.94-1.13.73-.28,1.3-.41,1.69-.41s.61.12.61.36c0,.14-.05.3-.14.48s-.24.26-.43.26c-.07,0-.15-.03-.23-.08s-.17-.08-.25-.08c-.24,0-.62.08-1.13.23-.52.16-.98.39-1.4.7-.42.31-.63.69-.63,1.13,0,.29.17.5.5.64.33.14.95.31,1.84.51.11.04.22.06.32.08.11.02.2.04.29.06.92.22,1.63.46,2.12.74s.74.69.74,1.24-.21,1.03-.64,1.52-.99.88-1.68,1.17c-.7.29-1.42.44-2.18.44Z"/>
          <path d="M262.53,169.5c-.2,0-.41-.08-.62-.25s-.31-.31-.31-.41c0-.13.06-.26.19-.38s.25-.18.39-.18c.18.06.33.16.45.29.1.1.2.22.32.38.12.16.18.25.18.29,0,.18-.2.27-.59.27ZM263.07,180.91c-.17-.01-.29-.28-.37-.81-.08-.53-.16-1.53-.24-3.01-.05-.97-.09-1.92-.13-2.85-.04-.93-.06-1.65-.07-2.15,0-.13.02-.23.06-.3.04-.07.12-.1.24-.1.28,0,.45.11.52.34.07.23.11.67.11,1.31l-.02,2.12c0,1.21.04,2.18.11,2.92,0,.04.05.42.16,1.15.08.5.13.84.13,1.01,0,.12-.05.21-.15.28-.1.07-.22.09-.35.08Z"/>
          <path d="M272.63,173.76c-1.1.19-1.72.3-1.85.32l-1.17.2c0,.62,0,1.28.03,1.96.02.68.04,1.28.08,1.8.05.7.13,1.23.25,1.6.12.37.19.58.2.63,0,.12-.08.23-.22.33-.15.1-.29.15-.42.15-.07,0-.13-.02-.18-.06s-.09-.11-.13-.21c-.07-.17-.14-.48-.21-.94-.07-.46-.12-.96-.15-1.51-.04-.49-.06-1.06-.08-1.72-.02-.65-.03-1.29-.03-1.9-.67.11-1.36.24-2.07.4-.64.13-1.01.2-1.13.2-.14,0-.28-.04-.4-.13s-.19-.2-.19-.34c0-.16.05-.26.16-.31.11-.05.29-.07.54-.07.18,0,.44-.03.79-.1.35-.07.57-.11.67-.13.8-.16,1.35-.26,1.64-.31,0-.25-.01-.58-.04-.99-.02-.55-.04-.97-.04-1.26,0-.47.02-.83.05-1.09.03-.26.09-.49.17-.69.1-.24.28-.36.54-.36.11,0,.18.02.22.05s.05.1.05.2c0,.07-.03.28-.09.63-.06.35-.09.81-.09,1.39,0,.44.01.94.04,1.49l.02.49c.54-.08,1.61-.31,3.2-.67.1-.02.18-.11.24-.25.07-.14.13-.22.21-.22.13,0,.27.08.4.22.14.15.21.3.21.46,0,.2-.09.36-.26.47-.17.11-.49.19-.95.25Z"/>
          <path d="M286.69,173.76c-1.1.19-1.72.3-1.85.32l-1.17.2c0,.62,0,1.28.03,1.96.02.68.04,1.28.08,1.8.05.7.13,1.23.25,1.6.12.37.19.58.2.63,0,.12-.08.23-.22.33-.15.1-.29.15-.42.15-.07,0-.13-.02-.18-.06s-.09-.11-.13-.21c-.07-.17-.14-.48-.21-.94-.07-.46-.12-.96-.15-1.51-.04-.49-.06-1.06-.08-1.72-.02-.65-.03-1.29-.03-1.9-.67.11-1.36.24-2.07.4-.64.13-1.01.2-1.13.2-.14,0-.28-.04-.4-.13s-.19-.2-.19-.34c0-.16.05-.26.16-.31.11-.05.29-.07.54-.07.18,0,.44-.03.79-.1.35-.07.57-.11.67-.13.8-.16,1.35-.26,1.64-.31,0-.25-.01-.58-.04-.99-.02-.55-.04-.97-.04-1.26,0-.47.02-.83.05-1.09.03-.26.09-.49.17-.69.1-.24.28-.36.54-.36.11,0,.18.02.22.05s.05.1.05.2c0,.07-.03.28-.09.63-.06.35-.09.81-.09,1.39,0,.44.01.94.04,1.49l.02.49c.54-.08,1.61-.31,3.2-.67.1-.02.18-.11.24-.25.07-.14.13-.22.21-.22.13,0,.27.08.4.22.14.15.21.3.21.46,0,.2-.09.36-.26.47-.17.11-.49.19-.95.25Z"/>
          <path d="M296.54,179.83c0,.14-.06.31-.18.5s-.24.28-.36.28c-.2,0-.36-.13-.47-.38-.11-.25-.16-.55-.16-.88,0-.29.02-1.15.05-2.59l.02-.68c0-.28-.07-.47-.22-.59-.54.91-1.04,1.7-1.51,2.38-.47.67-1.06,1.31-1.78,1.9-.72.59-1.48.89-2.27.89-.38,0-.68-.12-.89-.36-.21-.24-.32-.55-.32-.94,0-.48.22-1.14.65-1.97s.98-1.68,1.66-2.54c.67-.86,1.34-1.56,2.02-2.12.44-.36.8-.6,1.06-.73.26-.13.5-.19.7-.19.19,0,.39.06.59.18.2.12.38.29.52.5.14.22.22.46.22.74,0,.37-.1.73-.31,1.06l.31-.09c.13,0,.21.16.23.49.01.19.03.58.04,1.17.02.59.03,1.07.04,1.46.01.4.02.78.04,1.15s.02.67.04.88c.01.08.06.17.14.26.08.09.13.17.13.22ZM294.97,174.77c.14-.36.22-.75.22-1.17,0-.25-.08-.47-.22-.66-.15-.19-.35-.28-.6-.28-.3,0-.68.2-1.15.61-.54.46-1.11,1.06-1.71,1.83-.6.76-1.1,1.51-1.49,2.26-.4.74-.59,1.33-.59,1.76,0,.36.17.54.5.54.65,0,1.27-.24,1.87-.72.6-.48,1.14-1.05,1.61-1.72.47-.67,1-1.49,1.58-2.46Z"/>
          <path d="M305.82,173.55c-.1,0-.2-.05-.32-.15-.12-.1-.2-.15-.25-.15-.32,0-.84.22-1.55.67s-1.43.97-2.18,1.57c-.74.6-1.31,1.11-1.71,1.53l.02.32c.91.42,1.93.87,3.04,1.35,1.12.48,1.89.76,2.32.85.17.02.33.04.5.05.17.01.29.02.36.02.11,0,.2,0,.27.02s.11.04.11.07c0,.14-.11.29-.33.43-.22.14-.55.22-1,.22-.4,0-.93-.15-1.61-.44-.68-.29-1.48-.68-2.4-1.16l-1.13-.56c.16,1.52.23,2.36.23,2.52,0,.13-.07.24-.2.32-.13.08-.28.13-.43.13-.1,0-.17-.14-.23-.43-.06-.29-.13-.86-.22-1.71l-.13-1.1c-.14-.06-.27-.15-.38-.26-.11-.11-.16-.22-.16-.32,0-.14.12-.31.36-.5-.01-.65-.04-1.57-.1-2.77-.05-1.2-.09-2.08-.12-2.63l-.09-2.5c0-.34.04-.62.13-.86.08-.24.27-.36.56-.36.11,0,.18.02.22.06.04.04.05.12.05.24,0,.55.04,1.83.12,3.84.08,2.01.14,3.44.19,4.29,2.68-2.54,4.63-3.82,5.87-3.82.25,0,.46.04.64.13s.26.18.26.28c0,.17-.08.34-.24.53-.16.19-.32.28-.46.28Z"/>
          <path d="M313.98,176.17c0,.22-.16.69-.48,1.42-.32.73-.8,1.41-1.44,2.03-.64.62-1.43.94-2.37.94-.77,0-1.41-.24-1.93-.72-.52-.48-.77-1.22-.77-2.21,0-.94.22-1.86.65-2.78.43-.92,1-1.67,1.69-2.25.7-.58,1.42-.87,2.16-.87.44,0,.82.1,1.12.3.31.2.46.48.46.85,0,.42-.24.83-.71,1.22-.47.4-1.09.74-1.85,1.04-.76.3-1.54.52-2.34.65-.14.55-.22,1.09-.22,1.62,0,.7.17,1.24.5,1.62s.8.58,1.41.58c.92,0,1.67-.33,2.25-.99s1.06-1.4,1.44-2.23c.02-.05.07-.14.13-.28.06-.14.11-.21.16-.21.08,0,.13.09.13.27ZM311.28,172.47c-.46,0-.89.15-1.31.45s-.77.66-1.05,1.08c-.28.42-.47.79-.55,1.12.55-.06,1.13-.22,1.75-.47.61-.25,1.12-.53,1.54-.83s.62-.55.62-.74-.1-.34-.3-.45c-.2-.11-.43-.16-.69-.16Z"/>
          <path d="M94.95,195.36c-1.1.19-1.72.3-1.85.32l-1.17.2c0,.62,0,1.28.03,1.96.02.68.04,1.28.08,1.8.05.7.13,1.23.25,1.6.12.37.19.58.2.63,0,.12-.08.23-.23.33-.15.1-.29.15-.42.15-.07,0-.13-.02-.18-.06-.05-.04-.09-.11-.13-.21-.07-.17-.14-.48-.21-.94-.07-.46-.12-.96-.15-1.51-.04-.49-.06-1.06-.08-1.72s-.03-1.29-.03-1.9c-.67.11-1.36.24-2.07.4-.64.13-1.01.2-1.13.2-.14,0-.28-.04-.41-.13s-.19-.2-.19-.34c0-.16.05-.26.16-.31.11-.05.29-.07.54-.07.18,0,.44-.03.79-.1.35-.07.57-.11.67-.13.8-.16,1.35-.26,1.64-.31,0-.25-.01-.58-.04-.99-.02-.55-.04-.97-.04-1.26,0-.47.01-.83.04-1.09.03-.26.09-.49.17-.69.1-.24.28-.36.54-.36.11,0,.18.02.22.05s.05.1.05.2c0,.07-.03.28-.09.63-.06.35-.09.81-.09,1.39,0,.44.01.94.04,1.49l.02.49c.54-.08,1.61-.31,3.2-.67.1-.02.18-.11.24-.25.07-.14.13-.22.21-.22.13,0,.27.08.41.22.14.15.21.3.21.46,0,.2-.09.36-.26.47-.17.11-.49.19-.94.25Z"/>
          <path d="M99.14,202.22c-.8,0-1.4-.22-1.78-.67-.38-.44-.58-1-.58-1.66,0-.58.11-1.29.32-2.14.21-.85.51-1.61.89-2.29.02-.05.12-.22.3-.53.17-.31.37-.54.58-.7.22-.16.44-.24.68-.24.11,0,.21.03.3.08.09.05.13.12.13.21,0,.02-.03.08-.1.17-.07.09-.12.16-.15.21-.41.49-.74.98-.99,1.46-.34.61-.6,1.22-.78,1.82-.19.6-.28,1.25-.28,1.96,0,.95.58,1.42,1.73,1.42.54,0,1.04-.16,1.5-.47.46-.31.83-.69,1.11-1.14s.41-.86.41-1.23c0-.42-.14-.79-.41-1.1-.28-.31-.65-.64-1.13-.99-.31-.23-.54-.41-.68-.56-.14-.14-.22-.26-.22-.36,0-.14.1-.26.31-.35.2-.09.44-.14.72-.14.16,0,.26,0,.31.03s.07.05.07.1c0,.02-.02.06-.06.12s-.06.1-.06.13.12.16.36.36c.48.4.88.8,1.21,1.21.32.41.49.89.49,1.44,0,.47-.17,1.01-.52,1.62-.35.61-.84,1.14-1.48,1.58-.64.44-1.36.66-2.18.66Z"/>
          <path d="M111.92,202.71c-.52,0-.86-.05-1.04-.14-.18-.1-.27-.23-.27-.4,0-.11.14-.3.41-.57.28-.27.46-.41.56-.41.14,0,.22.03.22.09,0,.05-.03.1-.09.14-.06.05-.09.09-.09.13,0,.05.08.1.22.14.15.05.33.07.55.07.5,0,1.01-.09,1.52-.28.51-.19.93-.43,1.25-.73s.49-.62.49-.95-.1-.58-.31-.77c-.2-.19-.46-.33-.76-.42-.31-.09-.82-.22-1.54-.39-.79-.18-1.41-.34-1.84-.48-.44-.14-.79-.31-1.05-.52-.26-.21-.4-.48-.4-.8,0-.58.28-1.1.85-1.58.56-.48,1.21-.86,1.94-1.13.73-.28,1.3-.41,1.69-.41s.61.12.61.36c0,.14-.05.3-.14.48-.1.17-.24.26-.43.26-.07,0-.15-.03-.23-.08s-.17-.08-.25-.08c-.24,0-.62.08-1.13.23-.52.16-.98.39-1.4.7-.42.31-.63.69-.63,1.13,0,.29.17.5.5.64.33.14.94.31,1.84.51.11.04.22.06.32.08.11.02.2.04.29.06.92.22,1.63.46,2.12.74.49.28.74.69.74,1.24s-.21,1.03-.64,1.52-.99.88-1.68,1.17c-.7.29-1.42.44-2.18.44Z"/>
          <path d="M122.29,199.81c-.62.76-1.18,1.34-1.68,1.75s-1.02.61-1.56.61c-.46,0-.83-.2-1.12-.59-.29-.4-.44-.85-.44-1.37,0-.77.2-1.74.61-2.92.41-1.18.92-2.2,1.55-3.06s1.25-1.3,1.87-1.3c.26,0,.49.1.68.29.11.11.21.25.31.43.1.18.14.34.14.49,0,.2-.03.44-.08.71-.05.27-.11.41-.17.41-.12,0-.2-.07-.23-.2-.04-.13-.06-.3-.07-.5-.04-.31-.07-.52-.11-.62-.04-.1-.09-.15-.16-.15-.56,0-1.11.39-1.64,1.18-.53.79-.96,1.7-1.3,2.74-.34,1.04-.5,1.84-.5,2.4,0,.79.26,1.19.79,1.19.38,0,.73-.1,1.05-.29.32-.19.65-.46,1-.81.65-.66,1.15-1.23,1.51-1.71.02-.04.09-.13.21-.28.11-.15.2-.22.24-.22.14,0,.22.05.22.16,0,.07-.12.29-.37.67s-.5.71-.75,1.01Z"/>
          <path d="M130.19,195.09c-.09,0-.17-.04-.24-.11-.08-.07-.16-.17-.26-.31-.08-.12-.19-.22-.33-.31s-.28-.13-.42-.13c-.35,0-.81.46-1.4,1.38-.59.92-1.17,2.07-1.73,3.46.01.28.03.62.06,1.04.03.42.05.73.06.94l.05.72c0,.17-.04.31-.11.44s-.2.19-.4.19c-.21,0-.34-.27-.4-.82-.06-.55-.1-1.34-.11-2.38-.01-.26-.02-.64-.03-1.13s-.02-1.08-.04-1.76c-.04-1.03-.05-1.77-.05-2.21,0-.28.17-.41.5-.41.2,0,.33.09.37.26s.06.51.06,1v2.86c.36-.92.75-1.72,1.17-2.39.42-.67.83-1.19,1.23-1.54.4-.35.76-.53,1.07-.53.26,0,.52.06.76.18.24.12.43.27.58.46.14.19.22.36.22.53,0,.11-.08.23-.22.37-.15.14-.28.21-.39.21Z"/>
          <path d="M139.01,197.77c0,.22-.16.69-.48,1.42-.32.73-.8,1.41-1.44,2.03-.64.62-1.43.94-2.37.94-.77,0-1.41-.24-1.93-.72-.52-.48-.77-1.22-.77-2.21,0-.94.22-1.86.65-2.78.43-.92,1-1.67,1.69-2.25.7-.58,1.42-.87,2.16-.87.44,0,.82.1,1.12.3.31.2.46.48.46.85,0,.42-.24.83-.71,1.22-.47.4-1.09.74-1.85,1.04-.76.3-1.54.52-2.34.65-.14.55-.22,1.09-.22,1.62,0,.7.17,1.24.5,1.62s.8.58,1.41.58c.92,0,1.67-.33,2.25-.99s1.06-1.4,1.44-2.23c.02-.05.07-.14.13-.28.06-.14.11-.21.16-.21.08,0,.13.09.13.27ZM136.31,194.07c-.46,0-.89.15-1.31.45s-.77.66-1.05,1.08c-.28.42-.47.79-.55,1.12.55-.06,1.13-.22,1.75-.47.61-.25,1.12-.53,1.54-.83s.62-.55.62-.74-.1-.34-.3-.45c-.2-.11-.43-.16-.69-.16Z"/>
          <path d="M148.95,202.2c-.36,0-.7-.35-1.03-1.04-.32-.7-.59-1.54-.8-2.52-.21-.98-.34-1.88-.39-2.68-.32.62-.67,1.33-1.04,2.11-.37.79-.67,1.46-.88,2.01-.32.85-.61,1.68-.86,2.48-.01.02-.03.08-.05.17-.02.09-.06.15-.1.19-.04.04-.11.05-.19.05-.18,0-.31-.04-.41-.12-.09-.08-.17-.2-.24-.37l-.14-.74c-.22-1.18-.44-2.29-.68-3.35-.26-1.09-.53-1.99-.81-2.7s-.49-1.06-.63-1.06c-.05,0-.12.04-.22.12-.1.08-.19.14-.27.19-.08.05-.16.06-.22.04-.14-.07-.22-.16-.22-.25s.07-.25.22-.45c.14-.2.31-.39.5-.55.19-.16.35-.24.5-.24.11,0,.2.03.28.08.08.05.16.14.24.24.16.2.37.68.65,1.43s.53,1.66.76,2.73l.74,3.15c.55-1.54,1.06-2.81,1.52-3.83s.99-2.07,1.58-3.16c.23-.41.47-.61.72-.61.17,0,.31.06.41.18.11.12.16.22.16.29,0,.05-.03.1-.09.16-.06.06-.11.12-.14.18-.1.13-.17.28-.23.45-.05.17-.08.43-.08.77,0,.42.08,1.08.23,1.97.15.89.35,1.7.61,2.4.26.71.54,1.06.84,1.06.18,0,.4-.3.67-.9.26-.6.49-1.34.69-2.22s.3-1.73.3-2.55c0-.17-.08-.36-.25-.58-.13-.18-.2-.31-.2-.4,0-.07.06-.18.17-.31.11-.14.23-.21.35-.21.16,0,.3.13.44.38.14.25.21.5.21.76,0,1.22-.16,2.39-.48,3.5-.32,1.11-.69,2.01-1.11,2.7-.42.69-.76,1.04-1.01,1.04Z"/>
          <path d="M159.03,191.1c-.2,0-.41-.08-.62-.25s-.31-.31-.31-.41c0-.13.06-.26.19-.38s.25-.18.39-.18c.18.06.33.16.45.29.1.1.2.22.32.38.12.16.18.25.18.29,0,.18-.2.27-.59.27ZM159.57,202.51c-.17-.01-.29-.28-.37-.81-.08-.53-.16-1.53-.24-3.01-.05-.97-.09-1.92-.13-2.85-.04-.93-.06-1.65-.07-2.15,0-.13.02-.23.06-.3.04-.07.12-.1.24-.1.28,0,.45.11.52.34.07.23.11.67.11,1.31l-.02,2.12c0,1.21.04,2.18.11,2.92,0,.04.05.42.16,1.15.08.5.13.84.13,1.01,0,.12-.05.21-.15.28-.1.07-.22.09-.35.08Z"/>
          <path d="M167.92,202.74c-.12,0-.22-.03-.31-.08-.08-.05-.13-.13-.13-.23,0-.49.04-1.25.11-2.29.07-1.1.11-2.02.11-2.75s-.02-1.29-.06-1.74c-.04-.45-.14-.68-.3-.68-.41,0-.86.51-1.34,1.52-.49,1.01-1.04,2.35-1.67,4l-.27.72c-.05.12-.13.22-.24.29s-.23.11-.35.11c-.14,0-.24-.01-.29-.04s-.08-.1-.09-.22l-.14-1.48-.27-2.59c-.08-1.03-.19-1.93-.31-2.7-.04-.18-.05-.32-.05-.41,0-.18.08-.33.23-.44.16-.11.34-.17.54-.17.12,0,.21.29.26.86.05.58.11,1.51.17,2.79l.07.95c.1,1.21.15,1.98.16,2.3.04-.07.07-.15.1-.24s.07-.19.12-.3c.65-1.68,1.26-3.08,1.83-4.2.57-1.12,1.12-1.68,1.65-1.68.37,0,.63.32.77.95.14.63.22,1.44.26,2.42.04,1.09.05,2.69.05,4.79,0,.14-.06.27-.18.37-.12.1-.26.15-.43.15Z"/>
          <path d="M183.52,201.43c0,.14-.06.31-.18.5s-.24.28-.36.28c-.2,0-.36-.13-.47-.38-.11-.25-.16-.55-.16-.88,0-.29.02-1.15.05-2.59l.02-.68c0-.28-.07-.47-.22-.59-.54.91-1.04,1.7-1.51,2.38-.47.67-1.06,1.31-1.78,1.9-.72.59-1.48.89-2.27.89-.38,0-.68-.12-.89-.36-.21-.24-.32-.55-.32-.94,0-.48.22-1.14.65-1.97s.98-1.68,1.66-2.54c.67-.86,1.34-1.56,2.02-2.12.44-.36.8-.6,1.06-.73.26-.13.5-.19.7-.19.19,0,.39.06.59.18.2.12.38.29.52.5.14.22.22.46.22.74,0,.37-.1.73-.31,1.06l.31-.09c.13,0,.21.16.23.49.01.19.03.58.04,1.17.02.59.03,1.07.04,1.46.01.4.02.78.04,1.15s.02.67.04.88c.01.08.06.17.14.26.08.09.13.17.13.22ZM181.96,196.37c.14-.36.22-.75.22-1.17,0-.25-.08-.47-.22-.66-.15-.19-.35-.28-.6-.28-.3,0-.68.2-1.15.61-.54.46-1.11,1.06-1.71,1.83-.6.76-1.1,1.51-1.49,2.26-.4.74-.59,1.33-.59,1.76,0,.36.17.54.5.54.65,0,1.27-.24,1.87-.72.6-.48,1.14-1.05,1.61-1.72.47-.67,1-1.49,1.58-2.46Z"/>
          <path d="M191.48,202c-.14,0-.28-.17-.41-.51-.13-.34-.19-.86-.19-1.56.01-1.36.03-2.99.06-4.91s.06-3.37.08-4.34c.01-.35.08-.67.19-.97.11-.3.31-.45.6-.45.1,0,.16.05.19.15.03.1.04.3.04.58,0,.01,0,.05,0,.12,0,.07,0,.18,0,.35-.22,3.16-.32,6.23-.32,9.23,0,.38.09.79.26,1.22.17.43.26.66.26.68,0,.12-.08.22-.23.29-.16.07-.33.11-.52.11Z"/>
          <path d="M194.69,191.1c-.2,0-.41-.08-.62-.25s-.31-.31-.31-.41c0-.13.06-.26.19-.38s.25-.18.39-.18c.18.06.33.16.45.29.1.1.2.22.32.38.12.16.18.25.18.29,0,.18-.2.27-.59.27ZM195.23,202.51c-.17-.01-.29-.28-.37-.81-.08-.53-.16-1.53-.24-3.01-.05-.97-.09-1.92-.13-2.85-.04-.93-.06-1.65-.07-2.15,0-.13.02-.23.06-.3.04-.07.12-.1.24-.1.28,0,.45.11.52.34.07.23.11.67.11,1.31l-.02,2.12c0,1.21.04,2.18.11,2.92,0,.04.05.42.16,1.15.08.5.13.84.13,1.01,0,.12-.05.21-.15.28-.1.07-.22.09-.35.08Z"/>
          <path d="M204.15,206.34c-.52.49-1.05.89-1.61,1.2-.56.31-1.04.46-1.45.46-.23,0-.39-.06-.49-.17-.1-.11-.14-.25-.14-.41,0-.14.27-.31.81-.5.82-.26,1.57-.71,2.27-1.33.54-.48.94-1.03,1.19-1.64.25-.61.38-1.24.38-1.87,0-.72-.04-1.38-.13-1.98-.09-.6-.23-1.34-.42-2.21-.22-.92-.37-1.71-.45-2.36-.2.55-.52,1.22-.95,2-.43.78-.93,1.53-1.52,2.25-.55.68-1.05,1.19-1.5,1.53s-.89.5-1.31.5c-.36,0-.63-.14-.8-.42s-.26-.67-.26-1.16c0-.82.25-1.78.76-2.88.5-1.1,1.13-2.05,1.89-2.84.76-.79,1.5-1.19,2.23-1.19.25,0,.45.09.58.27.14.18.21.4.21.65,0,.32-.07.49-.2.49-.04,0-.08-.04-.13-.13-.05-.09-.12-.17-.19-.24-.07-.07-.15-.11-.23-.11-.61,0-1.23.34-1.86,1.03-.63.68-1.15,1.48-1.57,2.4-.41.92-.62,1.67-.62,2.26,0,.32.04.56.13.7.09.14.23.22.42.22.29,0,.64-.17,1.04-.5s.89-.86,1.46-1.58c.5-.64.96-1.38,1.38-2.22.41-.85.73-1.65.95-2.42.02-.07.06-.13.12-.18.05-.05.12-.07.19-.07.11,0,.22.03.33.1.11.07.17.13.17.21,0,.05,0,.1-.03.15-.02.05-.03.09-.04.1.08.66.28,1.69.59,3.08.23.98.4,1.81.51,2.48s.17,1.32.17,1.95c0,.94-.19,1.79-.56,2.56-.37.77-.81,1.39-1.31,1.87Z"/>
          <path d="M215.1,202.87c-.12,0-.22-.03-.31-.08-.08-.05-.13-.13-.13-.23l.04-1.24c.06-1.48.09-2.68.09-3.62,0-1.37-.1-2.33-.29-2.87-.19-.55-.41-.82-.67-.82-.56,0-1.27.87-2.12,2.62-.85,1.75-1.67,3.65-2.47,5.71-.06.17-.14.33-.24.49-.1.16-.21.23-.32.23-.26,0-.4-.08-.4-.25,0-.73-.03-2.1-.09-4.11-.06-2.01-.11-3.33-.14-3.97-.11-2.15-.21-3.47-.31-3.98-.1-.5-.14-.77-.14-.81,0-.12.07-.21.2-.27.13-.06.3-.09.5-.09.17,0,.29.38.37,1.14.08.76.13,1.74.17,2.92l.02.5c.02.37.04,1.44.05,3.2.01,1.76.02,3.05.02,3.88.55-1.38,1.07-2.61,1.56-3.69.49-1.08,1.05-2.09,1.68-3.03.64-.94,1.22-1.41,1.76-1.41.46,0,.84.38,1.15,1.14.31.76.47,1.9.47,3.41,0,.67.01,1.61.04,2.81l.02,1.89c0,.14-.05.27-.14.37-.1.1-.22.15-.38.15Z"/>
          <path d="M224.6,195.36c-1.1.19-1.72.3-1.85.32l-1.17.2c0,.62,0,1.28.03,1.96.02.68.04,1.28.08,1.8.05.7.13,1.23.25,1.6.12.37.19.58.2.63,0,.12-.08.23-.22.33-.15.1-.29.15-.42.15-.07,0-.13-.02-.18-.06s-.09-.11-.13-.21c-.07-.17-.14-.48-.21-.94-.07-.46-.12-.96-.15-1.51-.04-.49-.06-1.06-.08-1.72-.02-.65-.03-1.29-.03-1.9-.67.11-1.36.24-2.07.4-.64.13-1.01.2-1.13.2-.14,0-.28-.04-.4-.13s-.19-.2-.19-.34c0-.16.05-.26.16-.31.11-.05.29-.07.54-.07.18,0,.44-.03.79-.1.35-.07.57-.11.67-.13.8-.16,1.35-.26,1.64-.31,0-.25-.01-.58-.04-.99-.02-.55-.04-.97-.04-1.26,0-.47.02-.83.05-1.09.03-.26.09-.49.17-.69.1-.24.28-.36.54-.36.11,0,.18.02.22.05s.05.1.05.2c0,.07-.03.28-.09.63-.06.35-.09.81-.09,1.39,0,.44.01.94.04,1.49l.02.49c.54-.08,1.61-.31,3.2-.67.1-.02.18-.11.24-.25.07-.14.13-.22.21-.22.13,0,.27.08.4.22.14.15.21.3.21.46,0,.2-.09.36-.26.47-.17.11-.49.19-.95.25Z"/>
          <path d="M235.27,201.66c-.53.4-.92.59-1.19.59-.13,0-.24-.05-.32-.14-.08-.1-.13-.21-.13-.34s.06-.26.17-.4.29-.25.51-.34c.83-.36,1.58-.88,2.27-1.56.68-.68,1.22-1.39,1.6-2.15.38-.76.58-1.42.58-2,0-.23-.05-.4-.15-.51-.1-.11-.27-.17-.49-.17-.5,0-1.02.2-1.55.61s-1.02.94-1.48,1.6c-.35.5-.68,1.11-1.01,1.82s-.57,1.46-.74,2.25c-.1.42-.3.63-.61.63-.08,0-.17-.08-.27-.22-.1-.15-.14-.29-.14-.41,0-1.39-.05-3.44-.14-6.14-.1-2.7-.16-4.24-.2-4.63,0-.07,0-.14-.02-.21-.01-.07-.02-.13-.04-.19-.01-.07-.02-.15-.04-.22s-.02-.15-.02-.23c0-.28.13-.41.38-.41.2,0,.37.13.5.39s.19.55.19.87v.95c0,2.86.04,5.05.13,6.59.05.76.1,1.18.14,1.26.13-.4.34-.84.62-1.33.28-.49.58-.95.89-1.37.56-.77,1.18-1.38,1.84-1.84s1.26-.69,1.8-.69c.37,0,.67.12.91.36s.35.59.35,1.04c0,1.02-.41,2.13-1.22,3.34-.82,1.21-1.85,2.27-3.11,3.2Z"/>
          <path d="M247.93,202.4c-.24,0-.46-.25-.66-.76-.2-.5-.32-1.03-.37-1.57-.05-.52-.08-1.56-.11-3.13-.01-.25-.02-.51-.02-.76s0-.48-.02-.66c-.35.83-.82,1.77-1.42,2.83-.6,1.06-1.2,1.96-1.81,2.72-.61.76-1.1,1.13-1.49,1.13s-.66-.21-.78-.63c-.13-.42-.19-1.08-.19-2,0-.85.11-1.82.33-2.9.22-1.08.48-1.9.76-2.47.12-.25.22-.42.31-.51.08-.09.18-.13.29-.13.3,0,.45.06.45.18,0,.06-.06.2-.18.41-.32.6-.61,1.32-.85,2.16-.24.84-.36,1.97-.36,3.38,0,.95.13,1.42.4,1.42.31,0,.73-.34,1.27-1.04s1.06-1.51,1.59-2.48c.53-.96.93-1.79,1.21-2.5.1-.24.2-.61.32-1.12.04-.2.07-.35.11-.44.04-.09.08-.13.13-.13.13,0,.28.05.43.16.16.11.23.22.23.34,0,.58.02,1.56.06,2.96.04,1.4.09,2.37.15,2.91.05.47.13.83.26,1.1s.25.47.37.62.18.24.18.28c0,.19-.05.34-.16.45-.11.11-.26.16-.45.16Z"/>
          <path d="M251.01,202c-.14,0-.28-.17-.41-.51-.13-.34-.19-.86-.19-1.56.01-1.36.03-2.99.06-4.91s.06-3.37.08-4.34c.01-.35.08-.67.19-.97.11-.3.31-.45.6-.45.1,0,.16.05.19.15.03.1.04.3.04.58,0,.01,0,.05,0,.12,0,.07,0,.18,0,.35-.22,3.16-.32,6.23-.32,9.23,0,.38.09.79.26,1.22.17.43.26.66.26.68,0,.12-.08.22-.23.29-.16.07-.33.11-.52.11Z"/>
          <path d="M257,201.66c-.53.4-.92.59-1.19.59-.13,0-.24-.05-.32-.14-.08-.1-.13-.21-.13-.34s.06-.26.17-.4.29-.25.51-.34c.83-.36,1.58-.88,2.27-1.56.68-.68,1.22-1.39,1.6-2.15.38-.76.58-1.42.58-2,0-.23-.05-.4-.15-.51-.1-.11-.27-.17-.49-.17-.5,0-1.02.2-1.55.61s-1.02.94-1.48,1.6c-.35.5-.68,1.11-1.01,1.82s-.57,1.46-.74,2.25c-.1.42-.3.63-.61.63-.08,0-.17-.08-.27-.22-.1-.15-.14-.29-.14-.41,0-1.39-.05-3.44-.14-6.14-.1-2.7-.16-4.24-.2-4.63,0-.07,0-.14-.02-.21-.01-.07-.02-.13-.04-.19-.01-.07-.02-.15-.04-.22s-.02-.15-.02-.23c0-.28.13-.41.38-.41.2,0,.37.13.5.39s.19.55.19.87v.95c0,2.86.04,5.05.13,6.59.05.76.1,1.18.14,1.26.13-.4.34-.84.62-1.33.28-.49.58-.95.89-1.37.56-.77,1.18-1.38,1.84-1.84s1.26-.69,1.8-.69c.37,0,.67.12.91.36s.35.59.35,1.04c0,1.02-.41,2.13-1.22,3.34-.82,1.21-1.85,2.27-3.11,3.2Z"/>
          <path d="M268.72,194.88l-.52.47s-.23.21-.55.49c-.32.28-.57.55-.76.83-.2.28-.31.58-.31.9,0,.28.07.59.2.94.02.05.06.12.1.22s.06.17.06.23c0,.14-.05.26-.14.34-.1.08-.2.13-.32.13-.22,0-.39-.16-.52-.47-.24-.59-.36-1.05-.36-1.39,0-.31.1-.64.29-.97.14-.25.34-.5.59-.74s.57-.52.95-.85l.65-.56c.35-.33.62-.64.81-.93.19-.28.29-.58.29-.89,0-.56-.35-.85-1.04-.85-.46,0-.99.11-1.61.32s-1.2.47-1.75.78c-.55.31-.94.59-1.18.85-.12.11-.24.2-.35.29-.11.08-.21.13-.28.13-.14,0-.3-.06-.46-.18s-.24-.26-.24-.43c0-.06.04-.12.11-.18.07-.06.15-.12.24-.17.09-.05.18-.11.26-.17.79-.53,1.68-1.02,2.66-1.48.98-.46,1.89-.68,2.72-.68.61,0,1.1.14,1.47.42.37.28.55.67.55,1.18,0,.42-.14.83-.41,1.22-.28.39-.65.79-1.13,1.21ZM266.76,202.27c-.48,0-.72-.23-.72-.7,0-.23.13-.46.39-.71.26-.25.52-.37.78-.37.47,0,.7.17.7.5,0,.13-.06.3-.18.51s-.27.39-.45.54c-.18.15-.35.22-.52.22Z"/>
          <path d="M113.48,228.56c-.08.07-.26.13-.52.19-.26.05-.44.09-.54.1.1.46.14.68.14.67.08.3.17.71.27,1.24.22,1.21.44,2.24.67,3.1.06.28.09.44.09.49,0,.12-.05.22-.14.31-.1.08-.21.13-.34.13-.12,0-.23-.06-.32-.19-.1-.13-.16-.24-.2-.33-.11-.41-.21-.86-.3-1.37-.09-.5-.2-1.11-.32-1.82-.05-.31-.13-.7-.23-1.16-.11-.46-.18-.76-.22-.91-.71.1-1.93.29-3.65.58l-1.04.18-.38,1.06-.5,1.44c-.42,1.31-.72,2.32-.9,3.02-.04.17-.11.31-.22.42s-.24.17-.4.17c-.13,0-.24-.04-.33-.11-.09-.07-.13-.17-.13-.31s.07-.41.22-.84c.14-.43.23-.68.25-.76.05-.12.14-.4.29-.83.16-.47.36-1.04.6-1.7s.41-1.11.5-1.32c-.61.14-1.07.26-1.37.34-.46.12-.74.18-.85.18-.13,0-.23-.05-.3-.15-.07-.1-.1-.21-.1-.33,0-.14.04-.24.11-.3.07-.05.19-.1.36-.15.46-.11.94-.22,1.45-.32.51-.11.86-.18,1.05-.22.12-.35.21-.64.27-.88.05-.16.11-.35.19-.58.08-.23.17-.52.26-.87l.27-.92c.46-1.61.72-2.53.79-2.75.06-.17.12-.3.17-.4.05-.1.13-.14.23-.14.24,0,.46.04.65.11.02-.02.06-.08.12-.15s.11-.13.18-.16c.07-.03.15-.04.26-.04.22,0,.46.25.75.74.28.49.55,1.07.82,1.75.16.4.35.99.59,1.77.24.79.4,1.31.47,1.56.18-.02.33-.06.46-.1.13-.04.21-.07.24-.08.06-.02.13-.07.2-.13.07-.06.14-.1.2-.13.06-.03.13-.03.2,0,.16.07.23.22.23.45,0,.08-.02.17-.06.27-.04.1-.1.17-.17.22ZM110.44,225.16c-.17-.44-.38-.9-.65-1.37-.26-.47-.49-.76-.67-.88l-.2.47c-.23.46-.4.87-.52,1.24-.29.86-.74,2.29-1.37,4.28l2.11-.36,1.73-.27.49-.07c-.06-.22-.19-.67-.38-1.36-.19-.69-.37-1.25-.54-1.68Z"/>
          <path d="M116.86,234.14c-.23,0-.44-.13-.62-.39-.19-.26-.34-.55-.45-.86s-.17-.53-.17-.62c0-.13.06-.26.19-.38s.25-.18.39-.18c.11,0,.26.14.46.43s.38.61.55.96c.17.35.25.61.25.76,0,.18-.2.27-.59.27ZM116.74,227.79c-.26,0-.47-.19-.63-.58-.16-.39-.23-.75-.23-1.09,0-.13.06-.26.19-.38s.25-.18.39-.18c.24,0,.45.23.62.68.17.46.26.88.26,1.28,0,.18-.2.27-.59.27Z"/>
          <path d="M134.58,228.69c-.06.65-.17,1.36-.34,2.14-.17.78-.37,1.45-.61,2.01-.24.56-.49.84-.74.84-.16,0-.34-.27-.54-.81s-.47-1.33-.79-2.38l-.31-1.01c-.22-.7-.46-1.4-.72-2.12-.26-.71-.47-1.22-.61-1.52l-.77,2.65c-.71,2.42-1.22,4.09-1.55,4.99-.01.02-.04.11-.1.26-.05.15-.15.26-.28.34s-.31.12-.52.12c-.05,0-.15-.31-.3-.94-.15-.62-.3-1.31-.46-2.07-.4-1.72-.61-2.62-.63-2.72-.29-1.18-.53-2.06-.71-2.65-.19-.59-.35-.94-.5-1.06-.2-.16-.31-.32-.31-.5,0-.08.06-.18.19-.28s.27-.15.44-.15c.14,0,.26,0,.34.03.08.02.15.07.2.15.17.28.49,1.44.97,3.49.05.16.11.39.18.7.25,1.04.46,1.94.63,2.7.1.38.18.73.24,1.04.07.31.12.54.17.69.01-.11.13-.53.36-1.26.4-1.22.7-2.26.92-3.11.23-.86.44-1.58.63-2.15.19-.57.34-.93.45-1.07.07-.08.17-.16.3-.22.13-.07.25-.1.37-.1.08,0,.15.03.2.08.05.05.09.12.13.21.04.08.07.16.11.22.12.24.31.74.58,1.51.27.77.51,1.52.73,2.27l.25.83c.38,1.33.67,2.22.85,2.66.42-.84.71-2.24.86-4.21.08-.74.13-1.79.13-3.15l-.02-1.82c0-.16.02-.27.05-.33.04-.07.12-.1.25-.1.14,0,.28.04.41.14.13.09.2.19.2.3,0,.86-.04,1.79-.11,2.77-.07.98-.15,1.85-.23,2.61Z"/>
          <path d="M144.35,234.47c-.12,0-.22-.03-.31-.08-.08-.05-.13-.13-.13-.23l.04-1.24c.06-1.48.09-2.68.09-3.62,0-1.37-.1-2.33-.29-2.87-.19-.55-.41-.82-.67-.82-.56,0-1.27.87-2.12,2.62-.85,1.75-1.67,3.65-2.47,5.71-.06.17-.14.33-.24.49-.1.16-.21.23-.32.23-.26,0-.4-.08-.4-.25,0-.73-.03-2.1-.09-4.11-.06-2.01-.11-3.33-.14-3.97-.11-2.15-.21-3.47-.31-3.98-.1-.5-.14-.77-.14-.81,0-.12.07-.21.2-.27.13-.06.3-.09.5-.09.17,0,.29.38.37,1.14.08.76.13,1.74.17,2.92l.02.5c.02.37.04,1.44.05,3.2.01,1.76.02,3.05.02,3.88.55-1.38,1.07-2.61,1.56-3.69.49-1.08,1.05-2.09,1.68-3.03.64-.94,1.22-1.41,1.76-1.41.46,0,.84.38,1.15,1.14.31.76.47,1.9.47,3.41,0,.67.01,1.61.04,2.81l.02,1.89c0,.14-.05.27-.14.37-.1.1-.22.15-.38.15Z"/>
          <path d="M152.85,227.54c-.14,1.06-.22,1.65-.23,1.78-.16,1.48-.27,2.6-.33,3.38-.07.77-.1,1.47-.1,2.1,0,.52.04.92.12,1.22.08.3.16.54.25.71s.13.28.13.31c0,.11-.1.2-.29.29-.19.08-.39.13-.59.13-.16,0-.28-.21-.37-.63-.09-.42-.13-1.07-.13-1.96,0-.67.07-1.58.2-2.72l.27-2.48c-.32.62-.72,1.22-1.2,1.79-.47.57-.96.86-1.47.86-.47,0-.89-.41-1.26-1.22-.37-.82-.66-1.74-.87-2.77s-.31-1.79-.31-2.27c0-.3.09-.45.27-.45.26,0,.43.25.5.74.46,3.34,1.09,5,1.91,5,.32,0,.61-.13.86-.39.25-.26.54-.66.87-1.2.16-.25.32-.59.5-1.01.18-.42.32-.77.41-1.04l.13-1.82c.02-.28.06-.47.11-.59.05-.11.14-.17.29-.17.12,0,.24.07.36.21.12.14.18.27.18.41,0,.28-.07.88-.2,1.8Z"/>
          <path d="M167.62,233.03c0,.14-.06.31-.18.5s-.24.28-.36.28c-.2,0-.36-.13-.47-.38-.11-.25-.16-.55-.16-.88,0-.29.02-1.15.05-2.59l.02-.68c0-.28-.07-.47-.22-.59-.54.91-1.04,1.7-1.51,2.38-.47.67-1.06,1.31-1.78,1.9-.72.59-1.48.89-2.27.89-.38,0-.68-.12-.89-.36-.21-.24-.32-.55-.32-.94,0-.48.22-1.14.65-1.97s.98-1.68,1.66-2.54c.67-.86,1.34-1.56,2.02-2.12.44-.36.8-.6,1.06-.73.26-.13.5-.19.7-.19.19,0,.39.06.59.18.2.12.38.29.52.5.14.22.22.46.22.74,0,.37-.1.73-.31,1.06l.31-.09c.13,0,.21.16.23.49.01.19.03.58.04,1.17.02.59.03,1.07.04,1.46.01.4.02.78.04,1.15s.02.67.04.88c.01.08.06.17.14.26.08.09.13.17.13.22ZM166.06,227.97c.14-.36.22-.75.22-1.17,0-.25-.08-.47-.22-.66-.15-.19-.35-.28-.6-.28-.3,0-.68.2-1.15.61-.54.46-1.11,1.06-1.71,1.83-.6.76-1.1,1.51-1.49,2.26-.4.74-.59,1.33-.59,1.76,0,.36.17.54.5.54.65,0,1.27-.24,1.87-.72.6-.48,1.14-1.05,1.61-1.72.47-.67,1-1.49,1.58-2.46Z"/>
          <path d="M175.58,233.6c-.14,0-.28-.17-.41-.51-.13-.34-.19-.86-.19-1.56.01-1.36.03-2.99.06-4.91s.06-3.37.08-4.34c.01-.35.08-.67.19-.97.11-.3.31-.45.6-.45.1,0,.16.05.19.15.03.1.04.3.04.58,0,.01,0,.05,0,.12,0,.07,0,.18,0,.35-.22,3.16-.32,6.23-.32,9.23,0,.38.09.79.26,1.22.17.43.26.66.26.68,0,.12-.08.22-.23.29-.16.07-.33.11-.52.11Z"/>
          <path d="M178.78,222.7c-.2,0-.41-.08-.62-.25s-.31-.31-.31-.41c0-.13.06-.26.19-.38s.25-.18.39-.18c.18.06.33.16.45.29.1.1.2.22.32.38.12.16.18.25.18.29,0,.18-.2.27-.59.27ZM179.32,234.11c-.17-.01-.29-.28-.37-.81-.08-.53-.16-1.53-.24-3.01-.05-.97-.09-1.92-.13-2.85-.04-.93-.06-1.65-.07-2.15,0-.13.02-.23.06-.3.04-.07.12-.1.24-.1.28,0,.45.11.52.34.07.23.11.67.11,1.31l-.02,2.12c0,1.21.04,2.18.11,2.92,0,.04.05.42.16,1.15.08.5.13.84.13,1.01,0,.12-.05.21-.15.28-.1.07-.22.09-.35.08Z"/>
          <path d="M188.25,237.94c-.52.49-1.05.89-1.61,1.2-.56.31-1.04.46-1.45.46-.23,0-.39-.06-.49-.17-.1-.11-.14-.25-.14-.41,0-.14.27-.31.81-.5.82-.26,1.57-.71,2.27-1.33.54-.48.94-1.03,1.19-1.64.25-.61.38-1.24.38-1.87,0-.72-.04-1.38-.13-1.98-.09-.6-.23-1.34-.42-2.21-.22-.92-.37-1.71-.45-2.36-.2.55-.52,1.22-.95,2-.43.78-.93,1.53-1.52,2.25-.55.68-1.05,1.19-1.5,1.53s-.89.5-1.31.5c-.36,0-.63-.14-.8-.42s-.26-.67-.26-1.16c0-.82.25-1.78.76-2.88.5-1.1,1.13-2.05,1.89-2.84.76-.79,1.5-1.19,2.23-1.19.25,0,.45.09.58.27.14.18.21.4.21.65,0,.32-.07.49-.2.49-.04,0-.08-.04-.13-.13-.05-.09-.12-.17-.19-.24-.07-.07-.15-.11-.23-.11-.61,0-1.23.34-1.86,1.03-.63.68-1.15,1.48-1.57,2.4-.41.92-.62,1.67-.62,2.26,0,.32.04.56.13.7.09.14.23.22.42.22.29,0,.64-.17,1.04-.5s.89-.86,1.46-1.58c.5-.64.96-1.38,1.38-2.22.41-.85.73-1.65.95-2.42.02-.07.06-.13.12-.18.05-.05.12-.07.19-.07.11,0,.22.03.33.1.11.07.17.13.17.21,0,.05,0,.1-.03.15-.02.05-.03.09-.04.1.08.66.28,1.69.59,3.08.23.98.4,1.81.51,2.48s.17,1.32.17,1.95c0,.94-.19,1.79-.56,2.56-.37.77-.81,1.39-1.31,1.87Z"/>
          <path d="M199.19,234.47c-.12,0-.22-.03-.31-.08-.08-.05-.13-.13-.13-.23l.04-1.24c.06-1.48.09-2.68.09-3.62,0-1.37-.1-2.33-.29-2.87-.19-.55-.41-.82-.67-.82-.56,0-1.27.87-2.12,2.62-.85,1.75-1.67,3.65-2.47,5.71-.06.17-.14.33-.24.49-.1.16-.21.23-.32.23-.26,0-.4-.08-.4-.25,0-.73-.03-2.1-.09-4.11-.06-2.01-.11-3.33-.14-3.97-.11-2.15-.21-3.47-.31-3.98-.1-.5-.14-.77-.14-.81,0-.12.07-.21.2-.27.13-.06.3-.09.5-.09.17,0,.29.38.37,1.14.08.76.13,1.74.17,2.92l.02.5c.02.37.04,1.44.05,3.2.01,1.76.02,3.05.02,3.88.55-1.38,1.07-2.61,1.56-3.69.49-1.08,1.05-2.09,1.68-3.03.64-.94,1.22-1.41,1.76-1.41.46,0,.84.38,1.15,1.14.31.76.47,1.9.47,3.41,0,.67.01,1.61.04,2.81l.02,1.89c0,.14-.05.27-.14.37-.1.1-.22.15-.38.15Z"/>
          <path d="M208.7,226.96c-1.1.19-1.72.3-1.85.32l-1.17.2c0,.62,0,1.28.03,1.96.02.68.04,1.28.08,1.8.05.7.13,1.23.25,1.6.12.37.19.58.2.63,0,.12-.08.23-.22.33-.15.1-.29.15-.42.15-.07,0-.13-.02-.18-.06s-.09-.11-.13-.21c-.07-.17-.14-.48-.21-.94-.07-.46-.12-.96-.15-1.51-.04-.49-.06-1.06-.08-1.72-.02-.65-.03-1.29-.03-1.9-.67.11-1.36.24-2.07.4-.64.13-1.01.2-1.13.2-.14,0-.28-.04-.4-.13s-.19-.2-.19-.34c0-.16.05-.26.16-.31.11-.05.29-.07.54-.07.18,0,.44-.03.79-.1.35-.07.57-.11.67-.13.8-.16,1.35-.26,1.64-.31,0-.25-.01-.58-.04-.99-.02-.55-.04-.97-.04-1.26,0-.47.02-.83.05-1.09.03-.26.09-.49.17-.69.1-.24.28-.36.54-.36.11,0,.18.02.22.05s.05.1.05.2c0,.07-.03.28-.09.63-.06.35-.09.81-.09,1.39,0,.44.01.94.04,1.49l.02.49c.54-.08,1.61-.31,3.2-.67.1-.02.18-.11.24-.25.07-.14.13-.22.21-.22.13,0,.27.08.4.22.14.15.21.3.21.46,0,.2-.09.36-.26.47-.17.11-.49.19-.95.25Z"/>
          <path d="M219.37,233.26c-.53.4-.92.59-1.19.59-.13,0-.24-.05-.32-.14-.08-.1-.13-.21-.13-.34s.06-.26.17-.4.29-.25.51-.34c.83-.36,1.58-.88,2.27-1.56.68-.68,1.22-1.39,1.6-2.15.38-.76.58-1.42.58-2,0-.23-.05-.4-.15-.51-.1-.11-.27-.17-.49-.17-.5,0-1.02.2-1.55.61s-1.02.94-1.48,1.6c-.35.5-.68,1.11-1.01,1.82s-.57,1.46-.74,2.25c-.1.42-.3.63-.61.63-.08,0-.17-.08-.27-.22-.1-.15-.14-.29-.14-.41,0-1.39-.05-3.44-.14-6.14-.1-2.7-.16-4.24-.2-4.63,0-.07,0-.14-.02-.21-.01-.07-.02-.13-.04-.19-.01-.07-.02-.15-.04-.22s-.02-.15-.02-.23c0-.28.13-.41.38-.41.2,0,.37.13.5.39s.19.55.19.87v.95c0,2.86.04,5.05.13,6.59.05.76.1,1.18.14,1.26.13-.4.34-.84.62-1.33.28-.49.58-.95.89-1.37.56-.77,1.18-1.38,1.84-1.84s1.26-.69,1.8-.69c.37,0,.67.12.91.36s.35.59.35,1.04c0,1.02-.41,2.13-1.22,3.34-.82,1.21-1.85,2.27-3.11,3.2Z"/>
          <path d="M232.02,234c-.24,0-.46-.25-.66-.76-.2-.5-.32-1.03-.37-1.57-.05-.52-.08-1.56-.11-3.13-.01-.25-.02-.51-.02-.76s0-.48-.02-.66c-.35.83-.82,1.77-1.42,2.83-.6,1.06-1.2,1.96-1.81,2.72-.61.76-1.1,1.13-1.49,1.13s-.66-.21-.78-.63c-.13-.42-.19-1.08-.19-2,0-.85.11-1.82.33-2.9.22-1.08.48-1.9.76-2.47.12-.25.22-.42.31-.51.08-.09.18-.13.29-.13.3,0,.45.06.45.18,0,.06-.06.2-.18.41-.32.6-.61,1.32-.85,2.16-.24.84-.36,1.97-.36,3.38,0,.95.13,1.42.4,1.42.31,0,.73-.34,1.27-1.04s1.06-1.51,1.59-2.48c.53-.96.93-1.79,1.21-2.5.1-.24.2-.61.32-1.12.04-.2.07-.35.11-.44.04-.09.08-.13.13-.13.13,0,.28.05.43.16.16.11.23.22.23.34,0,.58.02,1.56.06,2.96.04,1.4.09,2.37.15,2.91.05.47.13.83.26,1.1s.25.47.37.62.18.24.18.28c0,.19-.05.34-.16.45-.11.11-.26.16-.45.16Z"/>
          <path d="M235.1,233.6c-.14,0-.28-.17-.41-.51-.13-.34-.19-.86-.19-1.56.01-1.36.03-2.99.06-4.91s.06-3.37.08-4.34c.01-.35.08-.67.19-.97.11-.3.31-.45.6-.45.1,0,.16.05.19.15.03.1.04.3.04.58,0,.01,0,.05,0,.12,0,.07,0,.18,0,.35-.22,3.16-.32,6.23-.32,9.23,0,.38.09.79.26,1.22.17.43.26.66.26.68,0,.12-.08.22-.23.29-.16.07-.33.11-.52.11Z"/>
          <path d="M241.1,233.26c-.53.4-.92.59-1.19.59-.13,0-.24-.05-.32-.14-.08-.1-.13-.21-.13-.34s.06-.26.17-.4.29-.25.51-.34c.83-.36,1.58-.88,2.27-1.56.68-.68,1.22-1.39,1.6-2.15.38-.76.58-1.42.58-2,0-.23-.05-.4-.15-.51-.1-.11-.27-.17-.49-.17-.5,0-1.02.2-1.55.61s-1.02.94-1.48,1.6c-.35.5-.68,1.11-1.01,1.82s-.57,1.46-.74,2.25c-.1.42-.3.63-.61.63-.08,0-.17-.08-.27-.22-.1-.15-.14-.29-.14-.41,0-1.39-.05-3.44-.14-6.14-.1-2.7-.16-4.24-.2-4.63,0-.07,0-.14-.02-.21-.01-.07-.02-.13-.04-.19-.01-.07-.02-.15-.04-.22s-.02-.15-.02-.23c0-.28.13-.41.38-.41.2,0,.37.13.5.39s.19.55.19.87v.95c0,2.86.04,5.05.13,6.59.05.76.1,1.18.14,1.26.13-.4.34-.84.62-1.33.28-.49.58-.95.89-1.37.56-.77,1.18-1.38,1.84-1.84s1.26-.69,1.8-.69c.37,0,.67.12.91.36s.35.59.35,1.04c0,1.02-.41,2.13-1.22,3.34-.82,1.21-1.85,2.27-3.11,3.2Z"/>
          <path d="M252.81,226.48l-.52.47s-.23.21-.55.49c-.32.28-.57.55-.76.83-.2.28-.31.58-.31.9,0,.28.07.59.2.94.02.05.06.12.1.22s.06.17.06.23c0,.14-.05.26-.14.34-.1.08-.2.13-.32.13-.22,0-.39-.16-.52-.47-.24-.59-.36-1.05-.36-1.39,0-.31.1-.64.29-.97.14-.25.34-.5.59-.74s.57-.52.95-.85l.65-.56c.35-.33.62-.64.81-.93.19-.28.29-.58.29-.89,0-.56-.35-.85-1.04-.85-.46,0-.99.11-1.61.32s-1.2.47-1.75.78c-.55.31-.94.59-1.18.85-.12.11-.24.2-.35.29-.11.08-.21.13-.28.13-.14,0-.3-.06-.46-.18s-.24-.26-.24-.43c0-.06.04-.12.11-.18.07-.06.15-.12.24-.17.09-.05.18-.11.26-.17.79-.53,1.68-1.02,2.66-1.48.98-.46,1.89-.68,2.72-.68.61,0,1.1.14,1.47.42.37.28.55.67.55,1.18,0,.42-.14.83-.41,1.22-.28.39-.65.79-1.13,1.21ZM250.85,233.87c-.48,0-.72-.23-.72-.7,0-.23.13-.46.39-.71.26-.25.52-.37.78-.37.47,0,.7.17.7.5,0,.13-.06.3-.18.51s-.27.39-.45.54c-.18.15-.35.22-.52.22Z"/>
        </g>
      </g>
    </g>
  </g>
</svg>