<svg width="540" height="417" xmlns="http://www.w3.org/2000/svg" xmlns:xlink="http://www.w3.org/1999/xlink" xml:space="preserve" overflow="hidden"><defs><clipPath id="clip0"><rect x="2786" y="37" width="540" height="417"/></clipPath></defs><g clip-path="url(#clip0)" transform="translate(-2786 -37)"><path d="M2916 295C2916 207.187 2986.96 136 3074.5 136 3162.04 136 3233 207.187 3233 295 3233 382.813 3162.04 454 3074.5 454 2986.96 454 2916 382.813 2916 295Z" fill="#B55C36" fill-rule="evenodd"/><path d="M3221 95.9999C3221 66.7288 3244.51 43 3273.5 43 3302.5 43 3326 66.7288 3326 95.9999 3326 125.271 3302.5 149 3273.5 149 3244.51 149 3221 125.271 3221 95.9999Z" fill="#77ACBD" fill-rule="evenodd"/><path d="M2788 315.5C2788 294.237 2805.24 277 2826.5 277 2847.76 277 2865 294.237 2865 315.5 2865 336.763 2847.76 354 2826.5 354 2805.24 354 2788 336.763 2788 315.5Z" fill="#3B6C88" fill-rule="evenodd"/><path d="M3221 180C3221 170.611 3228.39 163 3237.5 163 3246.61 163 3254 170.611 3254 180 3254 189.389 3246.61 197 3237.5 197 3228.39 197 3221 189.389 3221 180Z" fill="#3B6C88" fill-rule="evenodd"/><path d="M3125.8 260.605 3125.8 260.605 3127.27 259.142 3128.95 258.306 3130.83 257.669 3132.51 257.256 3134.4 256.834 3136.28 255.999 3137.96 254.948 3139.85 253.476 3139.85 253.476 3141.32 251.805 3142.16 249.911 3142.78 247.819 3142.99 245.511 3142.99 245.511 3142.78 243.625 3142.58 241.731 3141.95 240.061 3141.11 238.166 3140.27 236.703 3139.22 235.024 3138.17 233.56 3136.91 232.087 3136.91 232.087 3135.45 230.83 3133.98 229.78 3132.3 228.729 3130.63 227.687 3128.95 227.059 3127.05 226.43 3125.38 226.215 3123.49 226.008 3123.49 226.008 3121.19 226.215 3119.09 226.844 3117.2 227.687 3115.52 229.151 3115.52 229.151 3114.05 230.83 3113.01 232.716 3112.38 234.395 3111.96 236.281 3111.33 238.166 3110.7 239.845 3109.86 241.731 3108.39 243.204 3108.39 243.204 3106.09 245.511 3103.99 246.975 3102.1 247.819 3100.42 248.232 3098.75 248.232 3097.28 247.819 3095.81 246.768 3094.34 245.718 3092.88 244.039 3091.41 242.368 3088.26 238.166 3084.48 233.56 3082.39 231.037 3080.08 228.523 3080.08 228.523 3078.83 227.472 3077.15 226.637 3075.68 226.215 3074 226.008 3074 226.008 3073.16 226.215 3071.9 226.844 3067.92 229.151 3065.61 230.624 3063.09 232.509 3060.37 234.395 3057.85 236.703 3055.54 239.01 3053.45 241.525 3051.77 244.039 3051.14 245.305 3050.72 246.768 3050.31 248.025 3050.09 249.283 3050.09 250.54 3050.31 252.012 3050.72 253.269 3051.35 254.526 3052.19 255.783 3053.24 257.041 3053.24 257.041 3054.91 258.306 3056.59 259.142 3058.27 259.977 3060.16 260.399 3062.04 260.821 3063.94 261.656 3065.61 262.5 3067.29 263.963 3067.29 263.963 3068.76 265.642 3069.6 267.528 3070.22 269.629 3070.44 272.143 3070.44 272.143 3070.22 273.822 3070.02 275.708 3069.39 277.387 3068.76 279.066 3067.92 280.737 3066.87 282.416 3065.61 283.888 3064.35 285.352 3064.35 285.352 3062.89 286.609 3061.42 287.875 3059.95 288.71 3058.27 289.76 3056.59 290.389 3054.71 291.018 3052.82 291.224 3051.14 291.44 3051.14 291.44 3048.84 291.224 3046.74 290.596 3044.64 289.76 3042.96 288.288 3042.96 288.288 3041.5 286.609 3040.45 284.723 3039.82 282.838 3039.19 280.952 3038.77 279.273 3038.14 277.594 3037.31 275.915 3036.04 274.236 3036.04 274.236 3034.78 273.194 3033.53 272.35 3032.27 271.721 3031.01 271.308 3029.54 271.093 3028.28 271.093 3027.03 271.308 3025.77 271.721 3024.3 272.143 3023.04 272.772 3020.52 274.451 3018.01 276.543 3015.7 278.851 3013.4 281.374 3011.51 284.095 3009.62 286.609 3008.15 288.917 3005.84 292.903 3005.22 294.16 3005.01 295.004 3005.01 295.004 3005.22 296.675 3005.64 298.147 3006.47 299.826 3007.52 301.083 3007.52 301.083 3010.04 303.391 3012.56 305.483 3017.17 309.263 3021.37 312.406 3023.04 313.878 3024.72 315.342 3025.77 316.815 3026.82 318.278 3027.24 319.751 3027.24 321.421 3026.82 323.1 3025.98 324.986 3024.51 327.087 3022.2 329.395 3022.2 329.395 3020.74 330.858 3019.06 331.702 3017.17 332.331 3015.5 332.753 3013.6 333.166 3011.72 334.01 3010.04 335.052 3008.15 336.524 3008.15 336.524 3006.69 338.203 3005.84 340.089 3005.22 342.181 3005.01 344.489 3005.01 344.489 3005.22 346.383 3005.43 348.269 3006.06 349.948 3006.89 351.833 3007.74 353.297 3008.78 354.976 3009.83 356.449 3011.09 357.912 3011.09 357.912 3012.56 359.17 3014.02 360.22 3015.7 361.271 3017.38 362.321 3019.06 362.95 3020.95 363.578 3022.63 363.785 3024.51 363.991 3024.51 363.991 3026.82 363.785 3028.91 363.156 3030.81 362.321 3032.48 360.849 3032.48 360.849 3033.95 359.17 3035 357.284 3035.63 355.605 3036.04 353.719 3036.68 351.833 3037.31 350.154 3038.14 348.269 3039.61 346.796 3039.61 346.796 3041.91 344.704 3044.01 343.025 3045.9 342.181 3047.58 341.768 3049.26 341.768 3050.72 342.181 3052.19 343.232 3053.66 344.282 3055.13 345.961 3056.59 347.64 3059.75 351.833 3063.52 356.449 3065.61 358.963 3067.92 361.477 3067.92 361.477 3069.18 362.528 3070.85 363.363 3072.33 363.785 3074 363.991 3074 363.991 3074.84 363.785 3076.1 363.156 3080.08 360.849 3082.39 359.385 3084.91 357.49 3087.63 355.605 3090.15 353.297 3092.46 350.99 3094.55 348.475 3096.23 345.961 3096.86 344.704 3097.28 343.232 3097.7 341.974 3097.91 340.717 3097.91 339.46 3097.7 337.988 3097.28 336.731 3096.65 335.474 3095.81 334.216 3094.76 332.959 3094.76 332.959 3093.08 331.702 3091.41 330.858 3089.73 330.23 3087.84 329.601 3085.96 329.179 3084.07 328.344 3082.39 327.509 3080.71 326.036 3080.71 326.036 3079.25 324.357 3078.4 322.472 3077.78 320.379 3077.57 317.856 3077.57 317.856 3077.78 316.177 3077.98 314.292 3078.61 312.613 3079.25 310.942 3080.08 309.263 3081.13 307.584 3082.39 306.112 3083.65 304.648 3083.65 304.648 3085.11 303.391 3086.58 302.34 3088.05 301.29 3089.73 300.239 3091.41 299.611 3093.29 298.982 3095.19 298.776 3096.86 298.569 3096.86 298.569 3099.16 298.776 3101.26 299.404 3103.36 300.239 3105.04 301.712 3105.04 301.712 3106.51 303.391 3107.55 305.277 3108.19 307.162 3108.82 309.048 3109.23 310.727 3109.86 312.406 3110.7 314.085 3111.96 315.764 3111.96 315.764 3113.22 316.815 3114.47 317.65 3115.73 318.278 3116.99 318.7 3118.46 318.907 3119.72 318.907 3120.97 318.7 3122.23 318.278 3123.7 317.856 3124.96 317.228 3127.48 315.549 3129.99 313.456 3132.3 311.149 3134.6 308.635 3136.49 305.905 3138.38 303.391 3139.85 301.083 3142.16 297.097 3142.78 295.839 3142.99 295.004 3142.99 295.004 3142.78 293.325 3142.36 291.853 3141.53 290.174 3140.48 288.917 3140.48 288.917 3137.96 286.609 3135.45 284.517 3130.83 280.737 3126.64 277.594 3124.96 276.13 3123.28 274.658 3122.23 273.194 3121.19 271.721 3120.77 270.258 3120.77 268.579 3121.19 266.9 3122.02 265.014 3123.49 262.913 3125.8 260.605 3125.8 260.605Z" stroke="#FFFFFF" stroke-width="4.39386" stroke-linecap="round" stroke-linejoin="round" stroke-miterlimit="10" fill="none" fill-rule="evenodd"/><path d="M2786 150.5C2786 87.8158 2836.59 37.0001 2899 37.0001 2961.41 37.0001 3012 87.8158 3012 150.5 3012 213.184 2961.41 264 2899 264 2836.59 264 2786 213.184 2786 150.5Z" fill="#C9944B" fill-rule="evenodd" fill-opacity="0.796078"/><path d="M2916 208 2916 201.008 2882 201.008 2882 208 2916 208Z" stroke="#FFFFFF" stroke-width="4.39386" stroke-linecap="round" stroke-linejoin="round" stroke-miterlimit="10" fill="none" fill-rule="evenodd"/><path d="M2916 200.991 2916 193 2882 193 2882 200.991 2916 200.991Z" stroke="#FFFFFF" stroke-width="4.39386" stroke-linecap="round" stroke-linejoin="round" stroke-miterlimit="10" fill="none" fill-rule="evenodd"/><path d="M2882 208.008 2882 209.431 2882 209.431 2882.2 210.661 2882.81 211.883 2883.62 212.895 2884.83 213.515 2897.58 217.791 2897.58 217.791 2899 217.992 2899 217.992 2900.41 217.791 2913.17 213.515 2913.17 213.515 2914.38 212.895 2915.19 211.883 2915.79 210.661 2916 209.431 2916 208.008 2882 208.008Z" stroke="#FFFFFF" stroke-width="4.39386" stroke-linecap="round" stroke-linejoin="round" stroke-miterlimit="10" fill="none" fill-rule="evenodd"/><path d="M2889.99 184.992 2889.99 184.992 2883.55 152.91 2879.01 129.008" stroke="#FFFFFF" stroke-width="4.39386" stroke-linecap="round" stroke-linejoin="round" stroke-miterlimit="10" fill="none" fill-rule="evenodd"/><path d="M2916.42 184.992 2916.42 184.992 2917.43 180.547 2918.84 176.31 2920.45 172.272 2922.26 168.631 2924.28 165.199 2926.29 161.766 2930.72 155.306 2932.94 152.072 2934.95 148.847 2936.77 145.613 2938.58 141.981 2939.98 138.341 2940.99 134.303 2941.59 130.065 2941.79 127.843 2942 125.621 2942 125.621 2941.59 121.176 2940.99 116.939 2939.98 112.893 2938.58 109.062 2936.77 105.222 2934.75 101.79 2932.13 98.5557 2929.51 95.5291 2926.49 92.7015 2923.27 90.2802 2919.64 88.257 2916.02 86.441 2912.19 85.0231 2907.96 83.8124 2903.93 83.2071 2899.5 83.0081 2899.5 83.0081 2895.07 83.2071 2891.04 83.8124 2886.81 85.0231 2882.98 86.441 2879.35 88.257 2875.73 90.2802 2872.51 92.7015 2869.49 95.5291 2866.87 98.5557 2864.25 101.79 2862.23 105.222 2860.42 109.062 2859.02 112.893 2858.01 116.939 2857.41 121.176 2857 125.621 2857 125.621 2857.2 127.843 2857.41 130.065 2858.01 134.303 2859.02 138.341 2860.42 141.981 2862.23 145.613 2864.05 148.847 2866.06 152.072 2868.28 155.306 2872.71 161.766 2874.72 165.199 2876.74 168.631 2878.55 172.272 2880.16 176.31 2881.57 180.547 2882.58 184.992" stroke="#FFFFFF" stroke-width="4.39386" stroke-linecap="round" stroke-linejoin="round" stroke-miterlimit="10" fill="none" fill-rule="evenodd"/><path d="M2919.99 129.008 2919.99 129.008 2915.04 152.91 2908.01 184.992" stroke="#FFFFFF" stroke-width="4.39386" stroke-linecap="round" stroke-linejoin="round" stroke-miterlimit="10" fill="none" fill-rule="evenodd"/><path d="M2884.01 127.655 2890.9 134 2897.79 127.655 2897.79 127.655 2898.39 127.224 2899 127 2899.61 127.224 2900.21 127.655 2907.1 134 2913.99 127.655" stroke="#FFFFFF" stroke-width="4.39386" stroke-linecap="round" stroke-linejoin="round" stroke-miterlimit="10" fill="none" fill-rule="evenodd"/><path d="M2882 187 2916 187" stroke="#FFFFFF" stroke-width="4.39386" stroke-linecap="round" stroke-linejoin="round" stroke-miterlimit="10" fill="none" fill-rule="evenodd"/></g></svg>