<svg width="540" height="417" xmlns="http://www.w3.org/2000/svg" xmlns:xlink="http://www.w3.org/1999/xlink" xml:space="preserve" overflow="hidden"><defs><clipPath id="clip0"><rect x="2786" y="37" width="540" height="417"/></clipPath></defs><g clip-path="url(#clip0)" transform="translate(-2786 -37)"><path d="M2916 295C2916 207.187 2986.96 136 3074.5 136 3162.04 136 3233 207.187 3233 295 3233 382.813 3162.04 454 3074.5 454 2986.96 454 2916 382.813 2916 295Z" fill="#B55C36" fill-rule="evenodd"/><path d="M3221 95.9999C3221 66.7288 3244.51 43 3273.5 43 3302.5 43 3326 66.7288 3326 95.9999 3326 125.271 3302.5 149 3273.5 149 3244.51 149 3221 125.271 3221 95.9999Z" fill="#77ACBD" fill-rule="evenodd"/><path d="M2788 315.5C2788 294.237 2805.24 277 2826.5 277 2847.76 277 2865 294.237 2865 315.5 2865 336.763 2847.76 354 2826.5 354 2805.24 354 2788 336.763 2788 315.5Z" fill="#3B6C88" fill-rule="evenodd"/><path d="M3221 180C3221 170.611 3228.39 163 3237.5 163 3246.61 163 3254 170.611 3254 180 3254 189.389 3246.61 197 3237.5 197 3228.39 197 3221 189.389 3221 180Z" fill="#3B6C88" fill-rule="evenodd"/><path d="M2786 150.5C2786 87.8158 2836.59 37.0001 2899 37.0001 2961.41 37.0001 3012 87.8158 3012 150.5 3012 213.184 2961.41 264 2899 264 2836.59 264 2786 213.184 2786 150.5Z" fill="#C9944B" fill-rule="evenodd" fill-opacity="0.796078"/><path d="M2886.42 91.007 2886.42 91.007 2884.23 91.1728 2882.04 91.3386 2879.85 91.5113 2877.66 92.0157 2875.65 92.52 2873.63 93.0243 2871.61 93.6945 2869.59 94.5373 2867.57 95.3801 2865.72 96.3888 2863.87 97.3975 2862.19 98.4061 2858.82 100.928 2855.79 103.795 2852.93 106.821 2850.41 110.185 2849.23 112.037 2848.22 113.888 2847.21 115.74 2846.36 117.591 2845.69 119.609 2845.02 121.626 2844.35 123.643 2843.84 125.833 2843.5 127.851 2843.17 130.041 2843 132.231 2843 134.58 2843 134.58 2843 136.77 2843.17 138.96 2843.5 141.143 2843.84 143.333 2844.35 145.35 2845.02 147.54 2845.69 149.557 2846.36 151.409 2847.21 153.426 2848.22 155.278 2849.23 157.129 2850.41 158.815 2852.93 162.179 2855.79 165.205 2858.82 168.066 2862.19 170.587 2863.87 171.769 2865.72 172.777 2867.57 173.786 2869.59 174.629 2871.61 175.299 2873.63 175.976 2875.65 176.646 2877.66 177.15 2879.85 177.489 2882.04 177.827 2884.23 177.993 2886.42 177.993 2886.42 177.993 2888.77 177.993 2890.96 177.827 2893.15 177.489 2895.16 177.15 2897.35 176.646 2899.37 175.976 2901.39 175.299 2903.41 174.629 2905.27 173.786 2907.11 172.777 2908.96 171.769 2910.81 170.587 2914.18 168.066 2917.21 165.205 2920.07 162.179 2922.59 158.815 2923.6 157.129 2924.61 155.278 2925.62 153.426 2926.46 151.409 2927.31 149.557 2927.98 147.54 2928.65 145.35 2928.99 143.333 2929.5 141.143 2929.66 138.96 2929.83 136.77 2930 134.58 2930 134.58 2929.83 132.231 2929.66 130.041 2929.5 127.851 2928.99 125.833 2928.65 123.643 2927.98 121.626 2927.31 119.609 2926.46 117.591 2925.62 115.74 2924.61 113.888 2923.6 112.037 2922.59 110.185 2920.07 106.821 2917.21 103.795 2914.18 100.928 2910.81 98.4061 2908.96 97.3975 2907.11 96.3888 2905.27 95.3801 2903.41 94.5373 2901.39 93.6945 2899.37 93.0243 2897.35 92.52 2895.16 92.0157 2893.15 91.5113 2890.96 91.3386 2888.77 91.1728 2886.42 91.007 2886.42 91.007Z" stroke="#FFFFFF" stroke-width="4.39386" stroke-linecap="round" stroke-linejoin="round" stroke-miterlimit="10" fill="none" fill-rule="evenodd"/><path d="M2886.42 101.007 2886.42 101.007 2883.04 101.173 2879.67 101.679 2876.46 102.524 2873.42 103.709 2870.55 105.053 2867.86 106.744 2865.15 108.767 2862.79 110.963 2860.59 113.326 2858.74 115.855 2857.05 118.557 2855.7 121.592 2854.52 124.634 2853.68 127.835 2853.17 131.043 2853.01 134.583 2853.01 134.583 2853.17 137.964 2853.68 141.339 2854.52 144.54 2855.7 147.581 2857.05 150.45 2858.74 153.152 2860.59 155.847 2862.79 158.21 2865.15 160.406 2867.86 162.263 2870.55 163.947 2873.42 165.298 2876.46 166.483 2879.67 167.321 2883.04 167.827 2886.42 168 2886.42 168 2889.96 167.827 2893.17 167.321 2896.37 166.483 2899.41 165.298 2902.44 163.947 2905.15 162.263 2907.68 160.406 2910.04 158.21 2912.23 155.847 2914.26 153.152 2915.95 150.45 2917.3 147.581 2918.48 144.54 2919.32 141.339 2919.83 137.964 2919.99 134.583 2919.99 134.583 2919.83 131.043 2919.32 127.835 2918.48 124.634 2917.3 121.592 2915.95 118.557 2914.26 115.855 2912.23 113.326 2910.04 110.963 2907.68 108.767 2905.15 106.744 2902.44 105.053 2899.41 103.709 2896.37 102.524 2893.17 101.679 2889.96 101.173 2886.42 101.007 2886.42 101.007" stroke="#FFFFFF" stroke-width="4.39386" stroke-linecap="round" stroke-linejoin="round" stroke-miterlimit="10" fill="none" fill-rule="evenodd"/><path d="M2863 134.993 2863 134.993 2863.17 132.406 2863.5 130.166 2864 127.749 2864.82 125.672 2865.81 123.432 2866.97 121.533 2868.3 119.633 2869.79 117.904 2871.44 116.351 2873.26 114.969 2875.08 113.764 2877.07 112.73 2879.21 112.035 2881.37 111.347 2883.68 111 2886 111" stroke="#FFFFFF" stroke-width="4.39386" stroke-linecap="round" stroke-linejoin="round" stroke-miterlimit="10" fill="none" fill-rule="evenodd"/><path d="M2913 171.172 2947.67 205.97 2947.67 205.97 2948.18 206.314 2948.69 206.657 2949.37 206.825 2950.05 206.993 2950.73 206.825 2951.24 206.657 2951.92 206.314 2952.43 205.97 2954.98 203.414 2954.98 203.414 2955.49 202.902 2955.83 202.216 2956 201.537 2956 201.025 2956 200.339 2955.83 199.659 2955.49 199.148 2954.98 198.469 2920.48 164.007" stroke="#FFFFFF" stroke-width="4.39386" stroke-linecap="round" stroke-linejoin="round" stroke-miterlimit="10" fill="none" fill-rule="evenodd"/><path d="M3091.42 321.003 3091.42 321.003 3088.15 320.747 3088.15 309.497 3088.15 309.497 3091.42 307.249 3094.7 304.745 3097.73 302.004 3100.76 298.997 3103.28 295.496 3105.55 291.75 3107.82 288.003 3109.6 283.754 3109.6 283.754 3110.35 284 3110.35 284 3111.86 284 3113.13 283.251 3114.38 282.255 3115.4 280.5 3116.4 278.755 3117.42 276.497 3117.92 274.003 3118.42 271.252 3118.42 271.252 3118.67 268.747 3118.42 266.253 3118.18 264.252 3117.67 262.25 3117.16 260.505 3116.4 259.007 3115.4 258.001 3114.13 257.251 3114.13 257.251 3114.89 253.505 3115.14 250.005 3115.14 246.751 3115.14 243.754 3114.89 240.757 3114.38 238.006 3113.63 235.501 3112.87 233.007 3111.86 230.749 3110.85 228.501 3109.6 226.499 3108.08 224.754 3106.56 222.999 3105.05 221.501 3101.77 218.75 3097.98 216.758 3094.2 214.757 3090.41 213.505 3086.62 212.499 3082.84 211.749 3079.31 211.257 3076.02 211 3072.99 211 3072.99 211 3069.46 211.257 3066.44 212.006 3063.91 212.755 3061.64 214.008 3059.62 215.003 3058.1 216.502 3056.59 217.754 3055.59 219.006 3055.59 219.006 3055.59 219.006 3055.59 219.006 3051.54 219.756 3047.76 221.008 3044.48 222.753 3041.7 224.508 3039.18 226.756 3037.16 229.004 3035.65 231.755 3034.38 234.506 3033.37 237.256 3032.61 240.007 3032.11 243.004 3031.61 246.002 3031.61 248.999 3031.61 251.75 3032.11 257.005 3032.11 257.005 3032.11 257.251 3032.11 257.251 3030.85 257.754 3029.84 258.75 3029.08 260.249 3028.32 262.004 3027.82 264.005 3027.56 266.253 3027.32 268.747 3027.56 271.252 3027.56 271.252 3028.07 274.003 3028.58 276.497 3029.59 278.755 3030.6 280.5 3031.61 282.255 3032.87 283.251 3034.13 284 3035.65 284 3035.65 284 3036.4 283.754 3036.4 283.754 3038.17 288.003 3040.44 291.75 3042.71 295.496 3045.49 298.997 3048.26 302.004 3051.3 304.745 3054.57 307.249 3057.85 309.497 3057.85 320.501 3057.85 320.501 3052.55 321.003 3052.55 321.003 3046.5 321.999 3040.69 323.251 3034.89 324.504 3029.34 326.249 3024.29 328.25 3019.49 330.498 3014.95 333.003 3010.91 335.743 3007.13 338.494 3003.84 341.748 3001.07 345.248 2998.55 348.748 2996.78 352.751 2995.26 356.744 2994.51 361.25 2994 365.746 2994 365.746 2994.51 366.249 2996.53 367.245 2998.29 367.994 3000.56 369 3003.34 369.995 3007.13 370.745 3011.67 371.751 3016.96 372.746 3023.27 373.496 3030.85 374.491 3039.43 374.994 3049.02 375.497 3060.12 375.743 3072.75 376 3072.75 376 3085.11 375.743 3096.22 375.497 3106.06 374.994 3114.64 374.491 3122.21 373.496 3128.52 372.746 3134.07 371.751 3138.61 370.745 3142.4 369.995 3145.43 369 3147.7 367.994 3149.47 367.245 3151.23 366.249 3151.99 365.746 3151.99 365.746 3151.49 360.994 3150.74 356.498 3149.47 352.248 3147.7 348.245 3145.18 344.499 3142.4 340.999 3139.12 338.001 3135.34 334.994 3131.3 332.253 3126.76 329.995 3121.71 327.747 3116.4 326.002 3110.6 324.247 3104.55 322.995 3097.98 321.753 3091.42 321.003 3091.42 321.003Z" stroke="#FFFFFF" stroke-width="4.39386" stroke-linecap="round" stroke-linejoin="round" stroke-miterlimit="10" fill="none" fill-rule="evenodd"/></g></svg>