<svg width="540" height="417" xmlns="http://www.w3.org/2000/svg" xmlns:xlink="http://www.w3.org/1999/xlink" xml:space="preserve" overflow="hidden"><defs><clipPath id="clip0"><rect x="2786" y="37" width="540" height="417"/></clipPath></defs><g clip-path="url(#clip0)" transform="translate(-2786 -37)"><path d="M2916 295C2916 207.187 2986.96 136 3074.5 136 3162.04 136 3233 207.187 3233 295 3233 382.813 3162.04 454 3074.5 454 2986.96 454 2916 382.813 2916 295Z" fill="#B55C36" fill-rule="evenodd"/><path d="M3221 95.9999C3221 66.7288 3244.51 43 3273.5 43 3302.5 43 3326 66.7288 3326 95.9999 3326 125.271 3302.5 149 3273.5 149 3244.51 149 3221 125.271 3221 95.9999Z" fill="#77ACBD" fill-rule="evenodd"/><path d="M2788 315.5C2788 294.237 2805.24 277 2826.5 277 2847.76 277 2865 294.237 2865 315.5 2865 336.763 2847.76 354 2826.5 354 2805.24 354 2788 336.763 2788 315.5Z" fill="#3B6C88" fill-rule="evenodd"/><path d="M3221 180C3221 170.611 3228.39 163 3237.5 163 3246.61 163 3254 170.611 3254 180 3254 189.389 3246.61 197 3237.5 197 3228.39 197 3221 189.389 3221 180Z" fill="#3B6C88" fill-rule="evenodd"/><path d="M2786 150.5C2786 87.8158 2836.59 37.0001 2899 37.0001 2961.41 37.0001 3012 87.8158 3012 150.5 3012 213.184 2961.41 264 2899 264 2836.59 264 2786 213.184 2786 150.5Z" fill="#C9944B" fill-rule="evenodd" fill-opacity="0.796078"/><path d="M3074.51 211 3074.51 211 3070.28 211 3066.06 211.53 3061.85 212.061 3057.89 212.591 3053.94 213.641 3049.99 214.69 3046.04 216.011 3042.35 217.591 3038.66 219.171 3035.23 221.021 3031.8 222.861 3028.38 224.971 3025.21 227.341 3022.05 229.722 3019.15 232.351 3016.25 235.252 3013.35 238.152 3010.72 241.052 3008.35 244.212 3005.98 247.372 3003.87 250.803 3002.02 254.233 3000.18 257.653 2998.6 261.343 2997.01 265.033 2995.7 268.983 2994.64 272.944 2993.59 276.894 2993.06 280.844 2992.53 285.064 2992.01 289.285 2992.01 293.495 2992.01 293.495 2992.01 297.715 2992.53 301.936 2993.06 306.156 2993.59 310.106 2994.64 314.056 2995.7 318.017 2997.01 321.967 2998.6 325.657 3000.18 329.347 3002.02 332.767 3003.87 336.197 3005.98 339.628 3008.35 342.788 3010.72 345.948 3013.35 348.848 3016.25 351.748 3019.15 354.649 3022.05 357.278 3025.21 359.659 3028.38 362.029 3031.8 364.139 3035.23 365.979 3038.66 367.83 3042.35 369.41 3046.04 370.99 3049.99 372.31 3053.94 373.36 3057.89 374.409 3061.85 374.94 3066.06 375.47 3070.28 376 3074.51 376 3074.51 376 3078.73 376 3082.94 375.47 3087.16 374.94 3091.11 374.409 3095.07 373.36 3099.02 372.31 3102.97 370.99 3106.66 369.41 3110.35 367.83 3113.78 365.979 3117.2 364.139 3120.63 362.029 3123.79 359.659 3126.95 357.278 3129.85 354.649 3132.75 351.748 3135.65 348.848 3138.29 345.948 3140.66 342.788 3143.03 339.628 3145.14 336.197 3146.98 332.767 3148.83 329.347 3150.41 325.657 3151.99 321.967 3153.31 318.017 3154.36 314.056 3155.42 310.106 3155.95 306.156 3156.47 301.936 3157 297.715 3157 293.495 3157 293.495 3157 289.285 3156.47 285.064 3155.95 280.844 3155.42 276.894 3154.36 272.944 3153.31 268.983 3151.99 265.033 3150.41 261.343 3148.83 257.653 3146.98 254.233 3145.14 250.803 3143.03 247.372 3140.66 244.212 3138.29 241.052 3135.65 238.152 3132.75 235.252 3129.85 232.351 3126.95 229.722 3123.79 227.341 3120.63 224.971 3117.2 222.861 3113.78 221.021 3110.35 219.171 3106.66 217.591 3102.97 216.011 3099.02 214.69 3095.07 213.641 3091.11 212.591 3087.16 212.061 3082.94 211.53 3078.73 211 3074.51 211 3074.51 211" stroke="#FFFFFF" stroke-width="4.39386" stroke-linecap="round" stroke-linejoin="round" stroke-miterlimit="10" fill="none" fill-rule="evenodd"/><path d="M3108.49 284 3108.49 284 3110.35 284.276 3112.19 284.806 3113.77 285.889 3115.35 286.96 3116.41 288.573 3117.2 290.462 3117.73 292.34 3117.99 294.494 3117.99 294.494 3117.73 296.649 3117.2 298.538 3116.41 300.415 3115.35 302.028 3113.77 303.111 3112.19 304.182 3110.35 304.724 3108.49 304.989 3108.49 304.989 3106.65 304.724 3104.8 304.182 3103.22 303.111 3101.64 302.028 3100.59 300.415 3099.8 298.538 3099.27 296.649 3099 294.494 3099 294.494 3099.27 292.34 3099.8 290.462 3100.59 288.573 3101.64 286.96 3103.22 285.889 3104.8 284.806 3106.65 284.276 3108.49 284 3108.49 284" stroke="#FFFFFF" stroke-width="4.39386" stroke-linecap="round" stroke-linejoin="round" stroke-miterlimit="10" fill="none" fill-rule="evenodd"/><path d="M3040.49 304.989 3040.49 304.989 3038.65 304.724 3036.8 304.182 3035.22 303.111 3033.64 302.028 3032.59 300.415 3031.8 298.538 3031.27 296.649 3031.01 294.494 3031.01 294.494 3031.27 292.34 3031.8 290.462 3032.59 288.573 3033.64 286.96 3035.22 285.889 3036.8 284.806 3038.65 284.276 3040.49 284 3040.49 284 3042.35 284.276 3044.19 284.806 3045.78 285.889 3047.36 286.96 3048.41 288.573 3049.2 290.462 3049.73 292.34 3049.99 294.494 3049.99 294.494 3049.73 296.649 3049.2 298.538 3048.41 300.415 3047.36 302.028 3045.78 303.111 3044.19 304.182 3042.35 304.724 3040.49 304.989 3040.49 304.989" stroke="#FFFFFF" stroke-width="4.39386" stroke-linecap="round" stroke-linejoin="round" stroke-miterlimit="10" fill="none" fill-rule="evenodd"/><path d="M3073.01 337.989 3116 324" stroke="#FFFFFF" stroke-width="4.39386" stroke-linecap="round" stroke-linejoin="round" stroke-miterlimit="10" fill="none" fill-rule="evenodd"/><g><g><g><path d="M2945.29 91.1573C2926.7 96.3359 2914.71 94.4402 2903.12 92.608 2897.07 91.4972 2890.93 90.8759 2884.78 90.75 2873.73 90.75 2866.75 93.0359 2863.25 94.6069L2863.25 90.9219C2863.25 89.9726 2862.48 89.2031 2861.53 89.2031 2860.58 89.2031 2859.81 89.9726 2859.81 90.9219L2859.81 228.25 2863.25 228.25 2863.25 155.317C2865.36 154.172 2872.19 151.078 2884.78 151.078 2891.18 151.266 2897.56 151.999 2903.84 153.268 2917.15 155.552 2930.92 157.908 2946.43 151.283L2947.47 150.837 2947.47 90.5489ZM2944.03 148.555C2929.86 154.244 2916.93 152.025 2904.42 149.878 2897.95 148.582 2891.38 147.835 2884.78 147.644 2873.68 147.644 2866.74 149.908 2863.25 151.479L2863.25 98.4345C2865.41 97.2812 2872.32 94.1875 2884.78 94.1875 2890.75 94.3088 2896.71 94.9164 2902.58 96.0042 2914.08 97.8209 2925.96 99.6995 2944.03 95.052Z" fill="#FFFFFF"/></g></g></g></g></svg>